<?xml version="1.0" encoding="UTF-8" standalone="no"?>
<svg width="94.1917mm" height="73.025mm"
 viewBox="0 0 267 207"
 xmlns="http://www.w3.org/2000/svg" xmlns:xlink="http://www.w3.org/1999/xlink"  version="1.2" baseProfile="tiny">
<title>Qt SVG Document</title>
<desc>MATLAB, The MathWorks, Inc. Version 25.2.0.3123386 R2025b Update 3</desc>
<defs>
</defs>
<g fill="none" stroke="black" stroke-width="1" fill-rule="evenodd" stroke-linecap="square" stroke-linejoin="bevel" >

<g fill="#ffffff" fill-opacity="1" stroke="none" transform="matrix(0.75,0,0,0.75,-8.3,-11.625)"
font-family="MS Shell Dlg 2" font-size="8.25" font-weight="400" font-style="normal" 
>
<path vector-effect="none" fill-rule="evenodd" d="M10,14 L367,14 L367,291 L10,291 L10,14"/>
</g>

<g fill="#ffffff" fill-opacity="1" stroke="none" transform="matrix(7.5e-05,0,0,7.5e-05,-8.3,-11.625)"
font-family="MS Shell Dlg 2" font-size="8.25" font-weight="400" font-style="normal" 
>
<path vector-effect="none" fill-rule="evenodd" d="M530000,220000 L530000,1.31e+06 L3.62e+06,1.31e+06 L3.62e+06,220000 L530000,220000"/>
</g>

<g fill="#212121" fill-opacity="0.14902" stroke="#212121" stroke-opacity="0.14902" stroke-width="0.666667" stroke-linecap="butt" stroke-linejoin="round" transform="matrix(0.75,0,0,0.75,-8.3,-11.625)"
font-family="MS Shell Dlg 2" font-size="8.25" font-weight="400" font-style="normal" 
>
<polyline fill="none" vector-effect="none" points="53,22 53,131 " />
<polyline fill="none" vector-effect="none" points="104.5,22 104.5,131 " />
<polyline fill="none" vector-effect="none" points="156,22 156,131 " />
<polyline fill="none" vector-effect="none" points="207.5,22 207.5,131 " />
<polyline fill="none" vector-effect="none" points="259,22 259,131 " />
<polyline fill="none" vector-effect="none" points="310.5,22 310.5,131 " />
<polyline fill="none" vector-effect="none" points="362,22 362,131 " />
<polyline fill="none" vector-effect="none" points="53,131 362,131 " />
<polyline fill="none" vector-effect="none" points="53,76.5036 362,76.5036 " />
<polyline fill="none" vector-effect="none" points="53,22.0072 362,22.0072 " />
</g>

<g fill="#212121" fill-opacity="1" stroke="#212121" stroke-opacity="1" stroke-width="0.666667" stroke-linecap="square" stroke-linejoin="round" transform="matrix(0.75,0,0,0.75,-8.3,-11.625)"
font-family="MS Shell Dlg 2" font-size="8.25" font-weight="400" font-style="normal" 
>
<polyline fill="none" vector-effect="none" points="53,131 362,131 " />
<polyline fill="none" vector-effect="none" points="53,22 362,22 " />
<polyline fill="none" vector-effect="none" points="53,131 53,127.91 " />
<polyline fill="none" vector-effect="none" points="53,25.09 53,22 " />
<polyline fill="none" vector-effect="none" points="104.5,131 104.5,127.91 " />
<polyline fill="none" vector-effect="none" points="104.5,25.09 104.5,22 " />
<polyline fill="none" vector-effect="none" points="156,131 156,127.91 " />
<polyline fill="none" vector-effect="none" points="156,25.09 156,22 " />
<polyline fill="none" vector-effect="none" points="207.5,131 207.5,127.91 " />
<polyline fill="none" vector-effect="none" points="207.5,25.09 207.5,22 " />
<polyline fill="none" vector-effect="none" points="259,131 259,127.91 " />
<polyline fill="none" vector-effect="none" points="259,25.09 259,22 " />
<polyline fill="none" vector-effect="none" points="310.5,131 310.5,127.91 " />
<polyline fill="none" vector-effect="none" points="310.5,25.09 310.5,22 " />
<polyline fill="none" vector-effect="none" points="362,131 362,127.91 " />
<polyline fill="none" vector-effect="none" points="362,25.09 362,22 " />
</g>

<g fill="#212121" fill-opacity="1" stroke="#212121" stroke-opacity="1" stroke-width="1" stroke-linecap="square" stroke-linejoin="bevel" transform="matrix(0.75,0,0,0.75,29.2,96.325)"
font-family="Helvetica" font-size="11" font-weight="400" font-style="normal" 
>
<text fill="#212121" fill-opacity="1" stroke="none" xml:space="preserve" x="0" y="0" font-family="Helvetica" font-size="11" font-weight="400" font-style="normal" 
 >0</text>
</g>

<g fill="#212121" fill-opacity="1" stroke="#212121" stroke-opacity="1" stroke-width="1" stroke-linecap="square" stroke-linejoin="bevel" transform="matrix(0.75,0,0,0.75,64.45,96.325)"
font-family="Helvetica" font-size="11" font-weight="400" font-style="normal" 
>
<text fill="#212121" fill-opacity="1" stroke="none" xml:space="preserve" x="0" y="0" font-family="Helvetica" font-size="11" font-weight="400" font-style="normal" 
 >0.5</text>
</g>

<g fill="#212121" fill-opacity="1" stroke="#212121" stroke-opacity="1" stroke-width="1" stroke-linecap="square" stroke-linejoin="bevel" transform="matrix(0.75,0,0,0.75,106.45,96.325)"
font-family="Helvetica" font-size="11" font-weight="400" font-style="normal" 
>
<text fill="#212121" fill-opacity="1" stroke="none" xml:space="preserve" x="0" y="0" font-family="Helvetica" font-size="11" font-weight="400" font-style="normal" 
 >1</text>
</g>

<g fill="#212121" fill-opacity="1" stroke="#212121" stroke-opacity="1" stroke-width="1" stroke-linecap="square" stroke-linejoin="bevel" transform="matrix(0.75,0,0,0.75,141.7,96.325)"
font-family="Helvetica" font-size="11" font-weight="400" font-style="normal" 
>
<text fill="#212121" fill-opacity="1" stroke="none" xml:space="preserve" x="0" y="0" font-family="Helvetica" font-size="11" font-weight="400" font-style="normal" 
 >1.5</text>
</g>

<g fill="#212121" fill-opacity="1" stroke="#212121" stroke-opacity="1" stroke-width="1" stroke-linecap="square" stroke-linejoin="bevel" transform="matrix(0.75,0,0,0.75,183.7,96.325)"
font-family="Helvetica" font-size="11" font-weight="400" font-style="normal" 
>
<text fill="#212121" fill-opacity="1" stroke="none" xml:space="preserve" x="0" y="0" font-family="Helvetica" font-size="11" font-weight="400" font-style="normal" 
 >2</text>
</g>

<g fill="#212121" fill-opacity="1" stroke="#212121" stroke-opacity="1" stroke-width="1" stroke-linecap="square" stroke-linejoin="bevel" transform="matrix(0.75,0,0,0.75,218.95,96.325)"
font-family="Helvetica" font-size="11" font-weight="400" font-style="normal" 
>
<text fill="#212121" fill-opacity="1" stroke="none" xml:space="preserve" x="0" y="0" font-family="Helvetica" font-size="11" font-weight="400" font-style="normal" 
 >2.5</text>
</g>

<g fill="#212121" fill-opacity="1" stroke="#212121" stroke-opacity="1" stroke-width="1" stroke-linecap="square" stroke-linejoin="bevel" transform="matrix(0.75,0,0,0.75,260.95,96.325)"
font-family="Helvetica" font-size="11" font-weight="400" font-style="normal" 
>
<text fill="#212121" fill-opacity="1" stroke="none" xml:space="preserve" x="0" y="0" font-family="Helvetica" font-size="11" font-weight="400" font-style="normal" 
 >3</text>
</g>

<g fill="#212121" fill-opacity="1" stroke="#212121" stroke-opacity="1" stroke-width="1" stroke-linecap="square" stroke-linejoin="bevel" transform="matrix(0,-0.75,0.75,0,8.25,90)"
font-family="Helvetica" font-size="12" font-weight="400" font-style="normal" 
>
<text fill="#212121" fill-opacity="1" stroke="none" xml:space="preserve" x="0" y="0" font-family="Helvetica" font-size="12" font-weight="400" font-style="normal" 
 >Angular position (rad)</text>
</g>

<g fill="#212121" fill-opacity="1" stroke="#212121" stroke-opacity="1" stroke-width="0.666667" stroke-linecap="square" stroke-linejoin="round" transform="matrix(0.75,0,0,0.75,-8.3,-11.625)"
font-family="Helvetica" font-size="12" font-weight="400" font-style="normal" 
>
<polyline fill="none" vector-effect="none" points="53,131 53,22 " />
<polyline fill="none" vector-effect="none" points="362,131 362,22 " />
<polyline fill="none" vector-effect="none" points="53,131 56.09,131 " />
<polyline fill="none" vector-effect="none" points="358.91,131 362,131 " />
<polyline fill="none" vector-effect="none" points="53,76.5036 56.09,76.5036 " />
<polyline fill="none" vector-effect="none" points="358.91,76.5036 362,76.5036 " />
<polyline fill="none" vector-effect="none" points="53,22.0072 56.09,22.0072 " />
<polyline fill="none" vector-effect="none" points="358.91,22.0072 362,22.0072 " />
</g>

<g fill="#212121" fill-opacity="1" stroke="#212121" stroke-opacity="1" stroke-width="1" stroke-linecap="square" stroke-linejoin="bevel" transform="matrix(0.75,0,0,0.75,24.75,89.25)"
font-family="Helvetica" font-size="11" font-weight="400" font-style="normal" 
>
<text fill="#212121" fill-opacity="1" stroke="none" xml:space="preserve" x="0" y="0" font-family="Helvetica" font-size="11" font-weight="400" font-style="normal" 
 >0</text>
</g>

<g fill="#212121" fill-opacity="1" stroke="#212121" stroke-opacity="1" stroke-width="1" stroke-linecap="square" stroke-linejoin="bevel" transform="matrix(0.75,0,0,0.75,13.5,48.3778)"
font-family="Helvetica" font-size="11" font-weight="400" font-style="normal" 
>
<text fill="#212121" fill-opacity="1" stroke="none" xml:space="preserve" x="0" y="0" font-family="Helvetica" font-size="11" font-weight="400" font-style="normal" 
 >0.05</text>
</g>

<g fill="#212121" fill-opacity="1" stroke="#212121" stroke-opacity="1" stroke-width="1" stroke-linecap="square" stroke-linejoin="bevel" transform="matrix(0.75,0,0,0.75,18,7.50546)"
font-family="Helvetica" font-size="11" font-weight="400" font-style="normal" 
>
<text fill="#212121" fill-opacity="1" stroke="none" xml:space="preserve" x="0" y="0" font-family="Helvetica" font-size="11" font-weight="400" font-style="normal" 
 >0.1</text>
</g>

<g fill="none" stroke="#1171be" stroke-opacity="1" stroke-width="0.666667" stroke-linecap="butt" stroke-linejoin="round" transform="matrix(0.75,0,0,0.75,-8.3,-11.625)"
font-family="Helvetica" font-size="11" font-weight="400" font-style="normal" 
>
<polyline fill="none" vector-effect="none" points="53,22.0072 53,22.0072 53.0002,22.0072 53.0009,22.0072 53.0045,22.0072 53.0224,22.0072 53.1118,22.0062 53.4479,22 53.8036,22.0113 54.3218,22.1064 55.0268,22.4559 55.9029,23.3166 56.8493,24.7945 57.4267,25.9463 58.0042,27.2355 58.6326,28.7306 59.3657,30.5171 60.2994,32.7587 61.3179,35.0843 62.3364,37.2685 63.1872,39.0053 63.9853,40.5876 64.8779,42.3265 65.9629,44.413 67.4192,47.1641 68.668,49.4593 69.9169,51.6828 71.0344,53.6102 72.0947,55.3878 73.1954,57.1842 74.3724,59.053 75.6019,60.949 76.8346,62.7926 78.0545,64.5616 79.2787,66.2831 80.5299,67.9893 81.8218,69.6959 83.1389,71.3794 84.4646,73.0178 85.7984,74.611 87.1492,76.1703 88.5288,77.7089 89.9501,79.2388 91.3982,80.7415 92.8579,82.2005 94.3303,83.6174 95.8244,85.001 97.3434,86.3545 98.8915,87.6811 100.485,88.9928 102.108,90.2749 103.746,91.5153 105.399,92.7158 107.079,93.8833 108.787,95.0204 110.524,96.1269 112.309,97.2155 114.133,98.2775 115.976,99.3021 117.835,100.289 119.72,101.244 121.637,102.169 123.584,103.065 125.557,103.93 127.557,104.765 129.582,105.57 131.662,106.359 133.792,107.127 135.946,107.865 138.114,108.572 140.307,109.252 142.533,109.909 144.793,110.543 147.079,111.152 149.391,111.738 151.73,112.302 154.099,112.844 156.495,113.366 158.919,113.868 161.369,114.351 163.835,114.813 166.335,115.259 168.877,115.693 171.457,116.113 174.054,116.517 176.702,116.91 179.389,117.291 182.086,117.657 184.784,118.006 187.499,118.342 190.243,118.667 193.015,118.982 195.801,119.284 198.597,119.574 201.408,119.854 204.239,120.124 207.09,120.385 209.956,120.636 212.831,120.878 215.719,121.112 218.621,121.337 221.538,121.555 224.468,121.765 227.406,121.968 230.354,122.164 233.313,122.353 236.283,122.536 239.263,122.712 242.25,122.883 245.245,123.049 248.247,123.208 251.258,123.363 254.278,123.512 257.303,123.657 260.335,123.797 263.371,123.933 266.414,124.064 269.464,124.192 272.519,124.315 275.576,124.435 278.641,124.551 281.721,124.665 284.814,124.776 287.91,124.885 291.002,124.99 294.093,125.092 297.192,125.193 300.303,125.291 303.419,125.387 306.531,125.481 309.638,125.572 312.747,125.661 315.866,125.749 318.994,125.835 322.122,125.918 325.242,126 328.359,126.08 331.483,126.158 334.618,126.235 337.757,126.311 340.891,126.384 344.016,126.456 347.143,126.527 350.281,126.596 353.428,126.664 356.574,126.731 359.709,126.796 362,126.842 " />
</g>

<g fill="#ffffff" fill-opacity="1" stroke="none" transform="matrix(7.5e-05,0,0,7.5e-05,-8.3,-11.625)"
font-family="Helvetica" font-size="11" font-weight="400" font-style="normal" 
>
<path vector-effect="none" fill-rule="evenodd" d="M530000,1.52e+06 L530000,2.6e+06 L3.62e+06,2.6e+06 L3.62e+06,1.52e+06 L530000,1.52e+06"/>
</g>

<g fill="#212121" fill-opacity="0.14902" stroke="#212121" stroke-opacity="0.14902" stroke-width="0.666667" stroke-linecap="butt" stroke-linejoin="round" transform="matrix(0.75,0,0,0.75,-8.3,-11.625)"
font-family="Helvetica" font-size="11" font-weight="400" font-style="normal" 
>
<polyline fill="none" vector-effect="none" points="53,152 53,260 " />
<polyline fill="none" vector-effect="none" points="104.5,152 104.5,260 " />
<polyline fill="none" vector-effect="none" points="156,152 156,260 " />
<polyline fill="none" vector-effect="none" points="207.5,152 207.5,260 " />
<polyline fill="none" vector-effect="none" points="259,152 259,260 " />
<polyline fill="none" vector-effect="none" points="310.5,152 310.5,260 " />
<polyline fill="none" vector-effect="none" points="362,152 362,260 " />
<polyline fill="none" vector-effect="none" points="53,258.969 362,258.969 " />
<polyline fill="none" vector-effect="none" points="53,229.446 362,229.446 " />
<polyline fill="none" vector-effect="none" points="53,199.924 362,199.924 " />
<polyline fill="none" vector-effect="none" points="53,170.401 362,170.401 " />
</g>

<g fill="#212121" fill-opacity="1" stroke="#212121" stroke-opacity="1" stroke-width="1" stroke-linecap="square" stroke-linejoin="bevel" transform="matrix(0.75,0,0,0.75,125.95,203.075)"
font-family="Helvetica" font-size="12" font-weight="400" font-style="normal" 
>
<text fill="#212121" fill-opacity="1" stroke="none" xml:space="preserve" x="0" y="0" font-family="Helvetica" font-size="12" font-weight="400" font-style="normal" 
 >Time (sec)</text>
</g>

<g fill="#212121" fill-opacity="1" stroke="#212121" stroke-opacity="1" stroke-width="0.666667" stroke-linecap="square" stroke-linejoin="round" transform="matrix(0.75,0,0,0.75,-8.3,-11.625)"
font-family="Helvetica" font-size="12" font-weight="400" font-style="normal" 
>
<polyline fill="none" vector-effect="none" points="53,260 362,260 " />
<polyline fill="none" vector-effect="none" points="53,152 362,152 " />
<polyline fill="none" vector-effect="none" points="53,260 53,256.91 " />
<polyline fill="none" vector-effect="none" points="53,155.09 53,152 " />
<polyline fill="none" vector-effect="none" points="104.5,260 104.5,256.91 " />
<polyline fill="none" vector-effect="none" points="104.5,155.09 104.5,152 " />
<polyline fill="none" vector-effect="none" points="156,260 156,256.91 " />
<polyline fill="none" vector-effect="none" points="156,155.09 156,152 " />
<polyline fill="none" vector-effect="none" points="207.5,260 207.5,256.91 " />
<polyline fill="none" vector-effect="none" points="207.5,155.09 207.5,152 " />
<polyline fill="none" vector-effect="none" points="259,260 259,256.91 " />
<polyline fill="none" vector-effect="none" points="259,155.09 259,152 " />
<polyline fill="none" vector-effect="none" points="310.5,260 310.5,256.91 " />
<polyline fill="none" vector-effect="none" points="310.5,155.09 310.5,152 " />
<polyline fill="none" vector-effect="none" points="362,260 362,256.91 " />
<polyline fill="none" vector-effect="none" points="362,155.09 362,152 " />
</g>

<g fill="#212121" fill-opacity="1" stroke="#212121" stroke-opacity="1" stroke-width="1" stroke-linecap="square" stroke-linejoin="bevel" transform="matrix(0.75,0,0,0.75,29.2,193.075)"
font-family="Helvetica" font-size="11" font-weight="400" font-style="normal" 
>
<text fill="#212121" fill-opacity="1" stroke="none" xml:space="preserve" x="0" y="0" font-family="Helvetica" font-size="11" font-weight="400" font-style="normal" 
 >0</text>
</g>

<g fill="#212121" fill-opacity="1" stroke="#212121" stroke-opacity="1" stroke-width="1" stroke-linecap="square" stroke-linejoin="bevel" transform="matrix(0.75,0,0,0.75,64.45,193.075)"
font-family="Helvetica" font-size="11" font-weight="400" font-style="normal" 
>
<text fill="#212121" fill-opacity="1" stroke="none" xml:space="preserve" x="0" y="0" font-family="Helvetica" font-size="11" font-weight="400" font-style="normal" 
 >0.5</text>
</g>

<g fill="#212121" fill-opacity="1" stroke="#212121" stroke-opacity="1" stroke-width="1" stroke-linecap="square" stroke-linejoin="bevel" transform="matrix(0.75,0,0,0.75,106.45,193.075)"
font-family="Helvetica" font-size="11" font-weight="400" font-style="normal" 
>
<text fill="#212121" fill-opacity="1" stroke="none" xml:space="preserve" x="0" y="0" font-family="Helvetica" font-size="11" font-weight="400" font-style="normal" 
 >1</text>
</g>

<g fill="#212121" fill-opacity="1" stroke="#212121" stroke-opacity="1" stroke-width="1" stroke-linecap="square" stroke-linejoin="bevel" transform="matrix(0.75,0,0,0.75,141.7,193.075)"
font-family="Helvetica" font-size="11" font-weight="400" font-style="normal" 
>
<text fill="#212121" fill-opacity="1" stroke="none" xml:space="preserve" x="0" y="0" font-family="Helvetica" font-size="11" font-weight="400" font-style="normal" 
 >1.5</text>
</g>

<g fill="#212121" fill-opacity="1" stroke="#212121" stroke-opacity="1" stroke-width="1" stroke-linecap="square" stroke-linejoin="bevel" transform="matrix(0.75,0,0,0.75,183.7,193.075)"
font-family="Helvetica" font-size="11" font-weight="400" font-style="normal" 
>
<text fill="#212121" fill-opacity="1" stroke="none" xml:space="preserve" x="0" y="0" font-family="Helvetica" font-size="11" font-weight="400" font-style="normal" 
 >2</text>
</g>

<g fill="#212121" fill-opacity="1" stroke="#212121" stroke-opacity="1" stroke-width="1" stroke-linecap="square" stroke-linejoin="bevel" transform="matrix(0.75,0,0,0.75,218.95,193.075)"
font-family="Helvetica" font-size="11" font-weight="400" font-style="normal" 
>
<text fill="#212121" fill-opacity="1" stroke="none" xml:space="preserve" x="0" y="0" font-family="Helvetica" font-size="11" font-weight="400" font-style="normal" 
 >2.5</text>
</g>

<g fill="#212121" fill-opacity="1" stroke="#212121" stroke-opacity="1" stroke-width="1" stroke-linecap="square" stroke-linejoin="bevel" transform="matrix(0.75,0,0,0.75,260.95,193.075)"
font-family="Helvetica" font-size="11" font-weight="400" font-style="normal" 
>
<text fill="#212121" fill-opacity="1" stroke="none" xml:space="preserve" x="0" y="0" font-family="Helvetica" font-size="11" font-weight="400" font-style="normal" 
 >3</text>
</g>

<g fill="#212121" fill-opacity="1" stroke="#212121" stroke-opacity="1" stroke-width="1" stroke-linecap="square" stroke-linejoin="bevel" transform="matrix(0,-0.75,0.75,0,20.25,171.75)"
font-family="Helvetica" font-size="12" font-weight="400" font-style="normal" 
>
<text fill="#212121" fill-opacity="1" stroke="none" xml:space="preserve" x="0" y="0" font-family="Helvetica" font-size="12" font-weight="400" font-style="normal" 
 >Input force (N)</text>
</g>

<g fill="#212121" fill-opacity="1" stroke="#212121" stroke-opacity="1" stroke-width="0.666667" stroke-linecap="square" stroke-linejoin="round" transform="matrix(0.75,0,0,0.75,-8.3,-11.625)"
font-family="Helvetica" font-size="12" font-weight="400" font-style="normal" 
>
<polyline fill="none" vector-effect="none" points="53,260 53,152 " />
<polyline fill="none" vector-effect="none" points="362,260 362,152 " />
<polyline fill="none" vector-effect="none" points="53,258.969 56.09,258.969 " />
<polyline fill="none" vector-effect="none" points="358.91,258.969 362,258.969 " />
<polyline fill="none" vector-effect="none" points="53,229.446 56.09,229.446 " />
<polyline fill="none" vector-effect="none" points="358.91,229.446 362,229.446 " />
<polyline fill="none" vector-effect="none" points="53,199.924 56.09,199.924 " />
<polyline fill="none" vector-effect="none" points="358.91,199.924 362,199.924 " />
<polyline fill="none" vector-effect="none" points="53,170.401 56.09,170.401 " />
<polyline fill="none" vector-effect="none" points="358.91,170.401 362,170.401 " />
</g>

<g fill="#212121" fill-opacity="1" stroke="#212121" stroke-opacity="1" stroke-width="1" stroke-linecap="square" stroke-linejoin="bevel" transform="matrix(0.75,0,0,0.75,24.75,185.226)"
font-family="Helvetica" font-size="11" font-weight="400" font-style="normal" 
>
<text fill="#212121" fill-opacity="1" stroke="none" xml:space="preserve" x="0" y="0" font-family="Helvetica" font-size="11" font-weight="400" font-style="normal" 
 >0</text>
</g>

<g fill="#212121" fill-opacity="1" stroke="#212121" stroke-opacity="1" stroke-width="1" stroke-linecap="square" stroke-linejoin="bevel" transform="matrix(0.75,0,0,0.75,24.75,163.085)"
font-family="Helvetica" font-size="11" font-weight="400" font-style="normal" 
>
<text fill="#212121" fill-opacity="1" stroke="none" xml:space="preserve" x="0" y="0" font-family="Helvetica" font-size="11" font-weight="400" font-style="normal" 
 >2</text>
</g>

<g fill="#212121" fill-opacity="1" stroke="#212121" stroke-opacity="1" stroke-width="1" stroke-linecap="square" stroke-linejoin="bevel" transform="matrix(0.75,0,0,0.75,24.75,140.943)"
font-family="Helvetica" font-size="11" font-weight="400" font-style="normal" 
>
<text fill="#212121" fill-opacity="1" stroke="none" xml:space="preserve" x="0" y="0" font-family="Helvetica" font-size="11" font-weight="400" font-style="normal" 
 >4</text>
</g>

<g fill="#212121" fill-opacity="1" stroke="#212121" stroke-opacity="1" stroke-width="1" stroke-linecap="square" stroke-linejoin="bevel" transform="matrix(0.75,0,0,0.75,24.75,118.801)"
font-family="Helvetica" font-size="11" font-weight="400" font-style="normal" 
>
<text fill="#212121" fill-opacity="1" stroke="none" xml:space="preserve" x="0" y="0" font-family="Helvetica" font-size="11" font-weight="400" font-style="normal" 
 >6</text>
</g>

<g fill="none" stroke="#1171be" stroke-opacity="1" stroke-width="0.666667" stroke-linecap="butt" stroke-linejoin="round" transform="matrix(0.75,0,0,0.75,-8.3,-11.625)"
font-family="Helvetica" font-size="11" font-weight="400" font-style="normal" 
>
<polyline fill="none" vector-effect="none" points="53,152.224 53,152.224 53.0002,152.224 53.0009,152.223 53.0045,152.218 53.0224,152.194 53.1118,152.094 53.4479,152 53.8036,152.596 54.3218,154.452 55.0268,158.649 55.9029,168.049 56.8493,188.959 57.4267,221.875 58.0042,240.701 58.6326,252.544 59.3657,258.848 60.2994,260 61.3179,255.991 62.3364,249.726 63.1872,244.944 63.9853,243.123 64.8779,243.811 65.9629,245.915 67.4192,248.565 68.668,249.192 69.9169,249.294 71.0344,248.993 72.0947,248.914 73.1954,249.162 74.3724,249.545 75.6019,249.884 76.8346,250.106 78.0545,250.233 79.2787,250.395 80.5299,250.646 81.8218,250.902 83.1389,251.122 84.4646,251.302 85.7984,251.43 87.1492,251.586 88.5288,251.802 89.9501,252.017 91.3982,252.207 92.8579,252.375 94.3303,252.517 95.8244,252.636 97.3434,252.792 98.8915,252.965 100.485,253.136 102.108,253.292 103.746,253.434 105.399,253.569 107.079,253.687 108.787,253.787 110.524,253.92 112.309,254.057 114.133,254.187 115.976,254.307 117.835,254.421 119.72,254.532 121.637,254.64 123.584,254.745 125.557,254.837 127.557,254.915 129.582,255.01 131.662,255.109 133.792,255.206 135.946,255.296 138.114,255.383 140.307,255.468 142.533,255.55 144.793,255.631 147.079,255.708 149.391,255.784 151.73,255.857 154.099,255.928 156.495,255.997 158.919,256.065 161.369,256.12 163.835,256.175 166.335,256.232 168.877,256.29 171.457,256.351 174.054,256.413 176.702,256.474 179.389,256.533 182.086,256.589 184.784,256.642 187.499,256.695 190.243,256.746 193.015,256.796 195.801,256.843 198.597,256.89 201.408,256.935 204.239,256.978 207.09,257.021 209.956,257.062 212.831,257.102 215.719,257.141 218.621,257.178 221.538,257.215 224.468,257.25 227.406,257.285 230.354,257.318 233.313,257.351 236.283,257.382 239.263,257.413 242.25,257.442 245.245,257.471 248.247,257.499 251.258,257.526 254.278,257.553 257.303,257.578 260.335,257.603 263.371,257.627 266.414,257.651 269.464,257.673 272.519,257.693 275.576,257.713 278.641,257.733 281.721,257.753 284.814,257.773 287.91,257.792 291.002,257.812 294.093,257.831 297.192,257.849 300.303,257.867 303.419,257.885 306.531,257.903 309.638,257.92 312.747,257.937 315.866,257.953 318.994,257.969 322.122,257.985 325.242,258.001 328.359,258.016 331.483,258.031 334.618,258.045 337.757,258.06 340.891,258.074 344.016,258.087 347.143,258.101 350.281,258.114 353.428,258.127 356.574,258.14 359.709,258.152 362,258.16 " />
</g>
</g>
</svg>
