<?xml version="1.0" encoding="UTF-8" standalone="no"?>
<svg width="80.4333mm" height="58.5611mm"
 viewBox="0 0 228 166"
 xmlns="http://www.w3.org/2000/svg" xmlns:xlink="http://www.w3.org/1999/xlink"  version="1.2" baseProfile="tiny">
<title>Qt SVG Document</title>
<desc>MATLAB, The MathWorks, Inc. Version 25.2.0.3123386 R2025b Update 3</desc>
<defs>
</defs>
<g fill="none" stroke="black" stroke-width="1" fill-rule="evenodd" stroke-linecap="square" stroke-linejoin="bevel" >

<g fill="#ffffff" fill-opacity="1" stroke="none" transform="matrix(0.75,0,0,0.75,-38.625,-26)"
font-family="MS Shell Dlg 2" font-size="8.25" font-weight="400" font-style="normal" 
>
<path vector-effect="none" fill-rule="evenodd" d="M50,33 L355,33 L355,255 L50,255 L50,33"/>
</g>

<g fill="#212121" fill-opacity="1" stroke="#212121" stroke-opacity="1" stroke-width="1" stroke-linecap="square" stroke-linejoin="bevel" transform="matrix(0.75,0,0,0.75,6.00009,161.25)"
font-family="TeXGyreTermes" font-size="13" font-weight="400" font-style="normal" 
>
<text fill="#212121" fill-opacity="1" stroke="none" xml:space="preserve" x="0" y="0" font-family="TeXGyreTermes" font-size="13" font-weight="400" font-style="normal" 
 >System gaussian_product: 2 inputs, 1 outputs, 25 rules</text>
</g>

<g fill="#212121" fill-opacity="1" stroke="#212121" stroke-opacity="1" stroke-width="2.66667" stroke-linecap="butt" stroke-linejoin="round" transform="matrix(0.75,0,0,0.75,-38.625,-26)"
font-family="TeXGyreTermes" font-size="13" font-weight="400" font-style="normal" 
>
<polyline fill="none" vector-effect="none" points="134.667,62.1 207,116 " />
<polyline fill="none" vector-effect="none" points="134.667,160.1 207,116 " />
<polyline fill="none" vector-effect="none" points="279.333,116 207,116 " />
</g>

<g fill="#ffffff" fill-opacity="1" stroke="none" transform="matrix(7.5e-05,0,0,7.5e-05,-38.625,-26)"
font-family="TeXGyreTermes" font-size="13" font-weight="400" font-style="normal" 
>
<path vector-effect="none" fill-rule="evenodd" d="M730000,380000 L730000,860000 L1.35e+06,860000 L1.35e+06,380000 L730000,380000"/>
</g>

<g fill="#212121" fill-opacity="1" stroke="#212121" stroke-opacity="1" stroke-width="1" stroke-linecap="square" stroke-linejoin="bevel" transform="matrix(0.75,0,0,0.75,23.25,53)"
font-family="TeXGyreTermes" font-size="13" font-weight="400" font-style="normal" 
>
<text fill="#212121" fill-opacity="1" stroke="none" xml:space="preserve" x="0" y="0" font-family="TeXGyreTermes" font-size="13" font-weight="400" font-style="normal" 
 >error (5)</text>
</g>

<g fill="#212121" fill-opacity="1" stroke="#212121" stroke-opacity="1" stroke-width="2.66667" stroke-linecap="square" stroke-linejoin="round" transform="matrix(0.75,0,0,0.75,-38.625,-26)"
font-family="TeXGyreTermes" font-size="13" font-weight="400" font-style="normal" 
>
<polyline fill="none" vector-effect="none" points="73,86 135,86 " />
<polyline fill="none" vector-effect="none" points="73,38 135,38 " />
<polyline fill="none" vector-effect="none" points="73,86 73,38 " />
<polyline fill="none" vector-effect="none" points="135,86 135,38 " />
</g>

<g fill="none" stroke="#1171be" stroke-opacity="1" stroke-width="0.666667" stroke-linecap="butt" stroke-linejoin="round" transform="matrix(0.75,0,0,0.75,-38.625,-26)"
font-family="TeXGyreTermes" font-size="13" font-weight="400" font-style="normal" 
>
<polyline fill="none" vector-effect="none" points="78.1667,42 78.4537,42 78.7407,42 79.0278,42 79.3148,42 79.6019,42 79.8889,42 80.1759,42 80.463,42 80.75,42 81.037,42 81.3241,42 81.6111,42 81.8981,42 82.1852,42 82.4722,42 82.7593,42 83.0463,42 83.3333,42 83.6204,42 83.9074,42 84.1944,42 84.4815,42 84.7685,42 85.0556,42 85.3426,42 85.6296,42 85.9167,42 86.2037,42 86.4907,42 86.7778,42 87.0648,42 87.3519,42 87.6389,42 87.9259,42 88.213,42 88.5,42 88.787,42 89.0741,42 89.3611,42 89.6481,42 89.9352,42 90.2222,42 90.5093,42 90.7963,42 91.0833,42 91.3704,42.2185 91.6574,42.8667 91.9444,43.9238 92.2315,45.3559 92.5185,47.1183 92.8056,49.1577 93.0926,51.4147 93.3796,53.8269 93.6667,56.3315 93.9537,58.8682 94.2407,61.3813 94.5278,63.8216 94.8148,66.1477 95.1019,68.3267 95.3889,70.3347 95.6759,72.1562 95.963,73.7838 96.25,75.217 96.537,76.4612 96.8241,77.5264 97.1111,78.4261 97.3981,79.176 97.6852,79.7929 97.9722,80.2938 98.2593,80.6954 98.5463,81.0133 98.8333,81.2619 99.1204,81.4538 99.4074,81.6003 99.6944,81.7107 99.9815,81.7928 100.269,81.8533 100.556,81.8972 100.843,81.9288 101.13,81.9512 101.417,81.9669 101.704,81.9778 101.991,81.9853 102.278,81.9904 102.565,81.9937 102.852,81.996 103.139,81.9975 103.426,81.9984 103.713,81.999 104,81.9994 104.287,81.9996 104.574,81.9998 104.861,81.9999 105.148,81.9999 105.435,82 105.722,82 106.009,82 106.296,82 106.583,82 106.87,82 107.157,82 107.444,82 107.731,82 108.019,82 108.306,82 108.593,82 108.88,82 109.167,82 109.454,82 109.741,82 110.028,82 110.315,82 110.602,82 110.889,82 111.176,82 111.463,82 111.75,82 112.037,82 112.324,82 112.611,82 112.898,82 113.185,82 113.472,82 113.759,82 114.046,82 114.333,82 114.62,82 114.907,82 115.194,82 115.481,82 115.769,82 116.056,82 116.343,82 116.63,82 116.917,82 117.204,82 117.491,82 117.778,82 118.065,82 118.352,82 118.639,82 118.926,82 119.213,82 119.5,82 119.787,82 120.074,82 120.361,82 120.648,82 120.935,82 121.222,82 121.509,82 121.796,82 122.083,82 122.37,82 122.657,82 122.944,82 123.231,82 123.519,82 123.806,82 124.093,82 124.38,82 124.667,82 124.954,82 125.241,82 125.528,82 125.815,82 126.102,82 126.389,82 126.676,82 126.963,82 127.25,82 127.537,82 127.824,82 128.111,82 128.398,82 128.685,82 128.972,82 129.259,82 129.546,82 129.833,82 " />
</g>

<g fill="none" stroke="#dd5400" stroke-opacity="1" stroke-width="0.666667" stroke-linecap="butt" stroke-linejoin="round" transform="matrix(0.75,0,0,0.75,-38.625,-26)"
font-family="TeXGyreTermes" font-size="13" font-weight="400" font-style="normal" 
>
<polyline fill="none" vector-effect="none" points="78.1667,82 78.4537,82 78.7407,82 79.0278,82 79.3148,82 79.6019,82 79.8889,82 80.1759,82 80.463,82 80.75,82 81.037,82 81.3241,82 81.6111,82 81.8981,82 82.1852,82 82.4722,82 82.7593,82 83.0463,82 83.3333,81.9999 83.6204,81.9999 83.9074,81.9998 84.1944,81.9997 84.4815,81.9995 84.7685,81.9992 85.0556,81.9987 85.3426,81.998 85.6296,81.9968 85.9167,81.995 86.2037,81.9922 86.4907,81.9881 86.7778,81.9819 87.0648,81.9729 87.3519,81.9598 87.6389,81.941 87.9259,81.9143 88.213,81.877 88.5,81.8254 88.787,81.7548 89.0741,81.6595 89.3611,81.5321 89.6481,81.3642 89.9352,81.1454 90.2222,80.8639 90.5093,80.506 90.7963,80.0567 91.0833,79.5 91.3704,78.8188 91.6574,77.996 91.9444,77.0154 92.2315,75.8622 92.5185,74.5245 92.8056,72.9944 93.0926,71.2694 93.3796,69.3533 93.6667,67.2573 93.9537,65.0012 94.2407,62.6134 94.5278,60.131 94.8148,57.5994 95.1019,55.0715 95.3889,52.6053 95.6759,50.2628 95.963,48.107 96.25,46.199 96.537,44.5956 96.8241,43.346 97.1111,42.4899 97.3981,42.0547 97.6852,42.0547 97.9722,42.4899 98.2593,43.346 98.5463,44.5956 98.8333,46.199 99.1204,48.107 99.4074,50.2628 99.6944,52.6053 99.9815,55.0715 100.269,57.5994 100.556,60.131 100.843,62.6134 101.13,65.0012 101.417,67.2573 101.704,69.3533 101.991,71.2694 102.278,72.9944 102.565,74.5245 102.852,75.8622 103.139,77.0154 103.426,77.996 103.713,78.8188 104,79.5 104.287,80.0567 104.574,80.506 104.861,80.8639 105.148,81.1454 105.435,81.3642 105.722,81.5321 106.009,81.6595 106.296,81.7548 106.583,81.8254 106.87,81.877 107.157,81.9143 107.444,81.941 107.731,81.9598 108.019,81.9729 108.306,81.9819 108.593,81.9881 108.88,81.9922 109.167,81.995 109.454,81.9968 109.741,81.998 110.028,81.9987 110.315,81.9992 110.602,81.9995 110.889,81.9997 111.176,81.9998 111.463,81.9999 111.75,81.9999 112.037,82 112.324,82 112.611,82 112.898,82 113.185,82 113.472,82 113.759,82 114.046,82 114.333,82 114.62,82 114.907,82 115.194,82 115.481,82 115.769,82 116.056,82 116.343,82 116.63,82 116.917,82 117.204,82 117.491,82 117.778,82 118.065,82 118.352,82 118.639,82 118.926,82 119.213,82 119.5,82 119.787,82 120.074,82 120.361,82 120.648,82 120.935,82 121.222,82 121.509,82 121.796,82 122.083,82 122.37,82 122.657,82 122.944,82 123.231,82 123.519,82 123.806,82 124.093,82 124.38,82 124.667,82 124.954,82 125.241,82 125.528,82 125.815,82 126.102,82 126.389,82 126.676,82 126.963,82 127.25,82 127.537,82 127.824,82 128.111,82 128.398,82 128.685,82 128.972,82 129.259,82 129.546,82 129.833,82 " />
</g>

<g fill="none" stroke="#edb120" stroke-opacity="1" stroke-width="0.666667" stroke-linecap="butt" stroke-linejoin="round" transform="matrix(0.75,0,0,0.75,-38.625,-26)"
font-family="TeXGyreTermes" font-size="13" font-weight="400" font-style="normal" 
>
<polyline fill="none" vector-effect="none" points="78.1667,82 78.4537,82 78.7407,82 79.0278,82 79.3148,82 79.6019,82 79.8889,82 80.1759,82 80.463,82 80.75,82 81.037,82 81.3241,82 81.6111,82 81.8981,82 82.1852,82 82.4722,82 82.7593,82 83.0463,82 83.3333,82 83.6204,82 83.9074,82 84.1944,82 84.4815,82 84.7685,82 85.0556,82 85.3426,82 85.6296,82 85.9167,82 86.2037,82 86.4907,82 86.7778,82 87.0648,82 87.3519,82 87.6389,82 87.9259,82 88.213,82 88.5,82 88.787,82 89.0741,82 89.3611,82 89.6481,82 89.9352,81.9999 90.2222,81.9999 90.5093,81.9998 90.7963,81.9996 91.0833,81.9994 91.3704,81.999 91.6574,81.9984 91.9444,81.9975 92.2315,81.996 92.5185,81.9937 92.8056,81.9904 93.0926,81.9853 93.3796,81.9778 93.6667,81.9669 93.9537,81.9512 94.2407,81.9288 94.5278,81.8972 94.8148,81.8533 95.1019,81.7928 95.3889,81.7107 95.6759,81.6003 95.963,81.4538 96.25,81.2619 96.537,81.0133 96.8241,80.6954 97.1111,80.2938 97.3981,79.7929 97.6852,79.176 97.9722,78.4261 98.2593,77.5264 98.5463,76.4612 98.8333,75.217 99.1204,73.7838 99.4074,72.1562 99.6944,70.3347 99.9815,68.3267 100.269,66.1477 100.556,63.8216 100.843,61.3813 101.13,58.8682 101.417,56.3315 101.704,53.8269 101.991,51.4147 102.278,49.1577 102.565,47.1183 102.852,45.3559 103.139,43.9238 103.426,42.8667 103.713,42.2185 104,42 104.287,42.2185 104.574,42.8667 104.861,43.9238 105.148,45.3559 105.435,47.1183 105.722,49.1577 106.009,51.4147 106.296,53.8269 106.583,56.3315 106.87,58.8682 107.157,61.3813 107.444,63.8216 107.731,66.1477 108.019,68.3267 108.306,70.3347 108.593,72.1562 108.88,73.7838 109.167,75.217 109.454,76.4612 109.741,77.5264 110.028,78.4261 110.315,79.176 110.602,79.7929 110.889,80.2938 111.176,80.6954 111.463,81.0133 111.75,81.2619 112.037,81.4538 112.324,81.6003 112.611,81.7107 112.898,81.7928 113.185,81.8533 113.472,81.8972 113.759,81.9288 114.046,81.9512 114.333,81.9669 114.62,81.9778 114.907,81.9853 115.194,81.9904 115.481,81.9937 115.769,81.996 116.056,81.9975 116.343,81.9984 116.63,81.999 116.917,81.9994 117.204,81.9996 117.491,81.9998 117.778,81.9999 118.065,81.9999 118.352,82 118.639,82 118.926,82 119.213,82 119.5,82 119.787,82 120.074,82 120.361,82 120.648,82 120.935,82 121.222,82 121.509,82 121.796,82 122.083,82 122.37,82 122.657,82 122.944,82 123.231,82 123.519,82 123.806,82 124.093,82 124.38,82 124.667,82 124.954,82 125.241,82 125.528,82 125.815,82 126.102,82 126.389,82 126.676,82 126.963,82 127.25,82 127.537,82 127.824,82 128.111,82 128.398,82 128.685,82 128.972,82 129.259,82 129.546,82 129.833,82 " />
</g>

<g fill="none" stroke="#8516d1" stroke-opacity="1" stroke-width="0.666667" stroke-linecap="butt" stroke-linejoin="round" transform="matrix(0.75,0,0,0.75,-38.625,-26)"
font-family="TeXGyreTermes" font-size="13" font-weight="400" font-style="normal" 
>
<polyline fill="none" vector-effect="none" points="78.1667,82 78.4537,82 78.7407,82 79.0278,82 79.3148,82 79.6019,82 79.8889,82 80.1759,82 80.463,82 80.75,82 81.037,82 81.3241,82 81.6111,82 81.8981,82 82.1852,82 82.4722,82 82.7593,82 83.0463,82 83.3333,82 83.6204,82 83.9074,82 84.1944,82 84.4815,82 84.7685,82 85.0556,82 85.3426,82 85.6296,82 85.9167,82 86.2037,82 86.4907,82 86.7778,82 87.0648,82 87.3519,82 87.6389,82 87.9259,82 88.213,82 88.5,82 88.787,82 89.0741,82 89.3611,82 89.6481,82 89.9352,82 90.2222,82 90.5093,82 90.7963,82 91.0833,82 91.3704,82 91.6574,82 91.9444,82 92.2315,82 92.5185,82 92.8056,82 93.0926,82 93.3796,82 93.6667,82 93.9537,82 94.2407,82 94.5278,82 94.8148,82 95.1019,82 95.3889,82 95.6759,82 95.963,82 96.25,81.9999 96.537,81.9999 96.8241,81.9998 97.1111,81.9997 97.3981,81.9995 97.6852,81.9992 97.9722,81.9987 98.2593,81.998 98.5463,81.9968 98.8333,81.995 99.1204,81.9922 99.4074,81.9881 99.6944,81.9819 99.9815,81.9729 100.269,81.9598 100.556,81.941 100.843,81.9143 101.13,81.877 101.417,81.8254 101.704,81.7548 101.991,81.6595 102.278,81.5321 102.565,81.3642 102.852,81.1454 103.139,80.8639 103.426,80.506 103.713,80.0567 104,79.5 104.287,78.8188 104.574,77.996 104.861,77.0154 105.148,75.8622 105.435,74.5245 105.722,72.9944 106.009,71.2694 106.296,69.3533 106.583,67.2573 106.87,65.0012 107.157,62.6134 107.444,60.131 107.731,57.5994 108.019,55.0715 108.306,52.6053 108.593,50.2628 108.88,48.107 109.167,46.199 109.454,44.5956 109.741,43.346 110.028,42.4899 110.315,42.0547 110.602,42.0547 110.889,42.4899 111.176,43.346 111.463,44.5956 111.75,46.199 112.037,48.107 112.324,50.2628 112.611,52.6053 112.898,55.0715 113.185,57.5994 113.472,60.131 113.759,62.6134 114.046,65.0012 114.333,67.2573 114.62,69.3533 114.907,71.2694 115.194,72.9944 115.481,74.5245 115.769,75.8622 116.056,77.0154 116.343,77.996 116.63,78.8188 116.917,79.5 117.204,80.0567 117.491,80.506 117.778,80.8639 118.065,81.1454 118.352,81.3642 118.639,81.5321 118.926,81.6595 119.213,81.7548 119.5,81.8254 119.787,81.877 120.074,81.9143 120.361,81.941 120.648,81.9598 120.935,81.9729 121.222,81.9819 121.509,81.9881 121.796,81.9922 122.083,81.995 122.37,81.9968 122.657,81.998 122.944,81.9987 123.231,81.9992 123.519,81.9995 123.806,81.9997 124.093,81.9998 124.38,81.9999 124.667,81.9999 124.954,82 125.241,82 125.528,82 125.815,82 126.102,82 126.389,82 126.676,82 126.963,82 127.25,82 127.537,82 127.824,82 128.111,82 128.398,82 128.685,82 128.972,82 129.259,82 129.546,82 129.833,82 " />
</g>

<g fill="none" stroke="#3baa32" stroke-opacity="1" stroke-width="0.666667" stroke-linecap="butt" stroke-linejoin="round" transform="matrix(0.75,0,0,0.75,-38.625,-26)"
font-family="TeXGyreTermes" font-size="13" font-weight="400" font-style="normal" 
>
<polyline fill="none" vector-effect="none" points="78.1667,82 78.4537,82 78.7407,82 79.0278,82 79.3148,82 79.6019,82 79.8889,82 80.1759,82 80.463,82 80.75,82 81.037,82 81.3241,82 81.6111,82 81.8981,82 82.1852,82 82.4722,82 82.7593,82 83.0463,82 83.3333,82 83.6204,82 83.9074,82 84.1944,82 84.4815,82 84.7685,82 85.0556,82 85.3426,82 85.6296,82 85.9167,82 86.2037,82 86.4907,82 86.7778,82 87.0648,82 87.3519,82 87.6389,82 87.9259,82 88.213,82 88.5,82 88.787,82 89.0741,82 89.3611,82 89.6481,82 89.9352,82 90.2222,82 90.5093,82 90.7963,82 91.0833,82 91.3704,82 91.6574,82 91.9444,82 92.2315,82 92.5185,82 92.8056,82 93.0926,82 93.3796,82 93.6667,82 93.9537,82 94.2407,82 94.5278,82 94.8148,82 95.1019,82 95.3889,82 95.6759,82 95.963,82 96.25,82 96.537,82 96.8241,82 97.1111,82 97.3981,82 97.6852,82 97.9722,82 98.2593,82 98.5463,82 98.8333,82 99.1204,82 99.4074,82 99.6944,82 99.9815,82 100.269,82 100.556,82 100.843,82 101.13,82 101.417,82 101.704,82 101.991,82 102.278,82 102.565,82 102.852,81.9999 103.139,81.9999 103.426,81.9998 103.713,81.9996 104,81.9994 104.287,81.999 104.574,81.9984 104.861,81.9975 105.148,81.996 105.435,81.9937 105.722,81.9904 106.009,81.9853 106.296,81.9778 106.583,81.9669 106.87,81.9512 107.157,81.9288 107.444,81.8972 107.731,81.8533 108.019,81.7928 108.306,81.7107 108.593,81.6003 108.88,81.4538 109.167,81.2619 109.454,81.0133 109.741,80.6954 110.028,80.2938 110.315,79.7929 110.602,79.176 110.889,78.4261 111.176,77.5264 111.463,76.4612 111.75,75.217 112.037,73.7838 112.324,72.1562 112.611,70.3347 112.898,68.3267 113.185,66.1477 113.472,63.8216 113.759,61.3813 114.046,58.8682 114.333,56.3315 114.62,53.8269 114.907,51.4147 115.194,49.1577 115.481,47.1183 115.769,45.3559 116.056,43.9238 116.343,42.8667 116.63,42.2185 116.917,42 117.204,42 117.491,42 117.778,42 118.065,42 118.352,42 118.639,42 118.926,42 119.213,42 119.5,42 119.787,42 120.074,42 120.361,42 120.648,42 120.935,42 121.222,42 121.509,42 121.796,42 122.083,42 122.37,42 122.657,42 122.944,42 123.231,42 123.519,42 123.806,42 124.093,42 124.38,42 124.667,42 124.954,42 125.241,42 125.528,42 125.815,42 126.102,42 126.389,42 126.676,42 126.963,42 127.25,42 127.537,42 127.824,42 128.111,42 128.398,42 128.685,42 128.972,42 129.259,42 129.546,42 129.833,42 " />
</g>

<g fill="#ffffff" fill-opacity="1" stroke="none" transform="matrix(7.5e-05,0,0,7.5e-05,-38.625,-26)"
font-family="TeXGyreTermes" font-size="13" font-weight="400" font-style="normal" 
>
<path vector-effect="none" fill-rule="evenodd" d="M730000,1.35e+06 L730000,1.84e+06 L1.35e+06,1.84e+06 L1.35e+06,1.35e+06 L730000,1.35e+06"/>
</g>

<g fill="#212121" fill-opacity="1" stroke="#212121" stroke-opacity="1" stroke-width="1" stroke-linecap="square" stroke-linejoin="bevel" transform="matrix(0.75,0,0,0.75,1.5,126.5)"
font-family="TeXGyreTermes" font-size="13" font-weight="400" font-style="normal" 
>
<text fill="#212121" fill-opacity="1" stroke="none" xml:space="preserve" x="0" y="0" font-family="TeXGyreTermes" font-size="13" font-weight="400" font-style="normal" 
 >chang_in_error (5)</text>
</g>

<g fill="#212121" fill-opacity="1" stroke="#212121" stroke-opacity="1" stroke-width="2.66667" stroke-linecap="square" stroke-linejoin="round" transform="matrix(0.75,0,0,0.75,-38.625,-26)"
font-family="TeXGyreTermes" font-size="13" font-weight="400" font-style="normal" 
>
<polyline fill="none" vector-effect="none" points="73,184 135,184 " />
<polyline fill="none" vector-effect="none" points="73,135 135,135 " />
<polyline fill="none" vector-effect="none" points="73,184 73,135 " />
<polyline fill="none" vector-effect="none" points="135,184 135,135 " />
</g>

<g fill="none" stroke="#1171be" stroke-opacity="1" stroke-width="0.666667" stroke-linecap="butt" stroke-linejoin="round" transform="matrix(0.75,0,0,0.75,-38.625,-26)"
font-family="TeXGyreTermes" font-size="13" font-weight="400" font-style="normal" 
>
<polyline fill="none" vector-effect="none" points="78.1667,139.083 78.4537,139.083 78.7407,139.083 79.0278,139.083 79.3148,139.083 79.6019,139.083 79.8889,139.083 80.1759,139.083 80.463,139.083 80.75,139.083 81.037,139.083 81.3241,139.083 81.6111,139.083 81.8981,139.083 82.1852,139.083 82.4722,139.083 82.7593,139.083 83.0463,139.083 83.3333,139.083 83.6204,139.083 83.9074,139.126 84.1944,139.34 84.4815,139.732 84.7685,140.296 85.0556,141.026 85.3426,141.911 85.6296,142.94 85.9167,144.101 86.2037,145.379 86.4907,146.759 86.7778,148.225 87.0648,149.761 87.3519,151.349 87.6389,152.973 87.9259,154.617 88.213,156.267 88.5,157.906 88.787,159.523 89.0741,161.105 89.3611,162.641 89.6481,164.121 89.9352,165.539 90.2222,166.888 90.5093,168.162 90.7963,169.359 91.0833,170.476 91.3704,171.512 91.6574,172.467 91.9444,173.343 92.2315,174.142 92.5185,174.866 92.8056,175.519 93.0926,176.105 93.3796,176.627 93.6667,177.09 93.9537,177.499 94.2407,177.858 94.5278,178.171 94.8148,178.443 95.1019,178.678 95.3889,178.881 95.6759,179.054 95.963,179.201 96.25,179.326 96.537,179.431 96.8241,179.519 97.1111,179.593 97.3981,179.654 97.6852,179.705 97.9722,179.746 98.2593,179.78 98.5463,179.808 98.8333,179.831 99.1204,179.849 99.4074,179.863 99.6944,179.875 99.9815,179.884 100.269,179.891 100.556,179.897 100.843,179.902 101.13,179.905 101.417,179.908 101.704,179.91 101.991,179.912 102.278,179.913 102.565,179.914 102.852,179.915 103.139,179.915 103.426,179.916 103.713,179.916 104,179.916 104.287,179.916 104.574,179.916 104.861,179.916 105.148,179.916 105.435,179.917 105.722,179.917 106.009,179.917 106.296,179.917 106.583,179.917 106.87,179.917 107.157,179.917 107.444,179.917 107.731,179.917 108.019,179.917 108.306,179.917 108.593,179.917 108.88,179.917 109.167,179.917 109.454,179.917 109.741,179.917 110.028,179.917 110.315,179.917 110.602,179.917 110.889,179.917 111.176,179.917 111.463,179.917 111.75,179.917 112.037,179.917 112.324,179.917 112.611,179.917 112.898,179.917 113.185,179.917 113.472,179.917 113.759,179.917 114.046,179.917 114.333,179.917 114.62,179.917 114.907,179.917 115.194,179.917 115.481,179.917 115.769,179.917 116.056,179.917 116.343,179.917 116.63,179.917 116.917,179.917 117.204,179.917 117.491,179.917 117.778,179.917 118.065,179.917 118.352,179.917 118.639,179.917 118.926,179.917 119.213,179.917 119.5,179.917 119.787,179.917 120.074,179.917 120.361,179.917 120.648,179.917 120.935,179.917 121.222,179.917 121.509,179.917 121.796,179.917 122.083,179.917 122.37,179.917 122.657,179.917 122.944,179.917 123.231,179.917 123.519,179.917 123.806,179.917 124.093,179.917 124.38,179.917 124.667,179.917 124.954,179.917 125.241,179.917 125.528,179.917 125.815,179.917 126.102,179.917 126.389,179.917 126.676,179.917 126.963,179.917 127.25,179.917 127.537,179.917 127.824,179.917 128.111,179.917 128.398,179.917 128.685,179.917 128.972,179.917 129.259,179.917 129.546,179.917 129.833,179.917 " />
</g>

<g fill="none" stroke="#dd5400" stroke-opacity="1" stroke-width="0.666667" stroke-linecap="butt" stroke-linejoin="round" transform="matrix(0.75,0,0,0.75,-38.625,-26)"
font-family="TeXGyreTermes" font-size="13" font-weight="400" font-style="normal" 
>
<polyline fill="none" vector-effect="none" points="78.1667,179.863 78.4537,179.848 78.7407,179.83 79.0278,179.807 79.3148,179.779 79.6019,179.745 79.8889,179.703 80.1759,179.653 80.463,179.591 80.75,179.517 81.037,179.428 81.3241,179.323 81.6111,179.197 81.8981,179.049 82.1852,178.875 82.4722,178.672 82.7593,178.436 83.0463,178.163 83.3333,177.848 83.6204,177.488 83.9074,177.078 84.1944,176.613 84.4815,176.089 84.7685,175.501 85.0556,174.847 85.3426,174.12 85.6296,173.319 85.9167,172.441 86.2037,171.483 86.4907,170.445 86.7778,169.325 87.0648,168.126 87.3519,166.85 87.6389,165.499 87.9259,164.08 88.213,162.597 88.5,161.06 88.787,159.477 89.0741,157.859 89.3611,156.219 89.6481,154.57 89.9352,152.926 90.2222,151.302 90.5093,149.716 90.7963,148.182 91.0833,146.718 91.3704,145.341 91.6574,144.066 91.9444,142.909 92.2315,141.883 92.5185,141.003 92.8056,140.278 93.0926,139.718 93.3796,139.331 93.6667,139.122 93.9537,139.094 94.2407,139.246 94.5278,139.578 94.8148,140.084 95.1019,140.758 95.3889,141.59 95.6759,142.572 95.963,143.689 96.25,144.929 96.537,146.276 96.8241,147.714 97.1111,149.227 97.3981,150.799 97.6852,152.413 97.9722,154.052 98.2593,155.701 98.5463,157.346 98.8333,158.972 99.1204,160.567 99.4074,162.12 99.6944,163.62 99.9815,165.061 100.269,166.433 100.556,167.734 100.843,168.957 101.13,170.102 101.417,171.165 101.704,172.149 101.991,173.052 102.278,173.877 102.565,174.626 102.852,175.303 103.139,175.911 103.426,176.455 103.713,176.938 104,177.365 104.287,177.74 104.574,178.068 104.861,178.354 105.148,178.602 105.435,178.815 105.722,178.998 106.009,179.153 106.296,179.286 106.583,179.397 106.87,179.491 107.157,179.569 107.444,179.635 107.731,179.689 108.019,179.733 108.306,179.769 108.593,179.799 108.88,179.823 109.167,179.843 109.454,179.859 109.741,179.871 110.028,179.881 110.315,179.889 110.602,179.895 110.889,179.9 111.176,179.904 111.463,179.907 111.75,179.909 112.037,179.911 112.324,179.912 112.611,179.914 112.898,179.914 113.185,179.915 113.472,179.915 113.759,179.916 114.046,179.916 114.333,179.916 114.62,179.916 114.907,179.916 115.194,179.916 115.481,179.917 115.769,179.917 116.056,179.917 116.343,179.917 116.63,179.917 116.917,179.917 117.204,179.917 117.491,179.917 117.778,179.917 118.065,179.917 118.352,179.917 118.639,179.917 118.926,179.917 119.213,179.917 119.5,179.917 119.787,179.917 120.074,179.917 120.361,179.917 120.648,179.917 120.935,179.917 121.222,179.917 121.509,179.917 121.796,179.917 122.083,179.917 122.37,179.917 122.657,179.917 122.944,179.917 123.231,179.917 123.519,179.917 123.806,179.917 124.093,179.917 124.38,179.917 124.667,179.917 124.954,179.917 125.241,179.917 125.528,179.917 125.815,179.917 126.102,179.917 126.389,179.917 126.676,179.917 126.963,179.917 127.25,179.917 127.537,179.917 127.824,179.917 128.111,179.917 128.398,179.917 128.685,179.917 128.972,179.917 129.259,179.917 129.546,179.917 129.833,179.917 " />
</g>

<g fill="none" stroke="#edb120" stroke-opacity="1" stroke-width="0.666667" stroke-linecap="butt" stroke-linejoin="round" transform="matrix(0.75,0,0,0.75,-38.625,-26)"
font-family="TeXGyreTermes" font-size="13" font-weight="400" font-style="normal" 
>
<polyline fill="none" vector-effect="none" points="78.1667,179.917 78.4537,179.917 78.7407,179.917 79.0278,179.917 79.3148,179.917 79.6019,179.917 79.8889,179.917 80.1759,179.917 80.463,179.917 80.75,179.917 81.037,179.917 81.3241,179.917 81.6111,179.917 81.8981,179.917 82.1852,179.917 82.4722,179.917 82.7593,179.916 83.0463,179.916 83.3333,179.916 83.6204,179.916 83.9074,179.916 84.1944,179.916 84.4815,179.915 84.7685,179.915 85.0556,179.914 85.3426,179.913 85.6296,179.912 85.9167,179.911 86.2037,179.909 86.4907,179.906 86.7778,179.903 87.0648,179.899 87.3519,179.893 87.6389,179.887 87.9259,179.878 88.213,179.867 88.5,179.854 88.787,179.837 89.0741,179.816 89.3611,179.79 89.6481,179.758 89.9352,179.719 90.2222,179.671 90.5093,179.614 90.7963,179.544 91.0833,179.461 91.3704,179.361 91.6574,179.243 91.9444,179.103 92.2315,178.938 92.5185,178.745 92.8056,178.521 93.0926,178.261 93.3796,177.961 93.6667,177.617 93.9537,177.224 94.2407,176.779 94.5278,176.275 94.8148,175.71 95.1019,175.079 95.3889,174.378 95.6759,173.603 95.963,172.751 96.25,171.821 96.537,170.81 96.8241,169.718 97.1111,168.547 97.3981,167.296 97.6852,165.971 97.9722,164.574 98.2593,163.112 98.5463,161.593 98.8333,160.024 99.1204,158.417 99.4074,156.783 99.6944,155.136 99.9815,153.488 100.269,151.856 100.556,150.255 100.843,148.701 101.13,147.211 101.417,145.803 101.704,144.491 101.991,143.291 102.278,142.219 102.565,141.287 102.852,140.508 103.139,139.891 103.426,139.444 103.713,139.174 104,139.083 104.287,139.174 104.574,139.444 104.861,139.891 105.148,140.508 105.435,141.287 105.722,142.219 106.009,143.291 106.296,144.491 106.583,145.803 106.87,147.211 107.157,148.701 107.444,150.255 107.731,151.856 108.019,153.488 108.306,155.136 108.593,156.783 108.88,158.417 109.167,160.024 109.454,161.593 109.741,163.112 110.028,164.574 110.315,165.971 110.602,167.296 110.889,168.547 111.176,169.718 111.463,170.81 111.75,171.821 112.037,172.751 112.324,173.603 112.611,174.378 112.898,175.079 113.185,175.71 113.472,176.275 113.759,176.779 114.046,177.224 114.333,177.617 114.62,177.961 114.907,178.261 115.194,178.521 115.481,178.745 115.769,178.938 116.056,179.103 116.343,179.243 116.63,179.361 116.917,179.461 117.204,179.544 117.491,179.614 117.778,179.671 118.065,179.719 118.352,179.758 118.639,179.79 118.926,179.816 119.213,179.837 119.5,179.854 119.787,179.867 120.074,179.878 120.361,179.887 120.648,179.893 120.935,179.899 121.222,179.903 121.509,179.906 121.796,179.909 122.083,179.911 122.37,179.912 122.657,179.913 122.944,179.914 123.231,179.915 123.519,179.915 123.806,179.916 124.093,179.916 124.38,179.916 124.667,179.916 124.954,179.916 125.241,179.916 125.528,179.917 125.815,179.917 126.102,179.917 126.389,179.917 126.676,179.917 126.963,179.917 127.25,179.917 127.537,179.917 127.824,179.917 128.111,179.917 128.398,179.917 128.685,179.917 128.972,179.917 129.259,179.917 129.546,179.917 129.833,179.917 " />
</g>

<g fill="none" stroke="#8516d1" stroke-opacity="1" stroke-width="0.666667" stroke-linecap="butt" stroke-linejoin="round" transform="matrix(0.75,0,0,0.75,-38.625,-26)"
font-family="TeXGyreTermes" font-size="13" font-weight="400" font-style="normal" 
>
<polyline fill="none" vector-effect="none" points="78.1667,179.917 78.4537,179.917 78.7407,179.917 79.0278,179.917 79.3148,179.917 79.6019,179.917 79.8889,179.917 80.1759,179.917 80.463,179.917 80.75,179.917 81.037,179.917 81.3241,179.917 81.6111,179.917 81.8981,179.917 82.1852,179.917 82.4722,179.917 82.7593,179.917 83.0463,179.917 83.3333,179.917 83.6204,179.917 83.9074,179.917 84.1944,179.917 84.4815,179.917 84.7685,179.917 85.0556,179.917 85.3426,179.917 85.6296,179.917 85.9167,179.917 86.2037,179.917 86.4907,179.917 86.7778,179.917 87.0648,179.917 87.3519,179.917 87.6389,179.917 87.9259,179.917 88.213,179.917 88.5,179.917 88.787,179.917 89.0741,179.917 89.3611,179.917 89.6481,179.917 89.9352,179.917 90.2222,179.917 90.5093,179.917 90.7963,179.917 91.0833,179.917 91.3704,179.917 91.6574,179.917 91.9444,179.917 92.2315,179.917 92.5185,179.917 92.8056,179.916 93.0926,179.916 93.3796,179.916 93.6667,179.916 93.9537,179.916 94.2407,179.916 94.5278,179.915 94.8148,179.915 95.1019,179.914 95.3889,179.914 95.6759,179.912 95.963,179.911 96.25,179.909 96.537,179.907 96.8241,179.904 97.1111,179.9 97.3981,179.895 97.6852,179.889 97.9722,179.881 98.2593,179.871 98.5463,179.859 98.8333,179.843 99.1204,179.823 99.4074,179.799 99.6944,179.769 99.9815,179.733 100.269,179.689 100.556,179.635 100.843,179.569 101.13,179.491 101.417,179.397 101.704,179.286 101.991,179.153 102.278,178.998 102.565,178.815 102.852,178.602 103.139,178.354 103.426,178.068 103.713,177.74 104,177.365 104.287,176.938 104.574,176.455 104.861,175.911 105.148,175.303 105.435,174.626 105.722,173.877 106.009,173.052 106.296,172.149 106.583,171.165 106.87,170.102 107.157,168.957 107.444,167.734 107.731,166.433 108.019,165.061 108.306,163.62 108.593,162.12 108.88,160.567 109.167,158.972 109.454,157.346 109.741,155.701 110.028,154.052 110.315,152.413 110.602,150.799 110.889,149.227 111.176,147.714 111.463,146.276 111.75,144.929 112.037,143.689 112.324,142.572 112.611,141.59 112.898,140.758 113.185,140.084 113.472,139.578 113.759,139.246 114.046,139.094 114.333,139.122 114.62,139.331 114.907,139.718 115.194,140.278 115.481,141.003 115.769,141.883 116.056,142.909 116.343,144.066 116.63,145.341 116.917,146.718 117.204,148.182 117.491,149.716 117.778,151.302 118.065,152.926 118.352,154.57 118.639,156.219 118.926,157.859 119.213,159.477 119.5,161.06 119.787,162.597 120.074,164.08 120.361,165.499 120.648,166.85 120.935,168.126 121.222,169.325 121.509,170.445 121.796,171.483 122.083,172.441 122.37,173.319 122.657,174.12 122.944,174.847 123.231,175.501 123.519,176.089 123.806,176.613 124.093,177.078 124.38,177.488 124.667,177.848 124.954,178.163 125.241,178.436 125.528,178.672 125.815,178.875 126.102,179.049 126.389,179.197 126.676,179.323 126.963,179.428 127.25,179.517 127.537,179.591 127.824,179.653 128.111,179.703 128.398,179.745 128.685,179.779 128.972,179.807 129.259,179.83 129.546,179.848 129.833,179.863 " />
</g>

<g fill="none" stroke="#3baa32" stroke-opacity="1" stroke-width="0.666667" stroke-linecap="butt" stroke-linejoin="round" transform="matrix(0.75,0,0,0.75,-38.625,-26)"
font-family="TeXGyreTermes" font-size="13" font-weight="400" font-style="normal" 
>
<polyline fill="none" vector-effect="none" points="78.1667,179.917 78.4537,179.917 78.7407,179.917 79.0278,179.917 79.3148,179.917 79.6019,179.917 79.8889,179.917 80.1759,179.917 80.463,179.917 80.75,179.917 81.037,179.917 81.3241,179.917 81.6111,179.917 81.8981,179.917 82.1852,179.917 82.4722,179.917 82.7593,179.917 83.0463,179.917 83.3333,179.917 83.6204,179.917 83.9074,179.917 84.1944,179.917 84.4815,179.917 84.7685,179.917 85.0556,179.917 85.3426,179.917 85.6296,179.917 85.9167,179.917 86.2037,179.917 86.4907,179.917 86.7778,179.917 87.0648,179.917 87.3519,179.917 87.6389,179.917 87.9259,179.917 88.213,179.917 88.5,179.917 88.787,179.917 89.0741,179.917 89.3611,179.917 89.6481,179.917 89.9352,179.917 90.2222,179.917 90.5093,179.917 90.7963,179.917 91.0833,179.917 91.3704,179.917 91.6574,179.917 91.9444,179.917 92.2315,179.917 92.5185,179.917 92.8056,179.917 93.0926,179.917 93.3796,179.917 93.6667,179.917 93.9537,179.917 94.2407,179.917 94.5278,179.917 94.8148,179.917 95.1019,179.917 95.3889,179.917 95.6759,179.917 95.963,179.917 96.25,179.917 96.537,179.917 96.8241,179.917 97.1111,179.917 97.3981,179.917 97.6852,179.917 97.9722,179.917 98.2593,179.917 98.5463,179.917 98.8333,179.917 99.1204,179.917 99.4074,179.917 99.6944,179.917 99.9815,179.917 100.269,179.917 100.556,179.917 100.843,179.917 101.13,179.917 101.417,179.917 101.704,179.917 101.991,179.917 102.278,179.917 102.565,179.917 102.852,179.916 103.139,179.916 103.426,179.916 103.713,179.916 104,179.916 104.287,179.916 104.574,179.916 104.861,179.915 105.148,179.915 105.435,179.914 105.722,179.913 106.009,179.912 106.296,179.91 106.583,179.908 106.87,179.905 107.157,179.902 107.444,179.897 107.731,179.891 108.019,179.884 108.306,179.875 108.593,179.863 108.88,179.849 109.167,179.831 109.454,179.808 109.741,179.78 110.028,179.746 110.315,179.705 110.602,179.654 110.889,179.593 111.176,179.519 111.463,179.431 111.75,179.326 112.037,179.201 112.324,179.054 112.611,178.881 112.898,178.678 113.185,178.443 113.472,178.171 113.759,177.858 114.046,177.499 114.333,177.09 114.62,176.627 114.907,176.105 115.194,175.519 115.481,174.866 115.769,174.142 116.056,173.343 116.343,172.467 116.63,171.512 116.917,170.476 117.204,169.359 117.491,168.162 117.778,166.888 118.065,165.539 118.352,164.121 118.639,162.641 118.926,161.105 119.213,159.523 119.5,157.906 119.787,156.267 120.074,154.617 120.361,152.973 120.648,151.349 120.935,149.761 121.222,148.225 121.509,146.759 121.796,145.379 122.083,144.101 122.37,142.94 122.657,141.911 122.944,141.026 123.231,140.296 123.519,139.732 123.806,139.34 124.093,139.126 124.38,139.083 124.667,139.083 124.954,139.083 125.241,139.083 125.528,139.083 125.815,139.083 126.102,139.083 126.389,139.083 126.676,139.083 126.963,139.083 127.25,139.083 127.537,139.083 127.824,139.083 128.111,139.083 128.398,139.083 128.685,139.083 128.972,139.083 129.259,139.083 129.546,139.083 129.833,139.083 " />
</g>

<g fill="#ffffff" fill-opacity="1" stroke="none" transform="matrix(7.5e-05,0,0,7.5e-05,-38.625,-26)"
font-family="TeXGyreTermes" font-size="13" font-weight="400" font-style="normal" 
>
<path vector-effect="none" fill-rule="evenodd" d="M2.79e+06,830000 L2.79e+06,1.48e+06 L3.41e+06,1.48e+06 L3.41e+06,830000 L2.79e+06,830000"/>
</g>

<g fill="#212121" fill-opacity="1" stroke="#212121" stroke-opacity="1" stroke-width="1" stroke-linecap="square" stroke-linejoin="bevel" transform="matrix(0.75,0,0,0.75,177.375,99.5)"
font-family="TeXGyreTermes" font-size="13" font-weight="400" font-style="normal" 
>
<text fill="#212121" fill-opacity="1" stroke="none" xml:space="preserve" x="0" y="0" font-family="TeXGyreTermes" font-size="13" font-weight="400" font-style="normal" 
 >force (5)</text>
</g>

<g fill="#212121" fill-opacity="1" stroke="#212121" stroke-opacity="1" stroke-width="2.66667" stroke-linecap="square" stroke-linejoin="round" transform="matrix(0.75,0,0,0.75,-38.625,-26)"
font-family="TeXGyreTermes" font-size="13" font-weight="400" font-style="normal" 
>
<polyline fill="none" vector-effect="none" points="279,148 341,148 " />
<polyline fill="none" vector-effect="none" points="279,83 341,83 " />
<polyline fill="none" vector-effect="none" points="279,148 279,83 " />
<polyline fill="none" vector-effect="none" points="341,148 341,83 " />
</g>

<g fill="none" stroke="#1171be" stroke-opacity="1" stroke-width="0.666667" stroke-linecap="butt" stroke-linejoin="round" transform="matrix(0.75,0,0,0.75,-38.625,-26)"
font-family="TeXGyreTermes" font-size="13" font-weight="400" font-style="normal" 
>
<polyline fill="none" vector-effect="none" points="284.167,139.198 284.454,138.523 284.741,137.744 285.028,136.85 285.315,135.833 285.602,134.685 285.889,133.398 286.176,131.967 286.463,130.388 286.75,128.661 287.037,126.787 287.324,124.77 287.611,122.619 287.898,120.346 288.185,117.967 288.472,115.5 288.759,112.969 289.046,110.4 289.333,107.824 289.62,105.272 289.907,102.778 290.194,100.379 290.481,98.1094 290.769,96.006 291.056,94.1028 291.343,92.4318 291.63,91.0218 291.917,89.8979 292.204,89.08 292.491,88.5833 292.778,88.4167 293.065,88.5833 293.352,89.08 293.639,89.8979 293.926,91.0218 294.213,92.4318 294.5,94.1028 294.787,96.006 295.074,98.1094 295.361,100.379 295.648,102.778 295.935,105.272 296.222,107.824 296.509,110.4 296.796,112.969 297.083,115.5 297.37,117.967 297.657,120.346 297.944,122.619 298.231,124.77 298.519,126.787 298.806,128.661 299.093,130.388 299.38,131.967 299.667,133.398 299.954,134.685 300.241,135.833 300.528,136.85 300.815,137.744 301.102,138.523 301.389,139.198 301.676,139.778 301.963,140.273 302.25,140.692 302.537,141.045 302.824,141.339 303.111,141.584 303.398,141.785 303.685,141.95 303.972,142.084 304.259,142.192 304.546,142.278 304.833,142.347 305.12,142.401 305.407,142.444 305.694,142.478 305.981,142.503 306.269,142.523 306.556,142.539 306.843,142.55 307.13,142.559 307.417,142.565 307.704,142.57 307.991,142.574 308.278,142.577 308.565,142.578 308.852,142.58 309.139,142.581 309.426,142.582 309.713,142.582 310,142.583 310.287,142.583 310.574,142.583 310.861,142.583 311.148,142.583 311.435,142.583 311.722,142.583 312.009,142.583 312.296,142.583 312.583,142.583 312.87,142.583 313.157,142.583 313.444,142.583 313.731,142.583 314.019,142.583 314.306,142.583 314.593,142.583 314.88,142.583 315.167,142.583 315.454,142.583 315.741,142.583 316.028,142.583 316.315,142.583 316.602,142.583 316.889,142.583 317.176,142.583 317.463,142.583 317.75,142.583 318.037,142.583 318.324,142.583 318.611,142.583 318.898,142.583 319.185,142.583 319.472,142.583 319.759,142.583 320.046,142.583 320.333,142.583 320.62,142.583 320.907,142.583 321.194,142.583 321.481,142.583 321.769,142.583 322.056,142.583 322.343,142.583 322.63,142.583 322.917,142.583 323.204,142.583 323.491,142.583 323.778,142.583 324.065,142.583 324.352,142.583 324.639,142.583 324.926,142.583 325.213,142.583 325.5,142.583 325.787,142.583 326.074,142.583 326.361,142.583 326.648,142.583 326.935,142.583 327.222,142.583 327.509,142.583 327.796,142.583 328.083,142.583 328.37,142.583 328.657,142.583 328.944,142.583 329.231,142.583 329.519,142.583 329.806,142.583 330.093,142.583 330.38,142.583 330.667,142.583 330.954,142.583 331.241,142.583 331.528,142.583 331.815,142.583 332.102,142.583 332.389,142.583 332.676,142.583 332.963,142.583 333.25,142.583 333.537,142.583 333.824,142.583 334.111,142.583 334.398,142.583 334.685,142.583 334.972,142.583 335.259,142.583 335.546,142.583 335.833,142.583 " />
</g>

<g fill="none" stroke="#dd5400" stroke-opacity="1" stroke-width="0.666667" stroke-linecap="butt" stroke-linejoin="round" transform="matrix(0.75,0,0,0.75,-38.625,-26)"
font-family="TeXGyreTermes" font-size="13" font-weight="400" font-style="normal" 
>
<polyline fill="none" vector-effect="none" points="284.167,142.583 284.454,142.582 284.741,142.582 285.028,142.581 285.315,142.58 285.602,142.578 285.889,142.577 286.176,142.574 286.463,142.57 286.75,142.565 287.037,142.559 287.324,142.55 287.611,142.539 287.898,142.523 288.185,142.503 288.472,142.478 288.759,142.444 289.046,142.401 289.333,142.347 289.62,142.278 289.907,142.192 290.194,142.084 290.481,141.95 290.769,141.785 291.056,141.584 291.343,141.339 291.63,141.045 291.917,140.692 292.204,140.273 292.491,139.778 292.778,139.198 293.065,138.523 293.352,137.744 293.639,136.85 293.926,135.833 294.213,134.685 294.5,133.398 294.787,131.967 295.074,130.388 295.361,128.661 295.648,126.787 295.935,124.77 296.222,122.619 296.509,120.346 296.796,117.967 297.083,115.5 297.37,112.969 297.657,110.4 297.944,107.824 298.231,105.272 298.519,102.778 298.806,100.379 299.093,98.1094 299.38,96.006 299.667,94.1028 299.954,92.4318 300.241,91.0218 300.528,89.8979 300.815,89.08 301.102,88.5833 301.389,88.4167 301.676,88.5833 301.963,89.08 302.25,89.8979 302.537,91.0218 302.824,92.4318 303.111,94.1028 303.398,96.006 303.685,98.1094 303.972,100.379 304.259,102.778 304.546,105.272 304.833,107.824 305.12,110.4 305.407,112.969 305.694,115.5 305.981,117.967 306.269,120.346 306.556,122.619 306.843,124.77 307.13,126.787 307.417,128.661 307.704,130.388 307.991,131.967 308.278,133.398 308.565,134.685 308.852,135.833 309.139,136.85 309.426,137.744 309.713,138.523 310,139.198 310.287,139.778 310.574,140.273 310.861,140.692 311.148,141.045 311.435,141.339 311.722,141.584 312.009,141.785 312.296,141.95 312.583,142.084 312.87,142.192 313.157,142.278 313.444,142.347 313.731,142.401 314.019,142.444 314.306,142.478 314.593,142.503 314.88,142.523 315.167,142.539 315.454,142.55 315.741,142.559 316.028,142.565 316.315,142.57 316.602,142.574 316.889,142.577 317.176,142.578 317.463,142.58 317.75,142.581 318.037,142.582 318.324,142.582 318.611,142.583 318.898,142.583 319.185,142.583 319.472,142.583 319.759,142.583 320.046,142.583 320.333,142.583 320.62,142.583 320.907,142.583 321.194,142.583 321.481,142.583 321.769,142.583 322.056,142.583 322.343,142.583 322.63,142.583 322.917,142.583 323.204,142.583 323.491,142.583 323.778,142.583 324.065,142.583 324.352,142.583 324.639,142.583 324.926,142.583 325.213,142.583 325.5,142.583 325.787,142.583 326.074,142.583 326.361,142.583 326.648,142.583 326.935,142.583 327.222,142.583 327.509,142.583 327.796,142.583 328.083,142.583 328.37,142.583 328.657,142.583 328.944,142.583 329.231,142.583 329.519,142.583 329.806,142.583 330.093,142.583 330.38,142.583 330.667,142.583 330.954,142.583 331.241,142.583 331.528,142.583 331.815,142.583 332.102,142.583 332.389,142.583 332.676,142.583 332.963,142.583 333.25,142.583 333.537,142.583 333.824,142.583 334.111,142.583 334.398,142.583 334.685,142.583 334.972,142.583 335.259,142.583 335.546,142.583 335.833,142.583 " />
</g>

<g fill="none" stroke="#edb120" stroke-opacity="1" stroke-width="0.666667" stroke-linecap="butt" stroke-linejoin="round" transform="matrix(0.75,0,0,0.75,-38.625,-26)"
font-family="TeXGyreTermes" font-size="13" font-weight="400" font-style="normal" 
>
<polyline fill="none" vector-effect="none" points="284.167,142.583 284.454,142.583 284.741,142.583 285.028,142.583 285.315,142.583 285.602,142.583 285.889,142.583 286.176,142.583 286.463,142.583 286.75,142.583 287.037,142.583 287.324,142.583 287.611,142.583 287.898,142.583 288.185,142.583 288.472,142.583 288.759,142.583 289.046,142.583 289.333,142.583 289.62,142.583 289.907,142.583 290.194,142.583 290.481,142.583 290.769,142.583 291.056,142.583 291.343,142.583 291.63,142.583 291.917,142.583 292.204,142.583 292.491,142.583 292.778,142.583 293.065,142.582 293.352,142.582 293.639,142.581 293.926,142.58 294.213,142.578 294.5,142.577 294.787,142.574 295.074,142.57 295.361,142.565 295.648,142.559 295.935,142.55 296.222,142.539 296.509,142.523 296.796,142.503 297.083,142.478 297.37,142.444 297.657,142.401 297.944,142.347 298.231,142.278 298.519,142.192 298.806,142.084 299.093,141.95 299.38,141.785 299.667,141.584 299.954,141.339 300.241,141.045 300.528,140.692 300.815,140.273 301.102,139.778 301.389,139.198 301.676,138.523 301.963,137.744 302.25,136.85 302.537,135.833 302.824,134.685 303.111,133.398 303.398,131.967 303.685,130.388 303.972,128.661 304.259,126.787 304.546,124.77 304.833,122.619 305.12,120.346 305.407,117.967 305.694,115.5 305.981,112.969 306.269,110.4 306.556,107.824 306.843,105.272 307.13,102.778 307.417,100.379 307.704,98.1094 307.991,96.006 308.278,94.1028 308.565,92.4318 308.852,91.0218 309.139,89.8979 309.426,89.08 309.713,88.5833 310,88.4167 310.287,88.5833 310.574,89.08 310.861,89.8979 311.148,91.0218 311.435,92.4318 311.722,94.1028 312.009,96.006 312.296,98.1094 312.583,100.379 312.87,102.778 313.157,105.272 313.444,107.824 313.731,110.4 314.019,112.969 314.306,115.5 314.593,117.967 314.88,120.346 315.167,122.619 315.454,124.77 315.741,126.787 316.028,128.661 316.315,130.388 316.602,131.967 316.889,133.398 317.176,134.685 317.463,135.833 317.75,136.85 318.037,137.744 318.324,138.523 318.611,139.198 318.898,139.778 319.185,140.273 319.472,140.692 319.759,141.045 320.046,141.339 320.333,141.584 320.62,141.785 320.907,141.95 321.194,142.084 321.481,142.192 321.769,142.278 322.056,142.347 322.343,142.401 322.63,142.444 322.917,142.478 323.204,142.503 323.491,142.523 323.778,142.539 324.065,142.55 324.352,142.559 324.639,142.565 324.926,142.57 325.213,142.574 325.5,142.577 325.787,142.578 326.074,142.58 326.361,142.581 326.648,142.582 326.935,142.582 327.222,142.583 327.509,142.583 327.796,142.583 328.083,142.583 328.37,142.583 328.657,142.583 328.944,142.583 329.231,142.583 329.519,142.583 329.806,142.583 330.093,142.583 330.38,142.583 330.667,142.583 330.954,142.583 331.241,142.583 331.528,142.583 331.815,142.583 332.102,142.583 332.389,142.583 332.676,142.583 332.963,142.583 333.25,142.583 333.537,142.583 333.824,142.583 334.111,142.583 334.398,142.583 334.685,142.583 334.972,142.583 335.259,142.583 335.546,142.583 335.833,142.583 " />
</g>

<g fill="none" stroke="#8516d1" stroke-opacity="1" stroke-width="0.666667" stroke-linecap="butt" stroke-linejoin="round" transform="matrix(0.75,0,0,0.75,-38.625,-26)"
font-family="TeXGyreTermes" font-size="13" font-weight="400" font-style="normal" 
>
<polyline fill="none" vector-effect="none" points="284.167,142.583 284.454,142.583 284.741,142.583 285.028,142.583 285.315,142.583 285.602,142.583 285.889,142.583 286.176,142.583 286.463,142.583 286.75,142.583 287.037,142.583 287.324,142.583 287.611,142.583 287.898,142.583 288.185,142.583 288.472,142.583 288.759,142.583 289.046,142.583 289.333,142.583 289.62,142.583 289.907,142.583 290.194,142.583 290.481,142.583 290.769,142.583 291.056,142.583 291.343,142.583 291.63,142.583 291.917,142.583 292.204,142.583 292.491,142.583 292.778,142.583 293.065,142.583 293.352,142.583 293.639,142.583 293.926,142.583 294.213,142.583 294.5,142.583 294.787,142.583 295.074,142.583 295.361,142.583 295.648,142.583 295.935,142.583 296.222,142.583 296.509,142.583 296.796,142.583 297.083,142.583 297.37,142.583 297.657,142.583 297.944,142.583 298.231,142.583 298.519,142.583 298.806,142.583 299.093,142.583 299.38,142.583 299.667,142.583 299.954,142.583 300.241,142.583 300.528,142.583 300.815,142.583 301.102,142.583 301.389,142.583 301.676,142.582 301.963,142.582 302.25,142.581 302.537,142.58 302.824,142.578 303.111,142.577 303.398,142.574 303.685,142.57 303.972,142.565 304.259,142.559 304.546,142.55 304.833,142.539 305.12,142.523 305.407,142.503 305.694,142.478 305.981,142.444 306.269,142.401 306.556,142.347 306.843,142.278 307.13,142.192 307.417,142.084 307.704,141.95 307.991,141.785 308.278,141.584 308.565,141.339 308.852,141.045 309.139,140.692 309.426,140.273 309.713,139.778 310,139.198 310.287,138.523 310.574,137.744 310.861,136.85 311.148,135.833 311.435,134.685 311.722,133.398 312.009,131.967 312.296,130.388 312.583,128.661 312.87,126.787 313.157,124.77 313.444,122.619 313.731,120.346 314.019,117.967 314.306,115.5 314.593,112.969 314.88,110.4 315.167,107.824 315.454,105.272 315.741,102.778 316.028,100.379 316.315,98.1094 316.602,96.006 316.889,94.1028 317.176,92.4318 317.463,91.0218 317.75,89.8979 318.037,89.08 318.324,88.5833 318.611,88.4167 318.898,88.5833 319.185,89.08 319.472,89.8979 319.759,91.0218 320.046,92.4318 320.333,94.1028 320.62,96.006 320.907,98.1094 321.194,100.379 321.481,102.778 321.769,105.272 322.056,107.824 322.343,110.4 322.63,112.969 322.917,115.5 323.204,117.967 323.491,120.346 323.778,122.619 324.065,124.77 324.352,126.787 324.639,128.661 324.926,130.388 325.213,131.967 325.5,133.398 325.787,134.685 326.074,135.833 326.361,136.85 326.648,137.744 326.935,138.523 327.222,139.198 327.509,139.778 327.796,140.273 328.083,140.692 328.37,141.045 328.657,141.339 328.944,141.584 329.231,141.785 329.519,141.95 329.806,142.084 330.093,142.192 330.38,142.278 330.667,142.347 330.954,142.401 331.241,142.444 331.528,142.478 331.815,142.503 332.102,142.523 332.389,142.539 332.676,142.55 332.963,142.559 333.25,142.565 333.537,142.57 333.824,142.574 334.111,142.577 334.398,142.578 334.685,142.58 334.972,142.581 335.259,142.582 335.546,142.582 335.833,142.583 " />
</g>

<g fill="none" stroke="#3baa32" stroke-opacity="1" stroke-width="0.666667" stroke-linecap="butt" stroke-linejoin="round" transform="matrix(0.75,0,0,0.75,-38.625,-26)"
font-family="TeXGyreTermes" font-size="13" font-weight="400" font-style="normal" 
>
<polyline fill="none" vector-effect="none" points="284.167,142.583 284.454,142.583 284.741,142.583 285.028,142.583 285.315,142.583 285.602,142.583 285.889,142.583 286.176,142.583 286.463,142.583 286.75,142.583 287.037,142.583 287.324,142.583 287.611,142.583 287.898,142.583 288.185,142.583 288.472,142.583 288.759,142.583 289.046,142.583 289.333,142.583 289.62,142.583 289.907,142.583 290.194,142.583 290.481,142.583 290.769,142.583 291.056,142.583 291.343,142.583 291.63,142.583 291.917,142.583 292.204,142.583 292.491,142.583 292.778,142.583 293.065,142.583 293.352,142.583 293.639,142.583 293.926,142.583 294.213,142.583 294.5,142.583 294.787,142.583 295.074,142.583 295.361,142.583 295.648,142.583 295.935,142.583 296.222,142.583 296.509,142.583 296.796,142.583 297.083,142.583 297.37,142.583 297.657,142.583 297.944,142.583 298.231,142.583 298.519,142.583 298.806,142.583 299.093,142.583 299.38,142.583 299.667,142.583 299.954,142.583 300.241,142.583 300.528,142.583 300.815,142.583 301.102,142.583 301.389,142.583 301.676,142.583 301.963,142.583 302.25,142.583 302.537,142.583 302.824,142.583 303.111,142.583 303.398,142.583 303.685,142.583 303.972,142.583 304.259,142.583 304.546,142.583 304.833,142.583 305.12,142.583 305.407,142.583 305.694,142.583 305.981,142.583 306.269,142.583 306.556,142.583 306.843,142.583 307.13,142.583 307.417,142.583 307.704,142.583 307.991,142.583 308.278,142.583 308.565,142.583 308.852,142.583 309.139,142.583 309.426,142.583 309.713,142.583 310,142.583 310.287,142.582 310.574,142.582 310.861,142.581 311.148,142.58 311.435,142.578 311.722,142.577 312.009,142.574 312.296,142.57 312.583,142.565 312.87,142.559 313.157,142.55 313.444,142.539 313.731,142.523 314.019,142.503 314.306,142.478 314.593,142.444 314.88,142.401 315.167,142.347 315.454,142.278 315.741,142.192 316.028,142.084 316.315,141.95 316.602,141.785 316.889,141.584 317.176,141.339 317.463,141.045 317.75,140.692 318.037,140.273 318.324,139.778 318.611,139.198 318.898,138.523 319.185,137.744 319.472,136.85 319.759,135.833 320.046,134.685 320.333,133.398 320.62,131.967 320.907,130.388 321.194,128.661 321.481,126.787 321.769,124.77 322.056,122.619 322.343,120.346 322.63,117.967 322.917,115.5 323.204,112.969 323.491,110.4 323.778,107.824 324.065,105.272 324.352,102.778 324.639,100.379 324.926,98.1094 325.213,96.006 325.5,94.1028 325.787,92.4318 326.074,91.0218 326.361,89.8979 326.648,89.08 326.935,88.5833 327.222,88.4167 327.509,88.5833 327.796,89.08 328.083,89.8979 328.37,91.0218 328.657,92.4318 328.944,94.1028 329.231,96.006 329.519,98.1094 329.806,100.379 330.093,102.778 330.38,105.272 330.667,107.824 330.954,110.4 331.241,112.969 331.528,115.5 331.815,117.967 332.102,120.346 332.389,122.619 332.676,124.77 332.963,126.787 333.25,128.661 333.537,130.388 333.824,131.967 334.111,133.398 334.398,134.685 334.685,135.833 334.972,136.85 335.259,137.744 335.546,138.523 335.833,139.198 " />
</g>

<g fill="#ffffff" fill-opacity="1" stroke="none" transform="matrix(7.5e-05,0,0,7.5e-05,-38.625,-26)"
font-family="TeXGyreTermes" font-size="13" font-weight="400" font-style="normal" 
>
<path vector-effect="none" fill-rule="evenodd" d="M1.76e+06,670000 L1.76e+06,1.65e+06 L2.38e+06,1.65e+06 L2.38e+06,670000 L1.76e+06,670000"/>
</g>

<g fill="#212121" fill-opacity="1" stroke="#212121" stroke-opacity="1" stroke-width="1" stroke-linecap="square" stroke-linejoin="bevel" transform="matrix(0.75,0,0,0.75,71.25,112.25)"
font-family="TeXGyreTermes" font-size="13" font-weight="400" font-style="normal" 
>
<text fill="#212121" fill-opacity="1" stroke="none" xml:space="preserve" x="0" y="0" font-family="TeXGyreTermes" font-size="13" font-weight="400" font-style="normal" 
 >gaussian_product (25)</text>
</g>

<g fill="#212121" fill-opacity="1" stroke="#212121" stroke-opacity="1" stroke-width="2.66667" stroke-linecap="square" stroke-linejoin="round" transform="matrix(0.75,0,0,0.75,-38.625,-26)"
font-family="TeXGyreTermes" font-size="13" font-weight="400" font-style="normal" 
>
<polyline fill="none" vector-effect="none" points="176,165 238,165 " />
<polyline fill="none" vector-effect="none" points="176,67 238,67 " />
<polyline fill="none" vector-effect="none" points="176,165 176,67 " />
<polyline fill="none" vector-effect="none" points="238,165 238,67 " />
</g>

<g fill="#212121" fill-opacity="1" stroke="#212121" stroke-opacity="1" stroke-width="1" stroke-linecap="square" stroke-linejoin="bevel" transform="matrix(0.75,0,0,0.75,97.125,58.375)"
font-family="TeXGyreTermes" font-size="13" font-weight="400" font-style="normal" 
>
<text fill="#212121" fill-opacity="1" stroke="none" xml:space="preserve" x="0" y="0" font-family="TeXGyreTermes" font-size="13" font-weight="400" font-style="normal" 
 >Mamdani</text>
</g>

<g fill="#212121" fill-opacity="1" stroke="#212121" stroke-opacity="1" stroke-width="1" stroke-linecap="square" stroke-linejoin="bevel" transform="matrix(0.75,0,0,0.75,102.75,71.125)"
font-family="TeXGyreTermes" font-size="13" font-weight="400" font-style="normal" 
>
<text fill="#212121" fill-opacity="1" stroke="none" xml:space="preserve" x="0" y="0" font-family="TeXGyreTermes" font-size="13" font-weight="400" font-style="normal" 
 >Type 1</text>
</g>
</g>
</svg>
