<?xml version="1.0" encoding="UTF-8" standalone="no"?>
<svg width="92.7806mm" height="73.3778mm"
 viewBox="0 0 263 208"
 xmlns="http://www.w3.org/2000/svg" xmlns:xlink="http://www.w3.org/1999/xlink"  version="1.2" baseProfile="tiny">
<title>Qt SVG Document</title>
<desc>MATLAB, The MathWorks, Inc. Version 25.2.0.3123386 R2025b Update 3</desc>
<defs>
</defs>
<g fill="none" stroke="black" stroke-width="1" fill-rule="evenodd" stroke-linecap="square" stroke-linejoin="bevel" >

<g fill="#ffffff" fill-opacity="1" stroke="none" transform="matrix(0.75,0,0,0.75,-12.8,-10.5)"
font-family="MS Shell Dlg 2" font-size="8.25" font-weight="400" font-style="normal" 
>
<path vector-effect="none" fill-rule="evenodd" d="M16,12 L367,12 L367,291 L16,291 L16,12"/>
</g>

<g fill="#ffffff" fill-opacity="1" stroke="none" transform="matrix(7.5e-05,0,0,7.5e-05,-12.8,-10.5)"
font-family="MS Shell Dlg 2" font-size="8.25" font-weight="400" font-style="normal" 
>
<path vector-effect="none" fill-rule="evenodd" d="M520000,220000 L520000,1.28e+06 L3.62e+06,1.28e+06 L3.62e+06,220000 L520000,220000"/>
</g>

<g fill="#212121" fill-opacity="0.14902" stroke="#212121" stroke-opacity="0.14902" stroke-width="0.666667" stroke-linecap="butt" stroke-linejoin="round" transform="matrix(0.75,0,0,0.75,-12.8,-10.5)"
font-family="MS Shell Dlg 2" font-size="8.25" font-weight="400" font-style="normal" 
>
<polyline fill="none" vector-effect="none" points="52,22 52,128 " />
<polyline fill="none" vector-effect="none" points="103.667,22 103.667,128 " />
<polyline fill="none" vector-effect="none" points="155.333,22 155.333,128 " />
<polyline fill="none" vector-effect="none" points="207,22 207,128 " />
<polyline fill="none" vector-effect="none" points="258.667,22 258.667,128 " />
<polyline fill="none" vector-effect="none" points="310.333,22 310.333,128 " />
<polyline fill="none" vector-effect="none" points="362,22 362,128 " />
<polyline fill="none" vector-effect="none" points="52,128 362,128 " />
<polyline fill="none" vector-effect="none" points="52,101.5 362,101.5 " />
<polyline fill="none" vector-effect="none" points="52,75 362,75 " />
<polyline fill="none" vector-effect="none" points="52,48.5 362,48.5 " />
<polyline fill="none" vector-effect="none" points="52,22 362,22 " />
</g>

<g fill="#212121" fill-opacity="1" stroke="#212121" stroke-opacity="1" stroke-width="0.666667" stroke-linecap="square" stroke-linejoin="round" transform="matrix(0.75,0,0,0.75,-12.8,-10.5)"
font-family="MS Shell Dlg 2" font-size="8.25" font-weight="400" font-style="normal" 
>
<polyline fill="none" vector-effect="none" points="52,128 362,128 " />
<polyline fill="none" vector-effect="none" points="52,22 362,22 " />
<polyline fill="none" vector-effect="none" points="52,128 52,124.9 " />
<polyline fill="none" vector-effect="none" points="52,25.1 52,22 " />
<polyline fill="none" vector-effect="none" points="103.667,128 103.667,124.9 " />
<polyline fill="none" vector-effect="none" points="103.667,25.1 103.667,22 " />
<polyline fill="none" vector-effect="none" points="155.333,128 155.333,124.9 " />
<polyline fill="none" vector-effect="none" points="155.333,25.1 155.333,22 " />
<polyline fill="none" vector-effect="none" points="207,128 207,124.9 " />
<polyline fill="none" vector-effect="none" points="207,25.1 207,22 " />
<polyline fill="none" vector-effect="none" points="258.667,128 258.667,124.9 " />
<polyline fill="none" vector-effect="none" points="258.667,25.1 258.667,22 " />
<polyline fill="none" vector-effect="none" points="310.333,128 310.333,124.9 " />
<polyline fill="none" vector-effect="none" points="310.333,25.1 310.333,22 " />
<polyline fill="none" vector-effect="none" points="362,128 362,124.9 " />
<polyline fill="none" vector-effect="none" points="362,25.1 362,22 " />
</g>

<g fill="#212121" fill-opacity="1" stroke="#212121" stroke-opacity="1" stroke-width="1" stroke-linecap="square" stroke-linejoin="bevel" transform="matrix(0.75,0,0,0.75,23.95,95.2)"
font-family="Helvetica" font-size="11" font-weight="400" font-style="normal" 
>
<text fill="#212121" fill-opacity="1" stroke="none" xml:space="preserve" x="0" y="0" font-family="Helvetica" font-size="11" font-weight="400" font-style="normal" 
 >0</text>
</g>

<g fill="#212121" fill-opacity="1" stroke="#212121" stroke-opacity="1" stroke-width="1" stroke-linecap="square" stroke-linejoin="bevel" transform="matrix(0.75,0,0,0.75,59.325,95.2)"
font-family="Helvetica" font-size="11" font-weight="400" font-style="normal" 
>
<text fill="#212121" fill-opacity="1" stroke="none" xml:space="preserve" x="0" y="0" font-family="Helvetica" font-size="11" font-weight="400" font-style="normal" 
 >0.5</text>
</g>

<g fill="#212121" fill-opacity="1" stroke="#212121" stroke-opacity="1" stroke-width="1" stroke-linecap="square" stroke-linejoin="bevel" transform="matrix(0.75,0,0,0.75,101.45,95.2)"
font-family="Helvetica" font-size="11" font-weight="400" font-style="normal" 
>
<text fill="#212121" fill-opacity="1" stroke="none" xml:space="preserve" x="0" y="0" font-family="Helvetica" font-size="11" font-weight="400" font-style="normal" 
 >1</text>
</g>

<g fill="#212121" fill-opacity="1" stroke="#212121" stroke-opacity="1" stroke-width="1" stroke-linecap="square" stroke-linejoin="bevel" transform="matrix(0.75,0,0,0.75,136.825,95.2)"
font-family="Helvetica" font-size="11" font-weight="400" font-style="normal" 
>
<text fill="#212121" fill-opacity="1" stroke="none" xml:space="preserve" x="0" y="0" font-family="Helvetica" font-size="11" font-weight="400" font-style="normal" 
 >1.5</text>
</g>

<g fill="#212121" fill-opacity="1" stroke="#212121" stroke-opacity="1" stroke-width="1" stroke-linecap="square" stroke-linejoin="bevel" transform="matrix(0.75,0,0,0.75,178.95,95.2)"
font-family="Helvetica" font-size="11" font-weight="400" font-style="normal" 
>
<text fill="#212121" fill-opacity="1" stroke="none" xml:space="preserve" x="0" y="0" font-family="Helvetica" font-size="11" font-weight="400" font-style="normal" 
 >2</text>
</g>

<g fill="#212121" fill-opacity="1" stroke="#212121" stroke-opacity="1" stroke-width="1" stroke-linecap="square" stroke-linejoin="bevel" transform="matrix(0.75,0,0,0.75,214.325,95.2)"
font-family="Helvetica" font-size="11" font-weight="400" font-style="normal" 
>
<text fill="#212121" fill-opacity="1" stroke="none" xml:space="preserve" x="0" y="0" font-family="Helvetica" font-size="11" font-weight="400" font-style="normal" 
 >2.5</text>
</g>

<g fill="#212121" fill-opacity="1" stroke="#212121" stroke-opacity="1" stroke-width="1" stroke-linecap="square" stroke-linejoin="bevel" transform="matrix(0.75,0,0,0.75,256.45,95.2)"
font-family="Helvetica" font-size="11" font-weight="400" font-style="normal" 
>
<text fill="#212121" fill-opacity="1" stroke="none" xml:space="preserve" x="0" y="0" font-family="Helvetica" font-size="11" font-weight="400" font-style="normal" 
 >3</text>
</g>

<g fill="#212121" fill-opacity="1" stroke="#212121" stroke-opacity="1" stroke-width="1" stroke-linecap="square" stroke-linejoin="bevel" transform="matrix(0,-0.75,0.75,0,8.25,90)"
font-family="Helvetica" font-size="12" font-weight="400" font-style="normal" 
>
<text fill="#212121" fill-opacity="1" stroke="none" xml:space="preserve" x="0" y="0" font-family="Helvetica" font-size="12" font-weight="400" font-style="normal" 
 >Angular position (rad)</text>
</g>

<g fill="#212121" fill-opacity="1" stroke="#212121" stroke-opacity="1" stroke-width="0.666667" stroke-linecap="square" stroke-linejoin="round" transform="matrix(0.75,0,0,0.75,-12.8,-10.5)"
font-family="Helvetica" font-size="12" font-weight="400" font-style="normal" 
>
<polyline fill="none" vector-effect="none" points="52,128 52,22 " />
<polyline fill="none" vector-effect="none" points="362,128 362,22 " />
<polyline fill="none" vector-effect="none" points="52,128 55.1,128 " />
<polyline fill="none" vector-effect="none" points="358.9,128 362,128 " />
<polyline fill="none" vector-effect="none" points="52,101.5 55.1,101.5 " />
<polyline fill="none" vector-effect="none" points="358.9,101.5 362,101.5 " />
<polyline fill="none" vector-effect="none" points="52,75 55.1,75 " />
<polyline fill="none" vector-effect="none" points="358.9,75 362,75 " />
<polyline fill="none" vector-effect="none" points="52,48.5 55.1,48.5 " />
<polyline fill="none" vector-effect="none" points="358.9,48.5 362,48.5 " />
<polyline fill="none" vector-effect="none" points="52,22 55.1,22 " />
<polyline fill="none" vector-effect="none" points="358.9,22 362,22 " />
</g>

<g fill="#212121" fill-opacity="1" stroke="#212121" stroke-opacity="1" stroke-width="1" stroke-linecap="square" stroke-linejoin="bevel" transform="matrix(0.75,0,0,0.75,12.75,88.125)"
font-family="Helvetica" font-size="11" font-weight="400" font-style="normal" 
>
<text fill="#212121" fill-opacity="1" stroke="none" xml:space="preserve" x="0" y="0" font-family="Helvetica" font-size="11" font-weight="400" font-style="normal" 
 >0.1</text>
</g>

<g fill="#212121" fill-opacity="1" stroke="#212121" stroke-opacity="1" stroke-width="1" stroke-linecap="square" stroke-linejoin="bevel" transform="matrix(0.75,0,0,0.75,12.75,68.25)"
font-family="Helvetica" font-size="11" font-weight="400" font-style="normal" 
>
<text fill="#212121" fill-opacity="1" stroke="none" xml:space="preserve" x="0" y="0" font-family="Helvetica" font-size="11" font-weight="400" font-style="normal" 
 >0.2</text>
</g>

<g fill="#212121" fill-opacity="1" stroke="#212121" stroke-opacity="1" stroke-width="1" stroke-linecap="square" stroke-linejoin="bevel" transform="matrix(0.75,0,0,0.75,12.75,48.375)"
font-family="Helvetica" font-size="11" font-weight="400" font-style="normal" 
>
<text fill="#212121" fill-opacity="1" stroke="none" xml:space="preserve" x="0" y="0" font-family="Helvetica" font-size="11" font-weight="400" font-style="normal" 
 >0.3</text>
</g>

<g fill="#212121" fill-opacity="1" stroke="#212121" stroke-opacity="1" stroke-width="1" stroke-linecap="square" stroke-linejoin="bevel" transform="matrix(0.75,0,0,0.75,12.75,28.5)"
font-family="Helvetica" font-size="11" font-weight="400" font-style="normal" 
>
<text fill="#212121" fill-opacity="1" stroke="none" xml:space="preserve" x="0" y="0" font-family="Helvetica" font-size="11" font-weight="400" font-style="normal" 
 >0.4</text>
</g>

<g fill="#212121" fill-opacity="1" stroke="#212121" stroke-opacity="1" stroke-width="1" stroke-linecap="square" stroke-linejoin="bevel" transform="matrix(0.75,0,0,0.75,12.75,8.62505)"
font-family="Helvetica" font-size="11" font-weight="400" font-style="normal" 
>
<text fill="#212121" fill-opacity="1" stroke="none" xml:space="preserve" x="0" y="0" font-family="Helvetica" font-size="11" font-weight="400" font-style="normal" 
 >0.5</text>
</g>

<g fill="none" stroke="#1171be" stroke-opacity="1" stroke-width="0.666667" stroke-linecap="butt" stroke-linejoin="round" transform="matrix(0.75,0,0,0.75,-12.8,-10.5)"
font-family="Helvetica" font-size="11" font-weight="400" font-style="normal" 
>
<polyline fill="none" vector-effect="none" points="52,128 52.0004,128 52.0026,128 52.0133,128 52.0573,128 52.1917,127.999 52.5107,127.994 53.0949,127.974 53.9718,127.92 55.4819,127.771 56.4587,127.641 57.4356,127.487 58.2412,127.345 58.9995,127.2 59.8235,127.033 60.7531,126.836 61.7637,126.613 62.8274,126.373 63.9563,126.113 65.1947,125.824 66.5958,125.495 68.1833,125.119 69.9055,124.71 71.6351,124.296 73.2879,123.897 74.8812,123.51 76.4688,123.122 78.077,122.726 79.6979,122.325 81.3159,121.921 82.9289,121.516 84.5434,121.108 86.164,120.696 87.7892,120.28 89.4161,119.861 91.0438,119.439 92.6737,119.014 94.3066,118.585 95.9425,118.153 97.581,117.718 99.2217,117.28 100.865,116.838 102.511,116.393 104.16,115.945 105.811,115.493 107.466,115.038 109.123,114.58 110.783,114.118 112.446,113.653 114.111,113.185 115.78,112.713 117.455,112.237 119.121,111.761 120.789,111.282 122.472,110.797 124.168,110.305 125.866,109.811 127.561,109.314 129.257,108.816 130.959,108.313 132.668,107.806 134.38,107.295 136.095,106.782 137.813,106.265 139.536,105.744 141.263,105.22 142.995,104.692 144.73,104.161 146.47,103.626 148.215,103.088 149.964,102.546 151.718,102.001 153.477,101.452 155.24,100.899 157.009,100.342 158.782,99.7823 160.557,99.2197 162.341,98.6521 164.142,98.0772 165.957,97.4961 167.775,96.9119 169.593,96.3258 171.415,95.7363 173.247,95.142 175.088,94.5428 176.936,93.9396 178.789,93.3329 180.649,92.7223 182.517,92.1072 184.394,91.4875 186.279,90.8636 188.171,90.2355 190.071,89.6031 191.98,88.9661 193.899,88.3244 195.827,87.6781 197.763,87.0275 199.706,86.3735 201.672,85.7103 203.674,85.0333 205.698,84.3479 207.751,83.6517 209.884,82.9293 212.708,81.9779 214.528,81.3686 216.349,80.7625 218.282,80.122 220.316,79.452 222.332,78.7916 224.288,78.1547 226.227,77.527 228.194,76.8936 230.189,76.2548 232.201,75.6147 234.202,74.9821 236.187,74.3581 238.171,73.7382 240.167,73.1185 242.172,72.5 244.179,71.8848 246.186,71.2735 248.196,70.6651 250.213,70.0585 252.235,69.4546 254.257,68.8544 256.281,68.2579 258.309,67.664 260.343,67.0721 262.384,66.4825 264.429,65.8955 266.478,65.3112 268.533,64.7294 270.594,64.1499 272.66,63.5728 274.732,62.9982 276.809,62.426 278.892,61.8562 280.981,61.2887 283.075,60.7236 285.176,60.1608 287.282,59.6003 289.395,59.0422 291.514,58.4864 293.64,57.9325 295.779,57.3793 297.937,56.8251 300.1,56.2739 302.256,55.7283 304.413,55.1864 306.582,54.6457 308.763,54.1059 310.951,53.5681 313.145,53.0332 315.344,52.5007 317.552,51.97 319.769,51.441 321.994,50.9139 324.226,50.389 326.466,49.8661 328.714,49.3451 330.97,48.8258 333.235,48.3084 335.508,47.7928 337.789,47.279 340.079,46.767 342.377,46.2566 344.684,45.7479 346.996,45.2416 349.32,44.7361 351.66,44.2304 354.015,43.7249 356.38,43.2208 358.75,42.7186 361.13,42.2177 362,42.0354 " />
</g>

<g fill="#ffffff" fill-opacity="1" stroke="none" transform="matrix(7.5e-05,0,0,7.5e-05,-12.8,-10.5)"
font-family="Helvetica" font-size="11" font-weight="400" font-style="normal" 
>
<path vector-effect="none" fill-rule="evenodd" d="M520000,1.54e+06 L520000,2.6e+06 L3.62e+06,2.6e+06 L3.62e+06,1.54e+06 L520000,1.54e+06"/>
</g>

<g fill="#212121" fill-opacity="0.14902" stroke="#212121" stroke-opacity="0.14902" stroke-width="0.666667" stroke-linecap="butt" stroke-linejoin="round" transform="matrix(0.75,0,0,0.75,-12.8,-10.5)"
font-family="Helvetica" font-size="11" font-weight="400" font-style="normal" 
>
<polyline fill="none" vector-effect="none" points="52,154 52,260 " />
<polyline fill="none" vector-effect="none" points="103.667,154 103.667,260 " />
<polyline fill="none" vector-effect="none" points="155.333,154 155.333,260 " />
<polyline fill="none" vector-effect="none" points="207,154 207,260 " />
<polyline fill="none" vector-effect="none" points="258.667,154 258.667,260 " />
<polyline fill="none" vector-effect="none" points="310.333,154 310.333,260 " />
<polyline fill="none" vector-effect="none" points="362,154 362,260 " />
<polyline fill="none" vector-effect="none" points="52,260 362,260 " />
<polyline fill="none" vector-effect="none" points="52,233.5 362,233.5 " />
<polyline fill="none" vector-effect="none" points="52,207 362,207 " />
<polyline fill="none" vector-effect="none" points="52,180.5 362,180.5 " />
<polyline fill="none" vector-effect="none" points="52,154 362,154 " />
</g>

<g fill="#212121" fill-opacity="1" stroke="#212121" stroke-opacity="1" stroke-width="1" stroke-linecap="square" stroke-linejoin="bevel" transform="matrix(0.75,0,0,0.75,121.075,204.2)"
font-family="Helvetica" font-size="12" font-weight="400" font-style="normal" 
>
<text fill="#212121" fill-opacity="1" stroke="none" xml:space="preserve" x="0" y="0" font-family="Helvetica" font-size="12" font-weight="400" font-style="normal" 
 >Time (sec)</text>
</g>

<g fill="#212121" fill-opacity="1" stroke="#212121" stroke-opacity="1" stroke-width="0.666667" stroke-linecap="square" stroke-linejoin="round" transform="matrix(0.75,0,0,0.75,-12.8,-10.5)"
font-family="Helvetica" font-size="12" font-weight="400" font-style="normal" 
>
<polyline fill="none" vector-effect="none" points="52,260 362,260 " />
<polyline fill="none" vector-effect="none" points="52,154 362,154 " />
<polyline fill="none" vector-effect="none" points="52,260 52,256.9 " />
<polyline fill="none" vector-effect="none" points="52,157.1 52,154 " />
<polyline fill="none" vector-effect="none" points="103.667,260 103.667,256.9 " />
<polyline fill="none" vector-effect="none" points="103.667,157.1 103.667,154 " />
<polyline fill="none" vector-effect="none" points="155.333,260 155.333,256.9 " />
<polyline fill="none" vector-effect="none" points="155.333,157.1 155.333,154 " />
<polyline fill="none" vector-effect="none" points="207,260 207,256.9 " />
<polyline fill="none" vector-effect="none" points="207,157.1 207,154 " />
<polyline fill="none" vector-effect="none" points="258.667,260 258.667,256.9 " />
<polyline fill="none" vector-effect="none" points="258.667,157.1 258.667,154 " />
<polyline fill="none" vector-effect="none" points="310.333,260 310.333,256.9 " />
<polyline fill="none" vector-effect="none" points="310.333,157.1 310.333,154 " />
<polyline fill="none" vector-effect="none" points="362,260 362,256.9 " />
<polyline fill="none" vector-effect="none" points="362,157.1 362,154 " />
</g>

<g fill="#212121" fill-opacity="1" stroke="#212121" stroke-opacity="1" stroke-width="1" stroke-linecap="square" stroke-linejoin="bevel" transform="matrix(0.75,0,0,0.75,23.95,194.2)"
font-family="Helvetica" font-size="11" font-weight="400" font-style="normal" 
>
<text fill="#212121" fill-opacity="1" stroke="none" xml:space="preserve" x="0" y="0" font-family="Helvetica" font-size="11" font-weight="400" font-style="normal" 
 >0</text>
</g>

<g fill="#212121" fill-opacity="1" stroke="#212121" stroke-opacity="1" stroke-width="1" stroke-linecap="square" stroke-linejoin="bevel" transform="matrix(0.75,0,0,0.75,59.325,194.2)"
font-family="Helvetica" font-size="11" font-weight="400" font-style="normal" 
>
<text fill="#212121" fill-opacity="1" stroke="none" xml:space="preserve" x="0" y="0" font-family="Helvetica" font-size="11" font-weight="400" font-style="normal" 
 >0.5</text>
</g>

<g fill="#212121" fill-opacity="1" stroke="#212121" stroke-opacity="1" stroke-width="1" stroke-linecap="square" stroke-linejoin="bevel" transform="matrix(0.75,0,0,0.75,101.45,194.2)"
font-family="Helvetica" font-size="11" font-weight="400" font-style="normal" 
>
<text fill="#212121" fill-opacity="1" stroke="none" xml:space="preserve" x="0" y="0" font-family="Helvetica" font-size="11" font-weight="400" font-style="normal" 
 >1</text>
</g>

<g fill="#212121" fill-opacity="1" stroke="#212121" stroke-opacity="1" stroke-width="1" stroke-linecap="square" stroke-linejoin="bevel" transform="matrix(0.75,0,0,0.75,136.825,194.2)"
font-family="Helvetica" font-size="11" font-weight="400" font-style="normal" 
>
<text fill="#212121" fill-opacity="1" stroke="none" xml:space="preserve" x="0" y="0" font-family="Helvetica" font-size="11" font-weight="400" font-style="normal" 
 >1.5</text>
</g>

<g fill="#212121" fill-opacity="1" stroke="#212121" stroke-opacity="1" stroke-width="1" stroke-linecap="square" stroke-linejoin="bevel" transform="matrix(0.75,0,0,0.75,178.95,194.2)"
font-family="Helvetica" font-size="11" font-weight="400" font-style="normal" 
>
<text fill="#212121" fill-opacity="1" stroke="none" xml:space="preserve" x="0" y="0" font-family="Helvetica" font-size="11" font-weight="400" font-style="normal" 
 >2</text>
</g>

<g fill="#212121" fill-opacity="1" stroke="#212121" stroke-opacity="1" stroke-width="1" stroke-linecap="square" stroke-linejoin="bevel" transform="matrix(0.75,0,0,0.75,214.325,194.2)"
font-family="Helvetica" font-size="11" font-weight="400" font-style="normal" 
>
<text fill="#212121" fill-opacity="1" stroke="none" xml:space="preserve" x="0" y="0" font-family="Helvetica" font-size="11" font-weight="400" font-style="normal" 
 >2.5</text>
</g>

<g fill="#212121" fill-opacity="1" stroke="#212121" stroke-opacity="1" stroke-width="1" stroke-linecap="square" stroke-linejoin="bevel" transform="matrix(0.75,0,0,0.75,256.45,194.2)"
font-family="Helvetica" font-size="11" font-weight="400" font-style="normal" 
>
<text fill="#212121" fill-opacity="1" stroke="none" xml:space="preserve" x="0" y="0" font-family="Helvetica" font-size="11" font-weight="400" font-style="normal" 
 >3</text>
</g>

<g fill="#212121" fill-opacity="1" stroke="#212121" stroke-opacity="1" stroke-width="1" stroke-linecap="square" stroke-linejoin="bevel" transform="matrix(0,-0.75,0.75,0,15,173.625)"
font-family="Helvetica" font-size="12" font-weight="400" font-style="normal" 
>
<text fill="#212121" fill-opacity="1" stroke="none" xml:space="preserve" x="0" y="0" font-family="Helvetica" font-size="12" font-weight="400" font-style="normal" 
 >Input force (N)</text>
</g>

<g fill="#212121" fill-opacity="1" stroke="#212121" stroke-opacity="1" stroke-width="0.666667" stroke-linecap="square" stroke-linejoin="round" transform="matrix(0.75,0,0,0.75,-12.8,-10.5)"
font-family="Helvetica" font-size="12" font-weight="400" font-style="normal" 
>
<polyline fill="none" vector-effect="none" points="52,260 52,154 " />
<polyline fill="none" vector-effect="none" points="362,260 362,154 " />
<polyline fill="none" vector-effect="none" points="52,260 55.1,260 " />
<polyline fill="none" vector-effect="none" points="358.9,260 362,260 " />
<polyline fill="none" vector-effect="none" points="52,233.5 55.1,233.5 " />
<polyline fill="none" vector-effect="none" points="358.9,233.5 362,233.5 " />
<polyline fill="none" vector-effect="none" points="52,207 55.1,207 " />
<polyline fill="none" vector-effect="none" points="358.9,207 362,207 " />
<polyline fill="none" vector-effect="none" points="52,180.5 55.1,180.5 " />
<polyline fill="none" vector-effect="none" points="358.9,180.5 362,180.5 " />
<polyline fill="none" vector-effect="none" points="52,154 55.1,154 " />
<polyline fill="none" vector-effect="none" points="358.9,154 362,154 " />
</g>

<g fill="#212121" fill-opacity="1" stroke="#212121" stroke-opacity="1" stroke-width="1" stroke-linecap="square" stroke-linejoin="bevel" transform="matrix(0.75,0,0,0.75,19.5,187.125)"
font-family="Helvetica" font-size="11" font-weight="400" font-style="normal" 
>
<text fill="#212121" fill-opacity="1" stroke="none" xml:space="preserve" x="0" y="0" font-family="Helvetica" font-size="11" font-weight="400" font-style="normal" 
 >0</text>
</g>

<g fill="#212121" fill-opacity="1" stroke="#212121" stroke-opacity="1" stroke-width="1" stroke-linecap="square" stroke-linejoin="bevel" transform="matrix(0.75,0,0,0.75,19.5,167.25)"
font-family="Helvetica" font-size="11" font-weight="400" font-style="normal" 
>
<text fill="#212121" fill-opacity="1" stroke="none" xml:space="preserve" x="0" y="0" font-family="Helvetica" font-size="11" font-weight="400" font-style="normal" 
 >2</text>
</g>

<g fill="#212121" fill-opacity="1" stroke="#212121" stroke-opacity="1" stroke-width="1" stroke-linecap="square" stroke-linejoin="bevel" transform="matrix(0.75,0,0,0.75,19.5,147.375)"
font-family="Helvetica" font-size="11" font-weight="400" font-style="normal" 
>
<text fill="#212121" fill-opacity="1" stroke="none" xml:space="preserve" x="0" y="0" font-family="Helvetica" font-size="11" font-weight="400" font-style="normal" 
 >4</text>
</g>

<g fill="#212121" fill-opacity="1" stroke="#212121" stroke-opacity="1" stroke-width="1" stroke-linecap="square" stroke-linejoin="bevel" transform="matrix(0.75,0,0,0.75,19.5,127.5)"
font-family="Helvetica" font-size="11" font-weight="400" font-style="normal" 
>
<text fill="#212121" fill-opacity="1" stroke="none" xml:space="preserve" x="0" y="0" font-family="Helvetica" font-size="11" font-weight="400" font-style="normal" 
 >6</text>
</g>

<g fill="#212121" fill-opacity="1" stroke="#212121" stroke-opacity="1" stroke-width="1" stroke-linecap="square" stroke-linejoin="bevel" transform="matrix(0.75,0,0,0.75,19.5,107.625)"
font-family="Helvetica" font-size="11" font-weight="400" font-style="normal" 
>
<text fill="#212121" fill-opacity="1" stroke="none" xml:space="preserve" x="0" y="0" font-family="Helvetica" font-size="11" font-weight="400" font-style="normal" 
 >8</text>
</g>

<g fill="none" stroke="#1171be" stroke-opacity="1" stroke-width="0.666667" stroke-linecap="butt" stroke-linejoin="round" transform="matrix(0.75,0,0,0.75,-12.8,-10.5)"
font-family="Helvetica" font-size="11" font-weight="400" font-style="normal" 
>
<polyline fill="none" vector-effect="none" points="52,253.592 52.0004,253.592 52.0026,253.589 52.0133,253.578 52.0573,253.531 52.1917,253.38 52.5107,253.022 53.0949,252.417 53.9718,251.598 55.4819,250.496 56.4587,249.359 57.4356,247.367 58.2412,245.557 58.9995,244.119 59.8235,242.872 60.7531,241.745 61.7637,240.787 62.8274,240.029 63.9563,239.48 65.1947,239.088 66.5958,238.791 68.1833,238.532 69.9055,238.266 71.6351,237.982 73.2879,237.688 74.8812,237.397 76.4688,237.106 78.077,236.81 79.6979,236.508 81.3159,236.204 82.9289,235.898 84.5434,235.591 86.164,235.28 87.7892,234.967 89.4161,234.651 91.0438,234.332 92.6737,234.011 94.3066,233.688 95.9425,233.361 97.581,233.032 99.2217,232.7 100.865,232.366 102.511,232.029 104.16,231.689 105.811,231.347 107.466,231.001 109.123,230.654 110.783,230.303 112.446,229.949 114.111,229.593 115.78,229.23 117.455,228.859 119.121,228.491 120.789,228.126 122.472,227.757 124.168,227.383 125.866,227.005 127.561,226.625 129.257,226.243 130.959,225.858 132.668,225.47 134.38,225.078 136.095,224.684 137.813,224.287 139.536,223.887 141.263,223.484 142.995,223.077 144.73,222.668 146.47,222.256 148.215,221.84 149.964,221.422 151.718,221 153.477,220.575 155.24,220.147 157.009,219.715 158.782,219.272 160.557,218.831 162.341,218.389 164.142,217.943 165.957,217.491 167.775,217.035 169.593,216.576 171.415,216.116 173.247,215.651 175.088,215.182 176.936,214.708 178.789,214.232 180.649,213.752 182.517,213.268 184.394,212.78 186.279,212.288 188.171,211.792 190.071,211.292 191.98,210.787 193.899,210.279 195.827,209.762 197.763,209.234 199.706,208.71 201.672,208.184 203.674,207.646 205.698,207.015 207.751,206.185 209.884,205.424 212.708,204.558 214.528,204.143 216.349,203.665 218.282,203.144 220.316,202.603 222.332,202.079 224.288,201.576 226.227,201.074 228.194,200.563 230.189,200.042 232.201,199.524 234.202,199.015 236.187,198.514 238.171,198.015 240.167,197.515 242.172,197.015 244.179,196.518 246.186,196.024 248.196,195.527 250.213,195.033 252.235,194.542 254.257,194.054 256.281,193.569 258.309,193.085 260.343,192.602 262.384,192.12 264.429,191.641 266.478,191.162 268.533,190.685 270.594,190.209 272.66,189.735 274.732,189.262 276.809,188.79 278.892,188.32 280.981,187.851 283.075,187.383 285.176,186.916 287.282,186.451 289.395,185.987 291.514,185.525 293.64,185.058 295.779,184.591 297.937,184.125 300.1,183.663 302.256,183.207 304.413,182.753 306.582,182.299 308.763,181.845 310.951,181.392 313.145,180.941 315.344,180.492 317.552,180.043 319.769,179.595 321.994,179.148 324.226,178.702 326.466,178.257 328.714,177.813 330.97,177.37 333.235,176.928 335.508,176.487 337.789,176.046 340.079,175.607 342.377,175.168 344.684,174.734 346.996,174.301 349.32,173.866 351.66,173.429 354.015,172.991 356.38,172.554 358.75,172.118 361.13,171.682 362,171.567 " />
</g>
</g>
</svg>
