<?xml version="1.0" encoding="UTF-8" standalone="no"?>
<svg width="94.1917mm" height="73.025mm"
 viewBox="0 0 267 207"
 xmlns="http://www.w3.org/2000/svg" xmlns:xlink="http://www.w3.org/1999/xlink"  version="1.2" baseProfile="tiny">
<title>Qt SVG Document</title>
<desc>MATLAB, The MathWorks, Inc. Version 25.2.0.3123386 R2025b Update 3</desc>
<defs>
</defs>
<g fill="none" stroke="black" stroke-width="1" fill-rule="evenodd" stroke-linecap="square" stroke-linejoin="bevel" >

<g fill="#ffffff" fill-opacity="1" stroke="none" transform="matrix(0.75,0,0,0.75,-8.3,-11.625)"
font-family="MS Shell Dlg 2" font-size="8.25" font-weight="400" font-style="normal" 
>
<path vector-effect="none" fill-rule="evenodd" d="M10,14 L367,14 L367,291 L10,291 L10,14"/>
</g>

<g fill="#ffffff" fill-opacity="1" stroke="none" transform="matrix(7.5e-05,0,0,7.5e-05,-8.3,-11.625)"
font-family="MS Shell Dlg 2" font-size="8.25" font-weight="400" font-style="normal" 
>
<path vector-effect="none" fill-rule="evenodd" d="M560000,220000 L560000,1.31e+06 L3.62e+06,1.31e+06 L3.62e+06,220000 L560000,220000"/>
</g>

<g fill="#212121" fill-opacity="0.14902" stroke="#212121" stroke-opacity="0.14902" stroke-width="0.666667" stroke-linecap="butt" stroke-linejoin="round" transform="matrix(0.75,0,0,0.75,-8.3,-11.625)"
font-family="MS Shell Dlg 2" font-size="8.25" font-weight="400" font-style="normal" 
>
<polyline fill="none" vector-effect="none" points="56,22 56,131 " />
<polyline fill="none" vector-effect="none" points="107,22 107,131 " />
<polyline fill="none" vector-effect="none" points="158,22 158,131 " />
<polyline fill="none" vector-effect="none" points="209,22 209,131 " />
<polyline fill="none" vector-effect="none" points="260,22 260,131 " />
<polyline fill="none" vector-effect="none" points="311,22 311,131 " />
<polyline fill="none" vector-effect="none" points="362,22 362,131 " />
<polyline fill="none" vector-effect="none" points="56,131 362,131 " />
<polyline fill="none" vector-effect="none" points="56,94.6683 362,94.6683 " />
<polyline fill="none" vector-effect="none" points="56,58.3367 362,58.3367 " />
<polyline fill="none" vector-effect="none" points="56,22.005 362,22.005 " />
</g>

<g fill="#212121" fill-opacity="1" stroke="#212121" stroke-opacity="1" stroke-width="0.666667" stroke-linecap="square" stroke-linejoin="round" transform="matrix(0.75,0,0,0.75,-8.3,-11.625)"
font-family="MS Shell Dlg 2" font-size="8.25" font-weight="400" font-style="normal" 
>
<polyline fill="none" vector-effect="none" points="56,131 362,131 " />
<polyline fill="none" vector-effect="none" points="56,22 362,22 " />
<polyline fill="none" vector-effect="none" points="56,131 56,127.94 " />
<polyline fill="none" vector-effect="none" points="56,25.06 56,22 " />
<polyline fill="none" vector-effect="none" points="107,131 107,127.94 " />
<polyline fill="none" vector-effect="none" points="107,25.06 107,22 " />
<polyline fill="none" vector-effect="none" points="158,131 158,127.94 " />
<polyline fill="none" vector-effect="none" points="158,25.06 158,22 " />
<polyline fill="none" vector-effect="none" points="209,131 209,127.94 " />
<polyline fill="none" vector-effect="none" points="209,25.06 209,22 " />
<polyline fill="none" vector-effect="none" points="260,131 260,127.94 " />
<polyline fill="none" vector-effect="none" points="260,25.06 260,22 " />
<polyline fill="none" vector-effect="none" points="311,131 311,127.94 " />
<polyline fill="none" vector-effect="none" points="311,25.06 311,22 " />
<polyline fill="none" vector-effect="none" points="362,131 362,127.94 " />
<polyline fill="none" vector-effect="none" points="362,25.06 362,22 " />
</g>

<g fill="#212121" fill-opacity="1" stroke="#212121" stroke-opacity="1" stroke-width="1" stroke-linecap="square" stroke-linejoin="bevel" transform="matrix(0.75,0,0,0.75,31.45,96.325)"
font-family="Helvetica" font-size="11" font-weight="400" font-style="normal" 
>
<text fill="#212121" fill-opacity="1" stroke="none" xml:space="preserve" x="0" y="0" font-family="Helvetica" font-size="11" font-weight="400" font-style="normal" 
 >0</text>
</g>

<g fill="#212121" fill-opacity="1" stroke="#212121" stroke-opacity="1" stroke-width="1" stroke-linecap="square" stroke-linejoin="bevel" transform="matrix(0.75,0,0,0.75,66.325,96.325)"
font-family="Helvetica" font-size="11" font-weight="400" font-style="normal" 
>
<text fill="#212121" fill-opacity="1" stroke="none" xml:space="preserve" x="0" y="0" font-family="Helvetica" font-size="11" font-weight="400" font-style="normal" 
 >0.5</text>
</g>

<g fill="#212121" fill-opacity="1" stroke="#212121" stroke-opacity="1" stroke-width="1" stroke-linecap="square" stroke-linejoin="bevel" transform="matrix(0.75,0,0,0.75,107.95,96.325)"
font-family="Helvetica" font-size="11" font-weight="400" font-style="normal" 
>
<text fill="#212121" fill-opacity="1" stroke="none" xml:space="preserve" x="0" y="0" font-family="Helvetica" font-size="11" font-weight="400" font-style="normal" 
 >1</text>
</g>

<g fill="#212121" fill-opacity="1" stroke="#212121" stroke-opacity="1" stroke-width="1" stroke-linecap="square" stroke-linejoin="bevel" transform="matrix(0.75,0,0,0.75,142.825,96.325)"
font-family="Helvetica" font-size="11" font-weight="400" font-style="normal" 
>
<text fill="#212121" fill-opacity="1" stroke="none" xml:space="preserve" x="0" y="0" font-family="Helvetica" font-size="11" font-weight="400" font-style="normal" 
 >1.5</text>
</g>

<g fill="#212121" fill-opacity="1" stroke="#212121" stroke-opacity="1" stroke-width="1" stroke-linecap="square" stroke-linejoin="bevel" transform="matrix(0.75,0,0,0.75,184.45,96.325)"
font-family="Helvetica" font-size="11" font-weight="400" font-style="normal" 
>
<text fill="#212121" fill-opacity="1" stroke="none" xml:space="preserve" x="0" y="0" font-family="Helvetica" font-size="11" font-weight="400" font-style="normal" 
 >2</text>
</g>

<g fill="#212121" fill-opacity="1" stroke="#212121" stroke-opacity="1" stroke-width="1" stroke-linecap="square" stroke-linejoin="bevel" transform="matrix(0.75,0,0,0.75,219.325,96.325)"
font-family="Helvetica" font-size="11" font-weight="400" font-style="normal" 
>
<text fill="#212121" fill-opacity="1" stroke="none" xml:space="preserve" x="0" y="0" font-family="Helvetica" font-size="11" font-weight="400" font-style="normal" 
 >2.5</text>
</g>

<g fill="#212121" fill-opacity="1" stroke="#212121" stroke-opacity="1" stroke-width="1" stroke-linecap="square" stroke-linejoin="bevel" transform="matrix(0.75,0,0,0.75,260.95,96.325)"
font-family="Helvetica" font-size="11" font-weight="400" font-style="normal" 
>
<text fill="#212121" fill-opacity="1" stroke="none" xml:space="preserve" x="0" y="0" font-family="Helvetica" font-size="11" font-weight="400" font-style="normal" 
 >3</text>
</g>

<g fill="#212121" fill-opacity="1" stroke="#212121" stroke-opacity="1" stroke-width="1" stroke-linecap="square" stroke-linejoin="bevel" transform="matrix(0,-0.75,0.75,0,8.25,90)"
font-family="Helvetica" font-size="12" font-weight="400" font-style="normal" 
>
<text fill="#212121" fill-opacity="1" stroke="none" xml:space="preserve" x="0" y="0" font-family="Helvetica" font-size="12" font-weight="400" font-style="normal" 
 >Angular position (rad)</text>
</g>

<g fill="#212121" fill-opacity="1" stroke="#212121" stroke-opacity="1" stroke-width="0.666667" stroke-linecap="square" stroke-linejoin="round" transform="matrix(0.75,0,0,0.75,-8.3,-11.625)"
font-family="Helvetica" font-size="12" font-weight="400" font-style="normal" 
>
<polyline fill="none" vector-effect="none" points="56,131 56,22 " />
<polyline fill="none" vector-effect="none" points="362,131 362,22 " />
<polyline fill="none" vector-effect="none" points="56,131 59.06,131 " />
<polyline fill="none" vector-effect="none" points="358.94,131 362,131 " />
<polyline fill="none" vector-effect="none" points="56,94.6683 59.06,94.6683 " />
<polyline fill="none" vector-effect="none" points="358.94,94.6683 362,94.6683 " />
<polyline fill="none" vector-effect="none" points="56,58.3367 59.06,58.3367 " />
<polyline fill="none" vector-effect="none" points="358.94,58.3367 362,58.3367 " />
<polyline fill="none" vector-effect="none" points="56,22.005 59.06,22.005 " />
<polyline fill="none" vector-effect="none" points="358.94,22.005 362,22.005 " />
</g>

<g fill="#212121" fill-opacity="1" stroke="#212121" stroke-opacity="1" stroke-width="1" stroke-linecap="square" stroke-linejoin="bevel" transform="matrix(0.75,0,0,0.75,12.75,89.25)"
font-family="Helvetica" font-size="11" font-weight="400" font-style="normal" 
>
<text fill="#212121" fill-opacity="1" stroke="none" xml:space="preserve" x="0" y="0" font-family="Helvetica" font-size="11" font-weight="400" font-style="normal" 
 >-0.05</text>
</g>

<g fill="#212121" fill-opacity="1" stroke="#212121" stroke-opacity="1" stroke-width="1" stroke-linecap="square" stroke-linejoin="bevel" transform="matrix(0.75,0,0,0.75,27,62.0013)"
font-family="Helvetica" font-size="11" font-weight="400" font-style="normal" 
>
<text fill="#212121" fill-opacity="1" stroke="none" xml:space="preserve" x="0" y="0" font-family="Helvetica" font-size="11" font-weight="400" font-style="normal" 
 >0</text>
</g>

<g fill="#212121" fill-opacity="1" stroke="#212121" stroke-opacity="1" stroke-width="1" stroke-linecap="square" stroke-linejoin="bevel" transform="matrix(0.75,0,0,0.75,15.75,34.7525)"
font-family="Helvetica" font-size="11" font-weight="400" font-style="normal" 
>
<text fill="#212121" fill-opacity="1" stroke="none" xml:space="preserve" x="0" y="0" font-family="Helvetica" font-size="11" font-weight="400" font-style="normal" 
 >0.05</text>
</g>

<g fill="#212121" fill-opacity="1" stroke="#212121" stroke-opacity="1" stroke-width="1" stroke-linecap="square" stroke-linejoin="bevel" transform="matrix(0.75,0,0,0.75,20.25,7.5038)"
font-family="Helvetica" font-size="11" font-weight="400" font-style="normal" 
>
<text fill="#212121" fill-opacity="1" stroke="none" xml:space="preserve" x="0" y="0" font-family="Helvetica" font-size="11" font-weight="400" font-style="normal" 
 >0.1</text>
</g>

<g fill="none" stroke="#1171be" stroke-opacity="1" stroke-width="0.666667" stroke-linecap="butt" stroke-linejoin="round" transform="matrix(0.75,0,0,0.75,-8.3,-11.625)"
font-family="Helvetica" font-size="11" font-weight="400" font-style="normal" 
>
<polyline fill="none" vector-effect="none" points="56,22.005 56,22.005 56.0002,22.005 56.0009,22.005 56.0045,22.005 56.0224,22.005 56.112,22.0043 56.4642,22 56.8272,22.0089 57.3669,22.081 58.1068,22.3474 59.0455,23.0235 60.1007,24.2659 61.1881,26.0701 62.2643,28.3391 63.3393,31.0307 64.436,34.1492 65.567,37.6867 66.7273,41.5757 67.9358,45.822 69.2312,50.5036 70.6793,55.7897 72.5227,62.446 74.0842,67.9114 75.6458,73.1445 77.0412,77.5878 78.3406,81.5103 79.642,85.2218 80.9772,88.7999 82.3241,92.1741 83.6894,95.3559 85.0683,98.3309 86.4584,101.094 87.8624,103.653 89.282,106.013 90.7237,108.188 92.19,110.18 93.6944,112.004 95.4774,113.873 97.306,115.456 98.9667,116.595 100.533,117.411 102.117,117.985 103.722,118.316 105.331,118.406 106.938,118.267 108.551,117.913 110.185,117.356 111.844,116.604 113.534,115.671 115.26,114.568 117.034,113.304 118.871,111.885 120.789,110.317 122.818,108.596 125.01,106.706 127.487,104.576 130.941,101.699 132.92,100.134 134.899,98.6449 137.017,97.1463 139.149,95.7465 141.189,94.5158 143.168,93.4262 145.152,92.4391 147.159,91.5472 149.175,90.759 151.189,90.077 153.263,89.4833 155.365,88.9922 157.447,88.6131 159.512,88.3383 161.589,88.1591 163.692,88.0712 165.819,88.0711 167.967,88.154 170.144,88.3146 172.358,88.5478 174.62,88.8486 176.936,89.2118 179.319,89.6318 181.783,90.1037 184.351,90.6232 187.055,91.1874 189.952,91.7961 193.164,92.4594 197.19,93.249 199.698,93.7063 202.206,94.1317 204.837,94.5399 207.507,94.9117 210.096,95.229 212.61,95.4959 215.126,95.7226 217.683,95.9122 220.279,96.0635 222.871,96.175 225.455,96.2487 228.053,96.288 230.688,96.2951 233.362,96.272 236.07,96.2214 238.814,96.1461 241.607,96.0489 244.46,95.9327 247.383,95.8005 250.381,95.6558 253.463,95.5019 256.644,95.3424 259.943,95.1806 263.376,95.0204 266.962,94.8658 270.711,94.7213 274.619,94.5921 278.627,94.4837 282.568,94.4014 286.202,94.3462 289.489,94.3124 292.74,94.2929 296.513,94.286 301.786,94.3002 304.595,94.3174 307.404,94.3396 310.619,94.3698 314.136,94.407 317.504,94.4453 320.519,94.4806 323.418,94.5146 326.589,94.5506 330.194,94.5895 333.91,94.6261 337.236,94.6555 340.147,94.6785 343.073,94.6985 346.507,94.7179 350.524,94.7352 353.613,94.745 356.703,94.7516 360.258,94.7556 362,94.7564 " />
</g>

<g fill="#ffffff" fill-opacity="1" stroke="none" transform="matrix(7.5e-05,0,0,7.5e-05,-8.3,-11.625)"
font-family="Helvetica" font-size="11" font-weight="400" font-style="normal" 
>
<path vector-effect="none" fill-rule="evenodd" d="M560000,1.52e+06 L560000,2.6e+06 L3.62e+06,2.6e+06 L3.62e+06,1.52e+06 L560000,1.52e+06"/>
</g>

<g fill="#212121" fill-opacity="0.14902" stroke="#212121" stroke-opacity="0.14902" stroke-width="0.666667" stroke-linecap="butt" stroke-linejoin="round" transform="matrix(0.75,0,0,0.75,-8.3,-11.625)"
font-family="Helvetica" font-size="11" font-weight="400" font-style="normal" 
>
<polyline fill="none" vector-effect="none" points="56,152 56,260 " />
<polyline fill="none" vector-effect="none" points="107,152 107,260 " />
<polyline fill="none" vector-effect="none" points="158,152 158,260 " />
<polyline fill="none" vector-effect="none" points="209,152 209,260 " />
<polyline fill="none" vector-effect="none" points="260,152 260,260 " />
<polyline fill="none" vector-effect="none" points="311,152 311,260 " />
<polyline fill="none" vector-effect="none" points="362,152 362,260 " />
<polyline fill="none" vector-effect="none" points="56,240.612 362,240.612 " />
<polyline fill="none" vector-effect="none" points="56,215.84 362,215.84 " />
<polyline fill="none" vector-effect="none" points="56,191.067 362,191.067 " />
<polyline fill="none" vector-effect="none" points="56,166.295 362,166.295 " />
</g>

<g fill="#212121" fill-opacity="1" stroke="#212121" stroke-opacity="1" stroke-width="1" stroke-linecap="square" stroke-linejoin="bevel" transform="matrix(0.75,0,0,0.75,127.075,203.075)"
font-family="Helvetica" font-size="12" font-weight="400" font-style="normal" 
>
<text fill="#212121" fill-opacity="1" stroke="none" xml:space="preserve" x="0" y="0" font-family="Helvetica" font-size="12" font-weight="400" font-style="normal" 
 >Time (sec)</text>
</g>

<g fill="#212121" fill-opacity="1" stroke="#212121" stroke-opacity="1" stroke-width="0.666667" stroke-linecap="square" stroke-linejoin="round" transform="matrix(0.75,0,0,0.75,-8.3,-11.625)"
font-family="Helvetica" font-size="12" font-weight="400" font-style="normal" 
>
<polyline fill="none" vector-effect="none" points="56,260 362,260 " />
<polyline fill="none" vector-effect="none" points="56,152 362,152 " />
<polyline fill="none" vector-effect="none" points="56,260 56,256.94 " />
<polyline fill="none" vector-effect="none" points="56,155.06 56,152 " />
<polyline fill="none" vector-effect="none" points="107,260 107,256.94 " />
<polyline fill="none" vector-effect="none" points="107,155.06 107,152 " />
<polyline fill="none" vector-effect="none" points="158,260 158,256.94 " />
<polyline fill="none" vector-effect="none" points="158,155.06 158,152 " />
<polyline fill="none" vector-effect="none" points="209,260 209,256.94 " />
<polyline fill="none" vector-effect="none" points="209,155.06 209,152 " />
<polyline fill="none" vector-effect="none" points="260,260 260,256.94 " />
<polyline fill="none" vector-effect="none" points="260,155.06 260,152 " />
<polyline fill="none" vector-effect="none" points="311,260 311,256.94 " />
<polyline fill="none" vector-effect="none" points="311,155.06 311,152 " />
<polyline fill="none" vector-effect="none" points="362,260 362,256.94 " />
<polyline fill="none" vector-effect="none" points="362,155.06 362,152 " />
</g>

<g fill="#212121" fill-opacity="1" stroke="#212121" stroke-opacity="1" stroke-width="1" stroke-linecap="square" stroke-linejoin="bevel" transform="matrix(0.75,0,0,0.75,31.45,193.075)"
font-family="Helvetica" font-size="11" font-weight="400" font-style="normal" 
>
<text fill="#212121" fill-opacity="1" stroke="none" xml:space="preserve" x="0" y="0" font-family="Helvetica" font-size="11" font-weight="400" font-style="normal" 
 >0</text>
</g>

<g fill="#212121" fill-opacity="1" stroke="#212121" stroke-opacity="1" stroke-width="1" stroke-linecap="square" stroke-linejoin="bevel" transform="matrix(0.75,0,0,0.75,66.325,193.075)"
font-family="Helvetica" font-size="11" font-weight="400" font-style="normal" 
>
<text fill="#212121" fill-opacity="1" stroke="none" xml:space="preserve" x="0" y="0" font-family="Helvetica" font-size="11" font-weight="400" font-style="normal" 
 >0.5</text>
</g>

<g fill="#212121" fill-opacity="1" stroke="#212121" stroke-opacity="1" stroke-width="1" stroke-linecap="square" stroke-linejoin="bevel" transform="matrix(0.75,0,0,0.75,107.95,193.075)"
font-family="Helvetica" font-size="11" font-weight="400" font-style="normal" 
>
<text fill="#212121" fill-opacity="1" stroke="none" xml:space="preserve" x="0" y="0" font-family="Helvetica" font-size="11" font-weight="400" font-style="normal" 
 >1</text>
</g>

<g fill="#212121" fill-opacity="1" stroke="#212121" stroke-opacity="1" stroke-width="1" stroke-linecap="square" stroke-linejoin="bevel" transform="matrix(0.75,0,0,0.75,142.825,193.075)"
font-family="Helvetica" font-size="11" font-weight="400" font-style="normal" 
>
<text fill="#212121" fill-opacity="1" stroke="none" xml:space="preserve" x="0" y="0" font-family="Helvetica" font-size="11" font-weight="400" font-style="normal" 
 >1.5</text>
</g>

<g fill="#212121" fill-opacity="1" stroke="#212121" stroke-opacity="1" stroke-width="1" stroke-linecap="square" stroke-linejoin="bevel" transform="matrix(0.75,0,0,0.75,184.45,193.075)"
font-family="Helvetica" font-size="11" font-weight="400" font-style="normal" 
>
<text fill="#212121" fill-opacity="1" stroke="none" xml:space="preserve" x="0" y="0" font-family="Helvetica" font-size="11" font-weight="400" font-style="normal" 
 >2</text>
</g>

<g fill="#212121" fill-opacity="1" stroke="#212121" stroke-opacity="1" stroke-width="1" stroke-linecap="square" stroke-linejoin="bevel" transform="matrix(0.75,0,0,0.75,219.325,193.075)"
font-family="Helvetica" font-size="11" font-weight="400" font-style="normal" 
>
<text fill="#212121" fill-opacity="1" stroke="none" xml:space="preserve" x="0" y="0" font-family="Helvetica" font-size="11" font-weight="400" font-style="normal" 
 >2.5</text>
</g>

<g fill="#212121" fill-opacity="1" stroke="#212121" stroke-opacity="1" stroke-width="1" stroke-linecap="square" stroke-linejoin="bevel" transform="matrix(0.75,0,0,0.75,260.95,193.075)"
font-family="Helvetica" font-size="11" font-weight="400" font-style="normal" 
>
<text fill="#212121" fill-opacity="1" stroke="none" xml:space="preserve" x="0" y="0" font-family="Helvetica" font-size="11" font-weight="400" font-style="normal" 
 >3</text>
</g>

<g fill="#212121" fill-opacity="1" stroke="#212121" stroke-opacity="1" stroke-width="1" stroke-linecap="square" stroke-linejoin="bevel" transform="matrix(0,-0.75,0.75,0,22.5,171.75)"
font-family="Helvetica" font-size="12" font-weight="400" font-style="normal" 
>
<text fill="#212121" fill-opacity="1" stroke="none" xml:space="preserve" x="0" y="0" font-family="Helvetica" font-size="12" font-weight="400" font-style="normal" 
 >Input force (N)</text>
</g>

<g fill="#212121" fill-opacity="1" stroke="#212121" stroke-opacity="1" stroke-width="0.666667" stroke-linecap="square" stroke-linejoin="round" transform="matrix(0.75,0,0,0.75,-8.3,-11.625)"
font-family="Helvetica" font-size="12" font-weight="400" font-style="normal" 
>
<polyline fill="none" vector-effect="none" points="56,260 56,152 " />
<polyline fill="none" vector-effect="none" points="362,260 362,152 " />
<polyline fill="none" vector-effect="none" points="56,240.612 59.06,240.612 " />
<polyline fill="none" vector-effect="none" points="358.94,240.612 362,240.612 " />
<polyline fill="none" vector-effect="none" points="56,215.84 59.06,215.84 " />
<polyline fill="none" vector-effect="none" points="358.94,215.84 362,215.84 " />
<polyline fill="none" vector-effect="none" points="56,191.067 59.06,191.067 " />
<polyline fill="none" vector-effect="none" points="358.94,191.067 362,191.067 " />
<polyline fill="none" vector-effect="none" points="56,166.295 59.06,166.295 " />
<polyline fill="none" vector-effect="none" points="358.94,166.295 362,166.295 " />
</g>

<g fill="#212121" fill-opacity="1" stroke="#212121" stroke-opacity="1" stroke-width="1" stroke-linecap="square" stroke-linejoin="bevel" transform="matrix(0.75,0,0,0.75,27,171.459)"
font-family="Helvetica" font-size="11" font-weight="400" font-style="normal" 
>
<text fill="#212121" fill-opacity="1" stroke="none" xml:space="preserve" x="0" y="0" font-family="Helvetica" font-size="11" font-weight="400" font-style="normal" 
 >0</text>
</g>

<g fill="#212121" fill-opacity="1" stroke="#212121" stroke-opacity="1" stroke-width="1" stroke-linecap="square" stroke-linejoin="bevel" transform="matrix(0.75,0,0,0.75,27,152.88)"
font-family="Helvetica" font-size="11" font-weight="400" font-style="normal" 
>
<text fill="#212121" fill-opacity="1" stroke="none" xml:space="preserve" x="0" y="0" font-family="Helvetica" font-size="11" font-weight="400" font-style="normal" 
 >2</text>
</g>

<g fill="#212121" fill-opacity="1" stroke="#212121" stroke-opacity="1" stroke-width="1" stroke-linecap="square" stroke-linejoin="bevel" transform="matrix(0.75,0,0,0.75,27,134.301)"
font-family="Helvetica" font-size="11" font-weight="400" font-style="normal" 
>
<text fill="#212121" fill-opacity="1" stroke="none" xml:space="preserve" x="0" y="0" font-family="Helvetica" font-size="11" font-weight="400" font-style="normal" 
 >4</text>
</g>

<g fill="#212121" fill-opacity="1" stroke="#212121" stroke-opacity="1" stroke-width="1" stroke-linecap="square" stroke-linejoin="bevel" transform="matrix(0.75,0,0,0.75,27,115.722)"
font-family="Helvetica" font-size="11" font-weight="400" font-style="normal" 
>
<text fill="#212121" fill-opacity="1" stroke="none" xml:space="preserve" x="0" y="0" font-family="Helvetica" font-size="11" font-weight="400" font-style="normal" 
 >6</text>
</g>

<g fill="none" stroke="#1171be" stroke-opacity="1" stroke-width="0.666667" stroke-linecap="butt" stroke-linejoin="round" transform="matrix(0.75,0,0,0.75,-8.3,-11.625)"
font-family="Helvetica" font-size="11" font-weight="400" font-style="normal" 
>
<polyline fill="none" vector-effect="none" points="56,152.093 56,152.093 56.0002,152.093 56.0009,152.092 56.0045,152.09 56.0224,152.081 56.112,152.041 56.4642,152 56.8272,152.266 57.3669,153.16 58.1068,155.281 59.0455,159.251 60.1007,165.214 61.1881,172.789 62.2643,181.132 63.3393,189.853 64.436,198.656 65.567,207.551 66.7273,216.14 67.9358,224.268 69.2312,231.816 70.6793,238.704 72.5227,245.673 74.0842,249.856 75.6458,252.815 77.0412,254.632 78.3406,255.882 79.642,256.763 80.9772,257.408 82.3241,257.858 83.6894,258.143 85.0683,258.286 86.4584,258.295 87.8624,258.165 89.282,257.975 90.7237,257.74 92.19,258.001 93.6944,258.762 95.4774,259.507 97.306,259.932 98.9667,260 100.533,259.84 102.117,259.452 103.722,258.849 105.331,258.044 106.938,257.069 108.551,255.949 110.185,254.703 111.844,253.351 113.534,251.92 115.26,250.433 117.034,248.913 118.871,247.379 120.789,245.845 122.818,244.324 125.01,242.819 127.487,241.364 130.941,239.666 132.92,238.955 134.899,238.288 137.017,237.678 139.149,237.182 141.189,236.812 143.168,236.53 145.152,236.312 147.159,236.154 149.175,236.057 151.189,235.935 153.263,235.86 155.365,235.851 157.447,235.906 159.512,236.014 161.589,236.171 163.692,236.374 165.819,236.619 167.967,236.899 170.144,237.21 172.358,237.545 174.62,237.9 176.936,238.27 179.319,238.65 181.783,239.034 184.351,239.418 187.055,239.8 189.952,240.176 193.164,240.551 197.19,240.955 199.698,241.14 202.206,241.31 204.837,241.46 207.507,241.578 210.096,241.66 212.61,241.714 215.126,241.749 217.683,241.767 220.279,241.764 222.871,241.741 225.455,241.7 228.053,241.644 230.688,241.576 233.362,241.495 236.07,241.406 238.814,241.31 241.607,241.21 244.46,241.107 247.383,241.003 250.381,240.9 253.463,240.801 256.644,240.706 259.943,240.619 263.376,240.54 266.962,240.472 270.711,240.415 274.619,240.373 278.627,240.347 282.568,240.335 286.202,240.337 289.489,240.346 292.74,240.36 296.513,240.38 301.786,240.415 304.595,240.445 307.404,240.469 310.619,240.495 314.136,240.523 317.504,240.55 320.519,240.573 323.418,240.592 326.589,240.611 330.194,240.63 333.91,240.645 337.236,240.656 340.147,240.664 343.073,240.669 346.507,240.674 350.524,240.676 353.613,240.675 356.703,240.672 360.258,240.669 362,240.665 " />
</g>
</g>
</svg>
