<?xml version="1.0" encoding="UTF-8" standalone="no"?>
<svg width="94.5444mm" height="49.3889mm"
 viewBox="0 0 268 140"
 xmlns="http://www.w3.org/2000/svg" xmlns:xlink="http://www.w3.org/1999/xlink"  version="1.2" baseProfile="tiny">
<title>Qt SVG Document</title>
<desc>MATLAB, The MathWorks, Inc. Version 25.2.0.3150157 R2025b Update 4</desc>
<defs>
</defs>
<g fill="none" stroke="black" stroke-width="1" fill-rule="evenodd" stroke-linecap="square" stroke-linejoin="bevel" >

<g fill="#ffffff" fill-opacity="1" stroke="none" transform="matrix(0.75,0,0,0.75,-10.2,-9.75)"
font-family="MS Shell Dlg 2" font-size="8.25" font-weight="400" font-style="normal" 
>
<path vector-effect="none" fill-rule="evenodd" d="M12,11 L370,11 L370,199 L12,199 L12,11"/>
</g>

<g fill="#ffffff" fill-opacity="1" stroke="none" transform="matrix(7.5e-05,0,0,7.5e-05,-10.2,-9.75)"
font-family="MS Shell Dlg 2" font-size="8.25" font-weight="400" font-style="normal" 
>
<path vector-effect="none" fill-rule="evenodd" d="M520000,150000 L520000,1.67e+06 L3.62e+06,1.67e+06 L3.62e+06,150000 L520000,150000"/>
</g>

<g fill="#212121" fill-opacity="1" stroke="#212121" stroke-opacity="1" stroke-width="1" stroke-linecap="square" stroke-linejoin="bevel" transform="matrix(0.75,0,0,0.75,134.175,138.3)"
font-family="Helvetica" font-size="13" font-weight="400" font-style="normal" 
>
<text fill="#212121" fill-opacity="1" stroke="none" xml:space="preserve" x="0" y="0" font-family="Helvetica" font-size="13" font-weight="400" font-style="normal" 
 >force</text>
</g>

<g fill="#212121" fill-opacity="1" stroke="#212121" stroke-opacity="1" stroke-width="0.666667" stroke-linecap="square" stroke-linejoin="round" transform="matrix(0.75,0,0,0.75,-10.2,-9.75)"
font-family="Helvetica" font-size="13" font-weight="400" font-style="normal" 
>
<polyline fill="none" vector-effect="none" points="52,167 362,167 " />
<polyline fill="none" vector-effect="none" points="52,15 362,15 " />
<polyline fill="none" vector-effect="none" points="52,167 52,163.9 " />
<polyline fill="none" vector-effect="none" points="52,18.1 52,15 " />
<polyline fill="none" vector-effect="none" points="103.667,167 103.667,163.9 " />
<polyline fill="none" vector-effect="none" points="103.667,18.1 103.667,15 " />
<polyline fill="none" vector-effect="none" points="155.333,167 155.333,163.9 " />
<polyline fill="none" vector-effect="none" points="155.333,18.1 155.333,15 " />
<polyline fill="none" vector-effect="none" points="207,167 207,163.9 " />
<polyline fill="none" vector-effect="none" points="207,18.1 207,15 " />
<polyline fill="none" vector-effect="none" points="258.667,167 258.667,163.9 " />
<polyline fill="none" vector-effect="none" points="258.667,18.1 258.667,15 " />
<polyline fill="none" vector-effect="none" points="310.333,167 310.333,163.9 " />
<polyline fill="none" vector-effect="none" points="310.333,18.1 310.333,15 " />
<polyline fill="none" vector-effect="none" points="362,167 362,163.9 " />
<polyline fill="none" vector-effect="none" points="362,18.1 362,15 " />
</g>

<g fill="#212121" fill-opacity="1" stroke="#212121" stroke-opacity="1" stroke-width="1" stroke-linecap="square" stroke-linejoin="bevel" transform="matrix(0.75,0,0,0.75,22.05,126.55)"
font-family="Helvetica" font-size="12" font-weight="400" font-style="normal" 
>
<text fill="#212121" fill-opacity="1" stroke="none" xml:space="preserve" x="0" y="0" font-family="Helvetica" font-size="12" font-weight="400" font-style="normal" 
 >-30</text>
</g>

<g fill="#212121" fill-opacity="1" stroke="#212121" stroke-opacity="1" stroke-width="1" stroke-linecap="square" stroke-linejoin="bevel" transform="matrix(0.75,0,0,0.75,60.8,126.55)"
font-family="Helvetica" font-size="12" font-weight="400" font-style="normal" 
>
<text fill="#212121" fill-opacity="1" stroke="none" xml:space="preserve" x="0" y="0" font-family="Helvetica" font-size="12" font-weight="400" font-style="normal" 
 >-20</text>
</g>

<g fill="#212121" fill-opacity="1" stroke="#212121" stroke-opacity="1" stroke-width="1" stroke-linecap="square" stroke-linejoin="bevel" transform="matrix(0.75,0,0,0.75,99.55,126.55)"
font-family="Helvetica" font-size="12" font-weight="400" font-style="normal" 
>
<text fill="#212121" fill-opacity="1" stroke="none" xml:space="preserve" x="0" y="0" font-family="Helvetica" font-size="12" font-weight="400" font-style="normal" 
 >-10</text>
</g>

<g fill="#212121" fill-opacity="1" stroke="#212121" stroke-opacity="1" stroke-width="1" stroke-linecap="square" stroke-linejoin="bevel" transform="matrix(0.75,0,0,0.75,142.425,126.55)"
font-family="Helvetica" font-size="12" font-weight="400" font-style="normal" 
>
<text fill="#212121" fill-opacity="1" stroke="none" xml:space="preserve" x="0" y="0" font-family="Helvetica" font-size="12" font-weight="400" font-style="normal" 
 >0</text>
</g>

<g fill="#212121" fill-opacity="1" stroke="#212121" stroke-opacity="1" stroke-width="1" stroke-linecap="square" stroke-linejoin="bevel" transform="matrix(0.75,0,0,0.75,178.55,126.55)"
font-family="Helvetica" font-size="12" font-weight="400" font-style="normal" 
>
<text fill="#212121" fill-opacity="1" stroke="none" xml:space="preserve" x="0" y="0" font-family="Helvetica" font-size="12" font-weight="400" font-style="normal" 
 >10</text>
</g>

<g fill="#212121" fill-opacity="1" stroke="#212121" stroke-opacity="1" stroke-width="1" stroke-linecap="square" stroke-linejoin="bevel" transform="matrix(0.75,0,0,0.75,217.3,126.55)"
font-family="Helvetica" font-size="12" font-weight="400" font-style="normal" 
>
<text fill="#212121" fill-opacity="1" stroke="none" xml:space="preserve" x="0" y="0" font-family="Helvetica" font-size="12" font-weight="400" font-style="normal" 
 >20</text>
</g>

<g fill="#212121" fill-opacity="1" stroke="#212121" stroke-opacity="1" stroke-width="1" stroke-linecap="square" stroke-linejoin="bevel" transform="matrix(0.75,0,0,0.75,256.05,126.55)"
font-family="Helvetica" font-size="12" font-weight="400" font-style="normal" 
>
<text fill="#212121" fill-opacity="1" stroke="none" xml:space="preserve" x="0" y="0" font-family="Helvetica" font-size="12" font-weight="400" font-style="normal" 
 >30</text>
</g>

<g fill="#212121" fill-opacity="1" stroke="#212121" stroke-opacity="1" stroke-width="1" stroke-linecap="square" stroke-linejoin="bevel" transform="matrix(0,-0.75,0.75,0,8.25,107.625)"
font-family="Helvetica" font-size="13" font-weight="400" font-style="normal" 
>
<text fill="#212121" fill-opacity="1" stroke="none" xml:space="preserve" x="0" y="0" font-family="Helvetica" font-size="13" font-weight="400" font-style="normal" 
 >Degree of membership</text>
</g>

<g fill="#212121" fill-opacity="1" stroke="#212121" stroke-opacity="1" stroke-width="0.666667" stroke-linecap="square" stroke-linejoin="round" transform="matrix(0.75,0,0,0.75,-10.2,-9.75)"
font-family="Helvetica" font-size="13" font-weight="400" font-style="normal" 
>
<polyline fill="none" vector-effect="none" points="52,167 52,15 " />
<polyline fill="none" vector-effect="none" points="362,167 362,15 " />
<polyline fill="none" vector-effect="none" points="52,154.333 55.1,154.333 " />
<polyline fill="none" vector-effect="none" points="358.9,154.333 362,154.333 " />
<polyline fill="none" vector-effect="none" points="52,129 55.1,129 " />
<polyline fill="none" vector-effect="none" points="358.9,129 362,129 " />
<polyline fill="none" vector-effect="none" points="52,103.667 55.1,103.667 " />
<polyline fill="none" vector-effect="none" points="358.9,103.667 362,103.667 " />
<polyline fill="none" vector-effect="none" points="52,78.3333 55.1,78.3333 " />
<polyline fill="none" vector-effect="none" points="358.9,78.3333 362,78.3333 " />
<polyline fill="none" vector-effect="none" points="52,53 55.1,53 " />
<polyline fill="none" vector-effect="none" points="358.9,53 362,53 " />
<polyline fill="none" vector-effect="none" points="52,27.6667 55.1,27.6667 " />
<polyline fill="none" vector-effect="none" points="358.9,27.6667 362,27.6667 " />
</g>

<g fill="#212121" fill-opacity="1" stroke="#212121" stroke-opacity="1" stroke-width="1" stroke-linecap="square" stroke-linejoin="bevel" transform="matrix(0.75,0,0,0.75,20.75,109)"
font-family="Helvetica" font-size="12" font-weight="400" font-style="normal" 
>
<text fill="#212121" fill-opacity="1" stroke="none" xml:space="preserve" x="0" y="0" font-family="Helvetica" font-size="12" font-weight="400" font-style="normal" 
 >0</text>
</g>

<g fill="#212121" fill-opacity="1" stroke="#212121" stroke-opacity="1" stroke-width="1" stroke-linecap="square" stroke-linejoin="bevel" transform="matrix(0.75,0,0,0.75,13.25,90)"
font-family="Helvetica" font-size="12" font-weight="400" font-style="normal" 
>
<text fill="#212121" fill-opacity="1" stroke="none" xml:space="preserve" x="0" y="0" font-family="Helvetica" font-size="12" font-weight="400" font-style="normal" 
 >0.2</text>
</g>

<g fill="#212121" fill-opacity="1" stroke="#212121" stroke-opacity="1" stroke-width="1" stroke-linecap="square" stroke-linejoin="bevel" transform="matrix(0.75,0,0,0.75,13.25,71)"
font-family="Helvetica" font-size="12" font-weight="400" font-style="normal" 
>
<text fill="#212121" fill-opacity="1" stroke="none" xml:space="preserve" x="0" y="0" font-family="Helvetica" font-size="12" font-weight="400" font-style="normal" 
 >0.4</text>
</g>

<g fill="#212121" fill-opacity="1" stroke="#212121" stroke-opacity="1" stroke-width="1" stroke-linecap="square" stroke-linejoin="bevel" transform="matrix(0.75,0,0,0.75,13.25,52)"
font-family="Helvetica" font-size="12" font-weight="400" font-style="normal" 
>
<text fill="#212121" fill-opacity="1" stroke="none" xml:space="preserve" x="0" y="0" font-family="Helvetica" font-size="12" font-weight="400" font-style="normal" 
 >0.6</text>
</g>

<g fill="#212121" fill-opacity="1" stroke="#212121" stroke-opacity="1" stroke-width="1" stroke-linecap="square" stroke-linejoin="bevel" transform="matrix(0.75,0,0,0.75,13.25,33)"
font-family="Helvetica" font-size="12" font-weight="400" font-style="normal" 
>
<text fill="#212121" fill-opacity="1" stroke="none" xml:space="preserve" x="0" y="0" font-family="Helvetica" font-size="12" font-weight="400" font-style="normal" 
 >0.8</text>
</g>

<g fill="#212121" fill-opacity="1" stroke="#212121" stroke-opacity="1" stroke-width="1" stroke-linecap="square" stroke-linejoin="bevel" transform="matrix(0.75,0,0,0.75,20.75,14)"
font-family="Helvetica" font-size="12" font-weight="400" font-style="normal" 
>
<text fill="#212121" fill-opacity="1" stroke="none" xml:space="preserve" x="0" y="0" font-family="Helvetica" font-size="12" font-weight="400" font-style="normal" 
 >1</text>
</g>

<g fill="none" stroke="#1171be" stroke-opacity="1" stroke-width="0.666667" stroke-linecap="butt" stroke-linejoin="round" transform="matrix(0.75,0,0,0.75,-10.2,-9.75)"
font-family="Helvetica" font-size="12" font-weight="400" font-style="normal" 
>
<polyline fill="none" vector-effect="none" points="52,146.417 53.7222,144.839 55.4444,143.016 57.1667,140.927 58.8889,138.549 60.6111,135.863 62.3333,132.854 64.0556,129.507 65.7778,125.816 67.5,121.776 69.2222,117.393 70.9444,112.677 72.6667,107.648 74.3889,102.333 76.1111,96.7685 77.8333,91 79.5556,85.0814 81.2778,79.0749 83,73.0497 84.7222,67.0814 86.4444,61.2501 88.1667,55.6392 89.8889,50.3327 91.6111,45.4141 93.3333,40.9635 95.0556,37.0559 96.7778,33.7588 98.5,31.1304 100.222,29.218 101.944,28.0563 103.667,27.6667 105.389,28.0563 107.111,29.218 108.833,31.1304 110.556,33.7588 112.278,37.0559 114,40.9635 115.722,45.4141 117.444,50.3327 119.167,55.6392 120.889,61.2501 122.611,67.0814 124.333,73.0497 126.056,79.0749 127.778,85.0814 129.5,91 131.222,96.7685 132.944,102.333 134.667,107.648 136.389,112.677 138.111,117.393 139.833,121.776 141.556,125.816 143.278,129.507 145,132.854 146.722,135.863 148.444,138.549 150.167,140.927 151.889,143.016 153.611,144.839 155.333,146.417 157.056,147.773 158.778,148.93 160.5,149.911 162.222,150.736 163.944,151.424 165.667,151.996 167.389,152.467 169.111,152.852 170.833,153.165 172.556,153.417 174.278,153.619 176,153.781 177.722,153.908 179.444,154.008 181.167,154.086 182.889,154.146 184.611,154.193 186.333,154.229 188.056,154.256 189.778,154.276 191.5,154.291 193.222,154.303 194.944,154.311 196.667,154.317 198.389,154.322 200.111,154.325 201.833,154.328 203.556,154.329 205.278,154.331 207,154.331 208.722,154.332 210.444,154.332 212.167,154.333 213.889,154.333 215.611,154.333 217.333,154.333 219.056,154.333 220.778,154.333 222.5,154.333 224.222,154.333 225.944,154.333 227.667,154.333 229.389,154.333 231.111,154.333 232.833,154.333 234.556,154.333 236.278,154.333 238,154.333 239.722,154.333 241.444,154.333 243.167,154.333 244.889,154.333 246.611,154.333 248.333,154.333 250.056,154.333 251.778,154.333 253.5,154.333 255.222,154.333 256.944,154.333 258.667,154.333 260.389,154.333 262.111,154.333 263.833,154.333 265.556,154.333 267.278,154.333 269,154.333 270.722,154.333 272.444,154.333 274.167,154.333 275.889,154.333 277.611,154.333 279.333,154.333 281.056,154.333 282.778,154.333 284.5,154.333 286.222,154.333 287.944,154.333 289.667,154.333 291.389,154.333 293.111,154.333 294.833,154.333 296.556,154.333 298.278,154.333 300,154.333 301.722,154.333 303.444,154.333 305.167,154.333 306.889,154.333 308.611,154.333 310.333,154.333 312.056,154.333 313.778,154.333 315.5,154.333 317.222,154.333 318.944,154.333 320.667,154.333 322.389,154.333 324.111,154.333 325.833,154.333 327.556,154.333 329.278,154.333 331,154.333 332.722,154.333 334.444,154.333 336.167,154.333 337.889,154.333 339.611,154.333 341.333,154.333 343.056,154.333 344.778,154.333 346.5,154.333 348.222,154.333 349.944,154.333 351.667,154.333 353.389,154.333 355.111,154.333 356.833,154.333 358.556,154.333 360.278,154.333 362,154.333 " />
</g>

<g fill="none" stroke="#dd5400" stroke-opacity="1" stroke-width="0.666667" stroke-linecap="butt" stroke-linejoin="round" transform="matrix(0.75,0,0,0.75,-10.2,-9.75)"
font-family="Helvetica" font-size="12" font-weight="400" font-style="normal" 
>
<polyline fill="none" vector-effect="none" points="52,154.331 53.7222,154.331 55.4444,154.329 57.1667,154.328 58.8889,154.325 60.6111,154.322 62.3333,154.317 64.0556,154.311 65.7778,154.303 67.5,154.291 69.2222,154.276 70.9444,154.256 72.6667,154.229 74.3889,154.193 76.1111,154.146 77.8333,154.086 79.5556,154.008 81.2778,153.908 83,153.781 84.7222,153.619 86.4444,153.417 88.1667,153.165 89.8889,152.852 91.6111,152.467 93.3333,151.996 95.0556,151.424 96.7778,150.736 98.5,149.911 100.222,148.93 101.944,147.773 103.667,146.417 105.389,144.839 107.111,143.016 108.833,140.927 110.556,138.549 112.278,135.863 114,132.854 115.722,129.507 117.444,125.816 119.167,121.776 120.889,117.393 122.611,112.677 124.333,107.648 126.056,102.333 127.778,96.7685 129.5,91 131.222,85.0814 132.944,79.0749 134.667,73.0497 136.389,67.0814 138.111,61.2501 139.833,55.6392 141.556,50.3327 143.278,45.4141 145,40.9635 146.722,37.0559 148.444,33.7588 150.167,31.1304 151.889,29.218 153.611,28.0563 155.333,27.6667 157.056,28.0563 158.778,29.218 160.5,31.1304 162.222,33.7588 163.944,37.0559 165.667,40.9635 167.389,45.4141 169.111,50.3327 170.833,55.6392 172.556,61.2501 174.278,67.0814 176,73.0497 177.722,79.0749 179.444,85.0814 181.167,91 182.889,96.7685 184.611,102.333 186.333,107.648 188.056,112.677 189.778,117.393 191.5,121.776 193.222,125.816 194.944,129.507 196.667,132.854 198.389,135.863 200.111,138.549 201.833,140.927 203.556,143.016 205.278,144.839 207,146.417 208.722,147.773 210.444,148.93 212.167,149.911 213.889,150.736 215.611,151.424 217.333,151.996 219.056,152.467 220.778,152.852 222.5,153.165 224.222,153.417 225.944,153.619 227.667,153.781 229.389,153.908 231.111,154.008 232.833,154.086 234.556,154.146 236.278,154.193 238,154.229 239.722,154.256 241.444,154.276 243.167,154.291 244.889,154.303 246.611,154.311 248.333,154.317 250.056,154.322 251.778,154.325 253.5,154.328 255.222,154.329 256.944,154.331 258.667,154.331 260.389,154.332 262.111,154.332 263.833,154.333 265.556,154.333 267.278,154.333 269,154.333 270.722,154.333 272.444,154.333 274.167,154.333 275.889,154.333 277.611,154.333 279.333,154.333 281.056,154.333 282.778,154.333 284.5,154.333 286.222,154.333 287.944,154.333 289.667,154.333 291.389,154.333 293.111,154.333 294.833,154.333 296.556,154.333 298.278,154.333 300,154.333 301.722,154.333 303.444,154.333 305.167,154.333 306.889,154.333 308.611,154.333 310.333,154.333 312.056,154.333 313.778,154.333 315.5,154.333 317.222,154.333 318.944,154.333 320.667,154.333 322.389,154.333 324.111,154.333 325.833,154.333 327.556,154.333 329.278,154.333 331,154.333 332.722,154.333 334.444,154.333 336.167,154.333 337.889,154.333 339.611,154.333 341.333,154.333 343.056,154.333 344.778,154.333 346.5,154.333 348.222,154.333 349.944,154.333 351.667,154.333 353.389,154.333 355.111,154.333 356.833,154.333 358.556,154.333 360.278,154.333 362,154.333 " />
</g>

<g fill="none" stroke="#edb120" stroke-opacity="1" stroke-width="0.666667" stroke-linecap="butt" stroke-linejoin="round" transform="matrix(0.75,0,0,0.75,-10.2,-9.75)"
font-family="Helvetica" font-size="12" font-weight="400" font-style="normal" 
>
<polyline fill="none" vector-effect="none" points="52,154.333 53.7222,154.333 55.4444,154.333 57.1667,154.333 58.8889,154.333 60.6111,154.333 62.3333,154.333 64.0556,154.333 65.7778,154.333 67.5,154.333 69.2222,154.333 70.9444,154.333 72.6667,154.333 74.3889,154.333 76.1111,154.333 77.8333,154.333 79.5556,154.333 81.2778,154.333 83,154.333 84.7222,154.333 86.4444,154.333 88.1667,154.333 89.8889,154.333 91.6111,154.333 93.3333,154.333 95.0556,154.333 96.7778,154.333 98.5,154.333 100.222,154.332 101.944,154.332 103.667,154.331 105.389,154.331 107.111,154.329 108.833,154.328 110.556,154.325 112.278,154.322 114,154.317 115.722,154.311 117.444,154.303 119.167,154.291 120.889,154.276 122.611,154.256 124.333,154.229 126.056,154.193 127.778,154.146 129.5,154.086 131.222,154.008 132.944,153.908 134.667,153.781 136.389,153.619 138.111,153.417 139.833,153.165 141.556,152.852 143.278,152.467 145,151.996 146.722,151.424 148.444,150.736 150.167,149.911 151.889,148.93 153.611,147.773 155.333,146.417 157.056,144.839 158.778,143.016 160.5,140.927 162.222,138.549 163.944,135.863 165.667,132.854 167.389,129.507 169.111,125.816 170.833,121.776 172.556,117.393 174.278,112.677 176,107.648 177.722,102.333 179.444,96.7685 181.167,91 182.889,85.0814 184.611,79.0749 186.333,73.0497 188.056,67.0814 189.778,61.2501 191.5,55.6392 193.222,50.3327 194.944,45.4141 196.667,40.9635 198.389,37.0559 200.111,33.7588 201.833,31.1304 203.556,29.218 205.278,28.0563 207,27.6667 208.722,28.0563 210.444,29.218 212.167,31.1304 213.889,33.7588 215.611,37.0559 217.333,40.9635 219.056,45.4141 220.778,50.3327 222.5,55.6392 224.222,61.2501 225.944,67.0814 227.667,73.0497 229.389,79.0749 231.111,85.0814 232.833,91 234.556,96.7685 236.278,102.333 238,107.648 239.722,112.677 241.444,117.393 243.167,121.776 244.889,125.816 246.611,129.507 248.333,132.854 250.056,135.863 251.778,138.549 253.5,140.927 255.222,143.016 256.944,144.839 258.667,146.417 260.389,147.773 262.111,148.93 263.833,149.911 265.556,150.736 267.278,151.424 269,151.996 270.722,152.467 272.444,152.852 274.167,153.165 275.889,153.417 277.611,153.619 279.333,153.781 281.056,153.908 282.778,154.008 284.5,154.086 286.222,154.146 287.944,154.193 289.667,154.229 291.389,154.256 293.111,154.276 294.833,154.291 296.556,154.303 298.278,154.311 300,154.317 301.722,154.322 303.444,154.325 305.167,154.328 306.889,154.329 308.611,154.331 310.333,154.331 312.056,154.332 313.778,154.332 315.5,154.333 317.222,154.333 318.944,154.333 320.667,154.333 322.389,154.333 324.111,154.333 325.833,154.333 327.556,154.333 329.278,154.333 331,154.333 332.722,154.333 334.444,154.333 336.167,154.333 337.889,154.333 339.611,154.333 341.333,154.333 343.056,154.333 344.778,154.333 346.5,154.333 348.222,154.333 349.944,154.333 351.667,154.333 353.389,154.333 355.111,154.333 356.833,154.333 358.556,154.333 360.278,154.333 362,154.333 " />
</g>

<g fill="none" stroke="#8516d1" stroke-opacity="1" stroke-width="0.666667" stroke-linecap="butt" stroke-linejoin="round" transform="matrix(0.75,0,0,0.75,-10.2,-9.75)"
font-family="Helvetica" font-size="12" font-weight="400" font-style="normal" 
>
<polyline fill="none" vector-effect="none" points="52,154.333 53.7222,154.333 55.4444,154.333 57.1667,154.333 58.8889,154.333 60.6111,154.333 62.3333,154.333 64.0556,154.333 65.7778,154.333 67.5,154.333 69.2222,154.333 70.9444,154.333 72.6667,154.333 74.3889,154.333 76.1111,154.333 77.8333,154.333 79.5556,154.333 81.2778,154.333 83,154.333 84.7222,154.333 86.4444,154.333 88.1667,154.333 89.8889,154.333 91.6111,154.333 93.3333,154.333 95.0556,154.333 96.7778,154.333 98.5,154.333 100.222,154.333 101.944,154.333 103.667,154.333 105.389,154.333 107.111,154.333 108.833,154.333 110.556,154.333 112.278,154.333 114,154.333 115.722,154.333 117.444,154.333 119.167,154.333 120.889,154.333 122.611,154.333 124.333,154.333 126.056,154.333 127.778,154.333 129.5,154.333 131.222,154.333 132.944,154.333 134.667,154.333 136.389,154.333 138.111,154.333 139.833,154.333 141.556,154.333 143.278,154.333 145,154.333 146.722,154.333 148.444,154.333 150.167,154.333 151.889,154.332 153.611,154.332 155.333,154.331 157.056,154.331 158.778,154.329 160.5,154.328 162.222,154.325 163.944,154.322 165.667,154.317 167.389,154.311 169.111,154.303 170.833,154.291 172.556,154.276 174.278,154.256 176,154.229 177.722,154.193 179.444,154.146 181.167,154.086 182.889,154.008 184.611,153.908 186.333,153.781 188.056,153.619 189.778,153.417 191.5,153.165 193.222,152.852 194.944,152.467 196.667,151.996 198.389,151.424 200.111,150.736 201.833,149.911 203.556,148.93 205.278,147.773 207,146.417 208.722,144.839 210.444,143.016 212.167,140.927 213.889,138.549 215.611,135.863 217.333,132.854 219.056,129.507 220.778,125.816 222.5,121.776 224.222,117.393 225.944,112.677 227.667,107.648 229.389,102.333 231.111,96.7685 232.833,91 234.556,85.0814 236.278,79.0749 238,73.0497 239.722,67.0814 241.444,61.2501 243.167,55.6392 244.889,50.3327 246.611,45.4141 248.333,40.9635 250.056,37.0559 251.778,33.7588 253.5,31.1304 255.222,29.218 256.944,28.0563 258.667,27.6667 260.389,28.0563 262.111,29.218 263.833,31.1304 265.556,33.7588 267.278,37.0559 269,40.9635 270.722,45.4141 272.444,50.3327 274.167,55.6392 275.889,61.2501 277.611,67.0814 279.333,73.0497 281.056,79.0749 282.778,85.0814 284.5,91 286.222,96.7685 287.944,102.333 289.667,107.648 291.389,112.677 293.111,117.393 294.833,121.776 296.556,125.816 298.278,129.507 300,132.854 301.722,135.863 303.444,138.549 305.167,140.927 306.889,143.016 308.611,144.839 310.333,146.417 312.056,147.773 313.778,148.93 315.5,149.911 317.222,150.736 318.944,151.424 320.667,151.996 322.389,152.467 324.111,152.852 325.833,153.165 327.556,153.417 329.278,153.619 331,153.781 332.722,153.908 334.444,154.008 336.167,154.086 337.889,154.146 339.611,154.193 341.333,154.229 343.056,154.256 344.778,154.276 346.5,154.291 348.222,154.303 349.944,154.311 351.667,154.317 353.389,154.322 355.111,154.325 356.833,154.328 358.556,154.329 360.278,154.331 362,154.331 " />
</g>

<g fill="none" stroke="#3baa32" stroke-opacity="1" stroke-width="0.666667" stroke-linecap="butt" stroke-linejoin="round" transform="matrix(0.75,0,0,0.75,-10.2,-9.75)"
font-family="Helvetica" font-size="12" font-weight="400" font-style="normal" 
>
<polyline fill="none" vector-effect="none" points="52,154.333 53.7222,154.333 55.4444,154.333 57.1667,154.333 58.8889,154.333 60.6111,154.333 62.3333,154.333 64.0556,154.333 65.7778,154.333 67.5,154.333 69.2222,154.333 70.9444,154.333 72.6667,154.333 74.3889,154.333 76.1111,154.333 77.8333,154.333 79.5556,154.333 81.2778,154.333 83,154.333 84.7222,154.333 86.4444,154.333 88.1667,154.333 89.8889,154.333 91.6111,154.333 93.3333,154.333 95.0556,154.333 96.7778,154.333 98.5,154.333 100.222,154.333 101.944,154.333 103.667,154.333 105.389,154.333 107.111,154.333 108.833,154.333 110.556,154.333 112.278,154.333 114,154.333 115.722,154.333 117.444,154.333 119.167,154.333 120.889,154.333 122.611,154.333 124.333,154.333 126.056,154.333 127.778,154.333 129.5,154.333 131.222,154.333 132.944,154.333 134.667,154.333 136.389,154.333 138.111,154.333 139.833,154.333 141.556,154.333 143.278,154.333 145,154.333 146.722,154.333 148.444,154.333 150.167,154.333 151.889,154.333 153.611,154.333 155.333,154.333 157.056,154.333 158.778,154.333 160.5,154.333 162.222,154.333 163.944,154.333 165.667,154.333 167.389,154.333 169.111,154.333 170.833,154.333 172.556,154.333 174.278,154.333 176,154.333 177.722,154.333 179.444,154.333 181.167,154.333 182.889,154.333 184.611,154.333 186.333,154.333 188.056,154.333 189.778,154.333 191.5,154.333 193.222,154.333 194.944,154.333 196.667,154.333 198.389,154.333 200.111,154.333 201.833,154.333 203.556,154.332 205.278,154.332 207,154.331 208.722,154.331 210.444,154.329 212.167,154.328 213.889,154.325 215.611,154.322 217.333,154.317 219.056,154.311 220.778,154.303 222.5,154.291 224.222,154.276 225.944,154.256 227.667,154.229 229.389,154.193 231.111,154.146 232.833,154.086 234.556,154.008 236.278,153.908 238,153.781 239.722,153.619 241.444,153.417 243.167,153.165 244.889,152.852 246.611,152.467 248.333,151.996 250.056,151.424 251.778,150.736 253.5,149.911 255.222,148.93 256.944,147.773 258.667,146.417 260.389,144.839 262.111,143.016 263.833,140.927 265.556,138.549 267.278,135.863 269,132.854 270.722,129.507 272.444,125.816 274.167,121.776 275.889,117.393 277.611,112.677 279.333,107.648 281.056,102.333 282.778,96.7685 284.5,91 286.222,85.0814 287.944,79.0749 289.667,73.0497 291.389,67.0814 293.111,61.2501 294.833,55.6392 296.556,50.3327 298.278,45.4141 300,40.9635 301.722,37.0559 303.444,33.7588 305.167,31.1304 306.889,29.218 308.611,28.0563 310.333,27.6667 312.056,28.0563 313.778,29.218 315.5,31.1304 317.222,33.7588 318.944,37.0559 320.667,40.9635 322.389,45.4141 324.111,50.3327 325.833,55.6392 327.556,61.2501 329.278,67.0814 331,73.0497 332.722,79.0749 334.444,85.0814 336.167,91 337.889,96.7685 339.611,102.333 341.333,107.648 343.056,112.677 344.778,117.393 346.5,121.776 348.222,125.816 349.944,129.507 351.667,132.854 353.389,135.863 355.111,138.549 356.833,140.927 358.556,143.016 360.278,144.839 362,146.417 " />
</g>

<g fill="#212121" fill-opacity="1" stroke="#212121" stroke-opacity="1" stroke-width="1" stroke-linecap="square" stroke-linejoin="bevel" transform="matrix(0.75,0,0,0.75,49.175,9.62501)"
font-family="Helvetica" font-size="13" font-weight="400" font-style="normal" 
>
<text fill="#212121" fill-opacity="1" stroke="none" xml:space="preserve" x="0" y="0" font-family="Helvetica" font-size="13" font-weight="400" font-style="normal" 
 >neglarge</text>
</g>

<g fill="#212121" fill-opacity="1" stroke="#212121" stroke-opacity="1" stroke-width="1" stroke-linecap="square" stroke-linejoin="bevel" transform="matrix(0.75,0,0,0.75,86.8,9.62501)"
font-family="Helvetica" font-size="13" font-weight="400" font-style="normal" 
>
<text fill="#212121" fill-opacity="1" stroke="none" xml:space="preserve" x="0" y="0" font-family="Helvetica" font-size="13" font-weight="400" font-style="normal" 
 >negsmall</text>
</g>

<g fill="#212121" fill-opacity="1" stroke="#212121" stroke-opacity="1" stroke-width="1" stroke-linecap="square" stroke-linejoin="bevel" transform="matrix(0.75,0,0,0.75,135.675,9.62501)"
font-family="Helvetica" font-size="13" font-weight="400" font-style="normal" 
>
<text fill="#212121" fill-opacity="1" stroke="none" xml:space="preserve" x="0" y="0" font-family="Helvetica" font-size="13" font-weight="400" font-style="normal" 
 >zero</text>
</g>

<g fill="#212121" fill-opacity="1" stroke="#212121" stroke-opacity="1" stroke-width="1" stroke-linecap="square" stroke-linejoin="bevel" transform="matrix(0.75,0,0,0.75,164.3,9.62501)"
font-family="Helvetica" font-size="13" font-weight="400" font-style="normal" 
>
<text fill="#212121" fill-opacity="1" stroke="none" xml:space="preserve" x="0" y="0" font-family="Helvetica" font-size="13" font-weight="400" font-style="normal" 
 >possmall</text>
</g>

<g fill="#212121" fill-opacity="1" stroke="#212121" stroke-opacity="1" stroke-width="1" stroke-linecap="square" stroke-linejoin="bevel" transform="matrix(0.75,0,0,0.75,204.175,9.62501)"
font-family="Helvetica" font-size="13" font-weight="400" font-style="normal" 
>
<text fill="#212121" fill-opacity="1" stroke="none" xml:space="preserve" x="0" y="0" font-family="Helvetica" font-size="13" font-weight="400" font-style="normal" 
 >poslarge</text>
</g>
</g>
</svg>
