<?xml version="1.0" encoding="UTF-8" standalone="no"?>
<svg width="94.1917mm" height="73.3778mm"
 viewBox="0 0 267 208"
 xmlns="http://www.w3.org/2000/svg" xmlns:xlink="http://www.w3.org/1999/xlink"  version="1.2" baseProfile="tiny">
<title>Qt SVG Document</title>
<desc>MATLAB, The MathWorks, Inc. Version 25.2.0.3123386 R2025b Update 3</desc>
<defs>
</defs>
<g fill="none" stroke="black" stroke-width="1" fill-rule="evenodd" stroke-linecap="square" stroke-linejoin="bevel" >

<g fill="#ffffff" fill-opacity="1" stroke="none" transform="matrix(0.75,0,0,0.75,-8.3,-10.5)"
font-family="MS Shell Dlg 2" font-size="8.25" font-weight="400" font-style="normal" 
>
<path vector-effect="none" fill-rule="evenodd" d="M10,12 L367,12 L367,291 L10,291 L10,12"/>
</g>

<g fill="#ffffff" fill-opacity="1" stroke="none" transform="matrix(7.5e-05,0,0,7.5e-05,-8.3,-10.5)"
font-family="MS Shell Dlg 2" font-size="8.25" font-weight="400" font-style="normal" 
>
<path vector-effect="none" fill-rule="evenodd" d="M590000,220000 L590000,1.28e+06 L3.62e+06,1.28e+06 L3.62e+06,220000 L590000,220000"/>
</g>

<g fill="#212121" fill-opacity="0.14902" stroke="#212121" stroke-opacity="0.14902" stroke-width="0.666667" stroke-linecap="butt" stroke-linejoin="round" transform="matrix(0.75,0,0,0.75,-8.3,-10.5)"
font-family="MS Shell Dlg 2" font-size="8.25" font-weight="400" font-style="normal" 
>
<polyline fill="none" vector-effect="none" points="59,22 59,128 " />
<polyline fill="none" vector-effect="none" points="109.5,22 109.5,128 " />
<polyline fill="none" vector-effect="none" points="160,22 160,128 " />
<polyline fill="none" vector-effect="none" points="210.5,22 210.5,128 " />
<polyline fill="none" vector-effect="none" points="261,22 261,128 " />
<polyline fill="none" vector-effect="none" points="311.5,22 311.5,128 " />
<polyline fill="none" vector-effect="none" points="362,22 362,128 " />
<polyline fill="none" vector-effect="none" points="59,128 362,128 " />
<polyline fill="none" vector-effect="none" points="59,75 362,75 " />
<polyline fill="none" vector-effect="none" points="59,22 362,22 " />
</g>

<g fill="#212121" fill-opacity="1" stroke="#212121" stroke-opacity="1" stroke-width="0.666667" stroke-linecap="square" stroke-linejoin="round" transform="matrix(0.75,0,0,0.75,-8.3,-10.5)"
font-family="MS Shell Dlg 2" font-size="8.25" font-weight="400" font-style="normal" 
>
<polyline fill="none" vector-effect="none" points="59,128 362,128 " />
<polyline fill="none" vector-effect="none" points="59,22 362,22 " />
<polyline fill="none" vector-effect="none" points="59,128 59,124.97 " />
<polyline fill="none" vector-effect="none" points="59,25.03 59,22 " />
<polyline fill="none" vector-effect="none" points="109.5,128 109.5,124.97 " />
<polyline fill="none" vector-effect="none" points="109.5,25.03 109.5,22 " />
<polyline fill="none" vector-effect="none" points="160,128 160,124.97 " />
<polyline fill="none" vector-effect="none" points="160,25.03 160,22 " />
<polyline fill="none" vector-effect="none" points="210.5,128 210.5,124.97 " />
<polyline fill="none" vector-effect="none" points="210.5,25.03 210.5,22 " />
<polyline fill="none" vector-effect="none" points="261,128 261,124.97 " />
<polyline fill="none" vector-effect="none" points="261,25.03 261,22 " />
<polyline fill="none" vector-effect="none" points="311.5,128 311.5,124.97 " />
<polyline fill="none" vector-effect="none" points="311.5,25.03 311.5,22 " />
<polyline fill="none" vector-effect="none" points="362,128 362,124.97 " />
<polyline fill="none" vector-effect="none" points="362,25.03 362,22 " />
</g>

<g fill="#212121" fill-opacity="1" stroke="#212121" stroke-opacity="1" stroke-width="1" stroke-linecap="square" stroke-linejoin="bevel" transform="matrix(0.75,0,0,0.75,33.7,95.2)"
font-family="Helvetica" font-size="11" font-weight="400" font-style="normal" 
>
<text fill="#212121" fill-opacity="1" stroke="none" xml:space="preserve" x="0" y="0" font-family="Helvetica" font-size="11" font-weight="400" font-style="normal" 
 >0</text>
</g>

<g fill="#212121" fill-opacity="1" stroke="#212121" stroke-opacity="1" stroke-width="1" stroke-linecap="square" stroke-linejoin="bevel" transform="matrix(0.75,0,0,0.75,68.2,95.2)"
font-family="Helvetica" font-size="11" font-weight="400" font-style="normal" 
>
<text fill="#212121" fill-opacity="1" stroke="none" xml:space="preserve" x="0" y="0" font-family="Helvetica" font-size="11" font-weight="400" font-style="normal" 
 >0.5</text>
</g>

<g fill="#212121" fill-opacity="1" stroke="#212121" stroke-opacity="1" stroke-width="1" stroke-linecap="square" stroke-linejoin="bevel" transform="matrix(0.75,0,0,0.75,109.45,95.2)"
font-family="Helvetica" font-size="11" font-weight="400" font-style="normal" 
>
<text fill="#212121" fill-opacity="1" stroke="none" xml:space="preserve" x="0" y="0" font-family="Helvetica" font-size="11" font-weight="400" font-style="normal" 
 >1</text>
</g>

<g fill="#212121" fill-opacity="1" stroke="#212121" stroke-opacity="1" stroke-width="1" stroke-linecap="square" stroke-linejoin="bevel" transform="matrix(0.75,0,0,0.75,143.95,95.2)"
font-family="Helvetica" font-size="11" font-weight="400" font-style="normal" 
>
<text fill="#212121" fill-opacity="1" stroke="none" xml:space="preserve" x="0" y="0" font-family="Helvetica" font-size="11" font-weight="400" font-style="normal" 
 >1.5</text>
</g>

<g fill="#212121" fill-opacity="1" stroke="#212121" stroke-opacity="1" stroke-width="1" stroke-linecap="square" stroke-linejoin="bevel" transform="matrix(0.75,0,0,0.75,185.2,95.2)"
font-family="Helvetica" font-size="11" font-weight="400" font-style="normal" 
>
<text fill="#212121" fill-opacity="1" stroke="none" xml:space="preserve" x="0" y="0" font-family="Helvetica" font-size="11" font-weight="400" font-style="normal" 
 >2</text>
</g>

<g fill="#212121" fill-opacity="1" stroke="#212121" stroke-opacity="1" stroke-width="1" stroke-linecap="square" stroke-linejoin="bevel" transform="matrix(0.75,0,0,0.75,219.7,95.2)"
font-family="Helvetica" font-size="11" font-weight="400" font-style="normal" 
>
<text fill="#212121" fill-opacity="1" stroke="none" xml:space="preserve" x="0" y="0" font-family="Helvetica" font-size="11" font-weight="400" font-style="normal" 
 >2.5</text>
</g>

<g fill="#212121" fill-opacity="1" stroke="#212121" stroke-opacity="1" stroke-width="1" stroke-linecap="square" stroke-linejoin="bevel" transform="matrix(0.75,0,0,0.75,260.95,95.2)"
font-family="Helvetica" font-size="11" font-weight="400" font-style="normal" 
>
<text fill="#212121" fill-opacity="1" stroke="none" xml:space="preserve" x="0" y="0" font-family="Helvetica" font-size="11" font-weight="400" font-style="normal" 
 >3</text>
</g>

<g fill="#212121" fill-opacity="1" stroke="#212121" stroke-opacity="1" stroke-width="1" stroke-linecap="square" stroke-linejoin="bevel" transform="matrix(0,-0.75,0.75,0,8.25,90)"
font-family="Helvetica" font-size="12" font-weight="400" font-style="normal" 
>
<text fill="#212121" fill-opacity="1" stroke="none" xml:space="preserve" x="0" y="0" font-family="Helvetica" font-size="12" font-weight="400" font-style="normal" 
 >Angular position (rad)</text>
</g>

<g fill="#212121" fill-opacity="1" stroke="#212121" stroke-opacity="1" stroke-width="0.666667" stroke-linecap="square" stroke-linejoin="round" transform="matrix(0.75,0,0,0.75,-8.3,-10.5)"
font-family="Helvetica" font-size="12" font-weight="400" font-style="normal" 
>
<polyline fill="none" vector-effect="none" points="59,128 59,22 " />
<polyline fill="none" vector-effect="none" points="362,128 362,22 " />
<polyline fill="none" vector-effect="none" points="59,128 62.03,128 " />
<polyline fill="none" vector-effect="none" points="358.97,128 362,128 " />
<polyline fill="none" vector-effect="none" points="59,75 62.03,75 " />
<polyline fill="none" vector-effect="none" points="358.97,75 362,75 " />
<polyline fill="none" vector-effect="none" points="59,22 62.03,22 " />
<polyline fill="none" vector-effect="none" points="358.97,22 362,22 " />
</g>

<g fill="#212121" fill-opacity="1" stroke="#212121" stroke-opacity="1" stroke-width="1" stroke-linecap="square" stroke-linejoin="bevel" transform="matrix(0.75,0,0,0.75,22.5,88.125)"
font-family="Helvetica" font-size="11" font-weight="400" font-style="normal" 
>
<text fill="#212121" fill-opacity="1" stroke="none" xml:space="preserve" x="0" y="0" font-family="Helvetica" font-size="11" font-weight="400" font-style="normal" 
 >0.1</text>
</g>

<g fill="#212121" fill-opacity="1" stroke="#212121" stroke-opacity="1" stroke-width="1" stroke-linecap="square" stroke-linejoin="bevel" transform="matrix(0.75,0,0,0.75,13.5,48.3751)"
font-family="Helvetica" font-size="11" font-weight="400" font-style="normal" 
>
<text fill="#212121" fill-opacity="1" stroke="none" xml:space="preserve" x="0" y="0" font-family="Helvetica" font-size="11" font-weight="400" font-style="normal" 
 >0.105</text>
</g>

<g fill="#212121" fill-opacity="1" stroke="#212121" stroke-opacity="1" stroke-width="1" stroke-linecap="square" stroke-linejoin="bevel" transform="matrix(0.75,0,0,0.75,18.75,8.62504)"
font-family="Helvetica" font-size="11" font-weight="400" font-style="normal" 
>
<text fill="#212121" fill-opacity="1" stroke="none" xml:space="preserve" x="0" y="0" font-family="Helvetica" font-size="11" font-weight="400" font-style="normal" 
 >0.11</text>
</g>

<g fill="none" stroke="#1171be" stroke-opacity="1" stroke-width="0.666667" stroke-linecap="butt" stroke-linejoin="round" transform="matrix(0.75,0,0,0.75,-8.3,-10.5)"
font-family="Helvetica" font-size="11" font-weight="400" font-style="normal" 
>
<polyline fill="none" vector-effect="none" points="59,128 59.0001,128 59.0009,128 59.0044,128 59.0222,128 59.1109,127.988 59.5546,127.737 60.2457,126.901 61.0813,125.489 62.0763,123.53 63.258,121.021 64.6889,117.85 66.4743,113.774 68.8124,108.296 72.1845,100.211 76.1694,90.5418 79.2136,83.2002 82.2578,76.0061 86.2334,66.9903 89.2681,60.5115 92.3028,54.474 95.0773,49.4054 97.7214,45.0251 100.41,41.0628 103.163,37.5582 105.89,34.6674 108.549,32.4296 111.174,30.7966 113.81,29.7415 116.46,29.2724 119.109,29.3915 121.75,30.0833 124.394,31.3315 127.055,33.1241 129.736,35.4444 132.437,38.2674 135.162,41.5656 137.917,45.3134 140.711,49.4839 143.552,54.0456 146.446,58.9623 149.404,64.1969 152.44,69.7129 155.574,75.475 158.834,81.45 162.264,87.6154 165.95,93.9884 170.146,100.776 173.323,105.495 176.5,109.785 179.247,113.107 181.836,115.888 184.576,118.436 187.476,120.671 190.341,122.396 193.083,123.59 195.781,124.323 198.525,124.622 201.319,124.469 204.111,123.865 206.881,122.834 209.652,121.393 212.451,119.543 215.283,117.297 218.135,114.684 221.006,111.738 223.905,108.479 226.846,104.926 229.837,101.108 232.879,97.0643 235.981,92.835 239.155,88.4566 242.423,83.9638 245.811,79.3945 249.356,74.7904 253.125,70.1838 257.292,65.543 261.137,61.7696 263.684,59.5796 266.23,57.6536 269.156,55.785 272.268,54.2202 275.198,53.1589 277.918,52.5369 280.635,52.2649 283.479,52.3502 286.393,52.8219 289.267,53.6545 292.087,54.8094 294.919,56.2851 297.813,58.0938 300.754,60.2145 303.709,62.5984 306.675,65.2079 309.676,68.0313 312.741,71.0589 315.872,74.2576 319.063,77.5747 322.313,80.9609 325.642,84.383 329.084,87.8138 332.673,91.2143 336.438,94.5249 340.415,97.6712 344.692,100.584 349.658,103.276 352.265,104.368 354.872,105.232 357.854,105.935 361.04,106.349 362,106.405 " />
</g>

<g fill="#ffffff" fill-opacity="1" stroke="none" transform="matrix(7.5e-05,0,0,7.5e-05,-8.3,-10.5)"
font-family="Helvetica" font-size="11" font-weight="400" font-style="normal" 
>
<path vector-effect="none" fill-rule="evenodd" d="M590000,1.54e+06 L590000,2.6e+06 L3.62e+06,2.6e+06 L3.62e+06,1.54e+06 L590000,1.54e+06"/>
</g>

<g fill="#212121" fill-opacity="0.14902" stroke="#212121" stroke-opacity="0.14902" stroke-width="0.666667" stroke-linecap="butt" stroke-linejoin="round" transform="matrix(0.75,0,0,0.75,-8.3,-10.5)"
font-family="Helvetica" font-size="11" font-weight="400" font-style="normal" 
>
<polyline fill="none" vector-effect="none" points="59,154 59,260 " />
<polyline fill="none" vector-effect="none" points="109.5,154 109.5,260 " />
<polyline fill="none" vector-effect="none" points="160,154 160,260 " />
<polyline fill="none" vector-effect="none" points="210.5,154 210.5,260 " />
<polyline fill="none" vector-effect="none" points="261,154 261,260 " />
<polyline fill="none" vector-effect="none" points="311.5,154 311.5,260 " />
<polyline fill="none" vector-effect="none" points="362,154 362,260 " />
<polyline fill="none" vector-effect="none" points="59,260 362,260 " />
<polyline fill="none" vector-effect="none" points="59,224.667 362,224.667 " />
<polyline fill="none" vector-effect="none" points="59,189.333 362,189.333 " />
<polyline fill="none" vector-effect="none" points="59,154 362,154 " />
</g>

<g fill="#212121" fill-opacity="1" stroke="#212121" stroke-opacity="1" stroke-width="1" stroke-linecap="square" stroke-linejoin="bevel" transform="matrix(0.75,0,0,0.75,128.2,204.2)"
font-family="Helvetica" font-size="12" font-weight="400" font-style="normal" 
>
<text fill="#212121" fill-opacity="1" stroke="none" xml:space="preserve" x="0" y="0" font-family="Helvetica" font-size="12" font-weight="400" font-style="normal" 
 >Time (sec)</text>
</g>

<g fill="#212121" fill-opacity="1" stroke="#212121" stroke-opacity="1" stroke-width="0.666667" stroke-linecap="square" stroke-linejoin="round" transform="matrix(0.75,0,0,0.75,-8.3,-10.5)"
font-family="Helvetica" font-size="12" font-weight="400" font-style="normal" 
>
<polyline fill="none" vector-effect="none" points="59,260 362,260 " />
<polyline fill="none" vector-effect="none" points="59,154 362,154 " />
<polyline fill="none" vector-effect="none" points="59,260 59,256.97 " />
<polyline fill="none" vector-effect="none" points="59,157.03 59,154 " />
<polyline fill="none" vector-effect="none" points="109.5,260 109.5,256.97 " />
<polyline fill="none" vector-effect="none" points="109.5,157.03 109.5,154 " />
<polyline fill="none" vector-effect="none" points="160,260 160,256.97 " />
<polyline fill="none" vector-effect="none" points="160,157.03 160,154 " />
<polyline fill="none" vector-effect="none" points="210.5,260 210.5,256.97 " />
<polyline fill="none" vector-effect="none" points="210.5,157.03 210.5,154 " />
<polyline fill="none" vector-effect="none" points="261,260 261,256.97 " />
<polyline fill="none" vector-effect="none" points="261,157.03 261,154 " />
<polyline fill="none" vector-effect="none" points="311.5,260 311.5,256.97 " />
<polyline fill="none" vector-effect="none" points="311.5,157.03 311.5,154 " />
<polyline fill="none" vector-effect="none" points="362,260 362,256.97 " />
<polyline fill="none" vector-effect="none" points="362,157.03 362,154 " />
</g>

<g fill="#212121" fill-opacity="1" stroke="#212121" stroke-opacity="1" stroke-width="1" stroke-linecap="square" stroke-linejoin="bevel" transform="matrix(0.75,0,0,0.75,33.7,194.2)"
font-family="Helvetica" font-size="11" font-weight="400" font-style="normal" 
>
<text fill="#212121" fill-opacity="1" stroke="none" xml:space="preserve" x="0" y="0" font-family="Helvetica" font-size="11" font-weight="400" font-style="normal" 
 >0</text>
</g>

<g fill="#212121" fill-opacity="1" stroke="#212121" stroke-opacity="1" stroke-width="1" stroke-linecap="square" stroke-linejoin="bevel" transform="matrix(0.75,0,0,0.75,68.2,194.2)"
font-family="Helvetica" font-size="11" font-weight="400" font-style="normal" 
>
<text fill="#212121" fill-opacity="1" stroke="none" xml:space="preserve" x="0" y="0" font-family="Helvetica" font-size="11" font-weight="400" font-style="normal" 
 >0.5</text>
</g>

<g fill="#212121" fill-opacity="1" stroke="#212121" stroke-opacity="1" stroke-width="1" stroke-linecap="square" stroke-linejoin="bevel" transform="matrix(0.75,0,0,0.75,109.45,194.2)"
font-family="Helvetica" font-size="11" font-weight="400" font-style="normal" 
>
<text fill="#212121" fill-opacity="1" stroke="none" xml:space="preserve" x="0" y="0" font-family="Helvetica" font-size="11" font-weight="400" font-style="normal" 
 >1</text>
</g>

<g fill="#212121" fill-opacity="1" stroke="#212121" stroke-opacity="1" stroke-width="1" stroke-linecap="square" stroke-linejoin="bevel" transform="matrix(0.75,0,0,0.75,143.95,194.2)"
font-family="Helvetica" font-size="11" font-weight="400" font-style="normal" 
>
<text fill="#212121" fill-opacity="1" stroke="none" xml:space="preserve" x="0" y="0" font-family="Helvetica" font-size="11" font-weight="400" font-style="normal" 
 >1.5</text>
</g>

<g fill="#212121" fill-opacity="1" stroke="#212121" stroke-opacity="1" stroke-width="1" stroke-linecap="square" stroke-linejoin="bevel" transform="matrix(0.75,0,0,0.75,185.2,194.2)"
font-family="Helvetica" font-size="11" font-weight="400" font-style="normal" 
>
<text fill="#212121" fill-opacity="1" stroke="none" xml:space="preserve" x="0" y="0" font-family="Helvetica" font-size="11" font-weight="400" font-style="normal" 
 >2</text>
</g>

<g fill="#212121" fill-opacity="1" stroke="#212121" stroke-opacity="1" stroke-width="1" stroke-linecap="square" stroke-linejoin="bevel" transform="matrix(0.75,0,0,0.75,219.7,194.2)"
font-family="Helvetica" font-size="11" font-weight="400" font-style="normal" 
>
<text fill="#212121" fill-opacity="1" stroke="none" xml:space="preserve" x="0" y="0" font-family="Helvetica" font-size="11" font-weight="400" font-style="normal" 
 >2.5</text>
</g>

<g fill="#212121" fill-opacity="1" stroke="#212121" stroke-opacity="1" stroke-width="1" stroke-linecap="square" stroke-linejoin="bevel" transform="matrix(0.75,0,0,0.75,260.95,194.2)"
font-family="Helvetica" font-size="11" font-weight="400" font-style="normal" 
>
<text fill="#212121" fill-opacity="1" stroke="none" xml:space="preserve" x="0" y="0" font-family="Helvetica" font-size="11" font-weight="400" font-style="normal" 
 >3</text>
</g>

<g fill="#212121" fill-opacity="1" stroke="#212121" stroke-opacity="1" stroke-width="1" stroke-linecap="square" stroke-linejoin="bevel" transform="matrix(0,-0.75,0.75,0,18,173.625)"
font-family="Helvetica" font-size="12" font-weight="400" font-style="normal" 
>
<text fill="#212121" fill-opacity="1" stroke="none" xml:space="preserve" x="0" y="0" font-family="Helvetica" font-size="12" font-weight="400" font-style="normal" 
 >Input force (N)</text>
</g>

<g fill="#212121" fill-opacity="1" stroke="#212121" stroke-opacity="1" stroke-width="0.666667" stroke-linecap="square" stroke-linejoin="round" transform="matrix(0.75,0,0,0.75,-8.3,-10.5)"
font-family="Helvetica" font-size="12" font-weight="400" font-style="normal" 
>
<polyline fill="none" vector-effect="none" points="59,260 59,154 " />
<polyline fill="none" vector-effect="none" points="362,260 362,154 " />
<polyline fill="none" vector-effect="none" points="59,260 62.03,260 " />
<polyline fill="none" vector-effect="none" points="358.97,260 362,260 " />
<polyline fill="none" vector-effect="none" points="59,224.667 62.03,224.667 " />
<polyline fill="none" vector-effect="none" points="358.97,224.667 362,224.667 " />
<polyline fill="none" vector-effect="none" points="59,189.333 62.03,189.333 " />
<polyline fill="none" vector-effect="none" points="358.97,189.333 362,189.333 " />
<polyline fill="none" vector-effect="none" points="59,154 62.03,154 " />
<polyline fill="none" vector-effect="none" points="358.97,154 362,154 " />
</g>

<g fill="#212121" fill-opacity="1" stroke="#212121" stroke-opacity="1" stroke-width="1" stroke-linecap="square" stroke-linejoin="bevel" transform="matrix(0.75,0,0,0.75,22.5,187.125)"
font-family="Helvetica" font-size="11" font-weight="400" font-style="normal" 
>
<text fill="#212121" fill-opacity="1" stroke="none" xml:space="preserve" x="0" y="0" font-family="Helvetica" font-size="11" font-weight="400" font-style="normal" 
 >1.4</text>
</g>

<g fill="#212121" fill-opacity="1" stroke="#212121" stroke-opacity="1" stroke-width="1" stroke-linecap="square" stroke-linejoin="bevel" transform="matrix(0.75,0,0,0.75,22.5,160.625)"
font-family="Helvetica" font-size="11" font-weight="400" font-style="normal" 
>
<text fill="#212121" fill-opacity="1" stroke="none" xml:space="preserve" x="0" y="0" font-family="Helvetica" font-size="11" font-weight="400" font-style="normal" 
 >1.5</text>
</g>

<g fill="#212121" fill-opacity="1" stroke="#212121" stroke-opacity="1" stroke-width="1" stroke-linecap="square" stroke-linejoin="bevel" transform="matrix(0.75,0,0,0.75,22.5,134.125)"
font-family="Helvetica" font-size="11" font-weight="400" font-style="normal" 
>
<text fill="#212121" fill-opacity="1" stroke="none" xml:space="preserve" x="0" y="0" font-family="Helvetica" font-size="11" font-weight="400" font-style="normal" 
 >1.6</text>
</g>

<g fill="#212121" fill-opacity="1" stroke="#212121" stroke-opacity="1" stroke-width="1" stroke-linecap="square" stroke-linejoin="bevel" transform="matrix(0.75,0,0,0.75,22.5,107.625)"
font-family="Helvetica" font-size="11" font-weight="400" font-style="normal" 
>
<text fill="#212121" fill-opacity="1" stroke="none" xml:space="preserve" x="0" y="0" font-family="Helvetica" font-size="11" font-weight="400" font-style="normal" 
 >1.7</text>
</g>

<g fill="none" stroke="#1171be" stroke-opacity="1" stroke-width="0.666667" stroke-linecap="butt" stroke-linejoin="round" transform="matrix(0.75,0,0,0.75,-8.3,-10.5)"
font-family="Helvetica" font-size="11" font-weight="400" font-style="normal" 
>
<polyline fill="none" vector-effect="none" points="59,249.637 59.0001,249.636 59.0009,249.634 59.0044,249.623 59.0222,249.567 59.1109,249.288 59.5546,247.944 60.2457,245.577 61.0813,243.153 62.0763,240.788 63.258,238.279 64.6889,235.367 66.4743,231.745 68.8124,226.936 72.1845,219.883 76.1694,211.479 79.2136,205.145 82.2578,198.987 86.2334,191.306 89.2681,185.917 92.3028,180.924 95.0773,176.818 97.7214,173.333 100.41,170.245 103.163,167.607 105.89,165.552 108.549,164.098 111.174,163.195 113.81,162.823 116.46,162.989 119.109,163.688 121.75,164.896 124.394,166.59 127.055,168.755 129.736,171.37 132.437,174.401 135.162,177.817 137.917,181.586 140.711,185.675 143.552,190.049 146.446,194.666 149.404,199.486 152.44,204.469 155.574,209.577 158.834,214.772 162.264,220.025 165.95,225.34 170.146,230.868 173.323,234.545 176.5,237.836 179.247,240.282 181.836,242.273 184.576,244.044 187.476,245.507 190.341,246.516 193.083,247.08 195.781,247.269 198.525,247.094 201.319,246.538 204.111,245.611 206.881,244.34 209.652,242.744 212.451,240.821 215.283,238.583 218.135,236.057 221.006,233.272 223.905,230.249 226.846,227.003 229.837,223.56 232.879,219.954 235.981,216.221 239.155,212.395 242.423,208.508 245.811,204.596 249.356,200.699 253.125,196.854 257.292,193.047 261.137,190.056 263.684,188.433 266.23,186.994 269.156,185.642 272.268,184.606 275.198,184.031 277.918,183.829 280.635,183.926 283.479,184.346 286.393,185.116 289.267,186.198 292.087,187.545 294.919,189.154 297.813,191.038 300.754,193.174 303.709,195.512 306.675,198.012 309.676,200.661 312.741,203.449 315.872,206.341 319.063,209.29 322.313,212.248 325.642,215.185 329.084,218.076 332.673,220.884 336.438,223.556 340.415,226.027 344.692,228.232 349.658,230.169 352.265,230.777 354.872,231.284 357.854,231.634 361.04,231.709 362,231.567 " />
</g>
</g>
</svg>
