<?xml version="1.0" encoding="UTF-8" standalone="no"?>
<svg width="93.1333mm" height="50.4472mm"
 viewBox="0 0 264 143"
 xmlns="http://www.w3.org/2000/svg" xmlns:xlink="http://www.w3.org/1999/xlink"  version="1.2" baseProfile="tiny">
<title>Qt SVG Document</title>
<desc>MATLAB, The MathWorks, Inc. Version 25.2.0.3150157 R2025b Update 4</desc>
<defs>
</defs>
<g fill="none" stroke="black" stroke-width="1" fill-rule="evenodd" stroke-linecap="square" stroke-linejoin="bevel" >

<g fill="#ffffff" fill-opacity="1" stroke="none" transform="matrix(0.75,0,0,0.75,-10.2,-9.75)"
font-family="MS Shell Dlg 2" font-size="8.25" font-weight="400" font-style="normal" 
>
<path vector-effect="none" fill-rule="evenodd" d="M12,11 L364,11 L364,202 L12,202 L12,11"/>
</g>

<g fill="#ffffff" fill-opacity="1" stroke="none" transform="matrix(7.5e-05,0,0,7.5e-05,-10.2,-9.75)"
font-family="MS Shell Dlg 2" font-size="8.25" font-weight="400" font-style="normal" 
>
<path vector-effect="none" fill-rule="evenodd" d="M520000,150000 L520000,1.67e+06 L3.62e+06,1.67e+06 L3.62e+06,150000 L520000,150000"/>
</g>

<g fill="#212121" fill-opacity="1" stroke="#212121" stroke-opacity="1" stroke-width="1" stroke-linecap="square" stroke-linejoin="bevel" transform="matrix(0.75,0,0,0.75,113.175,138.3)"
font-family="Helvetica" font-size="13" font-weight="400" font-style="normal" 
>
<text fill="#212121" fill-opacity="1" stroke="none" xml:space="preserve" x="0" y="0" font-family="Helvetica" font-size="13" font-weight="400" font-style="normal" 
 >chang_in_error</text>
</g>

<g fill="#212121" fill-opacity="1" stroke="#212121" stroke-opacity="1" stroke-width="0.666667" stroke-linecap="square" stroke-linejoin="round" transform="matrix(0.75,0,0,0.75,-10.2,-9.75)"
font-family="Helvetica" font-size="13" font-weight="400" font-style="normal" 
>
<polyline fill="none" vector-effect="none" points="52,167 362,167 " />
<polyline fill="none" vector-effect="none" points="52,15 362,15 " />
<polyline fill="none" vector-effect="none" points="52,167 52,163.9 " />
<polyline fill="none" vector-effect="none" points="52,18.1 52,15 " />
<polyline fill="none" vector-effect="none" points="129.5,167 129.5,163.9 " />
<polyline fill="none" vector-effect="none" points="129.5,18.1 129.5,15 " />
<polyline fill="none" vector-effect="none" points="207,167 207,163.9 " />
<polyline fill="none" vector-effect="none" points="207,18.1 207,15 " />
<polyline fill="none" vector-effect="none" points="284.5,167 284.5,163.9 " />
<polyline fill="none" vector-effect="none" points="284.5,18.1 284.5,15 " />
<polyline fill="none" vector-effect="none" points="362,167 362,163.9 " />
<polyline fill="none" vector-effect="none" points="362,18.1 362,15 " />
</g>

<g fill="#212121" fill-opacity="1" stroke="#212121" stroke-opacity="1" stroke-width="1" stroke-linecap="square" stroke-linejoin="bevel" transform="matrix(0.75,0,0,0.75,24.675,126.55)"
font-family="Helvetica" font-size="12" font-weight="400" font-style="normal" 
>
<text fill="#212121" fill-opacity="1" stroke="none" xml:space="preserve" x="0" y="0" font-family="Helvetica" font-size="12" font-weight="400" font-style="normal" 
 >-1</text>
</g>

<g fill="#212121" fill-opacity="1" stroke="#212121" stroke-opacity="1" stroke-width="1" stroke-linecap="square" stroke-linejoin="bevel" transform="matrix(0.75,0,0,0.75,79.05,126.55)"
font-family="Helvetica" font-size="12" font-weight="400" font-style="normal" 
>
<text fill="#212121" fill-opacity="1" stroke="none" xml:space="preserve" x="0" y="0" font-family="Helvetica" font-size="12" font-weight="400" font-style="normal" 
 >-0.5</text>
</g>

<g fill="#212121" fill-opacity="1" stroke="#212121" stroke-opacity="1" stroke-width="1" stroke-linecap="square" stroke-linejoin="bevel" transform="matrix(0.75,0,0,0.75,142.425,126.55)"
font-family="Helvetica" font-size="12" font-weight="400" font-style="normal" 
>
<text fill="#212121" fill-opacity="1" stroke="none" xml:space="preserve" x="0" y="0" font-family="Helvetica" font-size="12" font-weight="400" font-style="normal" 
 >0</text>
</g>

<g fill="#212121" fill-opacity="1" stroke="#212121" stroke-opacity="1" stroke-width="1" stroke-linecap="square" stroke-linejoin="bevel" transform="matrix(0.75,0,0,0.75,196.8,126.55)"
font-family="Helvetica" font-size="12" font-weight="400" font-style="normal" 
>
<text fill="#212121" fill-opacity="1" stroke="none" xml:space="preserve" x="0" y="0" font-family="Helvetica" font-size="12" font-weight="400" font-style="normal" 
 >0.5</text>
</g>

<g fill="#212121" fill-opacity="1" stroke="#212121" stroke-opacity="1" stroke-width="1" stroke-linecap="square" stroke-linejoin="bevel" transform="matrix(0.75,0,0,0.75,258.675,126.55)"
font-family="Helvetica" font-size="12" font-weight="400" font-style="normal" 
>
<text fill="#212121" fill-opacity="1" stroke="none" xml:space="preserve" x="0" y="0" font-family="Helvetica" font-size="12" font-weight="400" font-style="normal" 
 >1</text>
</g>

<g fill="#212121" fill-opacity="1" stroke="#212121" stroke-opacity="1" stroke-width="1" stroke-linecap="square" stroke-linejoin="bevel" transform="matrix(0,-0.75,0.75,0,8.25,107.625)"
font-family="Helvetica" font-size="13" font-weight="400" font-style="normal" 
>
<text fill="#212121" fill-opacity="1" stroke="none" xml:space="preserve" x="0" y="0" font-family="Helvetica" font-size="13" font-weight="400" font-style="normal" 
 >Degree of membership</text>
</g>

<g fill="#212121" fill-opacity="1" stroke="#212121" stroke-opacity="1" stroke-width="0.666667" stroke-linecap="square" stroke-linejoin="round" transform="matrix(0.75,0,0,0.75,-10.2,-9.75)"
font-family="Helvetica" font-size="13" font-weight="400" font-style="normal" 
>
<polyline fill="none" vector-effect="none" points="52,167 52,15 " />
<polyline fill="none" vector-effect="none" points="362,167 362,15 " />
<polyline fill="none" vector-effect="none" points="52,154.333 55.1,154.333 " />
<polyline fill="none" vector-effect="none" points="358.9,154.333 362,154.333 " />
<polyline fill="none" vector-effect="none" points="52,129 55.1,129 " />
<polyline fill="none" vector-effect="none" points="358.9,129 362,129 " />
<polyline fill="none" vector-effect="none" points="52,103.667 55.1,103.667 " />
<polyline fill="none" vector-effect="none" points="358.9,103.667 362,103.667 " />
<polyline fill="none" vector-effect="none" points="52,78.3333 55.1,78.3333 " />
<polyline fill="none" vector-effect="none" points="358.9,78.3333 362,78.3333 " />
<polyline fill="none" vector-effect="none" points="52,53 55.1,53 " />
<polyline fill="none" vector-effect="none" points="358.9,53 362,53 " />
<polyline fill="none" vector-effect="none" points="52,27.6667 55.1,27.6667 " />
<polyline fill="none" vector-effect="none" points="358.9,27.6667 362,27.6667 " />
</g>

<g fill="#212121" fill-opacity="1" stroke="#212121" stroke-opacity="1" stroke-width="1" stroke-linecap="square" stroke-linejoin="bevel" transform="matrix(0.75,0,0,0.75,20.75,109)"
font-family="Helvetica" font-size="12" font-weight="400" font-style="normal" 
>
<text fill="#212121" fill-opacity="1" stroke="none" xml:space="preserve" x="0" y="0" font-family="Helvetica" font-size="12" font-weight="400" font-style="normal" 
 >0</text>
</g>

<g fill="#212121" fill-opacity="1" stroke="#212121" stroke-opacity="1" stroke-width="1" stroke-linecap="square" stroke-linejoin="bevel" transform="matrix(0.75,0,0,0.75,13.25,90)"
font-family="Helvetica" font-size="12" font-weight="400" font-style="normal" 
>
<text fill="#212121" fill-opacity="1" stroke="none" xml:space="preserve" x="0" y="0" font-family="Helvetica" font-size="12" font-weight="400" font-style="normal" 
 >0.2</text>
</g>

<g fill="#212121" fill-opacity="1" stroke="#212121" stroke-opacity="1" stroke-width="1" stroke-linecap="square" stroke-linejoin="bevel" transform="matrix(0.75,0,0,0.75,13.25,71)"
font-family="Helvetica" font-size="12" font-weight="400" font-style="normal" 
>
<text fill="#212121" fill-opacity="1" stroke="none" xml:space="preserve" x="0" y="0" font-family="Helvetica" font-size="12" font-weight="400" font-style="normal" 
 >0.4</text>
</g>

<g fill="#212121" fill-opacity="1" stroke="#212121" stroke-opacity="1" stroke-width="1" stroke-linecap="square" stroke-linejoin="bevel" transform="matrix(0.75,0,0,0.75,13.25,52)"
font-family="Helvetica" font-size="12" font-weight="400" font-style="normal" 
>
<text fill="#212121" fill-opacity="1" stroke="none" xml:space="preserve" x="0" y="0" font-family="Helvetica" font-size="12" font-weight="400" font-style="normal" 
 >0.6</text>
</g>

<g fill="#212121" fill-opacity="1" stroke="#212121" stroke-opacity="1" stroke-width="1" stroke-linecap="square" stroke-linejoin="bevel" transform="matrix(0.75,0,0,0.75,13.25,33)"
font-family="Helvetica" font-size="12" font-weight="400" font-style="normal" 
>
<text fill="#212121" fill-opacity="1" stroke="none" xml:space="preserve" x="0" y="0" font-family="Helvetica" font-size="12" font-weight="400" font-style="normal" 
 >0.8</text>
</g>

<g fill="#212121" fill-opacity="1" stroke="#212121" stroke-opacity="1" stroke-width="1" stroke-linecap="square" stroke-linejoin="bevel" transform="matrix(0.75,0,0,0.75,20.75,14)"
font-family="Helvetica" font-size="12" font-weight="400" font-style="normal" 
>
<text fill="#212121" fill-opacity="1" stroke="none" xml:space="preserve" x="0" y="0" font-family="Helvetica" font-size="12" font-weight="400" font-style="normal" 
 >1</text>
</g>

<g fill="none" stroke="#1171be" stroke-opacity="1" stroke-width="0.666667" stroke-linecap="butt" stroke-linejoin="round" transform="matrix(0.75,0,0,0.75,-10.2,-9.75)"
font-family="Helvetica" font-size="12" font-weight="400" font-style="normal" 
>
<polyline fill="none" vector-effect="none" points="52,27.6667 53.7222,27.6667 55.4444,27.6667 57.1667,27.6667 58.8889,27.6667 60.6111,27.6667 62.3333,27.6667 64.0556,27.6667 65.7778,27.6667 67.5,27.6667 69.2222,27.6667 70.9445,27.6667 72.6667,27.6667 74.3889,27.6667 76.1111,27.6667 77.8333,27.6667 79.5556,27.6667 81.2778,27.6667 83,27.6667 84.7222,27.6667 86.4444,27.7988 88.1667,28.4632 89.8889,29.6787 91.6111,31.4292 93.3333,33.6919 95.0556,36.4375 96.7778,39.631 98.5,43.2322 100.222,47.197 101.944,51.478 103.667,56.0253 105.389,60.7877 107.111,65.7137 108.833,70.7522 110.556,75.8534 112.278,80.9696 114,86.0561 115.722,91.0714 117.444,95.9779 119.167,100.742 120.889,105.336 122.611,109.734 124.333,113.917 126.056,117.87 127.778,121.582 129.5,125.047 131.222,128.261 132.944,131.225 134.667,133.943 136.389,136.421 138.111,138.667 139.833,140.693 141.556,142.509 143.278,144.128 145,145.565 146.722,146.833 148.444,147.946 150.167,148.918 151.889,149.763 153.611,150.492 155.333,151.12 157.056,151.657 158.778,152.114 160.5,152.501 162.222,152.827 163.944,153.101 165.667,153.33 167.389,153.519 169.111,153.676 170.833,153.805 172.556,153.911 174.278,153.996 176,154.066 177.722,154.122 179.444,154.167 181.167,154.203 182.889,154.232 184.611,154.255 186.333,154.273 188.056,154.287 189.778,154.298 191.5,154.306 193.222,154.313 194.944,154.318 196.667,154.322 198.389,154.325 200.111,154.327 201.833,154.328 203.556,154.33 205.278,154.331 207,154.331 208.722,154.332 210.444,154.332 212.167,154.333 213.889,154.333 215.611,154.333 217.333,154.333 219.056,154.333 220.778,154.333 222.5,154.333 224.222,154.333 225.944,154.333 227.667,154.333 229.389,154.333 231.111,154.333 232.833,154.333 234.556,154.333 236.278,154.333 238,154.333 239.722,154.333 241.444,154.333 243.167,154.333 244.889,154.333 246.611,154.333 248.333,154.333 250.056,154.333 251.778,154.333 253.5,154.333 255.222,154.333 256.944,154.333 258.667,154.333 260.389,154.333 262.111,154.333 263.833,154.333 265.556,154.333 267.278,154.333 269,154.333 270.722,154.333 272.444,154.333 274.167,154.333 275.889,154.333 277.611,154.333 279.333,154.333 281.056,154.333 282.778,154.333 284.5,154.333 286.222,154.333 287.944,154.333 289.667,154.333 291.389,154.333 293.111,154.333 294.833,154.333 296.556,154.333 298.278,154.333 300,154.333 301.722,154.333 303.444,154.333 305.167,154.333 306.889,154.333 308.611,154.333 310.333,154.333 312.056,154.333 313.778,154.333 315.5,154.333 317.222,154.333 318.944,154.333 320.667,154.333 322.389,154.333 324.111,154.333 325.833,154.333 327.556,154.333 329.278,154.333 331,154.333 332.722,154.333 334.444,154.333 336.167,154.333 337.889,154.333 339.611,154.333 341.333,154.333 343.056,154.333 344.778,154.333 346.5,154.333 348.222,154.333 349.944,154.333 351.667,154.333 353.389,154.333 355.111,154.333 356.833,154.333 358.556,154.333 360.278,154.333 362,154.333 " />
</g>

<g fill="none" stroke="#dd5400" stroke-opacity="1" stroke-width="0.666667" stroke-linecap="butt" stroke-linejoin="round" transform="matrix(0.75,0,0,0.75,-10.2,-9.75)"
font-family="Helvetica" font-size="12" font-weight="400" font-style="normal" 
>
<polyline fill="none" vector-effect="none" points="52,154.166 53.7222,154.121 55.4444,154.064 57.1667,153.994 58.8889,153.908 60.6111,153.802 62.3333,153.672 64.0556,153.514 65.7778,153.324 67.5,153.094 69.2222,152.819 70.9445,152.491 72.6667,152.102 74.3889,151.643 76.1111,151.103 77.8333,150.473 79.5556,149.74 81.2778,148.892 83,147.916 84.7222,146.799 86.4444,145.526 88.1667,144.085 89.8889,142.459 91.6111,140.637 93.3333,138.606 95.0556,136.353 96.7778,133.868 98.5,131.143 100.222,128.172 101.944,124.951 103.667,121.479 105.389,117.76 107.111,113.8 108.833,109.61 110.556,105.206 112.278,100.608 114,95.8387 115.722,90.9286 117.444,85.9107 119.167,80.8228 120.889,75.7063 122.611,70.6062 124.333,65.5703 126.056,60.6483 127.778,55.8913 129.5,51.351 131.222,47.0784 132.944,43.1234 134.667,39.5333 136.389,36.3522 138.111,33.62 139.833,31.3716 141.556,29.6362 143.278,28.4363 145,27.788 146.722,27.6997 148.444,28.1727 150.167,29.2006 151.889,30.7699 153.611,32.86 155.333,35.4437 157.056,38.4878 158.778,41.954 160.5,45.7994 162.222,49.9774 163.944,54.4391 165.667,59.1336 167.389,64.0093 169.111,69.0149 170.833,74.1001 172.556,79.2164 174.278,84.3179 176,89.362 177.722,94.3098 179.444,99.1264 181.167,103.781 182.889,108.249 184.611,112.508 186.333,116.541 188.056,120.337 189.778,123.887 191.5,127.187 193.222,130.236 194.944,133.038 196.667,135.597 198.389,137.922 200.111,140.022 201.833,141.909 203.556,143.594 205.278,145.092 207,146.417 208.722,147.581 210.444,148.6 212.167,149.487 213.889,150.254 215.611,150.916 217.333,151.482 219.056,151.966 220.778,152.376 222.5,152.722 224.222,153.013 225.944,153.256 227.667,153.458 229.389,153.626 231.111,153.764 232.833,153.877 234.556,153.969 236.278,154.044 238,154.104 239.722,154.153 241.444,154.192 243.167,154.223 244.889,154.248 246.611,154.267 248.333,154.282 250.056,154.294 251.778,154.303 253.5,154.311 255.222,154.316 256.944,154.32 258.667,154.324 260.389,154.326 262.111,154.328 263.833,154.329 265.556,154.33 267.278,154.331 269,154.332 270.722,154.332 272.444,154.333 274.167,154.333 275.889,154.333 277.611,154.333 279.333,154.333 281.056,154.333 282.778,154.333 284.5,154.333 286.222,154.333 287.944,154.333 289.667,154.333 291.389,154.333 293.111,154.333 294.833,154.333 296.556,154.333 298.278,154.333 300,154.333 301.722,154.333 303.444,154.333 305.167,154.333 306.889,154.333 308.611,154.333 310.333,154.333 312.056,154.333 313.778,154.333 315.5,154.333 317.222,154.333 318.944,154.333 320.667,154.333 322.389,154.333 324.111,154.333 325.833,154.333 327.556,154.333 329.278,154.333 331,154.333 332.722,154.333 334.444,154.333 336.167,154.333 337.889,154.333 339.611,154.333 341.333,154.333 343.056,154.333 344.778,154.333 346.5,154.333 348.222,154.333 349.944,154.333 351.667,154.333 353.389,154.333 355.111,154.333 356.833,154.333 358.556,154.333 360.278,154.333 362,154.333 " />
</g>

<g fill="none" stroke="#edb120" stroke-opacity="1" stroke-width="0.666667" stroke-linecap="butt" stroke-linejoin="round" transform="matrix(0.75,0,0,0.75,-10.2,-9.75)"
font-family="Helvetica" font-size="12" font-weight="400" font-style="normal" 
>
<polyline fill="none" vector-effect="none" points="52,154.333 53.7222,154.333 55.4444,154.333 57.1667,154.333 58.8889,154.333 60.6111,154.333 62.3333,154.333 64.0556,154.333 65.7778,154.333 67.5,154.333 69.2222,154.333 70.9445,154.333 72.6667,154.333 74.3889,154.333 76.1111,154.333 77.8333,154.333 79.5556,154.333 81.2778,154.332 83,154.332 84.7222,154.332 86.4444,154.331 88.1667,154.33 89.8889,154.329 91.6111,154.327 93.3333,154.325 95.0556,154.323 96.7778,154.319 98.5,154.314 100.222,154.308 101.944,154.301 103.667,154.29 105.389,154.277 107.111,154.261 108.833,154.24 110.556,154.213 112.278,154.18 114,154.138 115.722,154.085 117.444,154.02 119.167,153.939 120.889,153.84 122.611,153.719 124.333,153.572 126.056,153.393 127.778,153.178 129.5,152.919 131.222,152.61 132.944,152.243 134.667,151.809 136.389,151.298 138.111,150.7 139.833,150.004 141.556,149.197 143.278,148.266 145,147.199 146.722,145.981 148.444,144.599 150.167,143.038 151.889,141.285 153.611,139.327 155.333,137.151 157.056,134.747 158.778,132.105 160.5,129.219 162.222,126.083 163.944,122.698 165.667,119.063 167.389,115.184 169.111,111.072 170.833,106.74 172.556,102.205 174.278,97.4915 176,92.6263 177.722,87.6413 179.444,82.5729 181.167,77.4613 182.889,72.3504 184.611,67.2869 186.333,62.3201 188.056,57.5007 189.778,52.8803 191.5,48.5102 193.222,44.4408 194.944,40.7204 196.667,37.3944 198.389,34.504 200.111,32.0862 201.833,30.1719 203.556,28.7863 205.278,27.9475 207,27.6667 208.722,27.9475 210.444,28.7863 212.167,30.1719 213.889,32.0862 215.611,34.504 217.333,37.3944 219.056,40.7204 220.778,44.4408 222.5,48.5102 224.222,52.8803 225.944,57.5007 227.667,62.3201 229.389,67.2869 231.111,72.3504 232.833,77.4613 234.556,82.5729 236.278,87.6413 238,92.6263 239.722,97.4915 241.444,102.205 243.167,106.74 244.889,111.072 246.611,115.184 248.333,119.063 250.056,122.698 251.778,126.083 253.5,129.219 255.222,132.105 256.944,134.747 258.667,137.151 260.389,139.327 262.111,141.285 263.833,143.038 265.556,144.599 267.278,145.981 269,147.199 270.722,148.266 272.444,149.197 274.167,150.004 275.889,150.7 277.611,151.298 279.333,151.809 281.056,152.243 282.778,152.61 284.5,152.919 286.222,153.178 287.944,153.393 289.667,153.572 291.389,153.719 293.111,153.84 294.833,153.939 296.556,154.02 298.278,154.085 300,154.138 301.722,154.18 303.444,154.213 305.167,154.24 306.889,154.261 308.611,154.277 310.333,154.29 312.056,154.301 313.778,154.308 315.5,154.314 317.222,154.319 318.944,154.323 320.667,154.325 322.389,154.327 324.111,154.329 325.833,154.33 327.556,154.331 329.278,154.332 331,154.332 332.722,154.332 334.444,154.333 336.167,154.333 337.889,154.333 339.611,154.333 341.333,154.333 343.056,154.333 344.778,154.333 346.5,154.333 348.222,154.333 349.944,154.333 351.667,154.333 353.389,154.333 355.111,154.333 356.833,154.333 358.556,154.333 360.278,154.333 362,154.333 " />
</g>

<g fill="none" stroke="#8516d1" stroke-opacity="1" stroke-width="0.666667" stroke-linecap="butt" stroke-linejoin="round" transform="matrix(0.75,0,0,0.75,-10.2,-9.75)"
font-family="Helvetica" font-size="12" font-weight="400" font-style="normal" 
>
<polyline fill="none" vector-effect="none" points="52,154.333 53.7222,154.333 55.4444,154.333 57.1667,154.333 58.8889,154.333 60.6111,154.333 62.3333,154.333 64.0556,154.333 65.7778,154.333 67.5,154.333 69.2222,154.333 70.9445,154.333 72.6667,154.333 74.3889,154.333 76.1111,154.333 77.8333,154.333 79.5556,154.333 81.2778,154.333 83,154.333 84.7222,154.333 86.4444,154.333 88.1667,154.333 89.8889,154.333 91.6111,154.333 93.3333,154.333 95.0556,154.333 96.7778,154.333 98.5,154.333 100.222,154.333 101.944,154.333 103.667,154.333 105.389,154.333 107.111,154.333 108.833,154.333 110.556,154.333 112.278,154.333 114,154.333 115.722,154.333 117.444,154.333 119.167,154.333 120.889,154.333 122.611,154.333 124.333,154.333 126.056,154.333 127.778,154.333 129.5,154.333 131.222,154.333 132.944,154.333 134.667,154.333 136.389,154.333 138.111,154.333 139.833,154.333 141.556,154.333 143.278,154.332 145,154.332 146.722,154.331 148.444,154.33 150.167,154.329 151.889,154.328 153.611,154.326 155.333,154.324 157.056,154.32 158.778,154.316 160.5,154.311 162.222,154.303 163.944,154.294 165.667,154.282 167.389,154.267 169.111,154.248 170.833,154.223 172.556,154.192 174.278,154.153 176,154.104 177.722,154.044 179.444,153.969 181.167,153.877 182.889,153.764 184.611,153.626 186.333,153.458 188.056,153.256 189.778,153.013 191.5,152.722 193.222,152.376 194.944,151.966 196.667,151.482 198.389,150.916 200.111,150.254 201.833,149.487 203.556,148.6 205.278,147.581 207,146.417 208.722,145.092 210.444,143.594 212.167,141.909 213.889,140.022 215.611,137.922 217.333,135.597 219.056,133.038 220.778,130.236 222.5,127.187 224.222,123.887 225.944,120.337 227.667,116.541 229.389,112.508 231.111,108.249 232.833,103.781 234.556,99.1264 236.278,94.3098 238,89.362 239.722,84.3179 241.444,79.2164 243.167,74.1001 244.889,69.0149 246.611,64.0093 248.333,59.1336 250.056,54.4391 251.778,49.9774 253.5,45.7994 255.222,41.954 256.944,38.4878 258.667,35.4437 260.389,32.86 262.111,30.7699 263.833,29.2006 265.556,28.1727 267.278,27.6997 269,27.788 270.722,28.4363 272.444,29.6362 274.167,31.3716 275.889,33.62 277.611,36.3522 279.333,39.5333 281.056,43.1234 282.778,47.0784 284.5,51.351 286.222,55.8913 287.944,60.6483 289.667,65.5703 291.389,70.6062 293.111,75.7063 294.833,80.8228 296.556,85.9107 298.278,90.9286 300,95.8387 301.722,100.608 303.444,105.206 305.167,109.61 306.889,113.8 308.611,117.76 310.333,121.479 312.056,124.951 313.778,128.172 315.5,131.143 317.222,133.868 318.944,136.353 320.667,138.606 322.389,140.637 324.111,142.459 325.833,144.085 327.556,145.526 329.278,146.799 331,147.916 332.722,148.892 334.444,149.74 336.167,150.473 337.889,151.103 339.611,151.643 341.333,152.102 343.056,152.491 344.778,152.819 346.5,153.094 348.222,153.324 349.944,153.514 351.667,153.672 353.389,153.802 355.111,153.908 356.833,153.994 358.556,154.064 360.278,154.121 362,154.166 " />
</g>

<g fill="none" stroke="#3baa32" stroke-opacity="1" stroke-width="0.666667" stroke-linecap="butt" stroke-linejoin="round" transform="matrix(0.75,0,0,0.75,-10.2,-9.75)"
font-family="Helvetica" font-size="12" font-weight="400" font-style="normal" 
>
<polyline fill="none" vector-effect="none" points="52,154.333 53.7222,154.333 55.4444,154.333 57.1667,154.333 58.8889,154.333 60.6111,154.333 62.3333,154.333 64.0556,154.333 65.7778,154.333 67.5,154.333 69.2222,154.333 70.9445,154.333 72.6667,154.333 74.3889,154.333 76.1111,154.333 77.8333,154.333 79.5556,154.333 81.2778,154.333 83,154.333 84.7222,154.333 86.4444,154.333 88.1667,154.333 89.8889,154.333 91.6111,154.333 93.3333,154.333 95.0556,154.333 96.7778,154.333 98.5,154.333 100.222,154.333 101.944,154.333 103.667,154.333 105.389,154.333 107.111,154.333 108.833,154.333 110.556,154.333 112.278,154.333 114,154.333 115.722,154.333 117.444,154.333 119.167,154.333 120.889,154.333 122.611,154.333 124.333,154.333 126.056,154.333 127.778,154.333 129.5,154.333 131.222,154.333 132.944,154.333 134.667,154.333 136.389,154.333 138.111,154.333 139.833,154.333 141.556,154.333 143.278,154.333 145,154.333 146.722,154.333 148.444,154.333 150.167,154.333 151.889,154.333 153.611,154.333 155.333,154.333 157.056,154.333 158.778,154.333 160.5,154.333 162.222,154.333 163.944,154.333 165.667,154.333 167.389,154.333 169.111,154.333 170.833,154.333 172.556,154.333 174.278,154.333 176,154.333 177.722,154.333 179.444,154.333 181.167,154.333 182.889,154.333 184.611,154.333 186.333,154.333 188.056,154.333 189.778,154.333 191.5,154.333 193.222,154.333 194.944,154.333 196.667,154.333 198.389,154.333 200.111,154.333 201.833,154.333 203.556,154.332 205.278,154.332 207,154.331 208.722,154.331 210.444,154.33 212.167,154.328 213.889,154.327 215.611,154.325 217.333,154.322 219.056,154.318 220.778,154.313 222.5,154.306 224.222,154.298 225.944,154.287 227.667,154.273 229.389,154.255 231.111,154.232 232.833,154.203 234.556,154.167 236.278,154.122 238,154.066 239.722,153.996 241.444,153.911 243.167,153.805 244.889,153.676 246.611,153.519 248.333,153.33 250.056,153.101 251.778,152.827 253.5,152.501 255.222,152.114 256.944,151.657 258.667,151.12 260.389,150.492 262.111,149.763 263.833,148.918 265.556,147.946 267.278,146.833 269,145.565 270.722,144.128 272.444,142.509 274.167,140.693 275.889,138.667 277.611,136.421 279.333,133.943 281.056,131.225 282.778,128.261 284.5,125.047 286.222,121.582 287.944,117.87 289.667,113.917 291.389,109.734 293.111,105.336 294.833,100.742 296.556,95.9779 298.278,91.0714 300,86.0561 301.722,80.9696 303.444,75.8534 305.167,70.7522 306.889,65.7137 308.611,60.7877 310.333,56.0253 312.056,51.478 313.778,47.197 315.5,43.2322 317.222,39.631 318.944,36.4375 320.667,33.6919 322.389,31.4292 324.111,29.6787 325.833,28.4632 327.556,27.7988 329.278,27.6667 331,27.6667 332.722,27.6667 334.444,27.6667 336.167,27.6667 337.889,27.6667 339.611,27.6667 341.333,27.6667 343.056,27.6667 344.778,27.6667 346.5,27.6667 348.222,27.6667 349.944,27.6667 351.667,27.6667 353.389,27.6667 355.111,27.6667 356.833,27.6667 358.556,27.6667 360.278,27.6667 362,27.6667 " />
</g>

<g fill="#212121" fill-opacity="1" stroke="#212121" stroke-opacity="1" stroke-width="1" stroke-linecap="square" stroke-linejoin="bevel" transform="matrix(0.75,0,0,0.75,31.125,9.62501)"
font-family="Helvetica" font-size="13" font-weight="400" font-style="normal" 
>
<text fill="#212121" fill-opacity="1" stroke="none" xml:space="preserve" x="0" y="0" font-family="Helvetica" font-size="13" font-weight="400" font-style="normal" 
 >neglarge</text>
</g>

<g fill="#212121" fill-opacity="1" stroke="#212121" stroke-opacity="1" stroke-width="1" stroke-linecap="square" stroke-linejoin="bevel" transform="matrix(0.75,0,0,0.75,79.6958,9.62501)"
font-family="Helvetica" font-size="13" font-weight="400" font-style="normal" 
>
<text fill="#212121" fill-opacity="1" stroke="none" xml:space="preserve" x="0" y="0" font-family="Helvetica" font-size="13" font-weight="400" font-style="normal" 
 >negsmall</text>
</g>

<g fill="#212121" fill-opacity="1" stroke="#212121" stroke-opacity="1" stroke-width="1" stroke-linecap="square" stroke-linejoin="bevel" transform="matrix(0.75,0,0,0.75,135.675,9.62501)"
font-family="Helvetica" font-size="13" font-weight="400" font-style="normal" 
>
<text fill="#212121" fill-opacity="1" stroke="none" xml:space="preserve" x="0" y="0" font-family="Helvetica" font-size="13" font-weight="400" font-style="normal" 
 >zero</text>
</g>

<g fill="#212121" fill-opacity="1" stroke="#212121" stroke-opacity="1" stroke-width="1" stroke-linecap="square" stroke-linejoin="bevel" transform="matrix(0.75,0,0,0.75,171.404,9.62501)"
font-family="Helvetica" font-size="13" font-weight="400" font-style="normal" 
>
<text fill="#212121" fill-opacity="1" stroke="none" xml:space="preserve" x="0" y="0" font-family="Helvetica" font-size="13" font-weight="400" font-style="normal" 
 >possmall</text>
</g>

<g fill="#212121" fill-opacity="1" stroke="#212121" stroke-opacity="1" stroke-width="1" stroke-linecap="square" stroke-linejoin="bevel" transform="matrix(0.75,0,0,0.75,222.225,9.62501)"
font-family="Helvetica" font-size="13" font-weight="400" font-style="normal" 
>
<text fill="#212121" fill-opacity="1" stroke="none" xml:space="preserve" x="0" y="0" font-family="Helvetica" font-size="13" font-weight="400" font-style="normal" 
 >poslarge</text>
</g>
</g>
</svg>
