<?xml version="1.0" encoding="UTF-8" standalone="no"?>
<svg width="94.1917mm" height="74.0833mm"
 viewBox="0 0 267 210"
 xmlns="http://www.w3.org/2000/svg" xmlns:xlink="http://www.w3.org/1999/xlink"  version="1.2" baseProfile="tiny">
<title>Qt SVG Document</title>
<desc>MATLAB, The MathWorks, Inc. Version 25.2.0.3123386 R2025b Update 3</desc>
<defs>
</defs>
<g fill="none" stroke="black" stroke-width="1" fill-rule="evenodd" stroke-linecap="square" stroke-linejoin="bevel" >

<g fill="#ffffff" fill-opacity="1" stroke="none" transform="matrix(0.75,0,0,0.75,-8.3,-9.37495)"
font-family="MS Shell Dlg 2" font-size="8.25" font-weight="400" font-style="normal" 
>
<path vector-effect="none" fill-rule="evenodd" d="M10,11 L367,11 L367,291 L10,291 L10,11"/>
</g>

<g fill="#ffffff" fill-opacity="1" stroke="none" transform="matrix(7.5e-05,0,0,7.5e-05,-8.3,-9.37495)"
font-family="MS Shell Dlg 2" font-size="8.25" font-weight="400" font-style="normal" 
>
<path vector-effect="none" fill-rule="evenodd" d="M560000,220000 L560000,1.31e+06 L3.62e+06,1.31e+06 L3.62e+06,220000 L560000,220000"/>
</g>

<g fill="#212121" fill-opacity="0.14902" stroke="#212121" stroke-opacity="0.14902" stroke-width="0.666667" stroke-linecap="butt" stroke-linejoin="round" transform="matrix(0.75,0,0,0.75,-8.3,-9.37495)"
font-family="MS Shell Dlg 2" font-size="8.25" font-weight="400" font-style="normal" 
>
<polyline fill="none" vector-effect="none" points="56,22 56,131 " />
<polyline fill="none" vector-effect="none" points="107,22 107,131 " />
<polyline fill="none" vector-effect="none" points="158,22 158,131 " />
<polyline fill="none" vector-effect="none" points="209,22 209,131 " />
<polyline fill="none" vector-effect="none" points="260,22 260,131 " />
<polyline fill="none" vector-effect="none" points="311,22 311,131 " />
<polyline fill="none" vector-effect="none" points="362,22 362,131 " />
<polyline fill="none" vector-effect="none" points="56,131 362,131 " />
<polyline fill="none" vector-effect="none" points="56,103.75 362,103.75 " />
<polyline fill="none" vector-effect="none" points="56,76.5 362,76.5 " />
<polyline fill="none" vector-effect="none" points="56,49.25 362,49.25 " />
<polyline fill="none" vector-effect="none" points="56,22 362,22 " />
</g>

<g fill="#212121" fill-opacity="1" stroke="#212121" stroke-opacity="1" stroke-width="0.666667" stroke-linecap="square" stroke-linejoin="round" transform="matrix(0.75,0,0,0.75,-8.3,-9.37495)"
font-family="MS Shell Dlg 2" font-size="8.25" font-weight="400" font-style="normal" 
>
<polyline fill="none" vector-effect="none" points="56,131 362,131 " />
<polyline fill="none" vector-effect="none" points="56,131 56,127.94 " />
<polyline fill="none" vector-effect="none" points="107,131 107,127.94 " />
<polyline fill="none" vector-effect="none" points="158,131 158,127.94 " />
<polyline fill="none" vector-effect="none" points="209,131 209,127.94 " />
<polyline fill="none" vector-effect="none" points="260,131 260,127.94 " />
<polyline fill="none" vector-effect="none" points="311,131 311,127.94 " />
<polyline fill="none" vector-effect="none" points="362,131 362,127.94 " />
</g>

<g fill="#212121" fill-opacity="1" stroke="#212121" stroke-opacity="1" stroke-width="1" stroke-linecap="square" stroke-linejoin="bevel" transform="matrix(0.75,0,0,0.75,31.45,98.575)"
font-family="Helvetica" font-size="11" font-weight="400" font-style="normal" 
>
<text fill="#212121" fill-opacity="1" stroke="none" xml:space="preserve" x="0" y="0" font-family="Helvetica" font-size="11" font-weight="400" font-style="normal" 
 >0</text>
</g>

<g fill="#212121" fill-opacity="1" stroke="#212121" stroke-opacity="1" stroke-width="1" stroke-linecap="square" stroke-linejoin="bevel" transform="matrix(0.75,0,0,0.75,66.325,98.575)"
font-family="Helvetica" font-size="11" font-weight="400" font-style="normal" 
>
<text fill="#212121" fill-opacity="1" stroke="none" xml:space="preserve" x="0" y="0" font-family="Helvetica" font-size="11" font-weight="400" font-style="normal" 
 >0.5</text>
</g>

<g fill="#212121" fill-opacity="1" stroke="#212121" stroke-opacity="1" stroke-width="1" stroke-linecap="square" stroke-linejoin="bevel" transform="matrix(0.75,0,0,0.75,107.95,98.575)"
font-family="Helvetica" font-size="11" font-weight="400" font-style="normal" 
>
<text fill="#212121" fill-opacity="1" stroke="none" xml:space="preserve" x="0" y="0" font-family="Helvetica" font-size="11" font-weight="400" font-style="normal" 
 >1</text>
</g>

<g fill="#212121" fill-opacity="1" stroke="#212121" stroke-opacity="1" stroke-width="1" stroke-linecap="square" stroke-linejoin="bevel" transform="matrix(0.75,0,0,0.75,142.825,98.575)"
font-family="Helvetica" font-size="11" font-weight="400" font-style="normal" 
>
<text fill="#212121" fill-opacity="1" stroke="none" xml:space="preserve" x="0" y="0" font-family="Helvetica" font-size="11" font-weight="400" font-style="normal" 
 >1.5</text>
</g>

<g fill="#212121" fill-opacity="1" stroke="#212121" stroke-opacity="1" stroke-width="1" stroke-linecap="square" stroke-linejoin="bevel" transform="matrix(0.75,0,0,0.75,184.45,98.575)"
font-family="Helvetica" font-size="11" font-weight="400" font-style="normal" 
>
<text fill="#212121" fill-opacity="1" stroke="none" xml:space="preserve" x="0" y="0" font-family="Helvetica" font-size="11" font-weight="400" font-style="normal" 
 >2</text>
</g>

<g fill="#212121" fill-opacity="1" stroke="#212121" stroke-opacity="1" stroke-width="1" stroke-linecap="square" stroke-linejoin="bevel" transform="matrix(0.75,0,0,0.75,219.325,98.575)"
font-family="Helvetica" font-size="11" font-weight="400" font-style="normal" 
>
<text fill="#212121" fill-opacity="1" stroke="none" xml:space="preserve" x="0" y="0" font-family="Helvetica" font-size="11" font-weight="400" font-style="normal" 
 >2.5</text>
</g>

<g fill="#212121" fill-opacity="1" stroke="#212121" stroke-opacity="1" stroke-width="1" stroke-linecap="square" stroke-linejoin="bevel" transform="matrix(0.75,0,0,0.75,260.95,98.575)"
font-family="Helvetica" font-size="11" font-weight="400" font-style="normal" 
>
<text fill="#212121" fill-opacity="1" stroke="none" xml:space="preserve" x="0" y="0" font-family="Helvetica" font-size="11" font-weight="400" font-style="normal" 
 >3</text>
</g>

<g fill="#212121" fill-opacity="1" stroke="#212121" stroke-opacity="1" stroke-width="1" stroke-linecap="square" stroke-linejoin="bevel" transform="matrix(0,-0.75,0.75,0,8.25,94.5)"
font-family="Helvetica" font-size="12" font-weight="400" font-style="normal" 
>
<text fill="#212121" fill-opacity="1" stroke="none" xml:space="preserve" x="0" y="0" font-family="Helvetica" font-size="12" font-weight="400" font-style="normal" 
 >Angular posistion (rad)</text>
</g>

<g fill="#212121" fill-opacity="1" stroke="#212121" stroke-opacity="1" stroke-width="0.666667" stroke-linecap="square" stroke-linejoin="round" transform="matrix(0.75,0,0,0.75,-8.3,-9.37495)"
font-family="Helvetica" font-size="12" font-weight="400" font-style="normal" 
>
<polyline fill="none" vector-effect="none" points="56,131 56,22 " />
<polyline fill="none" vector-effect="none" points="56,131 59.06,131 " />
<polyline fill="none" vector-effect="none" points="56,103.75 59.06,103.75 " />
<polyline fill="none" vector-effect="none" points="56,76.5 59.06,76.5 " />
<polyline fill="none" vector-effect="none" points="56,49.25 59.06,49.25 " />
<polyline fill="none" vector-effect="none" points="56,22 59.06,22 " />
</g>

<g fill="#212121" fill-opacity="1" stroke="#212121" stroke-opacity="1" stroke-width="1" stroke-linecap="square" stroke-linejoin="bevel" transform="matrix(0.75,0,0,0.75,12.75,91.5)"
font-family="Helvetica" font-size="11" font-weight="400" font-style="normal" 
>
<text fill="#212121" fill-opacity="1" stroke="none" xml:space="preserve" x="0" y="0" font-family="Helvetica" font-size="11" font-weight="400" font-style="normal" 
 >-0.05</text>
</g>

<g fill="#212121" fill-opacity="1" stroke="#212121" stroke-opacity="1" stroke-width="1" stroke-linecap="square" stroke-linejoin="bevel" transform="matrix(0.75,0,0,0.75,27,71.0625)"
font-family="Helvetica" font-size="11" font-weight="400" font-style="normal" 
>
<text fill="#212121" fill-opacity="1" stroke="none" xml:space="preserve" x="0" y="0" font-family="Helvetica" font-size="11" font-weight="400" font-style="normal" 
 >0</text>
</g>

<g fill="#212121" fill-opacity="1" stroke="#212121" stroke-opacity="1" stroke-width="1" stroke-linecap="square" stroke-linejoin="bevel" transform="matrix(0.75,0,0,0.75,15.75,50.625)"
font-family="Helvetica" font-size="11" font-weight="400" font-style="normal" 
>
<text fill="#212121" fill-opacity="1" stroke="none" xml:space="preserve" x="0" y="0" font-family="Helvetica" font-size="11" font-weight="400" font-style="normal" 
 >0.05</text>
</g>

<g fill="#212121" fill-opacity="1" stroke="#212121" stroke-opacity="1" stroke-width="1" stroke-linecap="square" stroke-linejoin="bevel" transform="matrix(0.75,0,0,0.75,20.25,30.1875)"
font-family="Helvetica" font-size="11" font-weight="400" font-style="normal" 
>
<text fill="#212121" fill-opacity="1" stroke="none" xml:space="preserve" x="0" y="0" font-family="Helvetica" font-size="11" font-weight="400" font-style="normal" 
 >0.1</text>
</g>

<g fill="#212121" fill-opacity="1" stroke="#212121" stroke-opacity="1" stroke-width="1" stroke-linecap="square" stroke-linejoin="bevel" transform="matrix(0.75,0,0,0.75,15.75,9.75004)"
font-family="Helvetica" font-size="11" font-weight="400" font-style="normal" 
>
<text fill="#212121" fill-opacity="1" stroke="none" xml:space="preserve" x="0" y="0" font-family="Helvetica" font-size="11" font-weight="400" font-style="normal" 
 >0.15</text>
</g>

<g fill="none" stroke="#1171be" stroke-opacity="1" stroke-width="0.666667" stroke-linecap="butt" stroke-linejoin="round" transform="matrix(0.75,0,0,0.75,-8.3,-9.37495)"
font-family="Helvetica" font-size="11" font-weight="400" font-style="normal" 
>
<polyline fill="none" vector-effect="none" points="56,49.25 56.0001,49.25 56.0004,49.25 56.0022,49.25 56.0109,49.25 56.0544,49.2499 56.2722,49.2468 56.7703,49.2325 57.3549,49.2178 58.0072,49.2208 58.6991,49.2579 59.5816,49.3654 60.7045,49.6055 61.9807,50.0188 63.2668,50.5799 64.5256,51.2616 65.817,52.088 67.1573,53.0724 68.527,54.2019 69.91,55.4593 71.3028,56.8342 72.7151,58.3297 74.1619,59.9573 75.6445,61.7149 77.1579,63.5919 78.6983,65.5767 80.2881,67.6913 81.9458,69.954 83.675,72.3629 85.5007,74.9442 87.4207,77.6827 89.4409,80.5691 91.8489,83.9848 94.0462,87.0489 96.2435,90.0368 98.188,92.597 99.876,94.7417 101.479,96.7014 103.109,98.6094 104.724,100.408 106.299,102.067 107.848,103.603 109.373,105.015 110.847,106.281 112.349,107.46 113.842,108.514 115.306,109.428 116.749,110.207 118.072,110.815 119.395,111.327 120.654,111.731 121.927,112.063 123.255,112.334 124.624,112.54 126.007,112.678 127.401,112.752 128.819,112.768 130.27,112.727 131.767,112.632 133.432,112.467 135.177,112.236 136.899,111.953 138.617,111.626 140.385,111.247 142.228,110.814 144.134,110.333 146.101,109.808 148.15,109.24 150.317,108.623 152.656,107.951 155.258,107.205 158.216,106.379 160.457,105.78 162.698,105.211 164.836,104.701 166.871,104.251 168.86,103.845 170.84,103.477 172.735,103.162 174.687,102.877 176.638,102.637 178.531,102.448 180.573,102.291 182.314,102.192 183.944,102.126 185.679,102.08 187.555,102.056 189.481,102.055 191.408,102.074 193.558,102.118 195.871,102.186 198.171,102.273 200.449,102.374 202.801,102.491 205.29,102.624 207.917,102.773 210.686,102.932 213.67,103.103 217.106,103.293 220.413,103.463 222.87,103.579 225.326,103.685 227.915,103.785 230.561,103.874 233.192,103.947 235.672,104 238.042,104.037 240.225,104.061 242.436,104.076 244.812,104.083 247.312,104.083 249.851,104.075 252.649,104.061 255.583,104.039 258.47,104.013 261.309,103.984 264.232,103.952 267.344,103.916 270.629,103.879 273.992,103.842 277.371,103.808 280.803,103.776 284.417,103.747 288.344,103.722 292.098,103.704 295.515,103.693 299.188,103.687 302.301,103.686 305.415,103.687 308.229,103.689 311.086,103.693 314.282,103.698 317.741,103.705 321.089,103.712 324.132,103.718 327.057,103.725 330.204,103.731 333.729,103.738 337.365,103.745 340.677,103.75 343.613,103.754 346.529,103.757 349.859,103.759 353.694,103.761 357.536,103.762 360.692,103.762 362,103.762 " />
</g>

<g fill="none" stroke="#dd5400" stroke-opacity="1" stroke-width="0.666667" stroke-linecap="butt" stroke-linejoin="round" transform="matrix(0.75,0,0,0.75,-8.3,-9.37495)"
font-family="Helvetica" font-size="11" font-weight="400" font-style="normal" 
>
<polyline fill="none" vector-effect="none" points="56,49.25 56.0001,49.25 56.0009,49.25 56.0044,49.25 56.0224,49.25 56.112,49.2494 56.5601,49.2365 57.258,49.1935 58.102,49.1209 59.1068,49.0202 60.3002,48.8912 61.7453,48.7282 63.5483,48.5186 65.9095,48.2369 69.315,47.8212 73.3394,47.3241 76.4137,46.9466 79.4881,46.5767 83.503,46.1132 86.5678,45.7801 89.6326,45.4697 92.4345,45.209 95.1048,44.9838 97.8203,44.7801 100.6,44.5999 103.355,44.4513 106.039,44.3362 108.691,44.2523 111.352,44.198 114.029,44.1739 116.704,44.18 119.371,44.2156 122.042,44.2798 124.729,44.3719 127.436,44.4912 130.165,44.6364 132.916,44.806 135.699,44.9987 138.52,45.2131 141.389,45.4476 144.311,45.7004 147.299,45.9696 150.365,46.2532 153.53,46.5494 156.823,46.8566 160.286,47.1736 164.009,47.5013 168.246,47.8503 171.455,48.0929 174.664,48.3134 177.437,48.4843 180.052,48.6272 182.82,48.7583 185.748,48.8732 188.641,48.9619 191.411,49.0232 194.136,49.061 196.907,49.0763 199.728,49.0684 202.548,49.0374 205.345,48.9844 208.144,48.9103 210.971,48.8152 213.83,48.6997 216.711,48.5654 219.61,48.4139 222.538,48.2463 225.508,48.0636 228.528,47.8674 231.601,47.6594 234.733,47.442 237.938,47.2169 241.239,46.9859 244.66,46.7509 248.241,46.5142 252.047,46.2774 256.255,46.0388 260.139,45.8448 262.71,45.7322 265.282,45.6331 268.236,45.5371 271.379,45.4566 274.339,45.402 277.086,45.3701 279.829,45.3561 282.702,45.3605 285.645,45.3847 288.547,45.4275 291.394,45.4869 294.255,45.5628 297.177,45.6558 300.148,45.7648 303.132,45.8874 306.127,46.0215 309.158,46.1667 312.253,46.3224 315.416,46.4868 318.638,46.6574 321.92,46.8315 325.282,47.0074 328.758,47.1838 332.383,47.3587 336.185,47.5289 340.201,47.6906 344.52,47.8404 349.535,47.9788 352.168,48.035 354.801,48.0794 357.813,48.1156 361.031,48.1368 362,48.1397 " />
</g>

<g fill="none" stroke="#edb120" stroke-opacity="1" stroke-width="0.666667" stroke-linecap="butt" stroke-linejoin="round" transform="matrix(0.75,0,0,0.75,-8.3,-9.37495)"
font-family="Helvetica" font-size="11" font-weight="400" font-style="normal" 
>
<polyline fill="none" vector-effect="none" points="56,49.25 56.0001,49.25 56.0005,49.25 56.0023,49.25 56.0118,49.25 56.0592,49.2498 56.2962,49.2463 56.8127,49.2299 57.425,49.2112 58.1106,49.2078 58.8415,49.236 59.7111,49.3206 60.8074,49.5105 62.1104,49.8568 63.43,50.3351 64.7161,50.9173 66.0227,51.6182 67.3768,52.4531 68.7685,53.4179 70.1801,54.4986 71.6058,55.6866 73.0541,56.9844 74.5328,58.3963 76.0434,59.9209 77.5848,61.5538 79.1583,63.2929 80.7634,65.1331 82.395,67.0624 84.0957,69.1263 85.871,71.3275 87.7108,73.6476 89.6285,76.0953 91.6462,78.6882 93.6483,81.2628 96.3041,84.6533 98.6146,87.5551 100.43,89.788 102.244,91.9679 104.093,94.1219 105.89,96.1403 107.593,97.9768 109.234,99.6674 110.85,101.25 112.455,102.736 114.063,104.131 115.634,105.4 117.253,106.599 118.808,107.637 120.295,108.518 121.74,109.264 123.159,109.888 124.402,110.351 125.611,110.729 126.866,111.053 128.176,111.322 129.539,111.535 130.921,111.685 132.311,111.776 133.72,111.814 135.162,111.8 136.646,111.738 138.329,111.613 140.103,111.425 141.836,111.191 143.55,110.917 145.304,110.597 147.121,110.232 149,109.822 150.944,109.373 152.964,108.884 155.091,108.354 157.366,107.777 159.873,107.141 162.896,106.388 165.475,105.768 168.055,105.181 170.212,104.721 172.135,104.338 174.079,103.979 176.101,103.638 178.136,103.329 180.202,103.054 182.159,102.834 184.042,102.66 185.896,102.525 187.567,102.433 189.225,102.365 190.991,102.317 192.854,102.288 194.75,102.281 196.661,102.292 198.59,102.319 200.836,102.368 203.256,102.439 205.624,102.524 207.959,102.62 210.392,102.729 212.995,102.853 215.759,102.989 218.689,103.134 221.904,103.289 225.962,103.473 228.438,103.576 230.914,103.67 233.543,103.76 236.248,103.841 239.055,103.91 241.625,103.959 243.982,103.992 246.118,104.013 248.311,104.026 250.706,104.033 253.228,104.033 255.772,104.028 258.569,104.016 261.541,103.998 264.482,103.975 267.351,103.951 270.272,103.924 273.372,103.894 276.661,103.862 280.035,103.831 283.4,103.802 286.769,103.775 290.261,103.751 294.029,103.729 297.705,103.713 301.175,103.704 304.452,103.698 308.452,103.696 311.384,103.697 314.317,103.699 317.413,103.702 320.702,103.707 324.005,103.712 327.158,103.718 330.2,103.723 333.321,103.729 336.654,103.735 340.115,103.74 343.466,103.745 346.6,103.749 349.658,103.753 352.903,103.756 356.413,103.758 359.962,103.759 362,103.76 " />
</g>

<g fill="#ffffff" fill-opacity="1" stroke="none" transform="matrix(7.5e-05,0,0,7.5e-05,-8.3,-9.37495)"
font-family="Helvetica" font-size="11" font-weight="400" font-style="normal" 
>
<path vector-effect="none" fill-rule="evenodd" d="M2.2e+06,330000 L2.2e+06,710000 L3.51e+06,710000 L3.51e+06,330000 L2.2e+06,330000"/>
</g>

<g fill="#1171be" fill-opacity="1" stroke="#1171be" stroke-opacity="1" stroke-width="0.666667" stroke-linecap="butt" stroke-linejoin="round" transform="matrix(0.75,0,0,0.75,-8.3,-9.37495)"
font-family="Helvetica" font-size="11" font-weight="400" font-style="normal" 
>
<polyline fill="none" vector-effect="none" points="224,40.5 264,40.5 " />
</g>

<g fill="#dd5400" fill-opacity="1" stroke="#dd5400" stroke-opacity="1" stroke-width="0.666667" stroke-linecap="butt" stroke-linejoin="round" transform="matrix(0.75,0,0,0.75,-8.3,-9.37495)"
font-family="Helvetica" font-size="11" font-weight="400" font-style="normal" 
>
<polyline fill="none" vector-effect="none" points="224,52 264,52 " />
</g>

<g fill="#edb120" fill-opacity="1" stroke="#edb120" stroke-opacity="1" stroke-width="0.666667" stroke-linecap="butt" stroke-linejoin="round" transform="matrix(0.75,0,0,0.75,-8.3,-9.37495)"
font-family="Helvetica" font-size="11" font-weight="400" font-style="normal" 
>
<polyline fill="none" vector-effect="none" points="224,63.5 264,63.5 " />
</g>

<g fill="#212121" fill-opacity="1" stroke="#212121" stroke-opacity="1" stroke-width="1" stroke-linecap="square" stroke-linejoin="bevel" transform="matrix(0.75,0,0,0.75,191.95,23.625)"
font-family="Helvetica" font-size="10" font-weight="400" font-style="normal" 
>
<text fill="#212121" fill-opacity="1" stroke="none" xml:space="preserve" x="0" y="0" font-family="Helvetica" font-size="10" font-weight="400" font-style="normal" 
 >triangular 25rules</text>
</g>

<g fill="#212121" fill-opacity="1" stroke="#212121" stroke-opacity="1" stroke-width="1" stroke-linecap="square" stroke-linejoin="bevel" transform="matrix(0.75,0,0,0.75,191.95,32.25)"
font-family="Helvetica" font-size="10" font-weight="400" font-style="normal" 
>
<text fill="#212121" fill-opacity="1" stroke="none" xml:space="preserve" x="0" y="0" font-family="Helvetica" font-size="10" font-weight="400" font-style="normal" 
 >gaussian product</text>
</g>

<g fill="#212121" fill-opacity="1" stroke="#212121" stroke-opacity="1" stroke-width="1" stroke-linecap="square" stroke-linejoin="bevel" transform="matrix(0.75,0,0,0.75,191.95,40.875)"
font-family="Helvetica" font-size="10" font-weight="400" font-style="normal" 
>
<text fill="#212121" fill-opacity="1" stroke="none" xml:space="preserve" x="0" y="0" font-family="Helvetica" font-size="10" font-weight="400" font-style="normal" 
 >triangular 49rules</text>
</g>

<g fill="none" stroke="#212121" stroke-opacity="1" stroke-width="0.666667" stroke-linecap="butt" stroke-linejoin="miter" stroke-miterlimit="5" transform="matrix(0.75,0,0,0.75,-8.3,-9.37495)"
font-family="Helvetica" font-size="10" font-weight="400" font-style="normal" 
>
<path vector-effect="none" fill-rule="evenodd" d="M220,71 L220,33 L351,33 L351,71 L220,71"/>
</g>

<g fill="#ffffff" fill-opacity="1" stroke="none" transform="matrix(7.5e-05,0,0,7.5e-05,-8.3,-9.37495)"
font-family="Helvetica" font-size="10" font-weight="400" font-style="normal" 
>
<path vector-effect="none" fill-rule="evenodd" d="M560000,1.52e+06 L560000,2.6e+06 L3.62e+06,2.6e+06 L3.62e+06,1.52e+06 L560000,1.52e+06"/>
</g>

<g fill="#212121" fill-opacity="0.14902" stroke="#212121" stroke-opacity="0.14902" stroke-width="0.666667" stroke-linecap="butt" stroke-linejoin="round" transform="matrix(0.75,0,0,0.75,-8.3,-9.37495)"
font-family="Helvetica" font-size="10" font-weight="400" font-style="normal" 
>
<polyline fill="none" vector-effect="none" points="56,152 56,260 " />
<polyline fill="none" vector-effect="none" points="107,152 107,260 " />
<polyline fill="none" vector-effect="none" points="158,152 158,260 " />
<polyline fill="none" vector-effect="none" points="209,152 209,260 " />
<polyline fill="none" vector-effect="none" points="260,152 260,260 " />
<polyline fill="none" vector-effect="none" points="311,152 311,260 " />
<polyline fill="none" vector-effect="none" points="362,152 362,260 " />
<polyline fill="none" vector-effect="none" points="56,260 362,260 " />
<polyline fill="none" vector-effect="none" points="56,238.252 362,238.252 " />
<polyline fill="none" vector-effect="none" points="56,216.504 362,216.504 " />
<polyline fill="none" vector-effect="none" points="56,194.756 362,194.756 " />
<polyline fill="none" vector-effect="none" points="56,173.008 362,173.008 " />
</g>

<g fill="#212121" fill-opacity="1" stroke="#212121" stroke-opacity="1" stroke-width="1" stroke-linecap="square" stroke-linejoin="bevel" transform="matrix(0.75,0,0,0.75,127.075,205.325)"
font-family="Helvetica" font-size="12" font-weight="400" font-style="normal" 
>
<text fill="#212121" fill-opacity="1" stroke="none" xml:space="preserve" x="0" y="0" font-family="Helvetica" font-size="12" font-weight="400" font-style="normal" 
 >Time (sec)</text>
</g>

<g fill="#212121" fill-opacity="1" stroke="#212121" stroke-opacity="1" stroke-width="0.666667" stroke-linecap="square" stroke-linejoin="round" transform="matrix(0.75,0,0,0.75,-8.3,-9.37495)"
font-family="Helvetica" font-size="12" font-weight="400" font-style="normal" 
>
<polyline fill="none" vector-effect="none" points="56,260 362,260 " />
<polyline fill="none" vector-effect="none" points="56,260 56,256.94 " />
<polyline fill="none" vector-effect="none" points="107,260 107,256.94 " />
<polyline fill="none" vector-effect="none" points="158,260 158,256.94 " />
<polyline fill="none" vector-effect="none" points="209,260 209,256.94 " />
<polyline fill="none" vector-effect="none" points="260,260 260,256.94 " />
<polyline fill="none" vector-effect="none" points="311,260 311,256.94 " />
<polyline fill="none" vector-effect="none" points="362,260 362,256.94 " />
</g>

<g fill="#212121" fill-opacity="1" stroke="#212121" stroke-opacity="1" stroke-width="1" stroke-linecap="square" stroke-linejoin="bevel" transform="matrix(0.75,0,0,0.75,31.45,195.325)"
font-family="Helvetica" font-size="11" font-weight="400" font-style="normal" 
>
<text fill="#212121" fill-opacity="1" stroke="none" xml:space="preserve" x="0" y="0" font-family="Helvetica" font-size="11" font-weight="400" font-style="normal" 
 >0</text>
</g>

<g fill="#212121" fill-opacity="1" stroke="#212121" stroke-opacity="1" stroke-width="1" stroke-linecap="square" stroke-linejoin="bevel" transform="matrix(0.75,0,0,0.75,66.325,195.325)"
font-family="Helvetica" font-size="11" font-weight="400" font-style="normal" 
>
<text fill="#212121" fill-opacity="1" stroke="none" xml:space="preserve" x="0" y="0" font-family="Helvetica" font-size="11" font-weight="400" font-style="normal" 
 >0.5</text>
</g>

<g fill="#212121" fill-opacity="1" stroke="#212121" stroke-opacity="1" stroke-width="1" stroke-linecap="square" stroke-linejoin="bevel" transform="matrix(0.75,0,0,0.75,107.95,195.325)"
font-family="Helvetica" font-size="11" font-weight="400" font-style="normal" 
>
<text fill="#212121" fill-opacity="1" stroke="none" xml:space="preserve" x="0" y="0" font-family="Helvetica" font-size="11" font-weight="400" font-style="normal" 
 >1</text>
</g>

<g fill="#212121" fill-opacity="1" stroke="#212121" stroke-opacity="1" stroke-width="1" stroke-linecap="square" stroke-linejoin="bevel" transform="matrix(0.75,0,0,0.75,142.825,195.325)"
font-family="Helvetica" font-size="11" font-weight="400" font-style="normal" 
>
<text fill="#212121" fill-opacity="1" stroke="none" xml:space="preserve" x="0" y="0" font-family="Helvetica" font-size="11" font-weight="400" font-style="normal" 
 >1.5</text>
</g>

<g fill="#212121" fill-opacity="1" stroke="#212121" stroke-opacity="1" stroke-width="1" stroke-linecap="square" stroke-linejoin="bevel" transform="matrix(0.75,0,0,0.75,184.45,195.325)"
font-family="Helvetica" font-size="11" font-weight="400" font-style="normal" 
>
<text fill="#212121" fill-opacity="1" stroke="none" xml:space="preserve" x="0" y="0" font-family="Helvetica" font-size="11" font-weight="400" font-style="normal" 
 >2</text>
</g>

<g fill="#212121" fill-opacity="1" stroke="#212121" stroke-opacity="1" stroke-width="1" stroke-linecap="square" stroke-linejoin="bevel" transform="matrix(0.75,0,0,0.75,219.325,195.325)"
font-family="Helvetica" font-size="11" font-weight="400" font-style="normal" 
>
<text fill="#212121" fill-opacity="1" stroke="none" xml:space="preserve" x="0" y="0" font-family="Helvetica" font-size="11" font-weight="400" font-style="normal" 
 >2.5</text>
</g>

<g fill="#212121" fill-opacity="1" stroke="#212121" stroke-opacity="1" stroke-width="1" stroke-linecap="square" stroke-linejoin="bevel" transform="matrix(0.75,0,0,0.75,260.95,195.325)"
font-family="Helvetica" font-size="11" font-weight="400" font-style="normal" 
>
<text fill="#212121" fill-opacity="1" stroke="none" xml:space="preserve" x="0" y="0" font-family="Helvetica" font-size="11" font-weight="400" font-style="normal" 
 >3</text>
</g>

<g fill="#212121" fill-opacity="1" stroke="#212121" stroke-opacity="1" stroke-width="1" stroke-linecap="square" stroke-linejoin="bevel" transform="matrix(0,-0.75,0.75,0,19.5,174)"
font-family="Helvetica" font-size="12" font-weight="400" font-style="normal" 
>
<text fill="#212121" fill-opacity="1" stroke="none" xml:space="preserve" x="0" y="0" font-family="Helvetica" font-size="12" font-weight="400" font-style="normal" 
 >Input force (N)</text>
</g>

<g fill="#212121" fill-opacity="1" stroke="#212121" stroke-opacity="1" stroke-width="0.666667" stroke-linecap="square" stroke-linejoin="round" transform="matrix(0.75,0,0,0.75,-8.3,-9.37495)"
font-family="Helvetica" font-size="12" font-weight="400" font-style="normal" 
>
<polyline fill="none" vector-effect="none" points="56,260 56,152 " />
<polyline fill="none" vector-effect="none" points="56,260 59.06,260 " />
<polyline fill="none" vector-effect="none" points="56,238.252 59.06,238.252 " />
<polyline fill="none" vector-effect="none" points="56,216.504 59.06,216.504 " />
<polyline fill="none" vector-effect="none" points="56,194.756 59.06,194.756 " />
<polyline fill="none" vector-effect="none" points="56,173.008 59.06,173.008 " />
</g>

<g fill="#212121" fill-opacity="1" stroke="#212121" stroke-opacity="1" stroke-width="1" stroke-linecap="square" stroke-linejoin="bevel" transform="matrix(0.75,0,0,0.75,24,188.25)"
font-family="Helvetica" font-size="11" font-weight="400" font-style="normal" 
>
<text fill="#212121" fill-opacity="1" stroke="none" xml:space="preserve" x="0" y="0" font-family="Helvetica" font-size="11" font-weight="400" font-style="normal" 
 >-2</text>
</g>

<g fill="#212121" fill-opacity="1" stroke="#212121" stroke-opacity="1" stroke-width="1" stroke-linecap="square" stroke-linejoin="bevel" transform="matrix(0.75,0,0,0.75,24,171.939)"
font-family="Helvetica" font-size="11" font-weight="400" font-style="normal" 
>
<text fill="#212121" fill-opacity="1" stroke="none" xml:space="preserve" x="0" y="0" font-family="Helvetica" font-size="11" font-weight="400" font-style="normal" 
 >-1</text>
</g>

<g fill="#212121" fill-opacity="1" stroke="#212121" stroke-opacity="1" stroke-width="1" stroke-linecap="square" stroke-linejoin="bevel" transform="matrix(0.75,0,0,0.75,27,155.628)"
font-family="Helvetica" font-size="11" font-weight="400" font-style="normal" 
>
<text fill="#212121" fill-opacity="1" stroke="none" xml:space="preserve" x="0" y="0" font-family="Helvetica" font-size="11" font-weight="400" font-style="normal" 
 >0</text>
</g>

<g fill="#212121" fill-opacity="1" stroke="#212121" stroke-opacity="1" stroke-width="1" stroke-linecap="square" stroke-linejoin="bevel" transform="matrix(0.75,0,0,0.75,27,139.317)"
font-family="Helvetica" font-size="11" font-weight="400" font-style="normal" 
>
<text fill="#212121" fill-opacity="1" stroke="none" xml:space="preserve" x="0" y="0" font-family="Helvetica" font-size="11" font-weight="400" font-style="normal" 
 >1</text>
</g>

<g fill="#212121" fill-opacity="1" stroke="#212121" stroke-opacity="1" stroke-width="1" stroke-linecap="square" stroke-linejoin="bevel" transform="matrix(0.75,0,0,0.75,27,123.006)"
font-family="Helvetica" font-size="11" font-weight="400" font-style="normal" 
>
<text fill="#212121" fill-opacity="1" stroke="none" xml:space="preserve" x="0" y="0" font-family="Helvetica" font-size="11" font-weight="400" font-style="normal" 
 >2</text>
</g>

<g fill="none" stroke="#1171be" stroke-opacity="1" stroke-width="0.666667" stroke-linecap="butt" stroke-linejoin="round" transform="matrix(0.75,0,0,0.75,-8.3,-9.37495)"
font-family="Helvetica" font-size="11" font-weight="400" font-style="normal" 
>
<polyline fill="none" vector-effect="none" points="56,152.547 56.0001,152.547 56.0004,152.546 56.0022,152.544 56.0109,152.535 56.0544,152.488 56.2722,152.29 56.7703,152 57.3549,152.054 58.0072,152.592 58.6991,153.409 59.5816,154.59 60.7045,156.272 61.9807,158.389 63.2668,160.656 64.5256,162.811 65.817,165.002 67.1573,167.27 68.527,169.605 69.91,172.024 71.3028,174.467 72.7151,176.9 74.1619,179.381 75.6445,181.979 77.1579,184.711 78.6983,187.476 80.2881,190.282 81.9458,193.166 83.675,196.067 85.5007,199.189 87.4207,202.556 89.4409,206 91.8489,209.906 94.0462,213.257 96.2435,216.712 98.188,219.562 99.876,221.868 101.479,223.858 103.109,225.734 104.724,227.542 106.299,229.234 107.848,230.733 109.373,232.915 110.847,234.815 112.349,236.472 113.842,237.834 115.306,238.884 116.749,238.602 118.072,237.481 119.395,236.446 120.654,235.465 121.927,234.529 123.255,233.582 124.624,232.619 126.007,231.644 127.401,230.676 128.819,229.716 130.27,228.965 131.767,228.265 133.432,227.486 135.177,226.634 136.899,225.775 138.617,224.918 140.385,224.043 142.228,223.14 144.134,222.217 146.101,221.286 148.15,220.346 150.317,219.392 152.656,218.408 155.258,217.309 158.216,216.173 160.457,215.443 162.698,214.781 164.836,214.241 166.871,213.805 168.86,213.449 170.84,212.934 172.735,212.479 174.687,212.124 176.638,211.903 178.531,212.053 180.573,212.372 182.314,212.716 183.944,213.006 185.679,213.284 187.555,213.576 189.481,213.877 191.408,214.082 193.558,214.305 195.871,214.558 198.171,214.821 200.449,215.082 202.801,215.344 205.29,215.613 207.917,215.883 210.686,216.148 213.67,216.407 217.106,216.668 220.413,216.873 222.87,216.987 225.326,217.087 227.915,217.2 230.561,217.333 233.192,217.417 235.672,217.423 238.042,217.338 240.225,217.253 242.436,217.175 244.812,217.097 247.312,217.018 249.851,216.963 252.649,216.902 255.583,216.835 258.47,216.768 261.309,216.704 264.232,216.643 267.344,216.582 270.629,216.524 273.992,216.474 277.371,216.432 280.803,216.398 284.417,216.37 288.344,216.332 292.098,216.316 295.515,216.339 299.188,216.367 302.301,216.392 305.415,216.41 308.229,216.423 311.086,216.436 314.282,216.449 317.741,216.464 321.089,216.478 324.132,216.49 327.057,216.499 330.204,216.508 333.729,216.517 337.365,216.523 340.677,216.528 343.613,216.534 346.529,216.537 349.859,216.538 353.694,216.532 357.536,216.526 360.692,216.522 362,216.522 " />
</g>

<g fill="none" stroke="#dd5400" stroke-opacity="1" stroke-width="0.666667" stroke-linecap="butt" stroke-linejoin="round" transform="matrix(0.75,0,0,0.75,-8.3,-9.37495)"
font-family="Helvetica" font-size="11" font-weight="400" font-style="normal" 
>
<polyline fill="none" vector-effect="none" points="56,185.419 56.0001,185.419 56.0009,185.419 56.0044,185.418 56.0224,185.414 56.112,185.397 56.5601,185.315 57.258,185.169 58.102,185.02 59.1068,184.874 60.3002,184.72 61.7453,184.54 63.5483,184.318 65.9095,184.022 69.315,183.587 73.3394,183.07 76.4137,182.68 79.4881,182.301 83.503,181.828 86.5678,181.497 89.6326,181.189 92.4345,180.937 95.1048,180.722 97.8203,180.532 100.6,180.37 103.355,180.243 106.039,180.154 108.691,180.098 111.352,180.075 114.029,180.086 116.704,180.129 119.371,180.203 122.042,180.307 124.729,180.44 127.436,180.601 130.165,180.788 132.916,180.998 135.699,181.23 138.52,181.482 141.389,181.751 144.311,182.035 147.299,182.332 150.365,182.639 153.53,182.953 156.823,183.273 160.286,183.596 164.009,183.923 168.246,184.264 171.455,184.49 174.664,184.692 177.437,184.843 180.052,184.966 182.82,185.075 185.748,185.165 188.641,185.227 191.411,185.261 194.136,185.273 196.907,185.262 199.728,185.228 202.548,185.171 205.345,185.093 208.144,184.995 210.971,184.876 213.83,184.738 216.711,184.583 219.61,184.412 222.538,184.225 225.508,184.026 228.528,183.814 231.601,183.592 234.733,183.362 237.938,183.127 241.239,182.887 244.66,182.646 248.241,182.407 252.047,182.17 256.255,181.936 260.139,181.752 262.71,181.652 265.282,181.563 268.236,181.48 271.379,181.416 274.339,181.381 277.086,181.368 279.829,181.374 282.702,181.4 285.645,181.448 288.547,181.514 291.394,181.597 294.255,181.696 297.177,181.812 300.148,181.943 303.132,182.087 306.127,182.241 309.158,182.404 312.253,182.576 315.416,182.754 318.638,182.935 321.92,183.117 325.282,183.298 328.758,183.476 332.383,183.649 336.185,183.814 340.201,183.966 344.52,184.101 349.535,184.221 352.168,184.258 354.801,184.289 357.813,184.311 361.031,184.315 362,184.307 " />
</g>

<g fill="none" stroke="#edb120" stroke-opacity="1" stroke-width="0.666667" stroke-linecap="butt" stroke-linejoin="round" transform="matrix(0.75,0,0,0.75,-8.3,-9.37495)"
font-family="Helvetica" font-size="11" font-weight="400" font-style="normal" 
>
<polyline fill="none" vector-effect="none" points="56,157.72 56.0001,157.72 56.0005,157.72 56.0023,157.718 56.0118,157.707 56.0592,157.659 56.2962,157.453 56.8127,157.149 57.425,157.152 58.1106,157.598 58.8415,158.329 59.7111,159.33 60.8074,160.724 62.1104,162.575 63.43,164.456 64.7161,166.294 66.0227,168.117 67.3768,169.987 68.7685,171.87 70.1801,173.782 71.6058,175.71 73.0541,177.662 74.5328,179.647 76.0434,181.671 77.5848,183.73 79.1583,185.923 80.7634,188.198 82.395,190.429 84.0957,192.736 85.871,195.131 87.7108,197.596 89.6285,200.249 91.6462,203.097 93.6483,205.821 96.3041,209.367 98.6146,212.324 100.43,214.764 102.244,217.089 104.093,219.361 105.89,221.449 107.593,223.308 109.234,224.986 110.85,226.584 112.455,228.209 114.063,229.882 115.634,231.996 117.253,233.855 118.808,235.428 120.295,236.472 121.74,236.889 123.159,235.994 124.402,234.944 125.611,233.966 126.866,233.054 128.176,232.178 129.539,231.28 130.921,230.373 132.311,229.479 133.72,228.602 135.162,227.809 136.646,227.213 138.329,226.549 140.103,225.809 141.836,225.054 143.55,224.287 145.304,223.507 147.121,222.709 149,221.895 150.944,221.072 152.964,220.242 155.091,219.403 157.366,218.55 159.873,217.669 162.896,216.655 165.475,215.822 168.055,215.087 170.212,214.623 172.135,214.27 174.079,213.955 176.101,213.579 178.136,213.088 180.202,212.708 182.159,212.471 184.042,212.495 185.896,212.792 187.567,213.09 189.225,213.357 190.991,213.62 192.854,213.889 194.75,214.159 196.661,214.367 198.59,214.541 200.836,214.74 203.256,214.967 205.624,215.197 207.959,215.421 210.392,215.646 212.995,215.877 215.759,216.108 218.689,216.333 221.904,216.552 225.962,216.787 228.438,216.885 230.914,216.977 233.543,217.065 236.248,217.2 239.055,217.295 241.625,217.319 243.982,217.235 246.118,217.155 248.311,217.085 250.706,217.014 253.228,216.942 255.772,216.895 258.569,216.845 261.541,216.788 264.482,216.731 267.351,216.677 270.272,216.626 273.372,216.575 276.661,216.526 280.035,216.483 283.4,216.447 286.769,216.419 290.261,216.397 294.029,216.362 297.705,216.343 301.175,216.359 304.452,216.383 308.452,216.407 311.384,216.426 314.317,216.436 317.413,216.447 320.702,216.459 324.005,216.471 327.158,216.482 330.2,216.491 333.321,216.5 336.654,216.508 340.115,216.514 343.466,216.52 346.6,216.523 349.658,216.528 352.903,216.532 356.413,216.532 359.962,216.527 362,216.525 " />
</g>

<g fill="#ffffff" fill-opacity="1" stroke="none" transform="matrix(7.5e-05,0,0,7.5e-05,-8.3,-9.37495)"
font-family="Helvetica" font-size="11" font-weight="400" font-style="normal" 
>
<path vector-effect="none" fill-rule="evenodd" d="M2.2e+06,1.62e+06 L2.2e+06,2e+06 L3.51e+06,2e+06 L3.51e+06,1.62e+06 L2.2e+06,1.62e+06"/>
</g>

<g fill="#1171be" fill-opacity="1" stroke="#1171be" stroke-opacity="1" stroke-width="0.666667" stroke-linecap="butt" stroke-linejoin="round" transform="matrix(0.75,0,0,0.75,-8.3,-9.37495)"
font-family="Helvetica" font-size="11" font-weight="400" font-style="normal" 
>
<polyline fill="none" vector-effect="none" points="224,169.5 264,169.5 " />
</g>

<g fill="#dd5400" fill-opacity="1" stroke="#dd5400" stroke-opacity="1" stroke-width="0.666667" stroke-linecap="butt" stroke-linejoin="round" transform="matrix(0.75,0,0,0.75,-8.3,-9.37495)"
font-family="Helvetica" font-size="11" font-weight="400" font-style="normal" 
>
<polyline fill="none" vector-effect="none" points="224,181 264,181 " />
</g>

<g fill="#edb120" fill-opacity="1" stroke="#edb120" stroke-opacity="1" stroke-width="0.666667" stroke-linecap="butt" stroke-linejoin="round" transform="matrix(0.75,0,0,0.75,-8.3,-9.37495)"
font-family="Helvetica" font-size="11" font-weight="400" font-style="normal" 
>
<polyline fill="none" vector-effect="none" points="224,192.5 264,192.5 " />
</g>

<g fill="#212121" fill-opacity="1" stroke="#212121" stroke-opacity="1" stroke-width="1" stroke-linecap="square" stroke-linejoin="bevel" transform="matrix(0.75,0,0,0.75,191.95,120.375)"
font-family="Helvetica" font-size="10" font-weight="400" font-style="normal" 
>
<text fill="#212121" fill-opacity="1" stroke="none" xml:space="preserve" x="0" y="0" font-family="Helvetica" font-size="10" font-weight="400" font-style="normal" 
 >triangular 25rules</text>
</g>

<g fill="#212121" fill-opacity="1" stroke="#212121" stroke-opacity="1" stroke-width="1" stroke-linecap="square" stroke-linejoin="bevel" transform="matrix(0.75,0,0,0.75,191.95,129)"
font-family="Helvetica" font-size="10" font-weight="400" font-style="normal" 
>
<text fill="#212121" fill-opacity="1" stroke="none" xml:space="preserve" x="0" y="0" font-family="Helvetica" font-size="10" font-weight="400" font-style="normal" 
 >gaussian product</text>
</g>

<g fill="#212121" fill-opacity="1" stroke="#212121" stroke-opacity="1" stroke-width="1" stroke-linecap="square" stroke-linejoin="bevel" transform="matrix(0.75,0,0,0.75,191.95,137.625)"
font-family="Helvetica" font-size="10" font-weight="400" font-style="normal" 
>
<text fill="#212121" fill-opacity="1" stroke="none" xml:space="preserve" x="0" y="0" font-family="Helvetica" font-size="10" font-weight="400" font-style="normal" 
 >triangular 49rules</text>
</g>

<g fill="none" stroke="#212121" stroke-opacity="1" stroke-width="0.666667" stroke-linecap="butt" stroke-linejoin="miter" stroke-miterlimit="5" transform="matrix(0.75,0,0,0.75,-8.3,-9.37495)"
font-family="Helvetica" font-size="10" font-weight="400" font-style="normal" 
>
<path vector-effect="none" fill-rule="evenodd" d="M220,200 L220,162 L351,162 L351,200 L220,200"/>
</g>
</g>
</svg>
