<?xml version="1.0" encoding="UTF-8" standalone="no"?>
<svg width="92.7806mm" height="49.3889mm"
 viewBox="0 0 263 140"
 xmlns="http://www.w3.org/2000/svg" xmlns:xlink="http://www.w3.org/1999/xlink"  version="1.2" baseProfile="tiny">
<title>Qt SVG Document</title>
<desc>MATLAB, The MathWorks, Inc. Version 25.2.0.3123386 R2025b Update 3</desc>
<defs>
</defs>
<g fill="none" stroke="black" stroke-width="1" fill-rule="evenodd" stroke-linecap="square" stroke-linejoin="bevel" >

<g fill="#ffffff" fill-opacity="1" stroke="none" transform="matrix(0.75,0,0,0.75,-10.2,-9.75)"
font-family="MS Shell Dlg 2" font-size="8.25" font-weight="400" font-style="normal" 
>
<path vector-effect="none" fill-rule="evenodd" d="M12,11 L364,11 L364,199 L12,199 L12,11"/>
</g>

<g fill="#ffffff" fill-opacity="1" stroke="none" transform="matrix(7.5e-05,0,0,7.5e-05,-10.2,-9.75)"
font-family="MS Shell Dlg 2" font-size="8.25" font-weight="400" font-style="normal" 
>
<path vector-effect="none" fill-rule="evenodd" d="M520000,150000 L520000,1.67e+06 L3.62e+06,1.67e+06 L3.62e+06,150000 L520000,150000"/>
</g>

<g fill="#212121" fill-opacity="1" stroke="#212121" stroke-opacity="1" stroke-width="1" stroke-linecap="square" stroke-linejoin="bevel" transform="matrix(0.75,0,0,0.75,135.3,138.3)"
font-family="Helvetica" font-size="13" font-weight="400" font-style="normal" 
>
<text fill="#212121" fill-opacity="1" stroke="none" xml:space="preserve" x="0" y="0" font-family="Helvetica" font-size="13" font-weight="400" font-style="normal" 
 >error</text>
</g>

<g fill="#212121" fill-opacity="1" stroke="#212121" stroke-opacity="1" stroke-width="0.666667" stroke-linecap="square" stroke-linejoin="round" transform="matrix(0.75,0,0,0.75,-10.2,-9.75)"
font-family="Helvetica" font-size="13" font-weight="400" font-style="normal" 
>
<polyline fill="none" vector-effect="none" points="52,167 362,167 " />
<polyline fill="none" vector-effect="none" points="52,15 362,15 " />
<polyline fill="none" vector-effect="none" points="58.9859,167 58.9859,163.9 " />
<polyline fill="none" vector-effect="none" points="58.9859,18.1 58.9859,15 " />
<polyline fill="none" vector-effect="none" points="108.324,167 108.324,163.9 " />
<polyline fill="none" vector-effect="none" points="108.324,18.1 108.324,15 " />
<polyline fill="none" vector-effect="none" points="157.662,167 157.662,163.9 " />
<polyline fill="none" vector-effect="none" points="157.662,18.1 157.662,15 " />
<polyline fill="none" vector-effect="none" points="207,167 207,163.9 " />
<polyline fill="none" vector-effect="none" points="207,18.1 207,15 " />
<polyline fill="none" vector-effect="none" points="256.338,167 256.338,163.9 " />
<polyline fill="none" vector-effect="none" points="256.338,18.1 256.338,15 " />
<polyline fill="none" vector-effect="none" points="305.676,167 305.676,163.9 " />
<polyline fill="none" vector-effect="none" points="305.676,18.1 305.676,15 " />
<polyline fill="none" vector-effect="none" points="355.014,167 355.014,163.9 " />
<polyline fill="none" vector-effect="none" points="355.014,18.1 355.014,15 " />
</g>

<g fill="#212121" fill-opacity="1" stroke="#212121" stroke-opacity="1" stroke-width="1" stroke-linecap="square" stroke-linejoin="bevel" transform="matrix(0.75,0,0,0.75,29.9144,126.55)"
font-family="Helvetica" font-size="12" font-weight="400" font-style="normal" 
>
<text fill="#212121" fill-opacity="1" stroke="none" xml:space="preserve" x="0" y="0" font-family="Helvetica" font-size="12" font-weight="400" font-style="normal" 
 >-3</text>
</g>

<g fill="#212121" fill-opacity="1" stroke="#212121" stroke-opacity="1" stroke-width="1" stroke-linecap="square" stroke-linejoin="bevel" transform="matrix(0.75,0,0,0.75,66.918,126.55)"
font-family="Helvetica" font-size="12" font-weight="400" font-style="normal" 
>
<text fill="#212121" fill-opacity="1" stroke="none" xml:space="preserve" x="0" y="0" font-family="Helvetica" font-size="12" font-weight="400" font-style="normal" 
 >-2</text>
</g>

<g fill="#212121" fill-opacity="1" stroke="#212121" stroke-opacity="1" stroke-width="1" stroke-linecap="square" stroke-linejoin="bevel" transform="matrix(0.75,0,0,0.75,103.921,126.55)"
font-family="Helvetica" font-size="12" font-weight="400" font-style="normal" 
>
<text fill="#212121" fill-opacity="1" stroke="none" xml:space="preserve" x="0" y="0" font-family="Helvetica" font-size="12" font-weight="400" font-style="normal" 
 >-1</text>
</g>

<g fill="#212121" fill-opacity="1" stroke="#212121" stroke-opacity="1" stroke-width="1" stroke-linecap="square" stroke-linejoin="bevel" transform="matrix(0.75,0,0,0.75,142.425,126.55)"
font-family="Helvetica" font-size="12" font-weight="400" font-style="normal" 
>
<text fill="#212121" fill-opacity="1" stroke="none" xml:space="preserve" x="0" y="0" font-family="Helvetica" font-size="12" font-weight="400" font-style="normal" 
 >0</text>
</g>

<g fill="#212121" fill-opacity="1" stroke="#212121" stroke-opacity="1" stroke-width="1" stroke-linecap="square" stroke-linejoin="bevel" transform="matrix(0.75,0,0,0.75,179.429,126.55)"
font-family="Helvetica" font-size="12" font-weight="400" font-style="normal" 
>
<text fill="#212121" fill-opacity="1" stroke="none" xml:space="preserve" x="0" y="0" font-family="Helvetica" font-size="12" font-weight="400" font-style="normal" 
 >1</text>
</g>

<g fill="#212121" fill-opacity="1" stroke="#212121" stroke-opacity="1" stroke-width="1" stroke-linecap="square" stroke-linejoin="bevel" transform="matrix(0.75,0,0,0.75,216.432,126.55)"
font-family="Helvetica" font-size="12" font-weight="400" font-style="normal" 
>
<text fill="#212121" fill-opacity="1" stroke="none" xml:space="preserve" x="0" y="0" font-family="Helvetica" font-size="12" font-weight="400" font-style="normal" 
 >2</text>
</g>

<g fill="#212121" fill-opacity="1" stroke="#212121" stroke-opacity="1" stroke-width="1" stroke-linecap="square" stroke-linejoin="bevel" transform="matrix(0.75,0,0,0.75,253.436,126.55)"
font-family="Helvetica" font-size="12" font-weight="400" font-style="normal" 
>
<text fill="#212121" fill-opacity="1" stroke="none" xml:space="preserve" x="0" y="0" font-family="Helvetica" font-size="12" font-weight="400" font-style="normal" 
 >3</text>
</g>

<g fill="#212121" fill-opacity="1" stroke="#212121" stroke-opacity="1" stroke-width="1" stroke-linecap="square" stroke-linejoin="bevel" transform="matrix(0,-0.75,0.75,0,8.25,107.625)"
font-family="Helvetica" font-size="13" font-weight="400" font-style="normal" 
>
<text fill="#212121" fill-opacity="1" stroke="none" xml:space="preserve" x="0" y="0" font-family="Helvetica" font-size="13" font-weight="400" font-style="normal" 
 >Degree of membership</text>
</g>

<g fill="#212121" fill-opacity="1" stroke="#212121" stroke-opacity="1" stroke-width="0.666667" stroke-linecap="square" stroke-linejoin="round" transform="matrix(0.75,0,0,0.75,-10.2,-9.75)"
font-family="Helvetica" font-size="13" font-weight="400" font-style="normal" 
>
<polyline fill="none" vector-effect="none" points="52,167 52,15 " />
<polyline fill="none" vector-effect="none" points="362,167 362,15 " />
<polyline fill="none" vector-effect="none" points="52,154.333 55.1,154.333 " />
<polyline fill="none" vector-effect="none" points="358.9,154.333 362,154.333 " />
<polyline fill="none" vector-effect="none" points="52,129 55.1,129 " />
<polyline fill="none" vector-effect="none" points="358.9,129 362,129 " />
<polyline fill="none" vector-effect="none" points="52,103.667 55.1,103.667 " />
<polyline fill="none" vector-effect="none" points="358.9,103.667 362,103.667 " />
<polyline fill="none" vector-effect="none" points="52,78.3333 55.1,78.3333 " />
<polyline fill="none" vector-effect="none" points="358.9,78.3333 362,78.3333 " />
<polyline fill="none" vector-effect="none" points="52,53 55.1,53 " />
<polyline fill="none" vector-effect="none" points="358.9,53 362,53 " />
<polyline fill="none" vector-effect="none" points="52,27.6667 55.1,27.6667 " />
<polyline fill="none" vector-effect="none" points="358.9,27.6667 362,27.6667 " />
</g>

<g fill="#212121" fill-opacity="1" stroke="#212121" stroke-opacity="1" stroke-width="1" stroke-linecap="square" stroke-linejoin="bevel" transform="matrix(0.75,0,0,0.75,20.75,109)"
font-family="Helvetica" font-size="12" font-weight="400" font-style="normal" 
>
<text fill="#212121" fill-opacity="1" stroke="none" xml:space="preserve" x="0" y="0" font-family="Helvetica" font-size="12" font-weight="400" font-style="normal" 
 >0</text>
</g>

<g fill="#212121" fill-opacity="1" stroke="#212121" stroke-opacity="1" stroke-width="1" stroke-linecap="square" stroke-linejoin="bevel" transform="matrix(0.75,0,0,0.75,13.25,90)"
font-family="Helvetica" font-size="12" font-weight="400" font-style="normal" 
>
<text fill="#212121" fill-opacity="1" stroke="none" xml:space="preserve" x="0" y="0" font-family="Helvetica" font-size="12" font-weight="400" font-style="normal" 
 >0.2</text>
</g>

<g fill="#212121" fill-opacity="1" stroke="#212121" stroke-opacity="1" stroke-width="1" stroke-linecap="square" stroke-linejoin="bevel" transform="matrix(0.75,0,0,0.75,13.25,71)"
font-family="Helvetica" font-size="12" font-weight="400" font-style="normal" 
>
<text fill="#212121" fill-opacity="1" stroke="none" xml:space="preserve" x="0" y="0" font-family="Helvetica" font-size="12" font-weight="400" font-style="normal" 
 >0.4</text>
</g>

<g fill="#212121" fill-opacity="1" stroke="#212121" stroke-opacity="1" stroke-width="1" stroke-linecap="square" stroke-linejoin="bevel" transform="matrix(0.75,0,0,0.75,13.25,52)"
font-family="Helvetica" font-size="12" font-weight="400" font-style="normal" 
>
<text fill="#212121" fill-opacity="1" stroke="none" xml:space="preserve" x="0" y="0" font-family="Helvetica" font-size="12" font-weight="400" font-style="normal" 
 >0.6</text>
</g>

<g fill="#212121" fill-opacity="1" stroke="#212121" stroke-opacity="1" stroke-width="1" stroke-linecap="square" stroke-linejoin="bevel" transform="matrix(0.75,0,0,0.75,13.25,33)"
font-family="Helvetica" font-size="12" font-weight="400" font-style="normal" 
>
<text fill="#212121" fill-opacity="1" stroke="none" xml:space="preserve" x="0" y="0" font-family="Helvetica" font-size="12" font-weight="400" font-style="normal" 
 >0.8</text>
</g>

<g fill="#212121" fill-opacity="1" stroke="#212121" stroke-opacity="1" stroke-width="1" stroke-linecap="square" stroke-linejoin="bevel" transform="matrix(0.75,0,0,0.75,20.75,14)"
font-family="Helvetica" font-size="12" font-weight="400" font-style="normal" 
>
<text fill="#212121" fill-opacity="1" stroke="none" xml:space="preserve" x="0" y="0" font-family="Helvetica" font-size="12" font-weight="400" font-style="normal" 
 >1</text>
</g>

<g fill="none" stroke="#1171be" stroke-opacity="1" stroke-width="0.666667" stroke-linecap="butt" stroke-linejoin="round" transform="matrix(0.75,0,0,0.75,-10.2,-9.75)"
font-family="Helvetica" font-size="12" font-weight="400" font-style="normal" 
>
<polyline fill="none" vector-effect="none" points="52,27.6667 53.7222,27.6667 55.4444,27.6667 57.1667,27.6667 58.8889,27.6667 60.6111,27.6667 62.3333,27.6667 64.0556,27.6667 65.7778,27.6667 67.5,27.6667 69.2222,27.6667 70.9444,27.6667 72.6667,27.6667 74.3889,27.6667 76.1111,27.6667 77.8333,27.6667 79.5556,27.6667 81.2778,27.6667 83,27.6667 84.7222,27.6667 86.4444,27.6667 88.1667,27.6667 89.8889,27.6667 91.6111,27.6667 93.3333,27.6667 95.0556,27.6667 96.7778,27.6667 98.5,27.6667 100.222,27.6667 101.944,27.6667 103.667,27.6667 105.389,27.6667 107.111,27.6667 108.833,27.6667 110.556,27.6667 112.278,27.6667 114,27.6667 115.722,27.6667 117.444,27.6667 119.167,27.6667 120.889,27.6667 122.611,27.6667 124.333,27.6667 126.056,27.6667 127.778,27.6667 129.5,27.6667 131.222,36.1111 132.944,44.5556 134.667,53 136.389,61.4444 138.111,69.8889 139.833,78.3333 141.556,86.7778 143.278,95.2222 145,103.667 146.722,112.111 148.444,120.556 150.167,129 151.889,137.444 153.611,145.889 155.333,154.333 157.056,154.333 158.778,154.333 160.5,154.333 162.222,154.333 163.944,154.333 165.667,154.333 167.389,154.333 169.111,154.333 170.833,154.333 172.556,154.333 174.278,154.333 176,154.333 177.722,154.333 179.444,154.333 181.167,154.333 182.889,154.333 184.611,154.333 186.333,154.333 188.056,154.333 189.778,154.333 191.5,154.333 193.222,154.333 194.944,154.333 196.667,154.333 198.389,154.333 200.111,154.333 201.833,154.333 203.556,154.333 205.278,154.333 207,154.333 208.722,154.333 210.444,154.333 212.167,154.333 213.889,154.333 215.611,154.333 217.333,154.333 219.056,154.333 220.778,154.333 222.5,154.333 224.222,154.333 225.944,154.333 227.667,154.333 229.389,154.333 231.111,154.333 232.833,154.333 234.556,154.333 236.278,154.333 238,154.333 239.722,154.333 241.444,154.333 243.167,154.333 244.889,154.333 246.611,154.333 248.333,154.333 250.056,154.333 251.778,154.333 253.5,154.333 255.222,154.333 256.944,154.333 258.667,154.333 260.389,154.333 262.111,154.333 263.833,154.333 265.556,154.333 267.278,154.333 269,154.333 270.722,154.333 272.444,154.333 274.167,154.333 275.889,154.333 277.611,154.333 279.333,154.333 281.056,154.333 282.778,154.333 284.5,154.333 286.222,154.333 287.944,154.333 289.667,154.333 291.389,154.333 293.111,154.333 294.833,154.333 296.556,154.333 298.278,154.333 300,154.333 301.722,154.333 303.444,154.333 305.167,154.333 306.889,154.333 308.611,154.333 310.333,154.333 312.056,154.333 313.778,154.333 315.5,154.333 317.222,154.333 318.944,154.333 320.667,154.333 322.389,154.333 324.111,154.333 325.833,154.333 327.556,154.333 329.278,154.333 331,154.333 332.722,154.333 334.444,154.333 336.167,154.333 337.889,154.333 339.611,154.333 341.333,154.333 343.056,154.333 344.778,154.333 346.5,154.333 348.222,154.333 349.944,154.333 351.667,154.333 353.389,154.333 355.111,154.333 356.833,154.333 358.556,154.333 360.278,154.333 362,154.333 " />
</g>

<g fill="none" stroke="#dd5400" stroke-opacity="1" stroke-width="0.666667" stroke-linecap="butt" stroke-linejoin="round" transform="matrix(0.75,0,0,0.75,-10.2,-9.75)"
font-family="Helvetica" font-size="12" font-weight="400" font-style="normal" 
>
<polyline fill="none" vector-effect="none" points="52,154.333 53.7222,154.333 55.4444,154.333 57.1667,154.333 58.8889,154.333 60.6111,154.333 62.3333,154.333 64.0556,154.333 65.7778,154.333 67.5,154.333 69.2222,154.333 70.9444,154.333 72.6667,154.333 74.3889,154.333 76.1111,154.333 77.8333,154.333 79.5556,154.333 81.2778,154.333 83,154.333 84.7222,154.333 86.4444,154.333 88.1667,154.333 89.8889,154.333 91.6111,154.333 93.3333,154.333 95.0556,154.333 96.7778,154.333 98.5,154.333 100.222,154.333 101.944,154.333 103.667,154.333 105.389,154.333 107.111,154.333 108.833,154.333 110.556,154.333 112.278,154.333 114,154.333 115.722,154.333 117.444,154.333 119.167,154.333 120.889,154.333 122.611,154.333 124.333,154.333 126.056,154.333 127.778,154.333 129.5,154.333 131.222,145.889 132.944,137.444 134.667,129 136.389,120.556 138.111,112.111 139.833,103.667 141.556,95.2222 143.278,86.7778 145,78.3333 146.722,69.8889 148.444,61.4444 150.167,53 151.889,44.5556 153.611,36.1111 155.333,27.6667 157.056,36.1111 158.778,44.5556 160.5,53 162.222,61.4444 163.944,69.8889 165.667,78.3333 167.389,86.7778 169.111,95.2222 170.833,103.667 172.556,112.111 174.278,120.556 176,129 177.722,137.444 179.444,145.889 181.167,154.333 182.889,154.333 184.611,154.333 186.333,154.333 188.056,154.333 189.778,154.333 191.5,154.333 193.222,154.333 194.944,154.333 196.667,154.333 198.389,154.333 200.111,154.333 201.833,154.333 203.556,154.333 205.278,154.333 207,154.333 208.722,154.333 210.444,154.333 212.167,154.333 213.889,154.333 215.611,154.333 217.333,154.333 219.056,154.333 220.778,154.333 222.5,154.333 224.222,154.333 225.944,154.333 227.667,154.333 229.389,154.333 231.111,154.333 232.833,154.333 234.556,154.333 236.278,154.333 238,154.333 239.722,154.333 241.444,154.333 243.167,154.333 244.889,154.333 246.611,154.333 248.333,154.333 250.056,154.333 251.778,154.333 253.5,154.333 255.222,154.333 256.944,154.333 258.667,154.333 260.389,154.333 262.111,154.333 263.833,154.333 265.556,154.333 267.278,154.333 269,154.333 270.722,154.333 272.444,154.333 274.167,154.333 275.889,154.333 277.611,154.333 279.333,154.333 281.056,154.333 282.778,154.333 284.5,154.333 286.222,154.333 287.944,154.333 289.667,154.333 291.389,154.333 293.111,154.333 294.833,154.333 296.556,154.333 298.278,154.333 300,154.333 301.722,154.333 303.444,154.333 305.167,154.333 306.889,154.333 308.611,154.333 310.333,154.333 312.056,154.333 313.778,154.333 315.5,154.333 317.222,154.333 318.944,154.333 320.667,154.333 322.389,154.333 324.111,154.333 325.833,154.333 327.556,154.333 329.278,154.333 331,154.333 332.722,154.333 334.444,154.333 336.167,154.333 337.889,154.333 339.611,154.333 341.333,154.333 343.056,154.333 344.778,154.333 346.5,154.333 348.222,154.333 349.944,154.333 351.667,154.333 353.389,154.333 355.111,154.333 356.833,154.333 358.556,154.333 360.278,154.333 362,154.333 " />
</g>

<g fill="none" stroke="#edb120" stroke-opacity="1" stroke-width="0.666667" stroke-linecap="butt" stroke-linejoin="round" transform="matrix(0.75,0,0,0.75,-10.2,-9.75)"
font-family="Helvetica" font-size="12" font-weight="400" font-style="normal" 
>
<polyline fill="none" vector-effect="none" points="52,154.333 53.7222,154.333 55.4444,154.333 57.1667,154.333 58.8889,154.333 60.6111,154.333 62.3333,154.333 64.0556,154.333 65.7778,154.333 67.5,154.333 69.2222,154.333 70.9444,154.333 72.6667,154.333 74.3889,154.333 76.1111,154.333 77.8333,154.333 79.5556,154.333 81.2778,154.333 83,154.333 84.7222,154.333 86.4444,154.333 88.1667,154.333 89.8889,154.333 91.6111,154.333 93.3333,154.333 95.0556,154.333 96.7778,154.333 98.5,154.333 100.222,154.333 101.944,154.333 103.667,154.333 105.389,154.333 107.111,154.333 108.833,154.333 110.556,154.333 112.278,154.333 114,154.333 115.722,154.333 117.444,154.333 119.167,154.333 120.889,154.333 122.611,154.333 124.333,154.333 126.056,154.333 127.778,154.333 129.5,154.333 131.222,154.333 132.944,154.333 134.667,154.333 136.389,154.333 138.111,154.333 139.833,154.333 141.556,154.333 143.278,154.333 145,154.333 146.722,154.333 148.444,154.333 150.167,154.333 151.889,154.333 153.611,154.333 155.333,154.333 157.056,145.889 158.778,137.444 160.5,129 162.222,120.556 163.944,112.111 165.667,103.667 167.389,95.2222 169.111,86.7778 170.833,78.3333 172.556,69.8889 174.278,61.4444 176,53 177.722,44.5556 179.444,36.1111 181.167,27.6667 182.889,36.1111 184.611,44.5556 186.333,53 188.056,61.4444 189.778,69.8889 191.5,78.3333 193.222,86.7778 194.944,95.2222 196.667,103.667 198.389,112.111 200.111,120.556 201.833,129 203.556,137.444 205.278,145.889 207,154.333 208.722,154.333 210.444,154.333 212.167,154.333 213.889,154.333 215.611,154.333 217.333,154.333 219.056,154.333 220.778,154.333 222.5,154.333 224.222,154.333 225.944,154.333 227.667,154.333 229.389,154.333 231.111,154.333 232.833,154.333 234.556,154.333 236.278,154.333 238,154.333 239.722,154.333 241.444,154.333 243.167,154.333 244.889,154.333 246.611,154.333 248.333,154.333 250.056,154.333 251.778,154.333 253.5,154.333 255.222,154.333 256.944,154.333 258.667,154.333 260.389,154.333 262.111,154.333 263.833,154.333 265.556,154.333 267.278,154.333 269,154.333 270.722,154.333 272.444,154.333 274.167,154.333 275.889,154.333 277.611,154.333 279.333,154.333 281.056,154.333 282.778,154.333 284.5,154.333 286.222,154.333 287.944,154.333 289.667,154.333 291.389,154.333 293.111,154.333 294.833,154.333 296.556,154.333 298.278,154.333 300,154.333 301.722,154.333 303.444,154.333 305.167,154.333 306.889,154.333 308.611,154.333 310.333,154.333 312.056,154.333 313.778,154.333 315.5,154.333 317.222,154.333 318.944,154.333 320.667,154.333 322.389,154.333 324.111,154.333 325.833,154.333 327.556,154.333 329.278,154.333 331,154.333 332.722,154.333 334.444,154.333 336.167,154.333 337.889,154.333 339.611,154.333 341.333,154.333 343.056,154.333 344.778,154.333 346.5,154.333 348.222,154.333 349.944,154.333 351.667,154.333 353.389,154.333 355.111,154.333 356.833,154.333 358.556,154.333 360.278,154.333 362,154.333 " />
</g>

<g fill="none" stroke="#8516d1" stroke-opacity="1" stroke-width="0.666667" stroke-linecap="butt" stroke-linejoin="round" transform="matrix(0.75,0,0,0.75,-10.2,-9.75)"
font-family="Helvetica" font-size="12" font-weight="400" font-style="normal" 
>
<polyline fill="none" vector-effect="none" points="52,154.333 53.7222,154.333 55.4444,154.333 57.1667,154.333 58.8889,154.333 60.6111,154.333 62.3333,154.333 64.0556,154.333 65.7778,154.333 67.5,154.333 69.2222,154.333 70.9444,154.333 72.6667,154.333 74.3889,154.333 76.1111,154.333 77.8333,154.333 79.5556,154.333 81.2778,154.333 83,154.333 84.7222,154.333 86.4444,154.333 88.1667,154.333 89.8889,154.333 91.6111,154.333 93.3333,154.333 95.0556,154.333 96.7778,154.333 98.5,154.333 100.222,154.333 101.944,154.333 103.667,154.333 105.389,154.333 107.111,154.333 108.833,154.333 110.556,154.333 112.278,154.333 114,154.333 115.722,154.333 117.444,154.333 119.167,154.333 120.889,154.333 122.611,154.333 124.333,154.333 126.056,154.333 127.778,154.333 129.5,154.333 131.222,154.333 132.944,154.333 134.667,154.333 136.389,154.333 138.111,154.333 139.833,154.333 141.556,154.333 143.278,154.333 145,154.333 146.722,154.333 148.444,154.333 150.167,154.333 151.889,154.333 153.611,154.333 155.333,154.333 157.056,154.333 158.778,154.333 160.5,154.333 162.222,154.333 163.944,154.333 165.667,154.333 167.389,154.333 169.111,154.333 170.833,154.333 172.556,154.333 174.278,154.333 176,154.333 177.722,154.333 179.444,154.333 181.167,154.333 182.889,145.889 184.611,137.444 186.333,129 188.056,120.556 189.778,112.111 191.5,103.667 193.222,95.2222 194.944,86.7778 196.667,78.3333 198.389,69.8889 200.111,61.4444 201.833,53 203.556,44.5556 205.278,36.1111 207,27.6667 208.722,36.1111 210.444,44.5556 212.167,53 213.889,61.4444 215.611,69.8889 217.333,78.3333 219.056,86.7778 220.778,95.2222 222.5,103.667 224.222,112.111 225.944,120.556 227.667,129 229.389,137.444 231.111,145.889 232.833,154.333 234.556,154.333 236.278,154.333 238,154.333 239.722,154.333 241.444,154.333 243.167,154.333 244.889,154.333 246.611,154.333 248.333,154.333 250.056,154.333 251.778,154.333 253.5,154.333 255.222,154.333 256.944,154.333 258.667,154.333 260.389,154.333 262.111,154.333 263.833,154.333 265.556,154.333 267.278,154.333 269,154.333 270.722,154.333 272.444,154.333 274.167,154.333 275.889,154.333 277.611,154.333 279.333,154.333 281.056,154.333 282.778,154.333 284.5,154.333 286.222,154.333 287.944,154.333 289.667,154.333 291.389,154.333 293.111,154.333 294.833,154.333 296.556,154.333 298.278,154.333 300,154.333 301.722,154.333 303.444,154.333 305.167,154.333 306.889,154.333 308.611,154.333 310.333,154.333 312.056,154.333 313.778,154.333 315.5,154.333 317.222,154.333 318.944,154.333 320.667,154.333 322.389,154.333 324.111,154.333 325.833,154.333 327.556,154.333 329.278,154.333 331,154.333 332.722,154.333 334.444,154.333 336.167,154.333 337.889,154.333 339.611,154.333 341.333,154.333 343.056,154.333 344.778,154.333 346.5,154.333 348.222,154.333 349.944,154.333 351.667,154.333 353.389,154.333 355.111,154.333 356.833,154.333 358.556,154.333 360.278,154.333 362,154.333 " />
</g>

<g fill="none" stroke="#3baa32" stroke-opacity="1" stroke-width="0.666667" stroke-linecap="butt" stroke-linejoin="round" transform="matrix(0.75,0,0,0.75,-10.2,-9.75)"
font-family="Helvetica" font-size="12" font-weight="400" font-style="normal" 
>
<polyline fill="none" vector-effect="none" points="52,154.333 53.7222,154.333 55.4444,154.333 57.1667,154.333 58.8889,154.333 60.6111,154.333 62.3333,154.333 64.0556,154.333 65.7778,154.333 67.5,154.333 69.2222,154.333 70.9444,154.333 72.6667,154.333 74.3889,154.333 76.1111,154.333 77.8333,154.333 79.5556,154.333 81.2778,154.333 83,154.333 84.7222,154.333 86.4444,154.333 88.1667,154.333 89.8889,154.333 91.6111,154.333 93.3333,154.333 95.0556,154.333 96.7778,154.333 98.5,154.333 100.222,154.333 101.944,154.333 103.667,154.333 105.389,154.333 107.111,154.333 108.833,154.333 110.556,154.333 112.278,154.333 114,154.333 115.722,154.333 117.444,154.333 119.167,154.333 120.889,154.333 122.611,154.333 124.333,154.333 126.056,154.333 127.778,154.333 129.5,154.333 131.222,154.333 132.944,154.333 134.667,154.333 136.389,154.333 138.111,154.333 139.833,154.333 141.556,154.333 143.278,154.333 145,154.333 146.722,154.333 148.444,154.333 150.167,154.333 151.889,154.333 153.611,154.333 155.333,154.333 157.056,154.333 158.778,154.333 160.5,154.333 162.222,154.333 163.944,154.333 165.667,154.333 167.389,154.333 169.111,154.333 170.833,154.333 172.556,154.333 174.278,154.333 176,154.333 177.722,154.333 179.444,154.333 181.167,154.333 182.889,154.333 184.611,154.333 186.333,154.333 188.056,154.333 189.778,154.333 191.5,154.333 193.222,154.333 194.944,154.333 196.667,154.333 198.389,154.333 200.111,154.333 201.833,154.333 203.556,154.333 205.278,154.333 207,154.333 208.722,145.889 210.444,137.444 212.167,129 213.889,120.556 215.611,112.111 217.333,103.667 219.056,95.2222 220.778,86.7778 222.5,78.3333 224.222,69.8889 225.944,61.4444 227.667,53 229.389,44.5556 231.111,36.1111 232.833,27.6667 234.556,36.1111 236.278,44.5556 238,53 239.722,61.4444 241.444,69.8889 243.167,78.3333 244.889,86.7778 246.611,95.2222 248.333,103.667 250.056,112.111 251.778,120.556 253.5,129 255.222,137.444 256.944,145.889 258.667,154.333 260.389,154.333 262.111,154.333 263.833,154.333 265.556,154.333 267.278,154.333 269,154.333 270.722,154.333 272.444,154.333 274.167,154.333 275.889,154.333 277.611,154.333 279.333,154.333 281.056,154.333 282.778,154.333 284.5,154.333 286.222,154.333 287.944,154.333 289.667,154.333 291.389,154.333 293.111,154.333 294.833,154.333 296.556,154.333 298.278,154.333 300,154.333 301.722,154.333 303.444,154.333 305.167,154.333 306.889,154.333 308.611,154.333 310.333,154.333 312.056,154.333 313.778,154.333 315.5,154.333 317.222,154.333 318.944,154.333 320.667,154.333 322.389,154.333 324.111,154.333 325.833,154.333 327.556,154.333 329.278,154.333 331,154.333 332.722,154.333 334.444,154.333 336.167,154.333 337.889,154.333 339.611,154.333 341.333,154.333 343.056,154.333 344.778,154.333 346.5,154.333 348.222,154.333 349.944,154.333 351.667,154.333 353.389,154.333 355.111,154.333 356.833,154.333 358.556,154.333 360.278,154.333 362,154.333 " />
</g>

<g fill="none" stroke="#2fbeef" stroke-opacity="1" stroke-width="0.666667" stroke-linecap="butt" stroke-linejoin="round" transform="matrix(0.75,0,0,0.75,-10.2,-9.75)"
font-family="Helvetica" font-size="12" font-weight="400" font-style="normal" 
>
<polyline fill="none" vector-effect="none" points="52,154.333 53.7222,154.333 55.4444,154.333 57.1667,154.333 58.8889,154.333 60.6111,154.333 62.3333,154.333 64.0556,154.333 65.7778,154.333 67.5,154.333 69.2222,154.333 70.9444,154.333 72.6667,154.333 74.3889,154.333 76.1111,154.333 77.8333,154.333 79.5556,154.333 81.2778,154.333 83,154.333 84.7222,154.333 86.4444,154.333 88.1667,154.333 89.8889,154.333 91.6111,154.333 93.3333,154.333 95.0556,154.333 96.7778,154.333 98.5,154.333 100.222,154.333 101.944,154.333 103.667,154.333 105.389,154.333 107.111,154.333 108.833,154.333 110.556,154.333 112.278,154.333 114,154.333 115.722,154.333 117.444,154.333 119.167,154.333 120.889,154.333 122.611,154.333 124.333,154.333 126.056,154.333 127.778,154.333 129.5,154.333 131.222,154.333 132.944,154.333 134.667,154.333 136.389,154.333 138.111,154.333 139.833,154.333 141.556,154.333 143.278,154.333 145,154.333 146.722,154.333 148.444,154.333 150.167,154.333 151.889,154.333 153.611,154.333 155.333,154.333 157.056,154.333 158.778,154.333 160.5,154.333 162.222,154.333 163.944,154.333 165.667,154.333 167.389,154.333 169.111,154.333 170.833,154.333 172.556,154.333 174.278,154.333 176,154.333 177.722,154.333 179.444,154.333 181.167,154.333 182.889,154.333 184.611,154.333 186.333,154.333 188.056,154.333 189.778,154.333 191.5,154.333 193.222,154.333 194.944,154.333 196.667,154.333 198.389,154.333 200.111,154.333 201.833,154.333 203.556,154.333 205.278,154.333 207,154.333 208.722,154.333 210.444,154.333 212.167,154.333 213.889,154.333 215.611,154.333 217.333,154.333 219.056,154.333 220.778,154.333 222.5,154.333 224.222,154.333 225.944,154.333 227.667,154.333 229.389,154.333 231.111,154.333 232.833,154.333 234.556,145.889 236.278,137.444 238,129 239.722,120.556 241.444,112.111 243.167,103.667 244.889,95.2222 246.611,86.7778 248.333,78.3333 250.056,69.8889 251.778,61.4444 253.5,53 255.222,44.5556 256.944,36.1111 258.667,27.6667 260.389,36.1111 262.111,44.5556 263.833,53 265.556,61.4444 267.278,69.8889 269,78.3333 270.722,86.7778 272.444,95.2222 274.167,103.667 275.889,112.111 277.611,120.556 279.333,129 281.056,137.444 282.778,145.889 284.5,154.333 286.222,154.333 287.944,154.333 289.667,154.333 291.389,154.333 293.111,154.333 294.833,154.333 296.556,154.333 298.278,154.333 300,154.333 301.722,154.333 303.444,154.333 305.167,154.333 306.889,154.333 308.611,154.333 310.333,154.333 312.056,154.333 313.778,154.333 315.5,154.333 317.222,154.333 318.944,154.333 320.667,154.333 322.389,154.333 324.111,154.333 325.833,154.333 327.556,154.333 329.278,154.333 331,154.333 332.722,154.333 334.444,154.333 336.167,154.333 337.889,154.333 339.611,154.333 341.333,154.333 343.056,154.333 344.778,154.333 346.5,154.333 348.222,154.333 349.944,154.333 351.667,154.333 353.389,154.333 355.111,154.333 356.833,154.333 358.556,154.333 360.278,154.333 362,154.333 " />
</g>

<g fill="none" stroke="#d1048b" stroke-opacity="1" stroke-width="0.666667" stroke-linecap="butt" stroke-linejoin="round" transform="matrix(0.75,0,0,0.75,-10.2,-9.75)"
font-family="Helvetica" font-size="12" font-weight="400" font-style="normal" 
>
<polyline fill="none" vector-effect="none" points="52,154.333 53.7222,154.333 55.4444,154.333 57.1667,154.333 58.8889,154.333 60.6111,154.333 62.3333,154.333 64.0556,154.333 65.7778,154.333 67.5,154.333 69.2222,154.333 70.9444,154.333 72.6667,154.333 74.3889,154.333 76.1111,154.333 77.8333,154.333 79.5556,154.333 81.2778,154.333 83,154.333 84.7222,154.333 86.4444,154.333 88.1667,154.333 89.8889,154.333 91.6111,154.333 93.3333,154.333 95.0556,154.333 96.7778,154.333 98.5,154.333 100.222,154.333 101.944,154.333 103.667,154.333 105.389,154.333 107.111,154.333 108.833,154.333 110.556,154.333 112.278,154.333 114,154.333 115.722,154.333 117.444,154.333 119.167,154.333 120.889,154.333 122.611,154.333 124.333,154.333 126.056,154.333 127.778,154.333 129.5,154.333 131.222,154.333 132.944,154.333 134.667,154.333 136.389,154.333 138.111,154.333 139.833,154.333 141.556,154.333 143.278,154.333 145,154.333 146.722,154.333 148.444,154.333 150.167,154.333 151.889,154.333 153.611,154.333 155.333,154.333 157.056,154.333 158.778,154.333 160.5,154.333 162.222,154.333 163.944,154.333 165.667,154.333 167.389,154.333 169.111,154.333 170.833,154.333 172.556,154.333 174.278,154.333 176,154.333 177.722,154.333 179.444,154.333 181.167,154.333 182.889,154.333 184.611,154.333 186.333,154.333 188.056,154.333 189.778,154.333 191.5,154.333 193.222,154.333 194.944,154.333 196.667,154.333 198.389,154.333 200.111,154.333 201.833,154.333 203.556,154.333 205.278,154.333 207,154.333 208.722,154.333 210.444,154.333 212.167,154.333 213.889,154.333 215.611,154.333 217.333,154.333 219.056,154.333 220.778,154.333 222.5,154.333 224.222,154.333 225.944,154.333 227.667,154.333 229.389,154.333 231.111,154.333 232.833,154.333 234.556,154.333 236.278,154.333 238,154.333 239.722,154.333 241.444,154.333 243.167,154.333 244.889,154.333 246.611,154.333 248.333,154.333 250.056,154.333 251.778,154.333 253.5,154.333 255.222,154.333 256.944,154.333 258.667,154.333 260.389,145.889 262.111,137.444 263.833,129 265.556,120.556 267.278,112.111 269,103.667 270.722,95.2222 272.444,86.7778 274.167,78.3333 275.889,69.8889 277.611,61.4444 279.333,53 281.056,44.5556 282.778,36.1111 284.5,27.6667 286.222,27.6667 287.944,27.6667 289.667,27.6667 291.389,27.6667 293.111,27.6667 294.833,27.6667 296.556,27.6667 298.278,27.6667 300,27.6667 301.722,27.6667 303.444,27.6667 305.167,27.6667 306.889,27.6667 308.611,27.6667 310.333,27.6667 312.056,27.6667 313.778,27.6667 315.5,27.6667 317.222,27.6667 318.944,27.6667 320.667,27.6667 322.389,27.6667 324.111,27.6667 325.833,27.6667 327.556,27.6667 329.278,27.6667 331,27.6667 332.722,27.6667 334.444,27.6667 336.167,27.6667 337.889,27.6667 339.611,27.6667 341.333,27.6667 343.056,27.6667 344.778,27.6667 346.5,27.6667 348.222,27.6667 349.944,27.6667 351.667,27.6667 353.389,27.6667 355.111,27.6667 356.833,27.6667 358.556,27.6667 360.278,27.6667 362,27.6667 " />
</g>

<g fill="#212121" fill-opacity="1" stroke="#212121" stroke-opacity="1" stroke-width="1" stroke-linecap="square" stroke-linejoin="bevel" transform="matrix(0.75,0,0,0.75,52.6125,9.62501)"
font-family="Helvetica" font-size="13" font-weight="400" font-style="normal" 
>
<text fill="#212121" fill-opacity="1" stroke="none" xml:space="preserve" x="0" y="0" font-family="Helvetica" font-size="13" font-weight="400" font-style="normal" 
 >n3</text>
</g>

<g fill="#212121" fill-opacity="1" stroke="#212121" stroke-opacity="1" stroke-width="1" stroke-linecap="square" stroke-linejoin="bevel" transform="matrix(0.75,0,0,0.75,101.05,9.62501)"
font-family="Helvetica" font-size="13" font-weight="400" font-style="normal" 
>
<text fill="#212121" fill-opacity="1" stroke="none" xml:space="preserve" x="0" y="0" font-family="Helvetica" font-size="13" font-weight="400" font-style="normal" 
 >n2</text>
</g>

<g fill="#212121" fill-opacity="1" stroke="#212121" stroke-opacity="1" stroke-width="1" stroke-linecap="square" stroke-linejoin="bevel" transform="matrix(0.75,0,0,0.75,120.425,9.62501)"
font-family="Helvetica" font-size="13" font-weight="400" font-style="normal" 
>
<text fill="#212121" fill-opacity="1" stroke="none" xml:space="preserve" x="0" y="0" font-family="Helvetica" font-size="13" font-weight="400" font-style="normal" 
 >n1</text>
</g>

<g fill="#212121" fill-opacity="1" stroke="#212121" stroke-opacity="1" stroke-width="1" stroke-linecap="square" stroke-linejoin="bevel" transform="matrix(0.75,0,0,0.75,142.425,9.62501)"
font-family="Helvetica" font-size="13" font-weight="400" font-style="normal" 
>
<text fill="#212121" fill-opacity="1" stroke="none" xml:space="preserve" x="0" y="0" font-family="Helvetica" font-size="13" font-weight="400" font-style="normal" 
 >0</text>
</g>

<g fill="#212121" fill-opacity="1" stroke="#212121" stroke-opacity="1" stroke-width="1" stroke-linecap="square" stroke-linejoin="bevel" transform="matrix(0.75,0,0,0.75,161.8,9.62501)"
font-family="Helvetica" font-size="13" font-weight="400" font-style="normal" 
>
<text fill="#212121" fill-opacity="1" stroke="none" xml:space="preserve" x="0" y="0" font-family="Helvetica" font-size="13" font-weight="400" font-style="normal" 
 >1</text>
</g>

<g fill="#212121" fill-opacity="1" stroke="#212121" stroke-opacity="1" stroke-width="1" stroke-linecap="square" stroke-linejoin="bevel" transform="matrix(0.75,0,0,0.75,181.175,9.62501)"
font-family="Helvetica" font-size="13" font-weight="400" font-style="normal" 
>
<text fill="#212121" fill-opacity="1" stroke="none" xml:space="preserve" x="0" y="0" font-family="Helvetica" font-size="13" font-weight="400" font-style="normal" 
 >2</text>
</g>

<g fill="#212121" fill-opacity="1" stroke="#212121" stroke-opacity="1" stroke-width="1" stroke-linecap="square" stroke-linejoin="bevel" transform="matrix(0.75,0,0,0.75,229.613,9.62501)"
font-family="Helvetica" font-size="13" font-weight="400" font-style="normal" 
>
<text fill="#212121" fill-opacity="1" stroke="none" xml:space="preserve" x="0" y="0" font-family="Helvetica" font-size="13" font-weight="400" font-style="normal" 
 >3</text>
</g>
</g>
</svg>
