<?xml version="1.0" encoding="UTF-8" standalone="no"?>
<svg width="94.1917mm" height="73.3778mm"
 viewBox="0 0 267 208"
 xmlns="http://www.w3.org/2000/svg" xmlns:xlink="http://www.w3.org/1999/xlink"  version="1.2" baseProfile="tiny">
<title>Qt SVG Document</title>
<desc>MATLAB, The MathWorks, Inc. Version 25.2.0.3123386 R2025b Update 3</desc>
<defs>
</defs>
<g fill="none" stroke="black" stroke-width="1" fill-rule="evenodd" stroke-linecap="square" stroke-linejoin="bevel" >

<g fill="#ffffff" fill-opacity="1" stroke="none" transform="matrix(0.75,0,0,0.75,-8.3,-10.5)"
font-family="MS Shell Dlg 2" font-size="8.25" font-weight="400" font-style="normal" 
>
<path vector-effect="none" fill-rule="evenodd" d="M10,12 L367,12 L367,291 L10,291 L10,12"/>
</g>

<g fill="#ffffff" fill-opacity="1" stroke="none" transform="matrix(7.5e-05,0,0,7.5e-05,-8.3,-10.5)"
font-family="MS Shell Dlg 2" font-size="8.25" font-weight="400" font-style="normal" 
>
<path vector-effect="none" fill-rule="evenodd" d="M530000,220000 L530000,1.28e+06 L3.62e+06,1.28e+06 L3.62e+06,220000 L530000,220000"/>
</g>

<g fill="#212121" fill-opacity="0.14902" stroke="#212121" stroke-opacity="0.14902" stroke-width="0.666667" stroke-linecap="butt" stroke-linejoin="round" transform="matrix(0.75,0,0,0.75,-8.3,-10.5)"
font-family="MS Shell Dlg 2" font-size="8.25" font-weight="400" font-style="normal" 
>
<polyline fill="none" vector-effect="none" points="53,22 53,128 " />
<polyline fill="none" vector-effect="none" points="104.5,22 104.5,128 " />
<polyline fill="none" vector-effect="none" points="156,22 156,128 " />
<polyline fill="none" vector-effect="none" points="207.5,22 207.5,128 " />
<polyline fill="none" vector-effect="none" points="259,22 259,128 " />
<polyline fill="none" vector-effect="none" points="310.5,22 310.5,128 " />
<polyline fill="none" vector-effect="none" points="362,22 362,128 " />
<polyline fill="none" vector-effect="none" points="53,114.347 362,114.347 " />
<polyline fill="none" vector-effect="none" points="53,68.2094 362,68.2094 " />
<polyline fill="none" vector-effect="none" points="53,22.0715 362,22.0715 " />
</g>

<g fill="#212121" fill-opacity="1" stroke="#212121" stroke-opacity="1" stroke-width="0.666667" stroke-linecap="square" stroke-linejoin="round" transform="matrix(0.75,0,0,0.75,-8.3,-10.5)"
font-family="MS Shell Dlg 2" font-size="8.25" font-weight="400" font-style="normal" 
>
<polyline fill="none" vector-effect="none" points="53,128 362,128 " />
<polyline fill="none" vector-effect="none" points="53,22 362,22 " />
<polyline fill="none" vector-effect="none" points="53,128 53,124.91 " />
<polyline fill="none" vector-effect="none" points="53,25.09 53,22 " />
<polyline fill="none" vector-effect="none" points="104.5,128 104.5,124.91 " />
<polyline fill="none" vector-effect="none" points="104.5,25.09 104.5,22 " />
<polyline fill="none" vector-effect="none" points="156,128 156,124.91 " />
<polyline fill="none" vector-effect="none" points="156,25.09 156,22 " />
<polyline fill="none" vector-effect="none" points="207.5,128 207.5,124.91 " />
<polyline fill="none" vector-effect="none" points="207.5,25.09 207.5,22 " />
<polyline fill="none" vector-effect="none" points="259,128 259,124.91 " />
<polyline fill="none" vector-effect="none" points="259,25.09 259,22 " />
<polyline fill="none" vector-effect="none" points="310.5,128 310.5,124.91 " />
<polyline fill="none" vector-effect="none" points="310.5,25.09 310.5,22 " />
<polyline fill="none" vector-effect="none" points="362,128 362,124.91 " />
<polyline fill="none" vector-effect="none" points="362,25.09 362,22 " />
</g>

<g fill="#212121" fill-opacity="1" stroke="#212121" stroke-opacity="1" stroke-width="1" stroke-linecap="square" stroke-linejoin="bevel" transform="matrix(0.75,0,0,0.75,29.2,95.2)"
font-family="Helvetica" font-size="11" font-weight="400" font-style="normal" 
>
<text fill="#212121" fill-opacity="1" stroke="none" xml:space="preserve" x="0" y="0" font-family="Helvetica" font-size="11" font-weight="400" font-style="normal" 
 >0</text>
</g>

<g fill="#212121" fill-opacity="1" stroke="#212121" stroke-opacity="1" stroke-width="1" stroke-linecap="square" stroke-linejoin="bevel" transform="matrix(0.75,0,0,0.75,64.45,95.2)"
font-family="Helvetica" font-size="11" font-weight="400" font-style="normal" 
>
<text fill="#212121" fill-opacity="1" stroke="none" xml:space="preserve" x="0" y="0" font-family="Helvetica" font-size="11" font-weight="400" font-style="normal" 
 >0.5</text>
</g>

<g fill="#212121" fill-opacity="1" stroke="#212121" stroke-opacity="1" stroke-width="1" stroke-linecap="square" stroke-linejoin="bevel" transform="matrix(0.75,0,0,0.75,106.45,95.2)"
font-family="Helvetica" font-size="11" font-weight="400" font-style="normal" 
>
<text fill="#212121" fill-opacity="1" stroke="none" xml:space="preserve" x="0" y="0" font-family="Helvetica" font-size="11" font-weight="400" font-style="normal" 
 >1</text>
</g>

<g fill="#212121" fill-opacity="1" stroke="#212121" stroke-opacity="1" stroke-width="1" stroke-linecap="square" stroke-linejoin="bevel" transform="matrix(0.75,0,0,0.75,141.7,95.2)"
font-family="Helvetica" font-size="11" font-weight="400" font-style="normal" 
>
<text fill="#212121" fill-opacity="1" stroke="none" xml:space="preserve" x="0" y="0" font-family="Helvetica" font-size="11" font-weight="400" font-style="normal" 
 >1.5</text>
</g>

<g fill="#212121" fill-opacity="1" stroke="#212121" stroke-opacity="1" stroke-width="1" stroke-linecap="square" stroke-linejoin="bevel" transform="matrix(0.75,0,0,0.75,183.7,95.2)"
font-family="Helvetica" font-size="11" font-weight="400" font-style="normal" 
>
<text fill="#212121" fill-opacity="1" stroke="none" xml:space="preserve" x="0" y="0" font-family="Helvetica" font-size="11" font-weight="400" font-style="normal" 
 >2</text>
</g>

<g fill="#212121" fill-opacity="1" stroke="#212121" stroke-opacity="1" stroke-width="1" stroke-linecap="square" stroke-linejoin="bevel" transform="matrix(0.75,0,0,0.75,218.95,95.2)"
font-family="Helvetica" font-size="11" font-weight="400" font-style="normal" 
>
<text fill="#212121" fill-opacity="1" stroke="none" xml:space="preserve" x="0" y="0" font-family="Helvetica" font-size="11" font-weight="400" font-style="normal" 
 >2.5</text>
</g>

<g fill="#212121" fill-opacity="1" stroke="#212121" stroke-opacity="1" stroke-width="1" stroke-linecap="square" stroke-linejoin="bevel" transform="matrix(0.75,0,0,0.75,260.95,95.2)"
font-family="Helvetica" font-size="11" font-weight="400" font-style="normal" 
>
<text fill="#212121" fill-opacity="1" stroke="none" xml:space="preserve" x="0" y="0" font-family="Helvetica" font-size="11" font-weight="400" font-style="normal" 
 >3</text>
</g>

<g fill="#212121" fill-opacity="1" stroke="#212121" stroke-opacity="1" stroke-width="1" stroke-linecap="square" stroke-linejoin="bevel" transform="matrix(0,-0.75,0.75,0,8.25,90)"
font-family="Helvetica" font-size="12" font-weight="400" font-style="normal" 
>
<text fill="#212121" fill-opacity="1" stroke="none" xml:space="preserve" x="0" y="0" font-family="Helvetica" font-size="12" font-weight="400" font-style="normal" 
 >Angular position (rad)</text>
</g>

<g fill="#212121" fill-opacity="1" stroke="#212121" stroke-opacity="1" stroke-width="0.666667" stroke-linecap="square" stroke-linejoin="round" transform="matrix(0.75,0,0,0.75,-8.3,-10.5)"
font-family="Helvetica" font-size="12" font-weight="400" font-style="normal" 
>
<polyline fill="none" vector-effect="none" points="53,128 53,22 " />
<polyline fill="none" vector-effect="none" points="362,128 362,22 " />
<polyline fill="none" vector-effect="none" points="53,114.347 56.09,114.347 " />
<polyline fill="none" vector-effect="none" points="358.91,114.347 362,114.347 " />
<polyline fill="none" vector-effect="none" points="53,68.2094 56.09,68.2094 " />
<polyline fill="none" vector-effect="none" points="358.91,68.2094 362,68.2094 " />
<polyline fill="none" vector-effect="none" points="53,22.0715 56.09,22.0715 " />
<polyline fill="none" vector-effect="none" points="358.91,22.0715 362,22.0715 " />
</g>

<g fill="#212121" fill-opacity="1" stroke="#212121" stroke-opacity="1" stroke-width="1" stroke-linecap="square" stroke-linejoin="bevel" transform="matrix(0.75,0,0,0.75,24.75,77.8855)"
font-family="Helvetica" font-size="11" font-weight="400" font-style="normal" 
>
<text fill="#212121" fill-opacity="1" stroke="none" xml:space="preserve" x="0" y="0" font-family="Helvetica" font-size="11" font-weight="400" font-style="normal" 
 >0</text>
</g>

<g fill="#212121" fill-opacity="1" stroke="#212121" stroke-opacity="1" stroke-width="1" stroke-linecap="square" stroke-linejoin="bevel" transform="matrix(0.75,0,0,0.75,13.5,43.2821)"
font-family="Helvetica" font-size="11" font-weight="400" font-style="normal" 
>
<text fill="#212121" fill-opacity="1" stroke="none" xml:space="preserve" x="0" y="0" font-family="Helvetica" font-size="11" font-weight="400" font-style="normal" 
 >0.05</text>
</g>

<g fill="#212121" fill-opacity="1" stroke="#212121" stroke-opacity="1" stroke-width="1" stroke-linecap="square" stroke-linejoin="bevel" transform="matrix(0.75,0,0,0.75,18,8.67868)"
font-family="Helvetica" font-size="11" font-weight="400" font-style="normal" 
>
<text fill="#212121" fill-opacity="1" stroke="none" xml:space="preserve" x="0" y="0" font-family="Helvetica" font-size="11" font-weight="400" font-style="normal" 
 >0.1</text>
</g>

<g fill="none" stroke="#1171be" stroke-opacity="1" stroke-width="0.666667" stroke-linecap="butt" stroke-linejoin="round" transform="matrix(0.75,0,0,0.75,-8.3,-10.5)"
font-family="Helvetica" font-size="11" font-weight="400" font-style="normal" 
>
<polyline fill="none" vector-effect="none" points="53,22.0715 53.0001,22.0715 53.0005,22.0715 53.0024,22.0715 53.0119,22.0715 53.0598,22.0712 53.2991,22.0652 53.8206,22.0375 54.439,22.0058 55.1312,22 55.8693,22.0479 56.7475,22.191 57.8545,22.5126 59.1703,23.0989 60.5029,23.9087 61.8016,24.8944 63.121,26.0813 64.4883,27.4948 65.8937,29.1283 67.3191,30.9581 68.7588,32.9695 70.2213,35.167 71.7145,37.5575 73.24,40.1387 74.7964,42.9035 76.3854,45.8481 78.0062,48.9637 79.6538,52.2303 81.3712,55.7247 83.1638,59.4516 85.0217,63.3798 86.9582,67.5241 88.9957,71.9143 91.0174,76.2734 93.6993,82.014 96.0324,86.9271 97.8651,90.7077 99.6978,94.3986 101.564,98.0456 103.379,101.463 105.099,104.572 106.756,107.435 108.388,110.115 110.009,112.63 111.632,114.993 113.218,117.141 114.853,119.17 116.424,120.928 117.925,122.419 119.385,123.682 120.817,124.74 122.073,125.523 123.294,126.163 124.561,126.712 125.884,127.168 127.26,127.527 128.656,127.782 130.059,127.937 131.482,128 132.938,127.978 134.437,127.872 136.136,127.66 137.927,127.342 139.678,126.946 141.408,126.481 143.18,125.941 145.014,125.322 146.912,124.628 148.874,123.867 150.915,123.039 153.062,122.142 155.359,121.166 157.891,120.089 160.944,118.814 163.549,117.765 166.154,116.77 168.332,115.991 170.273,115.343 172.237,114.735 174.279,114.157 176.334,113.634 178.419,113.17 180.396,112.796 182.297,112.502 184.17,112.274 185.857,112.117 187.531,112.003 189.314,111.92 191.196,111.873 193.11,111.86 195.04,111.878 196.988,111.924 199.256,112.007 201.699,112.128 204.091,112.272 206.449,112.434 208.906,112.619 211.534,112.829 214.325,113.059 217.284,113.304 220.531,113.567 224.628,113.878 227.128,114.052 229.629,114.212 232.284,114.364 235.015,114.501 237.849,114.618 240.445,114.702 242.825,114.757 244.982,114.792 247.197,114.815 249.615,114.827 252.161,114.827 254.731,114.817 257.555,114.797 260.556,114.766 263.526,114.729 266.423,114.687 269.372,114.641 272.504,114.591 275.824,114.537 279.232,114.484 282.63,114.435 286.031,114.39 289.557,114.349 293.362,114.312 297.075,114.285 300.579,114.269 303.888,114.26 307.927,114.256 310.888,114.257 313.849,114.261 316.975,114.266 320.297,114.274 323.633,114.283 326.816,114.292 329.888,114.302 333.04,114.311 336.406,114.321 339.9,114.331 343.285,114.339 346.449,114.346 349.537,114.352 352.814,114.357 356.358,114.36 359.942,114.363 362,114.363 " />
</g>

<g fill="#ffffff" fill-opacity="1" stroke="none" transform="matrix(7.5e-05,0,0,7.5e-05,-8.3,-10.5)"
font-family="Helvetica" font-size="11" font-weight="400" font-style="normal" 
>
<path vector-effect="none" fill-rule="evenodd" d="M530000,1.54e+06 L530000,2.6e+06 L3.62e+06,2.6e+06 L3.62e+06,1.54e+06 L530000,1.54e+06"/>
</g>

<g fill="#212121" fill-opacity="0.14902" stroke="#212121" stroke-opacity="0.14902" stroke-width="0.666667" stroke-linecap="butt" stroke-linejoin="round" transform="matrix(0.75,0,0,0.75,-8.3,-10.5)"
font-family="Helvetica" font-size="11" font-weight="400" font-style="normal" 
>
<polyline fill="none" vector-effect="none" points="53,154 53,260 " />
<polyline fill="none" vector-effect="none" points="104.5,154 104.5,260 " />
<polyline fill="none" vector-effect="none" points="156,154 156,260 " />
<polyline fill="none" vector-effect="none" points="207.5,154 207.5,260 " />
<polyline fill="none" vector-effect="none" points="259,154 259,260 " />
<polyline fill="none" vector-effect="none" points="310.5,154 310.5,260 " />
<polyline fill="none" vector-effect="none" points="362,154 362,260 " />
<polyline fill="none" vector-effect="none" points="53,260 362,260 " />
<polyline fill="none" vector-effect="none" points="53,233.5 362,233.5 " />
<polyline fill="none" vector-effect="none" points="53,207 362,207 " />
<polyline fill="none" vector-effect="none" points="53,180.5 362,180.5 " />
<polyline fill="none" vector-effect="none" points="53,154 362,154 " />
</g>

<g fill="#212121" fill-opacity="1" stroke="#212121" stroke-opacity="1" stroke-width="1" stroke-linecap="square" stroke-linejoin="bevel" transform="matrix(0.75,0,0,0.75,125.95,204.2)"
font-family="Helvetica" font-size="12" font-weight="400" font-style="normal" 
>
<text fill="#212121" fill-opacity="1" stroke="none" xml:space="preserve" x="0" y="0" font-family="Helvetica" font-size="12" font-weight="400" font-style="normal" 
 >Time (sec)</text>
</g>

<g fill="#212121" fill-opacity="1" stroke="#212121" stroke-opacity="1" stroke-width="0.666667" stroke-linecap="square" stroke-linejoin="round" transform="matrix(0.75,0,0,0.75,-8.3,-10.5)"
font-family="Helvetica" font-size="12" font-weight="400" font-style="normal" 
>
<polyline fill="none" vector-effect="none" points="53,260 362,260 " />
<polyline fill="none" vector-effect="none" points="53,154 362,154 " />
<polyline fill="none" vector-effect="none" points="53,260 53,256.91 " />
<polyline fill="none" vector-effect="none" points="53,157.09 53,154 " />
<polyline fill="none" vector-effect="none" points="104.5,260 104.5,256.91 " />
<polyline fill="none" vector-effect="none" points="104.5,157.09 104.5,154 " />
<polyline fill="none" vector-effect="none" points="156,260 156,256.91 " />
<polyline fill="none" vector-effect="none" points="156,157.09 156,154 " />
<polyline fill="none" vector-effect="none" points="207.5,260 207.5,256.91 " />
<polyline fill="none" vector-effect="none" points="207.5,157.09 207.5,154 " />
<polyline fill="none" vector-effect="none" points="259,260 259,256.91 " />
<polyline fill="none" vector-effect="none" points="259,157.09 259,154 " />
<polyline fill="none" vector-effect="none" points="310.5,260 310.5,256.91 " />
<polyline fill="none" vector-effect="none" points="310.5,157.09 310.5,154 " />
<polyline fill="none" vector-effect="none" points="362,260 362,256.91 " />
<polyline fill="none" vector-effect="none" points="362,157.09 362,154 " />
</g>

<g fill="#212121" fill-opacity="1" stroke="#212121" stroke-opacity="1" stroke-width="1" stroke-linecap="square" stroke-linejoin="bevel" transform="matrix(0.75,0,0,0.75,29.2,194.2)"
font-family="Helvetica" font-size="11" font-weight="400" font-style="normal" 
>
<text fill="#212121" fill-opacity="1" stroke="none" xml:space="preserve" x="0" y="0" font-family="Helvetica" font-size="11" font-weight="400" font-style="normal" 
 >0</text>
</g>

<g fill="#212121" fill-opacity="1" stroke="#212121" stroke-opacity="1" stroke-width="1" stroke-linecap="square" stroke-linejoin="bevel" transform="matrix(0.75,0,0,0.75,64.45,194.2)"
font-family="Helvetica" font-size="11" font-weight="400" font-style="normal" 
>
<text fill="#212121" fill-opacity="1" stroke="none" xml:space="preserve" x="0" y="0" font-family="Helvetica" font-size="11" font-weight="400" font-style="normal" 
 >0.5</text>
</g>

<g fill="#212121" fill-opacity="1" stroke="#212121" stroke-opacity="1" stroke-width="1" stroke-linecap="square" stroke-linejoin="bevel" transform="matrix(0.75,0,0,0.75,106.45,194.2)"
font-family="Helvetica" font-size="11" font-weight="400" font-style="normal" 
>
<text fill="#212121" fill-opacity="1" stroke="none" xml:space="preserve" x="0" y="0" font-family="Helvetica" font-size="11" font-weight="400" font-style="normal" 
 >1</text>
</g>

<g fill="#212121" fill-opacity="1" stroke="#212121" stroke-opacity="1" stroke-width="1" stroke-linecap="square" stroke-linejoin="bevel" transform="matrix(0.75,0,0,0.75,141.7,194.2)"
font-family="Helvetica" font-size="11" font-weight="400" font-style="normal" 
>
<text fill="#212121" fill-opacity="1" stroke="none" xml:space="preserve" x="0" y="0" font-family="Helvetica" font-size="11" font-weight="400" font-style="normal" 
 >1.5</text>
</g>

<g fill="#212121" fill-opacity="1" stroke="#212121" stroke-opacity="1" stroke-width="1" stroke-linecap="square" stroke-linejoin="bevel" transform="matrix(0.75,0,0,0.75,183.7,194.2)"
font-family="Helvetica" font-size="11" font-weight="400" font-style="normal" 
>
<text fill="#212121" fill-opacity="1" stroke="none" xml:space="preserve" x="0" y="0" font-family="Helvetica" font-size="11" font-weight="400" font-style="normal" 
 >2</text>
</g>

<g fill="#212121" fill-opacity="1" stroke="#212121" stroke-opacity="1" stroke-width="1" stroke-linecap="square" stroke-linejoin="bevel" transform="matrix(0.75,0,0,0.75,218.95,194.2)"
font-family="Helvetica" font-size="11" font-weight="400" font-style="normal" 
>
<text fill="#212121" fill-opacity="1" stroke="none" xml:space="preserve" x="0" y="0" font-family="Helvetica" font-size="11" font-weight="400" font-style="normal" 
 >2.5</text>
</g>

<g fill="#212121" fill-opacity="1" stroke="#212121" stroke-opacity="1" stroke-width="1" stroke-linecap="square" stroke-linejoin="bevel" transform="matrix(0.75,0,0,0.75,260.95,194.2)"
font-family="Helvetica" font-size="11" font-weight="400" font-style="normal" 
>
<text fill="#212121" fill-opacity="1" stroke="none" xml:space="preserve" x="0" y="0" font-family="Helvetica" font-size="11" font-weight="400" font-style="normal" 
 >3</text>
</g>

<g fill="#212121" fill-opacity="1" stroke="#212121" stroke-opacity="1" stroke-width="1" stroke-linecap="square" stroke-linejoin="bevel" transform="matrix(0,-0.75,0.75,0,17.25,173.625)"
font-family="Helvetica" font-size="12" font-weight="400" font-style="normal" 
>
<text fill="#212121" fill-opacity="1" stroke="none" xml:space="preserve" x="0" y="0" font-family="Helvetica" font-size="12" font-weight="400" font-style="normal" 
 >Input force (N)</text>
</g>

<g fill="#212121" fill-opacity="1" stroke="#212121" stroke-opacity="1" stroke-width="0.666667" stroke-linecap="square" stroke-linejoin="round" transform="matrix(0.75,0,0,0.75,-8.3,-10.5)"
font-family="Helvetica" font-size="12" font-weight="400" font-style="normal" 
>
<polyline fill="none" vector-effect="none" points="53,260 53,154 " />
<polyline fill="none" vector-effect="none" points="362,260 362,154 " />
<polyline fill="none" vector-effect="none" points="53,260 56.09,260 " />
<polyline fill="none" vector-effect="none" points="358.91,260 362,260 " />
<polyline fill="none" vector-effect="none" points="53,233.5 56.09,233.5 " />
<polyline fill="none" vector-effect="none" points="358.91,233.5 362,233.5 " />
<polyline fill="none" vector-effect="none" points="53,207 56.09,207 " />
<polyline fill="none" vector-effect="none" points="358.91,207 362,207 " />
<polyline fill="none" vector-effect="none" points="53,180.5 56.09,180.5 " />
<polyline fill="none" vector-effect="none" points="358.91,180.5 362,180.5 " />
<polyline fill="none" vector-effect="none" points="53,154 56.09,154 " />
<polyline fill="none" vector-effect="none" points="358.91,154 362,154 " />
</g>

<g fill="#212121" fill-opacity="1" stroke="#212121" stroke-opacity="1" stroke-width="1" stroke-linecap="square" stroke-linejoin="bevel" transform="matrix(0.75,0,0,0.75,21.75,187.125)"
font-family="Helvetica" font-size="11" font-weight="400" font-style="normal" 
>
<text fill="#212121" fill-opacity="1" stroke="none" xml:space="preserve" x="0" y="0" font-family="Helvetica" font-size="11" font-weight="400" font-style="normal" 
 >-1</text>
</g>

<g fill="#212121" fill-opacity="1" stroke="#212121" stroke-opacity="1" stroke-width="1" stroke-linecap="square" stroke-linejoin="bevel" transform="matrix(0.75,0,0,0.75,24.75,167.25)"
font-family="Helvetica" font-size="11" font-weight="400" font-style="normal" 
>
<text fill="#212121" fill-opacity="1" stroke="none" xml:space="preserve" x="0" y="0" font-family="Helvetica" font-size="11" font-weight="400" font-style="normal" 
 >0</text>
</g>

<g fill="#212121" fill-opacity="1" stroke="#212121" stroke-opacity="1" stroke-width="1" stroke-linecap="square" stroke-linejoin="bevel" transform="matrix(0.75,0,0,0.75,24.75,147.375)"
font-family="Helvetica" font-size="11" font-weight="400" font-style="normal" 
>
<text fill="#212121" fill-opacity="1" stroke="none" xml:space="preserve" x="0" y="0" font-family="Helvetica" font-size="11" font-weight="400" font-style="normal" 
 >1</text>
</g>

<g fill="#212121" fill-opacity="1" stroke="#212121" stroke-opacity="1" stroke-width="1" stroke-linecap="square" stroke-linejoin="bevel" transform="matrix(0.75,0,0,0.75,24.75,127.5)"
font-family="Helvetica" font-size="11" font-weight="400" font-style="normal" 
>
<text fill="#212121" fill-opacity="1" stroke="none" xml:space="preserve" x="0" y="0" font-family="Helvetica" font-size="11" font-weight="400" font-style="normal" 
 >2</text>
</g>

<g fill="#212121" fill-opacity="1" stroke="#212121" stroke-opacity="1" stroke-width="1" stroke-linecap="square" stroke-linejoin="bevel" transform="matrix(0.75,0,0,0.75,24.75,107.625)"
font-family="Helvetica" font-size="11" font-weight="400" font-style="normal" 
>
<text fill="#212121" fill-opacity="1" stroke="none" xml:space="preserve" x="0" y="0" font-family="Helvetica" font-size="11" font-weight="400" font-style="normal" 
 >3</text>
</g>

<g fill="none" stroke="#1171be" stroke-opacity="1" stroke-width="0.666667" stroke-linecap="butt" stroke-linejoin="round" transform="matrix(0.75,0,0,0.75,-8.3,-10.5)"
font-family="Helvetica" font-size="11" font-weight="400" font-style="normal" 
>
<polyline fill="none" vector-effect="none" points="53,161.872 53.0001,161.872 53.0005,161.871 53.0024,161.869 53.0119,161.856 53.0598,161.797 53.2991,161.546 53.8206,161.176 54.439,161.18 55.1312,161.723 55.8693,162.614 56.7475,163.834 57.8545,165.532 59.1703,167.788 60.5029,170.079 61.8016,172.319 63.121,174.541 64.4883,176.819 65.8937,179.113 67.3191,181.443 68.7588,183.793 70.2213,186.171 71.7145,188.59 73.24,191.056 74.7964,193.565 76.3854,196.237 78.0062,199.009 79.6538,201.728 81.3712,204.539 83.1638,207.457 85.0217,210.461 86.9582,213.693 88.9957,217.164 91.0174,220.483 93.6993,224.804 96.0324,228.407 97.8651,231.38 99.6978,234.213 101.564,236.982 103.379,239.526 105.099,241.79 106.756,243.835 108.388,245.783 110.009,247.762 111.632,249.801 113.218,252.377 114.853,254.642 116.424,256.559 117.925,257.831 119.385,258.339 120.817,257.249 122.073,255.969 123.294,254.777 124.561,253.666 125.884,252.598 127.26,251.505 128.656,250.4 130.059,249.31 131.482,248.241 132.938,247.275 134.437,246.55 136.136,245.739 137.927,244.838 139.678,243.919 141.408,242.984 143.18,242.034 145.014,241.061 146.912,240.069 148.874,239.066 150.915,238.055 153.062,237.033 155.359,235.994 157.891,234.92 160.944,233.684 163.549,232.669 166.154,231.774 168.332,231.208 170.273,230.778 172.237,230.394 174.279,229.936 176.334,229.338 178.419,228.875 180.396,228.586 182.297,228.615 184.17,228.977 185.857,229.34 187.531,229.665 189.314,229.985 191.196,230.313 193.11,230.643 195.04,230.896 196.988,231.108 199.256,231.35 201.699,231.627 204.091,231.907 206.449,232.18 208.906,232.455 211.534,232.736 214.325,233.018 217.284,233.291 220.531,233.558 224.628,233.845 227.128,233.965 229.629,234.076 232.284,234.184 235.015,234.348 237.849,234.464 240.445,234.493 242.825,234.391 244.982,234.294 247.197,234.208 249.615,234.121 252.161,234.034 254.731,233.976 257.555,233.915 260.556,233.847 263.526,233.777 266.423,233.711 269.372,233.648 272.504,233.586 275.824,233.527 279.232,233.474 282.63,233.431 286.031,233.396 289.557,233.37 293.362,233.327 297.075,233.304 300.579,233.323 303.888,233.352 307.927,233.382 310.888,233.405 313.849,233.418 316.975,233.431 320.297,233.445 323.633,233.46 326.816,233.473 329.888,233.485 333.04,233.495 336.406,233.505 339.9,233.513 343.285,233.519 346.449,233.524 349.537,233.53 352.814,233.534 356.358,233.535 359.942,233.529 362,233.525 " />
</g>
</g>
</svg>
