<?xml version="1.0" encoding="UTF-8" standalone="no"?>
<svg width="94.1917mm" height="73.3778mm"
 viewBox="0 0 267 208"
 xmlns="http://www.w3.org/2000/svg" xmlns:xlink="http://www.w3.org/1999/xlink"  version="1.2" baseProfile="tiny">
<title>Qt SVG Document</title>
<desc>MATLAB, The MathWorks, Inc. Version 25.2.0.3123386 R2025b Update 3</desc>
<defs>
</defs>
<g fill="none" stroke="black" stroke-width="1" fill-rule="evenodd" stroke-linecap="square" stroke-linejoin="bevel" >

<g fill="#ffffff" fill-opacity="1" stroke="none" transform="matrix(0.75,0,0,0.75,-8.3,-10.5)"
font-family="MS Shell Dlg 2" font-size="8.25" font-weight="400" font-style="normal" 
>
<path vector-effect="none" fill-rule="evenodd" d="M10,12 L367,12 L367,291 L10,291 L10,12"/>
</g>

<g fill="#ffffff" fill-opacity="1" stroke="none" transform="matrix(7.5e-05,0,0,7.5e-05,-8.3,-10.5)"
font-family="MS Shell Dlg 2" font-size="8.25" font-weight="400" font-style="normal" 
>
<path vector-effect="none" fill-rule="evenodd" d="M530000,220000 L530000,1.28e+06 L3.62e+06,1.28e+06 L3.62e+06,220000 L530000,220000"/>
</g>

<g fill="#212121" fill-opacity="0.14902" stroke="#212121" stroke-opacity="0.14902" stroke-width="0.666667" stroke-linecap="butt" stroke-linejoin="round" transform="matrix(0.75,0,0,0.75,-8.3,-10.5)"
font-family="MS Shell Dlg 2" font-size="8.25" font-weight="400" font-style="normal" 
>
<polyline fill="none" vector-effect="none" points="53,22 53,128 " />
<polyline fill="none" vector-effect="none" points="104.5,22 104.5,128 " />
<polyline fill="none" vector-effect="none" points="156,22 156,128 " />
<polyline fill="none" vector-effect="none" points="207.5,22 207.5,128 " />
<polyline fill="none" vector-effect="none" points="259,22 259,128 " />
<polyline fill="none" vector-effect="none" points="310.5,22 310.5,128 " />
<polyline fill="none" vector-effect="none" points="362,22 362,128 " />
<polyline fill="none" vector-effect="none" points="53,126.872 362,126.872 " />
<polyline fill="none" vector-effect="none" points="53,74.4367 362,74.4367 " />
<polyline fill="none" vector-effect="none" points="53,22.0018 362,22.0018 " />
</g>

<g fill="#212121" fill-opacity="1" stroke="#212121" stroke-opacity="1" stroke-width="0.666667" stroke-linecap="square" stroke-linejoin="round" transform="matrix(0.75,0,0,0.75,-8.3,-10.5)"
font-family="MS Shell Dlg 2" font-size="8.25" font-weight="400" font-style="normal" 
>
<polyline fill="none" vector-effect="none" points="53,128 362,128 " />
<polyline fill="none" vector-effect="none" points="53,22 362,22 " />
<polyline fill="none" vector-effect="none" points="53,128 53,124.91 " />
<polyline fill="none" vector-effect="none" points="53,25.09 53,22 " />
<polyline fill="none" vector-effect="none" points="104.5,128 104.5,124.91 " />
<polyline fill="none" vector-effect="none" points="104.5,25.09 104.5,22 " />
<polyline fill="none" vector-effect="none" points="156,128 156,124.91 " />
<polyline fill="none" vector-effect="none" points="156,25.09 156,22 " />
<polyline fill="none" vector-effect="none" points="207.5,128 207.5,124.91 " />
<polyline fill="none" vector-effect="none" points="207.5,25.09 207.5,22 " />
<polyline fill="none" vector-effect="none" points="259,128 259,124.91 " />
<polyline fill="none" vector-effect="none" points="259,25.09 259,22 " />
<polyline fill="none" vector-effect="none" points="310.5,128 310.5,124.91 " />
<polyline fill="none" vector-effect="none" points="310.5,25.09 310.5,22 " />
<polyline fill="none" vector-effect="none" points="362,128 362,124.91 " />
<polyline fill="none" vector-effect="none" points="362,25.09 362,22 " />
</g>

<g fill="#212121" fill-opacity="1" stroke="#212121" stroke-opacity="1" stroke-width="1" stroke-linecap="square" stroke-linejoin="bevel" transform="matrix(0.75,0,0,0.75,29.2,95.2)"
font-family="Helvetica" font-size="11" font-weight="400" font-style="normal" 
>
<text fill="#212121" fill-opacity="1" stroke="none" xml:space="preserve" x="0" y="0" font-family="Helvetica" font-size="11" font-weight="400" font-style="normal" 
 >0</text>
</g>

<g fill="#212121" fill-opacity="1" stroke="#212121" stroke-opacity="1" stroke-width="1" stroke-linecap="square" stroke-linejoin="bevel" transform="matrix(0.75,0,0,0.75,64.45,95.2)"
font-family="Helvetica" font-size="11" font-weight="400" font-style="normal" 
>
<text fill="#212121" fill-opacity="1" stroke="none" xml:space="preserve" x="0" y="0" font-family="Helvetica" font-size="11" font-weight="400" font-style="normal" 
 >0.5</text>
</g>

<g fill="#212121" fill-opacity="1" stroke="#212121" stroke-opacity="1" stroke-width="1" stroke-linecap="square" stroke-linejoin="bevel" transform="matrix(0.75,0,0,0.75,106.45,95.2)"
font-family="Helvetica" font-size="11" font-weight="400" font-style="normal" 
>
<text fill="#212121" fill-opacity="1" stroke="none" xml:space="preserve" x="0" y="0" font-family="Helvetica" font-size="11" font-weight="400" font-style="normal" 
 >1</text>
</g>

<g fill="#212121" fill-opacity="1" stroke="#212121" stroke-opacity="1" stroke-width="1" stroke-linecap="square" stroke-linejoin="bevel" transform="matrix(0.75,0,0,0.75,141.7,95.2)"
font-family="Helvetica" font-size="11" font-weight="400" font-style="normal" 
>
<text fill="#212121" fill-opacity="1" stroke="none" xml:space="preserve" x="0" y="0" font-family="Helvetica" font-size="11" font-weight="400" font-style="normal" 
 >1.5</text>
</g>

<g fill="#212121" fill-opacity="1" stroke="#212121" stroke-opacity="1" stroke-width="1" stroke-linecap="square" stroke-linejoin="bevel" transform="matrix(0.75,0,0,0.75,183.7,95.2)"
font-family="Helvetica" font-size="11" font-weight="400" font-style="normal" 
>
<text fill="#212121" fill-opacity="1" stroke="none" xml:space="preserve" x="0" y="0" font-family="Helvetica" font-size="11" font-weight="400" font-style="normal" 
 >2</text>
</g>

<g fill="#212121" fill-opacity="1" stroke="#212121" stroke-opacity="1" stroke-width="1" stroke-linecap="square" stroke-linejoin="bevel" transform="matrix(0.75,0,0,0.75,218.95,95.2)"
font-family="Helvetica" font-size="11" font-weight="400" font-style="normal" 
>
<text fill="#212121" fill-opacity="1" stroke="none" xml:space="preserve" x="0" y="0" font-family="Helvetica" font-size="11" font-weight="400" font-style="normal" 
 >2.5</text>
</g>

<g fill="#212121" fill-opacity="1" stroke="#212121" stroke-opacity="1" stroke-width="1" stroke-linecap="square" stroke-linejoin="bevel" transform="matrix(0.75,0,0,0.75,260.95,95.2)"
font-family="Helvetica" font-size="11" font-weight="400" font-style="normal" 
>
<text fill="#212121" fill-opacity="1" stroke="none" xml:space="preserve" x="0" y="0" font-family="Helvetica" font-size="11" font-weight="400" font-style="normal" 
 >3</text>
</g>

<g fill="#212121" fill-opacity="1" stroke="#212121" stroke-opacity="1" stroke-width="1" stroke-linecap="square" stroke-linejoin="bevel" transform="matrix(0,-0.75,0.75,0,8.25,90)"
font-family="Helvetica" font-size="12" font-weight="400" font-style="normal" 
>
<text fill="#212121" fill-opacity="1" stroke="none" xml:space="preserve" x="0" y="0" font-family="Helvetica" font-size="12" font-weight="400" font-style="normal" 
 >Angular position (rad)</text>
</g>

<g fill="#212121" fill-opacity="1" stroke="#212121" stroke-opacity="1" stroke-width="0.666667" stroke-linecap="square" stroke-linejoin="round" transform="matrix(0.75,0,0,0.75,-8.3,-10.5)"
font-family="Helvetica" font-size="12" font-weight="400" font-style="normal" 
>
<polyline fill="none" vector-effect="none" points="53,128 53,22 " />
<polyline fill="none" vector-effect="none" points="362,128 362,22 " />
<polyline fill="none" vector-effect="none" points="53,126.872 56.09,126.872 " />
<polyline fill="none" vector-effect="none" points="358.91,126.872 362,126.872 " />
<polyline fill="none" vector-effect="none" points="53,74.4367 56.09,74.4367 " />
<polyline fill="none" vector-effect="none" points="358.91,74.4367 362,74.4367 " />
<polyline fill="none" vector-effect="none" points="53,22.0018 56.09,22.0018 " />
<polyline fill="none" vector-effect="none" points="358.91,22.0018 362,22.0018 " />
</g>

<g fill="#212121" fill-opacity="1" stroke="#212121" stroke-opacity="1" stroke-width="1" stroke-linecap="square" stroke-linejoin="bevel" transform="matrix(0.75,0,0,0.75,24.75,87.2787)"
font-family="Helvetica" font-size="11" font-weight="400" font-style="normal" 
>
<text fill="#212121" fill-opacity="1" stroke="none" xml:space="preserve" x="0" y="0" font-family="Helvetica" font-size="11" font-weight="400" font-style="normal" 
 >0</text>
</g>

<g fill="#212121" fill-opacity="1" stroke="#212121" stroke-opacity="1" stroke-width="1" stroke-linecap="square" stroke-linejoin="bevel" transform="matrix(0.75,0,0,0.75,13.5,47.9525)"
font-family="Helvetica" font-size="11" font-weight="400" font-style="normal" 
>
<text fill="#212121" fill-opacity="1" stroke="none" xml:space="preserve" x="0" y="0" font-family="Helvetica" font-size="11" font-weight="400" font-style="normal" 
 >0.05</text>
</g>

<g fill="#212121" fill-opacity="1" stroke="#212121" stroke-opacity="1" stroke-width="1" stroke-linecap="square" stroke-linejoin="bevel" transform="matrix(0.75,0,0,0.75,18,8.62635)"
font-family="Helvetica" font-size="11" font-weight="400" font-style="normal" 
>
<text fill="#212121" fill-opacity="1" stroke="none" xml:space="preserve" x="0" y="0" font-family="Helvetica" font-size="11" font-weight="400" font-style="normal" 
 >0.1</text>
</g>

<g fill="none" stroke="#1171be" stroke-opacity="1" stroke-width="0.666667" stroke-linecap="butt" stroke-linejoin="round" transform="matrix(0.75,0,0,0.75,-8.3,-10.5)"
font-family="Helvetica" font-size="11" font-weight="400" font-style="normal" 
>
<polyline fill="none" vector-effect="none" points="53,22.0018 53,22.0018 53.0001,22.0018 53.0005,22.0018 53.0024,22.0018 53.012,22.0017 53.0598,22.0015 53.2674,22 53.531,22.0124 53.9627,22.1171 54.5653,22.5377 55.3019,23.5983 56.1154,25.5121 56.9159,28.1131 57.7063,31.2889 58.5437,35.1993 59.4564,39.9666 60.44,45.5417 61.4826,51.787 62.6388,58.939 63.95,67.1237 65.5643,77.0115 67.0355,85.5791 68.5066,93.5124 69.7129,99.4355 70.7431,104.035 71.7524,108.109 72.8027,111.883 73.8711,115.235 74.9207,118.058 75.9663,120.429 76.9849,122.347 78.0061,123.915 79.0561,125.196 80.1372,126.205 81.237,126.954 82.3663,127.479 83.5385,127.811 84.7186,127.971 85.9448,128 87.1889,127.939 88.4584,127.831 90.0933,127.668 92.516,127.439 94.7477,127.27 96.9795,127.146 98.9646,127.067 100.915,127.011 103.069,126.968 105.475,126.935 107.996,126.913 110.529,126.899 113.107,126.89 115.82,126.883 118.689,126.878 121.583,126.875 124.381,126.873 127.109,126.872 129.883,126.871 132.782,126.87 135.695,126.869 138.489,126.869 141.18,126.869 143.931,126.869 146.871,126.869 149.901,126.869 152.803,126.869 155.508,126.869 158.175,126.869 161.032,126.869 164.107,126.868 167.138,126.868 169.913,126.869 172.515,126.869 175.223,126.868 178.254,126.868 181.42,126.868 184.344,126.868 186.945,126.869 189.493,126.868 192.359,126.868 195.588,126.868 198.719,126.868 201.428,126.868 203.878,126.868 206.507,126.868 209.673,126.868 213.001,126.868 215.904,126.868 218.348,126.868 220.763,126.868 223.701,126.868 227.085,126.868 230.214,126.868 232.789,126.868 235.123,126.868 237.79,126.868 241.087,126.868 244.408,126.868 247.192,126.868 249.546,126.868 251.993,126.868 255.094,126.868 258.545,126.868 261.574,126.868 264.021,126.868 266.321,126.868 269.127,126.867 272.603,126.867 275.215,126.868 277.827,126.869 280.751,126.869 284.015,126.869 287.176,126.868 289.883,126.869 292.296,126.869 294.886,126.868 298.037,126.868 301.356,126.868 304.26,126.868 306.711,126.868 309.132,126.868 312.069,126.868 315.442,126.868 318.567,126.868 321.148,126.868 323.49,126.868 326.16,126.868 329.45,126.868 332.768,126.868 335.556,126.868 337.917,126.868 340.364,126.868 343.46,126.868 346.906,126.868 349.937,126.868 352.388,126.868 354.692,126.868 357.495,126.867 360.962,126.868 362,126.868 " />
</g>

<g fill="#ffffff" fill-opacity="1" stroke="none" transform="matrix(7.5e-05,0,0,7.5e-05,-8.3,-10.5)"
font-family="Helvetica" font-size="11" font-weight="400" font-style="normal" 
>
<path vector-effect="none" fill-rule="evenodd" d="M530000,1.54e+06 L530000,2.6e+06 L3.62e+06,2.6e+06 L3.62e+06,1.54e+06 L530000,1.54e+06"/>
</g>

<g fill="#212121" fill-opacity="0.14902" stroke="#212121" stroke-opacity="0.14902" stroke-width="0.666667" stroke-linecap="butt" stroke-linejoin="round" transform="matrix(0.75,0,0,0.75,-8.3,-10.5)"
font-family="Helvetica" font-size="11" font-weight="400" font-style="normal" 
>
<polyline fill="none" vector-effect="none" points="53,154 53,260 " />
<polyline fill="none" vector-effect="none" points="104.5,154 104.5,260 " />
<polyline fill="none" vector-effect="none" points="156,154 156,260 " />
<polyline fill="none" vector-effect="none" points="207.5,154 207.5,260 " />
<polyline fill="none" vector-effect="none" points="259,154 259,260 " />
<polyline fill="none" vector-effect="none" points="310.5,154 310.5,260 " />
<polyline fill="none" vector-effect="none" points="362,154 362,260 " />
<polyline fill="none" vector-effect="none" points="53,260 362,260 " />
<polyline fill="none" vector-effect="none" points="53,233.5 362,233.5 " />
<polyline fill="none" vector-effect="none" points="53,207 362,207 " />
<polyline fill="none" vector-effect="none" points="53,180.5 362,180.5 " />
<polyline fill="none" vector-effect="none" points="53,154 362,154 " />
</g>

<g fill="#212121" fill-opacity="1" stroke="#212121" stroke-opacity="1" stroke-width="1" stroke-linecap="square" stroke-linejoin="bevel" transform="matrix(0.75,0,0,0.75,125.95,204.2)"
font-family="Helvetica" font-size="12" font-weight="400" font-style="normal" 
>
<text fill="#212121" fill-opacity="1" stroke="none" xml:space="preserve" x="0" y="0" font-family="Helvetica" font-size="12" font-weight="400" font-style="normal" 
 >Time (sec)</text>
</g>

<g fill="#212121" fill-opacity="1" stroke="#212121" stroke-opacity="1" stroke-width="0.666667" stroke-linecap="square" stroke-linejoin="round" transform="matrix(0.75,0,0,0.75,-8.3,-10.5)"
font-family="Helvetica" font-size="12" font-weight="400" font-style="normal" 
>
<polyline fill="none" vector-effect="none" points="53,260 362,260 " />
<polyline fill="none" vector-effect="none" points="53,154 362,154 " />
<polyline fill="none" vector-effect="none" points="53,260 53,256.91 " />
<polyline fill="none" vector-effect="none" points="53,157.09 53,154 " />
<polyline fill="none" vector-effect="none" points="104.5,260 104.5,256.91 " />
<polyline fill="none" vector-effect="none" points="104.5,157.09 104.5,154 " />
<polyline fill="none" vector-effect="none" points="156,260 156,256.91 " />
<polyline fill="none" vector-effect="none" points="156,157.09 156,154 " />
<polyline fill="none" vector-effect="none" points="207.5,260 207.5,256.91 " />
<polyline fill="none" vector-effect="none" points="207.5,157.09 207.5,154 " />
<polyline fill="none" vector-effect="none" points="259,260 259,256.91 " />
<polyline fill="none" vector-effect="none" points="259,157.09 259,154 " />
<polyline fill="none" vector-effect="none" points="310.5,260 310.5,256.91 " />
<polyline fill="none" vector-effect="none" points="310.5,157.09 310.5,154 " />
<polyline fill="none" vector-effect="none" points="362,260 362,256.91 " />
<polyline fill="none" vector-effect="none" points="362,157.09 362,154 " />
</g>

<g fill="#212121" fill-opacity="1" stroke="#212121" stroke-opacity="1" stroke-width="1" stroke-linecap="square" stroke-linejoin="bevel" transform="matrix(0.75,0,0,0.75,29.2,194.2)"
font-family="Helvetica" font-size="11" font-weight="400" font-style="normal" 
>
<text fill="#212121" fill-opacity="1" stroke="none" xml:space="preserve" x="0" y="0" font-family="Helvetica" font-size="11" font-weight="400" font-style="normal" 
 >0</text>
</g>

<g fill="#212121" fill-opacity="1" stroke="#212121" stroke-opacity="1" stroke-width="1" stroke-linecap="square" stroke-linejoin="bevel" transform="matrix(0.75,0,0,0.75,64.45,194.2)"
font-family="Helvetica" font-size="11" font-weight="400" font-style="normal" 
>
<text fill="#212121" fill-opacity="1" stroke="none" xml:space="preserve" x="0" y="0" font-family="Helvetica" font-size="11" font-weight="400" font-style="normal" 
 >0.5</text>
</g>

<g fill="#212121" fill-opacity="1" stroke="#212121" stroke-opacity="1" stroke-width="1" stroke-linecap="square" stroke-linejoin="bevel" transform="matrix(0.75,0,0,0.75,106.45,194.2)"
font-family="Helvetica" font-size="11" font-weight="400" font-style="normal" 
>
<text fill="#212121" fill-opacity="1" stroke="none" xml:space="preserve" x="0" y="0" font-family="Helvetica" font-size="11" font-weight="400" font-style="normal" 
 >1</text>
</g>

<g fill="#212121" fill-opacity="1" stroke="#212121" stroke-opacity="1" stroke-width="1" stroke-linecap="square" stroke-linejoin="bevel" transform="matrix(0.75,0,0,0.75,141.7,194.2)"
font-family="Helvetica" font-size="11" font-weight="400" font-style="normal" 
>
<text fill="#212121" fill-opacity="1" stroke="none" xml:space="preserve" x="0" y="0" font-family="Helvetica" font-size="11" font-weight="400" font-style="normal" 
 >1.5</text>
</g>

<g fill="#212121" fill-opacity="1" stroke="#212121" stroke-opacity="1" stroke-width="1" stroke-linecap="square" stroke-linejoin="bevel" transform="matrix(0.75,0,0,0.75,183.7,194.2)"
font-family="Helvetica" font-size="11" font-weight="400" font-style="normal" 
>
<text fill="#212121" fill-opacity="1" stroke="none" xml:space="preserve" x="0" y="0" font-family="Helvetica" font-size="11" font-weight="400" font-style="normal" 
 >2</text>
</g>

<g fill="#212121" fill-opacity="1" stroke="#212121" stroke-opacity="1" stroke-width="1" stroke-linecap="square" stroke-linejoin="bevel" transform="matrix(0.75,0,0,0.75,218.95,194.2)"
font-family="Helvetica" font-size="11" font-weight="400" font-style="normal" 
>
<text fill="#212121" fill-opacity="1" stroke="none" xml:space="preserve" x="0" y="0" font-family="Helvetica" font-size="11" font-weight="400" font-style="normal" 
 >2.5</text>
</g>

<g fill="#212121" fill-opacity="1" stroke="#212121" stroke-opacity="1" stroke-width="1" stroke-linecap="square" stroke-linejoin="bevel" transform="matrix(0.75,0,0,0.75,260.95,194.2)"
font-family="Helvetica" font-size="11" font-weight="400" font-style="normal" 
>
<text fill="#212121" fill-opacity="1" stroke="none" xml:space="preserve" x="0" y="0" font-family="Helvetica" font-size="11" font-weight="400" font-style="normal" 
 >3</text>
</g>

<g fill="#212121" fill-opacity="1" stroke="#212121" stroke-opacity="1" stroke-width="1" stroke-linecap="square" stroke-linejoin="bevel" transform="matrix(0,-0.75,0.75,0,15.75,173.625)"
font-family="Helvetica" font-size="12" font-weight="400" font-style="normal" 
>
<text fill="#212121" fill-opacity="1" stroke="none" xml:space="preserve" x="0" y="0" font-family="Helvetica" font-size="12" font-weight="400" font-style="normal" 
 >Input force (N)</text>
</g>

<g fill="#212121" fill-opacity="1" stroke="#212121" stroke-opacity="1" stroke-width="0.666667" stroke-linecap="square" stroke-linejoin="round" transform="matrix(0.75,0,0,0.75,-8.3,-10.5)"
font-family="Helvetica" font-size="12" font-weight="400" font-style="normal" 
>
<polyline fill="none" vector-effect="none" points="53,260 53,154 " />
<polyline fill="none" vector-effect="none" points="362,260 362,154 " />
<polyline fill="none" vector-effect="none" points="53,260 56.09,260 " />
<polyline fill="none" vector-effect="none" points="358.91,260 362,260 " />
<polyline fill="none" vector-effect="none" points="53,233.5 56.09,233.5 " />
<polyline fill="none" vector-effect="none" points="358.91,233.5 362,233.5 " />
<polyline fill="none" vector-effect="none" points="53,207 56.09,207 " />
<polyline fill="none" vector-effect="none" points="358.91,207 362,207 " />
<polyline fill="none" vector-effect="none" points="53,180.5 56.09,180.5 " />
<polyline fill="none" vector-effect="none" points="358.91,180.5 362,180.5 " />
<polyline fill="none" vector-effect="none" points="53,154 56.09,154 " />
<polyline fill="none" vector-effect="none" points="358.91,154 362,154 " />
</g>

<g fill="#212121" fill-opacity="1" stroke="#212121" stroke-opacity="1" stroke-width="1" stroke-linecap="square" stroke-linejoin="bevel" transform="matrix(0.75,0,0,0.75,21.75,187.125)"
font-family="Helvetica" font-size="11" font-weight="400" font-style="normal" 
>
<text fill="#212121" fill-opacity="1" stroke="none" xml:space="preserve" x="0" y="0" font-family="Helvetica" font-size="11" font-weight="400" font-style="normal" 
 >-5</text>
</g>

<g fill="#212121" fill-opacity="1" stroke="#212121" stroke-opacity="1" stroke-width="1" stroke-linecap="square" stroke-linejoin="bevel" transform="matrix(0.75,0,0,0.75,24.75,167.25)"
font-family="Helvetica" font-size="11" font-weight="400" font-style="normal" 
>
<text fill="#212121" fill-opacity="1" stroke="none" xml:space="preserve" x="0" y="0" font-family="Helvetica" font-size="11" font-weight="400" font-style="normal" 
 >0</text>
</g>

<g fill="#212121" fill-opacity="1" stroke="#212121" stroke-opacity="1" stroke-width="1" stroke-linecap="square" stroke-linejoin="bevel" transform="matrix(0.75,0,0,0.75,24.75,147.375)"
font-family="Helvetica" font-size="11" font-weight="400" font-style="normal" 
>
<text fill="#212121" fill-opacity="1" stroke="none" xml:space="preserve" x="0" y="0" font-family="Helvetica" font-size="11" font-weight="400" font-style="normal" 
 >5</text>
</g>

<g fill="#212121" fill-opacity="1" stroke="#212121" stroke-opacity="1" stroke-width="1" stroke-linecap="square" stroke-linejoin="bevel" transform="matrix(0.75,0,0,0.75,20.25,127.5)"
font-family="Helvetica" font-size="11" font-weight="400" font-style="normal" 
>
<text fill="#212121" fill-opacity="1" stroke="none" xml:space="preserve" x="0" y="0" font-family="Helvetica" font-size="11" font-weight="400" font-style="normal" 
 >10</text>
</g>

<g fill="#212121" fill-opacity="1" stroke="#212121" stroke-opacity="1" stroke-width="1" stroke-linecap="square" stroke-linejoin="bevel" transform="matrix(0.75,0,0,0.75,20.25,107.625)"
font-family="Helvetica" font-size="11" font-weight="400" font-style="normal" 
>
<text fill="#212121" fill-opacity="1" stroke="none" xml:space="preserve" x="0" y="0" font-family="Helvetica" font-size="11" font-weight="400" font-style="normal" 
 >15</text>
</g>

<g fill="none" stroke="#1171be" stroke-opacity="1" stroke-width="0.666667" stroke-linecap="butt" stroke-linejoin="round" transform="matrix(0.75,0,0,0.75,-8.3,-10.5)"
font-family="Helvetica" font-size="11" font-weight="400" font-style="normal" 
>
<polyline fill="none" vector-effect="none" points="53,161.872 53,161.872 53.0001,161.872 53.0005,161.871 53.0024,161.869 53.012,161.857 53.0598,161.808 53.2674,161.791 53.531,162.36 53.9627,164.405 54.5653,169.264 55.3019,176.663 56.1154,185.701 56.9159,194.503 57.7063,201.856 58.5437,208.505 59.4564,214.812 60.44,220.531 61.4826,225.956 62.6388,231.11 63.95,236.115 65.5643,241.627 67.0355,245.548 68.5066,248.437 69.7129,249.656 70.7431,250.243 71.7524,250.565 72.8027,250.547 73.8711,250.064 74.9207,248.937 75.9663,247.577 76.9849,246.204 78.0061,244.862 79.0561,243.382 80.1372,241.841 81.237,240.366 82.3663,239.155 83.5385,237.799 84.7186,236.597 85.9448,234.985 87.1889,234.049 88.4584,233.576 90.0933,233.278 92.516,233.105 94.7477,233.129 96.9795,233.21 98.9646,233.294 100.915,233.35 103.069,233.391 105.475,233.425 107.996,233.453 110.529,233.471 113.107,233.481 115.82,233.486 118.689,233.49 121.583,233.492 124.381,233.495 127.109,233.495 129.883,233.495 132.782,233.494 135.695,233.496 138.489,233.497 141.18,233.497 143.931,233.497 146.871,233.496 149.901,233.497 152.803,233.497 155.508,233.497 158.175,233.497 161.032,233.496 164.107,233.497 167.138,233.497 169.913,233.497 172.515,233.497 175.223,233.496 178.254,233.496 181.42,233.497 184.344,233.497 186.945,233.498 189.493,233.496 192.359,233.496 195.588,233.496 198.719,233.497 201.428,233.498 203.878,233.497 206.507,233.495 209.673,233.496 213.001,233.496 215.904,233.497 218.348,233.498 220.763,233.495 223.701,233.494 227.085,233.496 230.214,233.496 232.789,233.498 235.123,233.496 237.79,233.494 241.087,233.496 244.408,233.496 247.192,233.498 249.546,233.498 251.993,233.494 255.094,233.495 258.545,233.496 261.574,233.497 264.021,233.499 266.321,233.495 269.127,233.493 272.603,233.496 275.215,233.5 277.827,233.499 280.751,233.497 284.015,233.497 287.176,233.496 289.883,233.497 292.296,233.497 294.886,233.494 298.037,233.495 301.356,233.496 304.26,233.497 306.711,233.498 309.132,233.495 312.069,233.494 315.442,233.496 318.567,233.497 321.148,233.498 323.49,233.496 326.16,233.494 329.45,233.496 332.768,233.496 335.556,233.498 337.917,233.498 340.364,233.494 343.46,233.495 346.906,233.496 349.937,233.497 352.388,233.499 354.692,233.495 357.495,233.493 360.962,233.496 362,233.503 " />
</g>
</g>
</svg>
