<?xml version="1.0" encoding="UTF-8" standalone="no"?>
<svg width="94.1917mm" height="73.025mm"
 viewBox="0 0 267 207"
 xmlns="http://www.w3.org/2000/svg" xmlns:xlink="http://www.w3.org/1999/xlink"  version="1.2" baseProfile="tiny">
<title>Qt SVG Document</title>
<desc>MATLAB, The MathWorks, Inc. Version 25.2.0.3123386 R2025b Update 3</desc>
<defs>
</defs>
<g fill="none" stroke="black" stroke-width="1" fill-rule="evenodd" stroke-linecap="square" stroke-linejoin="bevel" >

<g fill="#ffffff" fill-opacity="1" stroke="none" transform="matrix(0.75,0,0,0.75,-8.3,-11.625)"
font-family="MS Shell Dlg 2" font-size="8.25" font-weight="400" font-style="normal" 
>
<path vector-effect="none" fill-rule="evenodd" d="M10,14 L367,14 L367,291 L10,291 L10,14"/>
</g>

<g fill="#ffffff" fill-opacity="1" stroke="none" transform="matrix(7.5e-05,0,0,7.5e-05,-8.3,-11.625)"
font-family="MS Shell Dlg 2" font-size="8.25" font-weight="400" font-style="normal" 
>
<path vector-effect="none" fill-rule="evenodd" d="M590000,220000 L590000,1.31e+06 L3.62e+06,1.31e+06 L3.62e+06,220000 L590000,220000"/>
</g>

<g fill="#212121" fill-opacity="0.14902" stroke="#212121" stroke-opacity="0.14902" stroke-width="0.666667" stroke-linecap="butt" stroke-linejoin="round" transform="matrix(0.75,0,0,0.75,-8.3,-11.625)"
font-family="MS Shell Dlg 2" font-size="8.25" font-weight="400" font-style="normal" 
>
<polyline fill="none" vector-effect="none" points="59,22.0001 59,131 " />
<polyline fill="none" vector-effect="none" points="109.5,22.0001 109.5,131 " />
<polyline fill="none" vector-effect="none" points="160,22.0001 160,131 " />
<polyline fill="none" vector-effect="none" points="210.5,22.0001 210.5,131 " />
<polyline fill="none" vector-effect="none" points="261,22.0001 261,131 " />
<polyline fill="none" vector-effect="none" points="311.5,22.0001 311.5,131 " />
<polyline fill="none" vector-effect="none" points="362,22.0001 362,131 " />
<polyline fill="none" vector-effect="none" points="59,131 362,131 " />
<polyline fill="none" vector-effect="none" points="59,96.3245 362,96.3245 " />
<polyline fill="none" vector-effect="none" points="59,61.6491 362,61.6491 " />
<polyline fill="none" vector-effect="none" points="59,26.9736 362,26.9736 " />
</g>

<g fill="#212121" fill-opacity="1" stroke="#212121" stroke-opacity="1" stroke-width="0.666667" stroke-linecap="square" stroke-linejoin="round" transform="matrix(0.75,0,0,0.75,-8.3,-11.625)"
font-family="MS Shell Dlg 2" font-size="8.25" font-weight="400" font-style="normal" 
>
<polyline fill="none" vector-effect="none" points="59,131 362,131 " />
<polyline fill="none" vector-effect="none" points="59,22.0001 362,22.0001 " />
<polyline fill="none" vector-effect="none" points="59,131 59,127.97 " />
<polyline fill="none" vector-effect="none" points="59,25.03 59,22.0001 " />
<polyline fill="none" vector-effect="none" points="109.5,131 109.5,127.97 " />
<polyline fill="none" vector-effect="none" points="109.5,25.03 109.5,22.0001 " />
<polyline fill="none" vector-effect="none" points="160,131 160,127.97 " />
<polyline fill="none" vector-effect="none" points="160,25.03 160,22.0001 " />
<polyline fill="none" vector-effect="none" points="210.5,131 210.5,127.97 " />
<polyline fill="none" vector-effect="none" points="210.5,25.03 210.5,22.0001 " />
<polyline fill="none" vector-effect="none" points="261,131 261,127.97 " />
<polyline fill="none" vector-effect="none" points="261,25.03 261,22.0001 " />
<polyline fill="none" vector-effect="none" points="311.5,131 311.5,127.97 " />
<polyline fill="none" vector-effect="none" points="311.5,25.03 311.5,22.0001 " />
<polyline fill="none" vector-effect="none" points="362,131 362,127.97 " />
<polyline fill="none" vector-effect="none" points="362,25.03 362,22.0001 " />
</g>

<g fill="#212121" fill-opacity="1" stroke="#212121" stroke-opacity="1" stroke-width="1" stroke-linecap="square" stroke-linejoin="bevel" transform="matrix(0.75,0,0,0.75,33.7,96.325)"
font-family="Helvetica" font-size="11" font-weight="400" font-style="normal" 
>
<text fill="#212121" fill-opacity="1" stroke="none" xml:space="preserve" x="0" y="0" font-family="Helvetica" font-size="11" font-weight="400" font-style="normal" 
 >0</text>
</g>

<g fill="#212121" fill-opacity="1" stroke="#212121" stroke-opacity="1" stroke-width="1" stroke-linecap="square" stroke-linejoin="bevel" transform="matrix(0.75,0,0,0.75,68.2,96.325)"
font-family="Helvetica" font-size="11" font-weight="400" font-style="normal" 
>
<text fill="#212121" fill-opacity="1" stroke="none" xml:space="preserve" x="0" y="0" font-family="Helvetica" font-size="11" font-weight="400" font-style="normal" 
 >0.5</text>
</g>

<g fill="#212121" fill-opacity="1" stroke="#212121" stroke-opacity="1" stroke-width="1" stroke-linecap="square" stroke-linejoin="bevel" transform="matrix(0.75,0,0,0.75,109.45,96.325)"
font-family="Helvetica" font-size="11" font-weight="400" font-style="normal" 
>
<text fill="#212121" fill-opacity="1" stroke="none" xml:space="preserve" x="0" y="0" font-family="Helvetica" font-size="11" font-weight="400" font-style="normal" 
 >1</text>
</g>

<g fill="#212121" fill-opacity="1" stroke="#212121" stroke-opacity="1" stroke-width="1" stroke-linecap="square" stroke-linejoin="bevel" transform="matrix(0.75,0,0,0.75,143.95,96.325)"
font-family="Helvetica" font-size="11" font-weight="400" font-style="normal" 
>
<text fill="#212121" fill-opacity="1" stroke="none" xml:space="preserve" x="0" y="0" font-family="Helvetica" font-size="11" font-weight="400" font-style="normal" 
 >1.5</text>
</g>

<g fill="#212121" fill-opacity="1" stroke="#212121" stroke-opacity="1" stroke-width="1" stroke-linecap="square" stroke-linejoin="bevel" transform="matrix(0.75,0,0,0.75,185.2,96.325)"
font-family="Helvetica" font-size="11" font-weight="400" font-style="normal" 
>
<text fill="#212121" fill-opacity="1" stroke="none" xml:space="preserve" x="0" y="0" font-family="Helvetica" font-size="11" font-weight="400" font-style="normal" 
 >2</text>
</g>

<g fill="#212121" fill-opacity="1" stroke="#212121" stroke-opacity="1" stroke-width="1" stroke-linecap="square" stroke-linejoin="bevel" transform="matrix(0.75,0,0,0.75,219.7,96.325)"
font-family="Helvetica" font-size="11" font-weight="400" font-style="normal" 
>
<text fill="#212121" fill-opacity="1" stroke="none" xml:space="preserve" x="0" y="0" font-family="Helvetica" font-size="11" font-weight="400" font-style="normal" 
 >2.5</text>
</g>

<g fill="#212121" fill-opacity="1" stroke="#212121" stroke-opacity="1" stroke-width="1" stroke-linecap="square" stroke-linejoin="bevel" transform="matrix(0.75,0,0,0.75,260.95,96.325)"
font-family="Helvetica" font-size="11" font-weight="400" font-style="normal" 
>
<text fill="#212121" fill-opacity="1" stroke="none" xml:space="preserve" x="0" y="0" font-family="Helvetica" font-size="11" font-weight="400" font-style="normal" 
 >3</text>
</g>

<g fill="#212121" fill-opacity="1" stroke="#212121" stroke-opacity="1" stroke-width="1" stroke-linecap="square" stroke-linejoin="bevel" transform="matrix(0,-0.75,0.75,0,8.25,90)"
font-family="Helvetica" font-size="12" font-weight="400" font-style="normal" 
>
<text fill="#212121" fill-opacity="1" stroke="none" xml:space="preserve" x="0" y="0" font-family="Helvetica" font-size="12" font-weight="400" font-style="normal" 
 >Angular position (rad)</text>
</g>

<g fill="#212121" fill-opacity="1" stroke="#212121" stroke-opacity="1" stroke-width="0.666667" stroke-linecap="square" stroke-linejoin="round" transform="matrix(0.75,0,0,0.75,-8.3,-11.625)"
font-family="Helvetica" font-size="12" font-weight="400" font-style="normal" 
>
<polyline fill="none" vector-effect="none" points="59,131 59,22.0001 " />
<polyline fill="none" vector-effect="none" points="362,131 362,22.0001 " />
<polyline fill="none" vector-effect="none" points="59,131 62.03,131 " />
<polyline fill="none" vector-effect="none" points="358.97,131 362,131 " />
<polyline fill="none" vector-effect="none" points="59,96.3245 62.03,96.3245 " />
<polyline fill="none" vector-effect="none" points="358.97,96.3245 362,96.3245 " />
<polyline fill="none" vector-effect="none" points="59,61.6491 62.03,61.6491 " />
<polyline fill="none" vector-effect="none" points="358.97,61.6491 362,61.6491 " />
<polyline fill="none" vector-effect="none" points="59,26.9736 62.03,26.9736 " />
<polyline fill="none" vector-effect="none" points="358.97,26.9736 362,26.9736 " />
</g>

<g fill="#212121" fill-opacity="1" stroke="#212121" stroke-opacity="1" stroke-width="1" stroke-linecap="square" stroke-linejoin="bevel" transform="matrix(0.75,0,0,0.75,13.5,89.25)"
font-family="Helvetica" font-size="11" font-weight="400" font-style="normal" 
>
<text fill="#212121" fill-opacity="1" stroke="none" xml:space="preserve" x="0" y="0" font-family="Helvetica" font-size="11" font-weight="400" font-style="normal" 
 >0.094</text>
</g>

<g fill="#212121" fill-opacity="1" stroke="#212121" stroke-opacity="1" stroke-width="1" stroke-linecap="square" stroke-linejoin="bevel" transform="matrix(0.75,0,0,0.75,13.5,63.2434)"
font-family="Helvetica" font-size="11" font-weight="400" font-style="normal" 
>
<text fill="#212121" fill-opacity="1" stroke="none" xml:space="preserve" x="0" y="0" font-family="Helvetica" font-size="11" font-weight="400" font-style="normal" 
 >0.096</text>
</g>

<g fill="#212121" fill-opacity="1" stroke="#212121" stroke-opacity="1" stroke-width="1" stroke-linecap="square" stroke-linejoin="bevel" transform="matrix(0.75,0,0,0.75,13.5,37.2368)"
font-family="Helvetica" font-size="11" font-weight="400" font-style="normal" 
>
<text fill="#212121" fill-opacity="1" stroke="none" xml:space="preserve" x="0" y="0" font-family="Helvetica" font-size="11" font-weight="400" font-style="normal" 
 >0.098</text>
</g>

<g fill="#212121" fill-opacity="1" stroke="#212121" stroke-opacity="1" stroke-width="1" stroke-linecap="square" stroke-linejoin="bevel" transform="matrix(0.75,0,0,0.75,22.5,11.2302)"
font-family="Helvetica" font-size="11" font-weight="400" font-style="normal" 
>
<text fill="#212121" fill-opacity="1" stroke="none" xml:space="preserve" x="0" y="0" font-family="Helvetica" font-size="11" font-weight="400" font-style="normal" 
 >0.1</text>
</g>

<g fill="none" stroke="#1171be" stroke-opacity="1" stroke-width="0.666667" stroke-linecap="butt" stroke-linejoin="round" transform="matrix(0.75,0,0,0.75,-8.3,-11.625)"
font-family="Helvetica" font-size="11" font-weight="400" font-style="normal" 
>
<polyline fill="none" vector-effect="none" points="59,26.9736 59.0001,26.9736 59.0008,26.9736 59.0041,26.9736 59.0185,26.9731 59.0656,26.9666 59.1864,26.9197 59.4547,26.6819 60.0226,25.7794 60.7691,24.3149 61.7471,22.76 62.415,22.1841 63.0828,22.0001 63.742,22.1105 64.4143,22.4105 65.2273,22.8914 66.2853,23.5405 67.6643,24.257 69.0433,24.8005 70.1815,25.1711 71.3463,25.5302 72.9308,26.0333 75.1077,26.7699 77.039,27.4446 78.7955,28.0553 81.1594,28.8681 83.9883,29.8389 86.7109,30.7772 89.3088,31.6744 91.8656,32.5574 94.4071,33.4351 96.9583,34.3166 99.5669,35.2187 102.239,36.1433 104.9,37.0648 107.472,37.9564 109.981,38.8271 112.537,39.715 115.217,40.6468 117.959,41.6011 120.617,42.5271 123.13,43.4038 125.592,44.2636 128.166,45.163 130.918,46.1255 133.706,47.102 136.332,48.0223 138.768,48.8775 141.187,49.7272 143.81,50.6497 146.668,51.655 149.494,52.651 152.048,53.5517 154.378,54.3748 156.766,55.219 159.5,56.1859 162.501,57.248 165.328,58.2504 167.747,59.1094 169.95,59.8922 172.357,60.7481 175.305,61.7969 178.453,62.9184 181.182,63.8923 183.395,64.6824 185.481,65.4288 188.046,66.3464 191.332,67.522 193.788,68.4017 196.245,69.2831 198.915,70.2419 201.824,71.2875 204.639,72.3006 207.124,73.1958 209.4,74.0164 211.81,74.8866 214.652,75.9128 217.715,77.0202 220.481,78.0221 222.795,78.8607 224.949,79.6425 227.441,80.5475 230.556,81.6785 233.717,82.8288 236.306,83.7722 238.389,84.5322 240.475,85.2942 243.271,86.3153 246.705,87.5699 248.94,88.3869 251.176,89.2059 253.918,90.2115 257.29,91.4484 259.613,92.3009 261.935,93.1551 264.632,94.1477 267.791,95.3111 270.788,96.4169 273.204,97.3094 275.259,98.0696 277.504,98.9007 280.55,100.028 283.928,101.279 286.02,102.055 288.111,102.832 290.931,103.88 294.663,105.268 296.827,106.073 298.991,106.88 301.766,107.916 305.364,109.259 307.609,110.097 309.854,110.938 312.582,111.96 315.941,113.219 318.285,114.098 320.629,114.978 323.317,115.989 326.43,117.161 329.4,118.28 331.834,119.198 333.927,119.989 336.193,120.846 339.189,121.978 342.521,123.24 344.66,124.049 346.799,124.861 349.583,125.918 353.17,127.281 355.402,128.129 357.635,128.979 360.384,130.028 362,130.644 " />
</g>

<g fill="#ffffff" fill-opacity="1" stroke="none" transform="matrix(7.5e-05,0,0,7.5e-05,-8.3,-11.625)"
font-family="Helvetica" font-size="11" font-weight="400" font-style="normal" 
>
<path vector-effect="none" fill-rule="evenodd" d="M590000,1.52e+06 L590000,2.6e+06 L3.62e+06,2.6e+06 L3.62e+06,1.52e+06 L590000,1.52e+06"/>
</g>

<g fill="#212121" fill-opacity="0.14902" stroke="#212121" stroke-opacity="0.14902" stroke-width="0.666667" stroke-linecap="butt" stroke-linejoin="round" transform="matrix(0.75,0,0,0.75,-8.3,-11.625)"
font-family="Helvetica" font-size="11" font-weight="400" font-style="normal" 
>
<polyline fill="none" vector-effect="none" points="59,152 59,260 " />
<polyline fill="none" vector-effect="none" points="109.5,152 109.5,260 " />
<polyline fill="none" vector-effect="none" points="160,152 160,260 " />
<polyline fill="none" vector-effect="none" points="210.5,152 210.5,260 " />
<polyline fill="none" vector-effect="none" points="261,152 261,260 " />
<polyline fill="none" vector-effect="none" points="311.5,152 311.5,260 " />
<polyline fill="none" vector-effect="none" points="362,152 362,260 " />
<polyline fill="none" vector-effect="none" points="59,257.888 362,257.888 " />
<polyline fill="none" vector-effect="none" points="59,227.846 362,227.846 " />
<polyline fill="none" vector-effect="none" points="59,197.805 362,197.805 " />
<polyline fill="none" vector-effect="none" points="59,167.764 362,167.764 " />
</g>

<g fill="#212121" fill-opacity="1" stroke="#212121" stroke-opacity="1" stroke-width="1" stroke-linecap="square" stroke-linejoin="bevel" transform="matrix(0.75,0,0,0.75,128.2,203.075)"
font-family="Helvetica" font-size="12" font-weight="400" font-style="normal" 
>
<text fill="#212121" fill-opacity="1" stroke="none" xml:space="preserve" x="0" y="0" font-family="Helvetica" font-size="12" font-weight="400" font-style="normal" 
 >Time (sec)</text>
</g>

<g fill="#212121" fill-opacity="1" stroke="#212121" stroke-opacity="1" stroke-width="0.666667" stroke-linecap="square" stroke-linejoin="round" transform="matrix(0.75,0,0,0.75,-8.3,-11.625)"
font-family="Helvetica" font-size="12" font-weight="400" font-style="normal" 
>
<polyline fill="none" vector-effect="none" points="59,260 362,260 " />
<polyline fill="none" vector-effect="none" points="59,152 362,152 " />
<polyline fill="none" vector-effect="none" points="59,260 59,256.97 " />
<polyline fill="none" vector-effect="none" points="59,155.03 59,152 " />
<polyline fill="none" vector-effect="none" points="109.5,260 109.5,256.97 " />
<polyline fill="none" vector-effect="none" points="109.5,155.03 109.5,152 " />
<polyline fill="none" vector-effect="none" points="160,260 160,256.97 " />
<polyline fill="none" vector-effect="none" points="160,155.03 160,152 " />
<polyline fill="none" vector-effect="none" points="210.5,260 210.5,256.97 " />
<polyline fill="none" vector-effect="none" points="210.5,155.03 210.5,152 " />
<polyline fill="none" vector-effect="none" points="261,260 261,256.97 " />
<polyline fill="none" vector-effect="none" points="261,155.03 261,152 " />
<polyline fill="none" vector-effect="none" points="311.5,260 311.5,256.97 " />
<polyline fill="none" vector-effect="none" points="311.5,155.03 311.5,152 " />
<polyline fill="none" vector-effect="none" points="362,260 362,256.97 " />
<polyline fill="none" vector-effect="none" points="362,155.03 362,152 " />
</g>

<g fill="#212121" fill-opacity="1" stroke="#212121" stroke-opacity="1" stroke-width="1" stroke-linecap="square" stroke-linejoin="bevel" transform="matrix(0.75,0,0,0.75,33.7,193.075)"
font-family="Helvetica" font-size="11" font-weight="400" font-style="normal" 
>
<text fill="#212121" fill-opacity="1" stroke="none" xml:space="preserve" x="0" y="0" font-family="Helvetica" font-size="11" font-weight="400" font-style="normal" 
 >0</text>
</g>

<g fill="#212121" fill-opacity="1" stroke="#212121" stroke-opacity="1" stroke-width="1" stroke-linecap="square" stroke-linejoin="bevel" transform="matrix(0.75,0,0,0.75,68.2,193.075)"
font-family="Helvetica" font-size="11" font-weight="400" font-style="normal" 
>
<text fill="#212121" fill-opacity="1" stroke="none" xml:space="preserve" x="0" y="0" font-family="Helvetica" font-size="11" font-weight="400" font-style="normal" 
 >0.5</text>
</g>

<g fill="#212121" fill-opacity="1" stroke="#212121" stroke-opacity="1" stroke-width="1" stroke-linecap="square" stroke-linejoin="bevel" transform="matrix(0.75,0,0,0.75,109.45,193.075)"
font-family="Helvetica" font-size="11" font-weight="400" font-style="normal" 
>
<text fill="#212121" fill-opacity="1" stroke="none" xml:space="preserve" x="0" y="0" font-family="Helvetica" font-size="11" font-weight="400" font-style="normal" 
 >1</text>
</g>

<g fill="#212121" fill-opacity="1" stroke="#212121" stroke-opacity="1" stroke-width="1" stroke-linecap="square" stroke-linejoin="bevel" transform="matrix(0.75,0,0,0.75,143.95,193.075)"
font-family="Helvetica" font-size="11" font-weight="400" font-style="normal" 
>
<text fill="#212121" fill-opacity="1" stroke="none" xml:space="preserve" x="0" y="0" font-family="Helvetica" font-size="11" font-weight="400" font-style="normal" 
 >1.5</text>
</g>

<g fill="#212121" fill-opacity="1" stroke="#212121" stroke-opacity="1" stroke-width="1" stroke-linecap="square" stroke-linejoin="bevel" transform="matrix(0.75,0,0,0.75,185.2,193.075)"
font-family="Helvetica" font-size="11" font-weight="400" font-style="normal" 
>
<text fill="#212121" fill-opacity="1" stroke="none" xml:space="preserve" x="0" y="0" font-family="Helvetica" font-size="11" font-weight="400" font-style="normal" 
 >2</text>
</g>

<g fill="#212121" fill-opacity="1" stroke="#212121" stroke-opacity="1" stroke-width="1" stroke-linecap="square" stroke-linejoin="bevel" transform="matrix(0.75,0,0,0.75,219.7,193.075)"
font-family="Helvetica" font-size="11" font-weight="400" font-style="normal" 
>
<text fill="#212121" fill-opacity="1" stroke="none" xml:space="preserve" x="0" y="0" font-family="Helvetica" font-size="11" font-weight="400" font-style="normal" 
 >2.5</text>
</g>

<g fill="#212121" fill-opacity="1" stroke="#212121" stroke-opacity="1" stroke-width="1" stroke-linecap="square" stroke-linejoin="bevel" transform="matrix(0.75,0,0,0.75,260.95,193.075)"
font-family="Helvetica" font-size="11" font-weight="400" font-style="normal" 
>
<text fill="#212121" fill-opacity="1" stroke="none" xml:space="preserve" x="0" y="0" font-family="Helvetica" font-size="11" font-weight="400" font-style="normal" 
 >3</text>
</g>

<g fill="#212121" fill-opacity="1" stroke="#212121" stroke-opacity="1" stroke-width="1" stroke-linecap="square" stroke-linejoin="bevel" transform="matrix(0,-0.75,0.75,0,18,171.75)"
font-family="Helvetica" font-size="12" font-weight="400" font-style="normal" 
>
<text fill="#212121" fill-opacity="1" stroke="none" xml:space="preserve" x="0" y="0" font-family="Helvetica" font-size="12" font-weight="400" font-style="normal" 
 >Input force (N)</text>
</g>

<g fill="#212121" fill-opacity="1" stroke="#212121" stroke-opacity="1" stroke-width="0.666667" stroke-linecap="square" stroke-linejoin="round" transform="matrix(0.75,0,0,0.75,-8.3,-11.625)"
font-family="Helvetica" font-size="12" font-weight="400" font-style="normal" 
>
<polyline fill="none" vector-effect="none" points="59,260 59,152 " />
<polyline fill="none" vector-effect="none" points="362,260 362,152 " />
<polyline fill="none" vector-effect="none" points="59,257.888 62.03,257.888 " />
<polyline fill="none" vector-effect="none" points="358.97,257.888 362,257.888 " />
<polyline fill="none" vector-effect="none" points="59,227.846 62.03,227.846 " />
<polyline fill="none" vector-effect="none" points="358.97,227.846 362,227.846 " />
<polyline fill="none" vector-effect="none" points="59,197.805 62.03,197.805 " />
<polyline fill="none" vector-effect="none" points="358.97,197.805 362,197.805 " />
<polyline fill="none" vector-effect="none" points="59,167.764 62.03,167.764 " />
<polyline fill="none" vector-effect="none" points="358.97,167.764 362,167.764 " />
</g>

<g fill="#212121" fill-opacity="1" stroke="#212121" stroke-opacity="1" stroke-width="1" stroke-linecap="square" stroke-linejoin="bevel" transform="matrix(0.75,0,0,0.75,22.5,184.416)"
font-family="Helvetica" font-size="11" font-weight="400" font-style="normal" 
>
<text fill="#212121" fill-opacity="1" stroke="none" xml:space="preserve" x="0" y="0" font-family="Helvetica" font-size="11" font-weight="400" font-style="normal" 
 >1.4</text>
</g>

<g fill="#212121" fill-opacity="1" stroke="#212121" stroke-opacity="1" stroke-width="1" stroke-linecap="square" stroke-linejoin="bevel" transform="matrix(0.75,0,0,0.75,22.5,161.885)"
font-family="Helvetica" font-size="11" font-weight="400" font-style="normal" 
>
<text fill="#212121" fill-opacity="1" stroke="none" xml:space="preserve" x="0" y="0" font-family="Helvetica" font-size="11" font-weight="400" font-style="normal" 
 >1.6</text>
</g>

<g fill="#212121" fill-opacity="1" stroke="#212121" stroke-opacity="1" stroke-width="1" stroke-linecap="square" stroke-linejoin="bevel" transform="matrix(0.75,0,0,0.75,22.5,139.354)"
font-family="Helvetica" font-size="11" font-weight="400" font-style="normal" 
>
<text fill="#212121" fill-opacity="1" stroke="none" xml:space="preserve" x="0" y="0" font-family="Helvetica" font-size="11" font-weight="400" font-style="normal" 
 >1.8</text>
</g>

<g fill="#212121" fill-opacity="1" stroke="#212121" stroke-opacity="1" stroke-width="1" stroke-linecap="square" stroke-linejoin="bevel" transform="matrix(0.75,0,0,0.75,29.25,116.823)"
font-family="Helvetica" font-size="11" font-weight="400" font-style="normal" 
>
<text fill="#212121" fill-opacity="1" stroke="none" xml:space="preserve" x="0" y="0" font-family="Helvetica" font-size="11" font-weight="400" font-style="normal" 
 >2</text>
</g>

<g fill="none" stroke="#1171be" stroke-opacity="1" stroke-width="0.666667" stroke-linecap="butt" stroke-linejoin="round" transform="matrix(0.75,0,0,0.75,-8.3,-11.625)"
font-family="Helvetica" font-size="11" font-weight="400" font-style="normal" 
>
<polyline fill="none" vector-effect="none" points="59,235.178 59.0001,235.169 59.0008,235.112 59.0041,234.828 59.0185,233.558 59.0656,229.247 59.1864,218.299 59.4547,197.057 60.0226,166.752 60.7691,152 61.7471,166.389 62.415,197.546 63.0828,222.596 63.742,240.221 64.4143,249.526 65.2273,254.684 66.2853,255.53 67.6643,252.326 69.0433,248.092 70.1815,245.86 71.3463,245.326 72.9308,245.697 75.1077,246.478 77.039,246.922 78.7955,246.945 81.1594,246.912 83.9883,247.008 86.7109,247.17 89.3088,247.301 91.8656,247.407 94.4071,247.513 96.9583,247.627 99.5669,247.744 102.239,247.862 104.9,247.977 107.472,248.092 109.981,248.206 112.537,248.319 115.217,248.437 117.959,248.56 120.617,248.681 123.13,248.795 125.592,248.906 128.166,249.02 130.918,249.141 133.706,249.268 136.332,249.389 138.768,249.5 141.187,249.61 143.81,249.725 146.668,249.851 149.494,249.983 152.048,250.102 154.378,250.21 156.766,250.318 159.5,250.435 162.501,250.57 165.328,250.706 167.747,250.818 169.95,250.923 172.357,251.031 175.305,251.154 178.453,251.302 181.182,251.436 183.395,251.537 185.481,251.643 188.046,251.75 191.332,251.888 193.788,251.999 196.245,252.124 198.915,252.248 201.824,252.378 204.639,252.511 207.124,252.629 209.4,252.738 211.81,252.848 214.652,252.971 217.715,253.115 220.481,253.251 222.795,253.36 224.949,253.466 227.441,253.576 230.556,253.71 233.717,253.867 236.306,253.994 238.389,254.094 240.475,254.202 243.271,254.315 246.705,254.467 248.94,254.568 251.176,254.692 253.918,254.817 257.29,254.968 259.613,255.072 261.935,255.196 264.632,255.323 267.791,255.466 270.788,255.617 273.204,255.732 275.259,255.838 277.504,255.947 280.55,256.072 283.928,256.235 286.02,256.325 288.111,256.45 290.931,256.577 294.663,256.744 296.827,256.838 298.991,256.965 301.766,257.095 305.364,257.258 307.609,257.358 309.854,257.484 312.582,257.614 315.941,257.767 318.285,257.875 320.629,258.001 323.317,258.131 326.43,258.275 329.4,258.427 331.834,258.546 333.927,258.654 336.193,258.766 339.189,258.894 342.521,259.058 344.66,259.154 346.799,259.28 349.583,259.409 353.17,259.572 355.402,259.672 357.635,259.8 360.384,259.933 362,260 " />
</g>
</g>
</svg>
