<?xml version="1.0" encoding="UTF-8" standalone="no"?>
<svg width="94.1917mm" height="73.3778mm"
 viewBox="0 0 267 208"
 xmlns="http://www.w3.org/2000/svg" xmlns:xlink="http://www.w3.org/1999/xlink"  version="1.2" baseProfile="tiny">
<title>Qt SVG Document</title>
<desc>MATLAB, The MathWorks, Inc. Version 25.2.0.3123386 R2025b Update 3</desc>
<defs>
</defs>
<g fill="none" stroke="black" stroke-width="1" fill-rule="evenodd" stroke-linecap="square" stroke-linejoin="bevel" >

<g fill="#ffffff" fill-opacity="1" stroke="none" transform="matrix(0.75,0,0,0.75,-8.3,-10.5)"
font-family="MS Shell Dlg 2" font-size="8.25" font-weight="400" font-style="normal" 
>
<path vector-effect="none" fill-rule="evenodd" d="M10,12 L367,12 L367,291 L10,291 L10,12"/>
</g>

<g fill="#ffffff" fill-opacity="1" stroke="none" transform="matrix(7.5e-05,0,0,7.5e-05,-8.3,-10.5)"
font-family="MS Shell Dlg 2" font-size="8.25" font-weight="400" font-style="normal" 
>
<path vector-effect="none" fill-rule="evenodd" d="M560000,220000 L560000,1.28e+06 L3.62e+06,1.28e+06 L3.62e+06,220000 L560000,220000"/>
</g>

<g fill="#212121" fill-opacity="0.14902" stroke="#212121" stroke-opacity="0.14902" stroke-width="0.666667" stroke-linecap="butt" stroke-linejoin="round" transform="matrix(0.75,0,0,0.75,-8.3,-10.5)"
font-family="MS Shell Dlg 2" font-size="8.25" font-weight="400" font-style="normal" 
>
<polyline fill="none" vector-effect="none" points="56,22 56,128 " />
<polyline fill="none" vector-effect="none" points="107,22 107,128 " />
<polyline fill="none" vector-effect="none" points="158,22 158,128 " />
<polyline fill="none" vector-effect="none" points="209,22 209,128 " />
<polyline fill="none" vector-effect="none" points="260,22 260,128 " />
<polyline fill="none" vector-effect="none" points="311,22 311,128 " />
<polyline fill="none" vector-effect="none" points="362,22 362,128 " />
<polyline fill="none" vector-effect="none" points="56,128 362,128 " />
<polyline fill="none" vector-effect="none" points="56,101.5 362,101.5 " />
<polyline fill="none" vector-effect="none" points="56,75 362,75 " />
<polyline fill="none" vector-effect="none" points="56,48.5 362,48.5 " />
<polyline fill="none" vector-effect="none" points="56,22 362,22 " />
</g>

<g fill="#212121" fill-opacity="1" stroke="#212121" stroke-opacity="1" stroke-width="0.666667" stroke-linecap="square" stroke-linejoin="round" transform="matrix(0.75,0,0,0.75,-8.3,-10.5)"
font-family="MS Shell Dlg 2" font-size="8.25" font-weight="400" font-style="normal" 
>
<polyline fill="none" vector-effect="none" points="56,128 362,128 " />
<polyline fill="none" vector-effect="none" points="56,22 362,22 " />
<polyline fill="none" vector-effect="none" points="56,128 56,124.94 " />
<polyline fill="none" vector-effect="none" points="56,25.06 56,22 " />
<polyline fill="none" vector-effect="none" points="107,128 107,124.94 " />
<polyline fill="none" vector-effect="none" points="107,25.06 107,22 " />
<polyline fill="none" vector-effect="none" points="158,128 158,124.94 " />
<polyline fill="none" vector-effect="none" points="158,25.06 158,22 " />
<polyline fill="none" vector-effect="none" points="209,128 209,124.94 " />
<polyline fill="none" vector-effect="none" points="209,25.06 209,22 " />
<polyline fill="none" vector-effect="none" points="260,128 260,124.94 " />
<polyline fill="none" vector-effect="none" points="260,25.06 260,22 " />
<polyline fill="none" vector-effect="none" points="311,128 311,124.94 " />
<polyline fill="none" vector-effect="none" points="311,25.06 311,22 " />
<polyline fill="none" vector-effect="none" points="362,128 362,124.94 " />
<polyline fill="none" vector-effect="none" points="362,25.06 362,22 " />
</g>

<g fill="#212121" fill-opacity="1" stroke="#212121" stroke-opacity="1" stroke-width="1" stroke-linecap="square" stroke-linejoin="bevel" transform="matrix(0.75,0,0,0.75,31.45,95.2)"
font-family="Helvetica" font-size="11" font-weight="400" font-style="normal" 
>
<text fill="#212121" fill-opacity="1" stroke="none" xml:space="preserve" x="0" y="0" font-family="Helvetica" font-size="11" font-weight="400" font-style="normal" 
 >0</text>
</g>

<g fill="#212121" fill-opacity="1" stroke="#212121" stroke-opacity="1" stroke-width="1" stroke-linecap="square" stroke-linejoin="bevel" transform="matrix(0.75,0,0,0.75,66.325,95.2)"
font-family="Helvetica" font-size="11" font-weight="400" font-style="normal" 
>
<text fill="#212121" fill-opacity="1" stroke="none" xml:space="preserve" x="0" y="0" font-family="Helvetica" font-size="11" font-weight="400" font-style="normal" 
 >0.5</text>
</g>

<g fill="#212121" fill-opacity="1" stroke="#212121" stroke-opacity="1" stroke-width="1" stroke-linecap="square" stroke-linejoin="bevel" transform="matrix(0.75,0,0,0.75,107.95,95.2)"
font-family="Helvetica" font-size="11" font-weight="400" font-style="normal" 
>
<text fill="#212121" fill-opacity="1" stroke="none" xml:space="preserve" x="0" y="0" font-family="Helvetica" font-size="11" font-weight="400" font-style="normal" 
 >1</text>
</g>

<g fill="#212121" fill-opacity="1" stroke="#212121" stroke-opacity="1" stroke-width="1" stroke-linecap="square" stroke-linejoin="bevel" transform="matrix(0.75,0,0,0.75,142.825,95.2)"
font-family="Helvetica" font-size="11" font-weight="400" font-style="normal" 
>
<text fill="#212121" fill-opacity="1" stroke="none" xml:space="preserve" x="0" y="0" font-family="Helvetica" font-size="11" font-weight="400" font-style="normal" 
 >1.5</text>
</g>

<g fill="#212121" fill-opacity="1" stroke="#212121" stroke-opacity="1" stroke-width="1" stroke-linecap="square" stroke-linejoin="bevel" transform="matrix(0.75,0,0,0.75,184.45,95.2)"
font-family="Helvetica" font-size="11" font-weight="400" font-style="normal" 
>
<text fill="#212121" fill-opacity="1" stroke="none" xml:space="preserve" x="0" y="0" font-family="Helvetica" font-size="11" font-weight="400" font-style="normal" 
 >2</text>
</g>

<g fill="#212121" fill-opacity="1" stroke="#212121" stroke-opacity="1" stroke-width="1" stroke-linecap="square" stroke-linejoin="bevel" transform="matrix(0.75,0,0,0.75,219.325,95.2)"
font-family="Helvetica" font-size="11" font-weight="400" font-style="normal" 
>
<text fill="#212121" fill-opacity="1" stroke="none" xml:space="preserve" x="0" y="0" font-family="Helvetica" font-size="11" font-weight="400" font-style="normal" 
 >2.5</text>
</g>

<g fill="#212121" fill-opacity="1" stroke="#212121" stroke-opacity="1" stroke-width="1" stroke-linecap="square" stroke-linejoin="bevel" transform="matrix(0.75,0,0,0.75,260.95,95.2)"
font-family="Helvetica" font-size="11" font-weight="400" font-style="normal" 
>
<text fill="#212121" fill-opacity="1" stroke="none" xml:space="preserve" x="0" y="0" font-family="Helvetica" font-size="11" font-weight="400" font-style="normal" 
 >3</text>
</g>

<g fill="#212121" fill-opacity="1" stroke="#212121" stroke-opacity="1" stroke-width="1" stroke-linecap="square" stroke-linejoin="bevel" transform="matrix(0,-0.75,0.75,0,8.25,90)"
font-family="Helvetica" font-size="12" font-weight="400" font-style="normal" 
>
<text fill="#212121" fill-opacity="1" stroke="none" xml:space="preserve" x="0" y="0" font-family="Helvetica" font-size="12" font-weight="400" font-style="normal" 
 >Angular position (rad)</text>
</g>

<g fill="#212121" fill-opacity="1" stroke="#212121" stroke-opacity="1" stroke-width="0.666667" stroke-linecap="square" stroke-linejoin="round" transform="matrix(0.75,0,0,0.75,-8.3,-10.5)"
font-family="Helvetica" font-size="12" font-weight="400" font-style="normal" 
>
<polyline fill="none" vector-effect="none" points="56,128 56,22 " />
<polyline fill="none" vector-effect="none" points="362,128 362,22 " />
<polyline fill="none" vector-effect="none" points="56,128 59.06,128 " />
<polyline fill="none" vector-effect="none" points="358.94,128 362,128 " />
<polyline fill="none" vector-effect="none" points="56,101.5 59.06,101.5 " />
<polyline fill="none" vector-effect="none" points="358.94,101.5 362,101.5 " />
<polyline fill="none" vector-effect="none" points="56,75 59.06,75 " />
<polyline fill="none" vector-effect="none" points="358.94,75 362,75 " />
<polyline fill="none" vector-effect="none" points="56,48.5 59.06,48.5 " />
<polyline fill="none" vector-effect="none" points="358.94,48.5 362,48.5 " />
<polyline fill="none" vector-effect="none" points="56,22 59.06,22 " />
<polyline fill="none" vector-effect="none" points="358.94,22 362,22 " />
</g>

<g fill="#212121" fill-opacity="1" stroke="#212121" stroke-opacity="1" stroke-width="1" stroke-linecap="square" stroke-linejoin="bevel" transform="matrix(0.75,0,0,0.75,12.75,88.125)"
font-family="Helvetica" font-size="11" font-weight="400" font-style="normal" 
>
<text fill="#212121" fill-opacity="1" stroke="none" xml:space="preserve" x="0" y="0" font-family="Helvetica" font-size="11" font-weight="400" font-style="normal" 
 >-0.05</text>
</g>

<g fill="#212121" fill-opacity="1" stroke="#212121" stroke-opacity="1" stroke-width="1" stroke-linecap="square" stroke-linejoin="bevel" transform="matrix(0.75,0,0,0.75,27,68.25)"
font-family="Helvetica" font-size="11" font-weight="400" font-style="normal" 
>
<text fill="#212121" fill-opacity="1" stroke="none" xml:space="preserve" x="0" y="0" font-family="Helvetica" font-size="11" font-weight="400" font-style="normal" 
 >0</text>
</g>

<g fill="#212121" fill-opacity="1" stroke="#212121" stroke-opacity="1" stroke-width="1" stroke-linecap="square" stroke-linejoin="bevel" transform="matrix(0.75,0,0,0.75,15.75,48.375)"
font-family="Helvetica" font-size="11" font-weight="400" font-style="normal" 
>
<text fill="#212121" fill-opacity="1" stroke="none" xml:space="preserve" x="0" y="0" font-family="Helvetica" font-size="11" font-weight="400" font-style="normal" 
 >0.05</text>
</g>

<g fill="#212121" fill-opacity="1" stroke="#212121" stroke-opacity="1" stroke-width="1" stroke-linecap="square" stroke-linejoin="bevel" transform="matrix(0.75,0,0,0.75,20.25,28.5)"
font-family="Helvetica" font-size="11" font-weight="400" font-style="normal" 
>
<text fill="#212121" fill-opacity="1" stroke="none" xml:space="preserve" x="0" y="0" font-family="Helvetica" font-size="11" font-weight="400" font-style="normal" 
 >0.1</text>
</g>

<g fill="#212121" fill-opacity="1" stroke="#212121" stroke-opacity="1" stroke-width="1" stroke-linecap="square" stroke-linejoin="bevel" transform="matrix(0.75,0,0,0.75,15.75,8.62504)"
font-family="Helvetica" font-size="11" font-weight="400" font-style="normal" 
>
<text fill="#212121" fill-opacity="1" stroke="none" xml:space="preserve" x="0" y="0" font-family="Helvetica" font-size="11" font-weight="400" font-style="normal" 
 >0.15</text>
</g>

<g fill="none" stroke="#1171be" stroke-opacity="1" stroke-width="0.666667" stroke-linecap="butt" stroke-linejoin="round" transform="matrix(0.75,0,0,0.75,-8.3,-10.5)"
font-family="Helvetica" font-size="11" font-weight="400" font-style="normal" 
>
<polyline fill="none" vector-effect="none" points="56,48.5 56.0001,48.5 56.0007,48.5 56.0039,48.5 56.0194,48.5 56.0972,48.4995 56.421,48.4924 57.0346,48.4628 57.8135,48.4109 58.7535,48.3447 59.8038,48.2786 60.9812,48.2213 62.2692,48.1811 63.6345,48.1637 65.0388,48.171 66.4647,48.2025 68.0083,48.2617 69.6199,48.3493 71.2273,48.4608 72.8534,48.596 74.5717,48.7616 76.4001,48.9612 78.3057,49.1925 80.2279,49.4477 82.1573,49.724 84.1196,50.0237 86.1302,50.3483 88.1839,50.6965 90.2725,51.066 92.3964,51.4562 94.5609,51.8672 96.7653,52.2981 99.0159,52.7496 101.31,53.2205 103.645,53.7096 106.022,54.2166 108.445,54.7416 110.913,55.2843 113.429,55.8441 115.992,56.4208 118.603,57.0139 121.264,57.6234 123.977,58.2492 126.742,58.8909 129.562,59.5485 132.437,60.222 135.382,60.9139 138.417,61.6292 141.458,62.3479 144.454,63.0576 147.438,63.7661 150.478,64.489 153.593,65.231 156.743,65.9823 159.881,66.7313 163.011,67.4787 166.181,68.236 169.422,69.0097 172.365,69.7114 175.416,70.4365 179.52,71.406 182.197,72.0337 184.873,72.6571 187.625,73.293 190.406,73.9302 193.119,74.5459 195.752,75.1375 198.362,75.718 200.987,76.2953 203.614,76.8665 206.217,77.4258 208.794,77.9725 211.364,78.5109 213.937,79.043 216.508,79.5675 219.07,80.0829 221.622,80.5891 224.17,81.0872 226.715,81.5776 229.258,82.0601 231.797,82.5342 234.332,83.0002 236.865,83.4583 239.395,83.9085 241.925,84.351 244.452,84.7855 246.979,85.2123 249.521,85.6343 252.051,86.047 254.582,86.4526 257.131,86.8542 259.697,87.2518 262.271,87.6435 264.846,88.0289 267.426,88.4082 270.013,88.7822 272.609,89.1509 275.209,89.5138 277.812,89.8708 280.419,90.2221 283.03,90.5677 285.646,90.9078 288.266,91.2422 290.889,91.5709 293.515,91.894 296.144,92.2116 298.777,92.5236 301.413,92.8301 304.053,93.1311 306.695,93.4267 309.313,93.7136 311.952,93.9967 314.591,94.2732 317.2,94.5401 319.783,94.7978 322.362,95.0484 324.945,95.2928 327.528,95.5304 330.105,95.7607 332.678,95.9839 335.252,96.2004 337.829,96.4106 340.41,96.6144 342.993,96.8118 345.579,97.003 348.17,97.188 350.766,97.3672 353.369,97.5405 355.978,97.708 358.593,97.87 361.216,98.0264 362,98.072 " />
</g>

<g fill="#ffffff" fill-opacity="1" stroke="none" transform="matrix(7.5e-05,0,0,7.5e-05,-8.3,-10.5)"
font-family="Helvetica" font-size="11" font-weight="400" font-style="normal" 
>
<path vector-effect="none" fill-rule="evenodd" d="M560000,1.54e+06 L560000,2.6e+06 L3.62e+06,2.6e+06 L3.62e+06,1.54e+06 L560000,1.54e+06"/>
</g>

<g fill="#212121" fill-opacity="0.14902" stroke="#212121" stroke-opacity="0.14902" stroke-width="0.666667" stroke-linecap="butt" stroke-linejoin="round" transform="matrix(0.75,0,0,0.75,-8.3,-10.5)"
font-family="Helvetica" font-size="11" font-weight="400" font-style="normal" 
>
<polyline fill="none" vector-effect="none" points="56,154 56,260 " />
<polyline fill="none" vector-effect="none" points="107,154 107,260 " />
<polyline fill="none" vector-effect="none" points="158,154 158,260 " />
<polyline fill="none" vector-effect="none" points="209,154 209,260 " />
<polyline fill="none" vector-effect="none" points="260,154 260,260 " />
<polyline fill="none" vector-effect="none" points="311,154 311,260 " />
<polyline fill="none" vector-effect="none" points="362,154 362,260 " />
<polyline fill="none" vector-effect="none" points="56,260 362,260 " />
<polyline fill="none" vector-effect="none" points="56,233.5 362,233.5 " />
<polyline fill="none" vector-effect="none" points="56,207 362,207 " />
<polyline fill="none" vector-effect="none" points="56,180.5 362,180.5 " />
<polyline fill="none" vector-effect="none" points="56,154 362,154 " />
</g>

<g fill="#212121" fill-opacity="1" stroke="#212121" stroke-opacity="1" stroke-width="1" stroke-linecap="square" stroke-linejoin="bevel" transform="matrix(0.75,0,0,0.75,127.075,204.2)"
font-family="Helvetica" font-size="12" font-weight="400" font-style="normal" 
>
<text fill="#212121" fill-opacity="1" stroke="none" xml:space="preserve" x="0" y="0" font-family="Helvetica" font-size="12" font-weight="400" font-style="normal" 
 >Time (sec)</text>
</g>

<g fill="#212121" fill-opacity="1" stroke="#212121" stroke-opacity="1" stroke-width="0.666667" stroke-linecap="square" stroke-linejoin="round" transform="matrix(0.75,0,0,0.75,-8.3,-10.5)"
font-family="Helvetica" font-size="12" font-weight="400" font-style="normal" 
>
<polyline fill="none" vector-effect="none" points="56,260 362,260 " />
<polyline fill="none" vector-effect="none" points="56,154 362,154 " />
<polyline fill="none" vector-effect="none" points="56,260 56,256.94 " />
<polyline fill="none" vector-effect="none" points="56,157.06 56,154 " />
<polyline fill="none" vector-effect="none" points="107,260 107,256.94 " />
<polyline fill="none" vector-effect="none" points="107,157.06 107,154 " />
<polyline fill="none" vector-effect="none" points="158,260 158,256.94 " />
<polyline fill="none" vector-effect="none" points="158,157.06 158,154 " />
<polyline fill="none" vector-effect="none" points="209,260 209,256.94 " />
<polyline fill="none" vector-effect="none" points="209,157.06 209,154 " />
<polyline fill="none" vector-effect="none" points="260,260 260,256.94 " />
<polyline fill="none" vector-effect="none" points="260,157.06 260,154 " />
<polyline fill="none" vector-effect="none" points="311,260 311,256.94 " />
<polyline fill="none" vector-effect="none" points="311,157.06 311,154 " />
<polyline fill="none" vector-effect="none" points="362,260 362,256.94 " />
<polyline fill="none" vector-effect="none" points="362,157.06 362,154 " />
</g>

<g fill="#212121" fill-opacity="1" stroke="#212121" stroke-opacity="1" stroke-width="1" stroke-linecap="square" stroke-linejoin="bevel" transform="matrix(0.75,0,0,0.75,31.45,194.2)"
font-family="Helvetica" font-size="11" font-weight="400" font-style="normal" 
>
<text fill="#212121" fill-opacity="1" stroke="none" xml:space="preserve" x="0" y="0" font-family="Helvetica" font-size="11" font-weight="400" font-style="normal" 
 >0</text>
</g>

<g fill="#212121" fill-opacity="1" stroke="#212121" stroke-opacity="1" stroke-width="1" stroke-linecap="square" stroke-linejoin="bevel" transform="matrix(0.75,0,0,0.75,66.325,194.2)"
font-family="Helvetica" font-size="11" font-weight="400" font-style="normal" 
>
<text fill="#212121" fill-opacity="1" stroke="none" xml:space="preserve" x="0" y="0" font-family="Helvetica" font-size="11" font-weight="400" font-style="normal" 
 >0.5</text>
</g>

<g fill="#212121" fill-opacity="1" stroke="#212121" stroke-opacity="1" stroke-width="1" stroke-linecap="square" stroke-linejoin="bevel" transform="matrix(0.75,0,0,0.75,107.95,194.2)"
font-family="Helvetica" font-size="11" font-weight="400" font-style="normal" 
>
<text fill="#212121" fill-opacity="1" stroke="none" xml:space="preserve" x="0" y="0" font-family="Helvetica" font-size="11" font-weight="400" font-style="normal" 
 >1</text>
</g>

<g fill="#212121" fill-opacity="1" stroke="#212121" stroke-opacity="1" stroke-width="1" stroke-linecap="square" stroke-linejoin="bevel" transform="matrix(0.75,0,0,0.75,142.825,194.2)"
font-family="Helvetica" font-size="11" font-weight="400" font-style="normal" 
>
<text fill="#212121" fill-opacity="1" stroke="none" xml:space="preserve" x="0" y="0" font-family="Helvetica" font-size="11" font-weight="400" font-style="normal" 
 >1.5</text>
</g>

<g fill="#212121" fill-opacity="1" stroke="#212121" stroke-opacity="1" stroke-width="1" stroke-linecap="square" stroke-linejoin="bevel" transform="matrix(0.75,0,0,0.75,184.45,194.2)"
font-family="Helvetica" font-size="11" font-weight="400" font-style="normal" 
>
<text fill="#212121" fill-opacity="1" stroke="none" xml:space="preserve" x="0" y="0" font-family="Helvetica" font-size="11" font-weight="400" font-style="normal" 
 >2</text>
</g>

<g fill="#212121" fill-opacity="1" stroke="#212121" stroke-opacity="1" stroke-width="1" stroke-linecap="square" stroke-linejoin="bevel" transform="matrix(0.75,0,0,0.75,219.325,194.2)"
font-family="Helvetica" font-size="11" font-weight="400" font-style="normal" 
>
<text fill="#212121" fill-opacity="1" stroke="none" xml:space="preserve" x="0" y="0" font-family="Helvetica" font-size="11" font-weight="400" font-style="normal" 
 >2.5</text>
</g>

<g fill="#212121" fill-opacity="1" stroke="#212121" stroke-opacity="1" stroke-width="1" stroke-linecap="square" stroke-linejoin="bevel" transform="matrix(0.75,0,0,0.75,260.95,194.2)"
font-family="Helvetica" font-size="11" font-weight="400" font-style="normal" 
>
<text fill="#212121" fill-opacity="1" stroke="none" xml:space="preserve" x="0" y="0" font-family="Helvetica" font-size="11" font-weight="400" font-style="normal" 
 >3</text>
</g>

<g fill="#212121" fill-opacity="1" stroke="#212121" stroke-opacity="1" stroke-width="1" stroke-linecap="square" stroke-linejoin="bevel" transform="matrix(0,-0.75,0.75,0,15.75,173.625)"
font-family="Helvetica" font-size="12" font-weight="400" font-style="normal" 
>
<text fill="#212121" fill-opacity="1" stroke="none" xml:space="preserve" x="0" y="0" font-family="Helvetica" font-size="12" font-weight="400" font-style="normal" 
 >Input force (N)</text>
</g>

<g fill="#212121" fill-opacity="1" stroke="#212121" stroke-opacity="1" stroke-width="0.666667" stroke-linecap="square" stroke-linejoin="round" transform="matrix(0.75,0,0,0.75,-8.3,-10.5)"
font-family="Helvetica" font-size="12" font-weight="400" font-style="normal" 
>
<polyline fill="none" vector-effect="none" points="56,260 56,154 " />
<polyline fill="none" vector-effect="none" points="362,260 362,154 " />
<polyline fill="none" vector-effect="none" points="56,260 59.06,260 " />
<polyline fill="none" vector-effect="none" points="358.94,260 362,260 " />
<polyline fill="none" vector-effect="none" points="56,233.5 59.06,233.5 " />
<polyline fill="none" vector-effect="none" points="358.94,233.5 362,233.5 " />
<polyline fill="none" vector-effect="none" points="56,207 59.06,207 " />
<polyline fill="none" vector-effect="none" points="358.94,207 362,207 " />
<polyline fill="none" vector-effect="none" points="56,180.5 59.06,180.5 " />
<polyline fill="none" vector-effect="none" points="358.94,180.5 362,180.5 " />
<polyline fill="none" vector-effect="none" points="56,154 59.06,154 " />
<polyline fill="none" vector-effect="none" points="358.94,154 362,154 " />
</g>

<g fill="#212121" fill-opacity="1" stroke="#212121" stroke-opacity="1" stroke-width="1" stroke-linecap="square" stroke-linejoin="bevel" transform="matrix(0.75,0,0,0.75,27,187.125)"
font-family="Helvetica" font-size="11" font-weight="400" font-style="normal" 
>
<text fill="#212121" fill-opacity="1" stroke="none" xml:space="preserve" x="0" y="0" font-family="Helvetica" font-size="11" font-weight="400" font-style="normal" 
 >0</text>
</g>

<g fill="#212121" fill-opacity="1" stroke="#212121" stroke-opacity="1" stroke-width="1" stroke-linecap="square" stroke-linejoin="bevel" transform="matrix(0.75,0,0,0.75,20.25,167.25)"
font-family="Helvetica" font-size="11" font-weight="400" font-style="normal" 
>
<text fill="#212121" fill-opacity="1" stroke="none" xml:space="preserve" x="0" y="0" font-family="Helvetica" font-size="11" font-weight="400" font-style="normal" 
 >0.5</text>
</g>

<g fill="#212121" fill-opacity="1" stroke="#212121" stroke-opacity="1" stroke-width="1" stroke-linecap="square" stroke-linejoin="bevel" transform="matrix(0.75,0,0,0.75,27,147.375)"
font-family="Helvetica" font-size="11" font-weight="400" font-style="normal" 
>
<text fill="#212121" fill-opacity="1" stroke="none" xml:space="preserve" x="0" y="0" font-family="Helvetica" font-size="11" font-weight="400" font-style="normal" 
 >1</text>
</g>

<g fill="#212121" fill-opacity="1" stroke="#212121" stroke-opacity="1" stroke-width="1" stroke-linecap="square" stroke-linejoin="bevel" transform="matrix(0.75,0,0,0.75,20.25,127.5)"
font-family="Helvetica" font-size="11" font-weight="400" font-style="normal" 
>
<text fill="#212121" fill-opacity="1" stroke="none" xml:space="preserve" x="0" y="0" font-family="Helvetica" font-size="11" font-weight="400" font-style="normal" 
 >1.5</text>
</g>

<g fill="#212121" fill-opacity="1" stroke="#212121" stroke-opacity="1" stroke-width="1" stroke-linecap="square" stroke-linejoin="bevel" transform="matrix(0.75,0,0,0.75,27,107.625)"
font-family="Helvetica" font-size="11" font-weight="400" font-style="normal" 
>
<text fill="#212121" fill-opacity="1" stroke="none" xml:space="preserve" x="0" y="0" font-family="Helvetica" font-size="11" font-weight="400" font-style="normal" 
 >2</text>
</g>

<g fill="none" stroke="#1171be" stroke-opacity="1" stroke-width="0.666667" stroke-linecap="butt" stroke-linejoin="round" transform="matrix(0.75,0,0,0.75,-8.3,-10.5)"
font-family="Helvetica" font-size="11" font-weight="400" font-style="normal" 
>
<polyline fill="none" vector-effect="none" points="56,172.701 56.0001,172.701 56.0007,172.699 56.0039,172.689 56.0194,172.641 56.0972,172.409 56.421,171.544 57.0346,170.137 57.8135,169.102 58.7535,168.808 59.8038,169.104 60.9812,169.758 62.2692,170.607 63.6345,171.541 65.0388,172.423 66.4647,173.137 68.0083,173.869 69.6199,174.629 71.2273,175.386 72.8534,176.131 74.5717,176.894 76.4001,177.691 78.3057,178.514 80.2279,179.339 82.1573,180.155 84.1196,180.971 86.1302,181.796 88.1839,182.628 90.2725,183.467 92.3964,184.311 94.5609,185.158 96.7653,186.011 99.0159,186.876 101.31,187.754 103.645,188.642 106.022,189.542 108.445,190.456 110.913,191.384 113.429,192.326 115.992,193.283 118.603,194.255 121.264,195.243 123.977,196.248 126.742,197.27 129.562,198.309 132.437,199.348 135.382,200.392 138.417,201.469 141.458,202.552 144.454,203.621 147.438,204.688 150.478,205.776 153.593,206.893 156.743,208.023 159.881,209.15 163.011,210.274 166.181,211.418 169.422,212.679 172.365,213.815 175.416,214.976 179.52,216.52 182.197,217.49 184.873,218.462 187.625,219.448 190.406,220.431 193.119,221.375 195.752,222.277 198.362,223.16 200.987,224.036 203.614,224.896 206.217,225.734 208.794,226.551 211.364,227.355 213.937,228.148 216.508,228.929 219.07,229.694 221.622,230.445 224.17,231.184 226.715,231.909 229.258,232.622 231.797,233.321 234.332,234.008 236.865,234.682 239.395,235.343 241.925,235.992 244.452,236.628 246.979,237.228 249.521,237.819 252.051,238.397 254.582,238.969 257.131,239.537 259.697,240.101 262.271,240.658 264.846,241.207 267.426,241.749 270.013,242.284 272.609,242.812 275.209,243.333 277.812,243.845 280.419,244.35 283.03,244.846 285.646,245.335 288.266,245.816 290.889,246.289 293.515,246.753 296.144,247.21 298.777,247.659 301.413,248.099 304.053,248.532 306.695,248.993 309.313,249.443 311.952,249.883 314.591,250.307 317.2,250.711 319.783,251.097 322.362,251.47 324.945,251.829 327.528,252.176 330.105,252.509 332.678,252.829 335.252,253.138 337.829,253.435 340.41,253.722 342.993,253.997 345.579,254.262 348.17,254.517 350.766,254.763 353.369,254.999 355.978,255.226 358.593,255.445 361.216,255.655 362,255.684 " />
</g>
</g>
</svg>
