<?xml version="1.0" encoding="UTF-8" standalone="no"?>
<svg width="94.1917mm" height="73.025mm"
 viewBox="0 0 267 207"
 xmlns="http://www.w3.org/2000/svg" xmlns:xlink="http://www.w3.org/1999/xlink"  version="1.2" baseProfile="tiny">
<title>Qt SVG Document</title>
<desc>MATLAB, The MathWorks, Inc. Version 25.2.0.3123386 R2025b Update 3</desc>
<defs>
</defs>
<g fill="none" stroke="black" stroke-width="1" fill-rule="evenodd" stroke-linecap="square" stroke-linejoin="bevel" >

<g fill="#ffffff" fill-opacity="1" stroke="none" transform="matrix(0.75,0,0,0.75,-8.3,-11.625)"
font-family="MS Shell Dlg 2" font-size="8.25" font-weight="400" font-style="normal" 
>
<path vector-effect="none" fill-rule="evenodd" d="M10,14 L367,14 L367,291 L10,291 L10,14"/>
</g>

<g fill="#ffffff" fill-opacity="1" stroke="none" transform="matrix(7.5e-05,0,0,7.5e-05,-8.3,-11.625)"
font-family="MS Shell Dlg 2" font-size="8.25" font-weight="400" font-style="normal" 
>
<path vector-effect="none" fill-rule="evenodd" d="M530000,220000 L530000,1.31e+06 L3.62e+06,1.31e+06 L3.62e+06,220000 L530000,220000"/>
</g>

<g fill="#212121" fill-opacity="0.14902" stroke="#212121" stroke-opacity="0.14902" stroke-width="0.666667" stroke-linecap="butt" stroke-linejoin="round" transform="matrix(0.75,0,0,0.75,-8.3,-11.625)"
font-family="MS Shell Dlg 2" font-size="8.25" font-weight="400" font-style="normal" 
>
<polyline fill="none" vector-effect="none" points="53,22 53,131 " />
<polyline fill="none" vector-effect="none" points="104.5,22 104.5,131 " />
<polyline fill="none" vector-effect="none" points="156,22 156,131 " />
<polyline fill="none" vector-effect="none" points="207.5,22 207.5,131 " />
<polyline fill="none" vector-effect="none" points="259,22 259,131 " />
<polyline fill="none" vector-effect="none" points="310.5,22 310.5,131 " />
<polyline fill="none" vector-effect="none" points="362,22 362,131 " />
<polyline fill="none" vector-effect="none" points="53,115.533 362,115.533 " />
<polyline fill="none" vector-effect="none" points="53,68.7941 362,68.7941 " />
<polyline fill="none" vector-effect="none" points="53,22.0553 362,22.0553 " />
</g>

<g fill="#212121" fill-opacity="1" stroke="#212121" stroke-opacity="1" stroke-width="0.666667" stroke-linecap="square" stroke-linejoin="round" transform="matrix(0.75,0,0,0.75,-8.3,-11.625)"
font-family="MS Shell Dlg 2" font-size="8.25" font-weight="400" font-style="normal" 
>
<polyline fill="none" vector-effect="none" points="53,131 362,131 " />
<polyline fill="none" vector-effect="none" points="53,22 362,22 " />
<polyline fill="none" vector-effect="none" points="53,131 53,127.91 " />
<polyline fill="none" vector-effect="none" points="53,25.09 53,22 " />
<polyline fill="none" vector-effect="none" points="104.5,131 104.5,127.91 " />
<polyline fill="none" vector-effect="none" points="104.5,25.09 104.5,22 " />
<polyline fill="none" vector-effect="none" points="156,131 156,127.91 " />
<polyline fill="none" vector-effect="none" points="156,25.09 156,22 " />
<polyline fill="none" vector-effect="none" points="207.5,131 207.5,127.91 " />
<polyline fill="none" vector-effect="none" points="207.5,25.09 207.5,22 " />
<polyline fill="none" vector-effect="none" points="259,131 259,127.91 " />
<polyline fill="none" vector-effect="none" points="259,25.09 259,22 " />
<polyline fill="none" vector-effect="none" points="310.5,131 310.5,127.91 " />
<polyline fill="none" vector-effect="none" points="310.5,25.09 310.5,22 " />
<polyline fill="none" vector-effect="none" points="362,131 362,127.91 " />
<polyline fill="none" vector-effect="none" points="362,25.09 362,22 " />
</g>

<g fill="#212121" fill-opacity="1" stroke="#212121" stroke-opacity="1" stroke-width="1" stroke-linecap="square" stroke-linejoin="bevel" transform="matrix(0.75,0,0,0.75,29.2,96.325)"
font-family="Helvetica" font-size="11" font-weight="400" font-style="normal" 
>
<text fill="#212121" fill-opacity="1" stroke="none" xml:space="preserve" x="0" y="0" font-family="Helvetica" font-size="11" font-weight="400" font-style="normal" 
 >0</text>
</g>

<g fill="#212121" fill-opacity="1" stroke="#212121" stroke-opacity="1" stroke-width="1" stroke-linecap="square" stroke-linejoin="bevel" transform="matrix(0.75,0,0,0.75,64.45,96.325)"
font-family="Helvetica" font-size="11" font-weight="400" font-style="normal" 
>
<text fill="#212121" fill-opacity="1" stroke="none" xml:space="preserve" x="0" y="0" font-family="Helvetica" font-size="11" font-weight="400" font-style="normal" 
 >0.5</text>
</g>

<g fill="#212121" fill-opacity="1" stroke="#212121" stroke-opacity="1" stroke-width="1" stroke-linecap="square" stroke-linejoin="bevel" transform="matrix(0.75,0,0,0.75,106.45,96.325)"
font-family="Helvetica" font-size="11" font-weight="400" font-style="normal" 
>
<text fill="#212121" fill-opacity="1" stroke="none" xml:space="preserve" x="0" y="0" font-family="Helvetica" font-size="11" font-weight="400" font-style="normal" 
 >1</text>
</g>

<g fill="#212121" fill-opacity="1" stroke="#212121" stroke-opacity="1" stroke-width="1" stroke-linecap="square" stroke-linejoin="bevel" transform="matrix(0.75,0,0,0.75,141.7,96.325)"
font-family="Helvetica" font-size="11" font-weight="400" font-style="normal" 
>
<text fill="#212121" fill-opacity="1" stroke="none" xml:space="preserve" x="0" y="0" font-family="Helvetica" font-size="11" font-weight="400" font-style="normal" 
 >1.5</text>
</g>

<g fill="#212121" fill-opacity="1" stroke="#212121" stroke-opacity="1" stroke-width="1" stroke-linecap="square" stroke-linejoin="bevel" transform="matrix(0.75,0,0,0.75,183.7,96.325)"
font-family="Helvetica" font-size="11" font-weight="400" font-style="normal" 
>
<text fill="#212121" fill-opacity="1" stroke="none" xml:space="preserve" x="0" y="0" font-family="Helvetica" font-size="11" font-weight="400" font-style="normal" 
 >2</text>
</g>

<g fill="#212121" fill-opacity="1" stroke="#212121" stroke-opacity="1" stroke-width="1" stroke-linecap="square" stroke-linejoin="bevel" transform="matrix(0.75,0,0,0.75,218.95,96.325)"
font-family="Helvetica" font-size="11" font-weight="400" font-style="normal" 
>
<text fill="#212121" fill-opacity="1" stroke="none" xml:space="preserve" x="0" y="0" font-family="Helvetica" font-size="11" font-weight="400" font-style="normal" 
 >2.5</text>
</g>

<g fill="#212121" fill-opacity="1" stroke="#212121" stroke-opacity="1" stroke-width="1" stroke-linecap="square" stroke-linejoin="bevel" transform="matrix(0.75,0,0,0.75,260.95,96.325)"
font-family="Helvetica" font-size="11" font-weight="400" font-style="normal" 
>
<text fill="#212121" fill-opacity="1" stroke="none" xml:space="preserve" x="0" y="0" font-family="Helvetica" font-size="11" font-weight="400" font-style="normal" 
 >3</text>
</g>

<g fill="#212121" fill-opacity="1" stroke="#212121" stroke-opacity="1" stroke-width="1" stroke-linecap="square" stroke-linejoin="bevel" transform="matrix(0,-0.75,0.75,0,8.25,90)"
font-family="Helvetica" font-size="12" font-weight="400" font-style="normal" 
>
<text fill="#212121" fill-opacity="1" stroke="none" xml:space="preserve" x="0" y="0" font-family="Helvetica" font-size="12" font-weight="400" font-style="normal" 
 >Angular position (rad)</text>
</g>

<g fill="#212121" fill-opacity="1" stroke="#212121" stroke-opacity="1" stroke-width="0.666667" stroke-linecap="square" stroke-linejoin="round" transform="matrix(0.75,0,0,0.75,-8.3,-11.625)"
font-family="Helvetica" font-size="12" font-weight="400" font-style="normal" 
>
<polyline fill="none" vector-effect="none" points="53,131 53,22 " />
<polyline fill="none" vector-effect="none" points="362,131 362,22 " />
<polyline fill="none" vector-effect="none" points="53,115.533 56.09,115.533 " />
<polyline fill="none" vector-effect="none" points="358.91,115.533 362,115.533 " />
<polyline fill="none" vector-effect="none" points="53,68.7941 56.09,68.7941 " />
<polyline fill="none" vector-effect="none" points="358.91,68.7941 362,68.7941 " />
<polyline fill="none" vector-effect="none" points="53,22.0553 56.09,22.0553 " />
<polyline fill="none" vector-effect="none" points="358.91,22.0553 362,22.0553 " />
</g>

<g fill="#212121" fill-opacity="1" stroke="#212121" stroke-opacity="1" stroke-width="1" stroke-linecap="square" stroke-linejoin="bevel" transform="matrix(0.75,0,0,0.75,24.75,77.6497)"
font-family="Helvetica" font-size="11" font-weight="400" font-style="normal" 
>
<text fill="#212121" fill-opacity="1" stroke="none" xml:space="preserve" x="0" y="0" font-family="Helvetica" font-size="11" font-weight="400" font-style="normal" 
 >0</text>
</g>

<g fill="#212121" fill-opacity="1" stroke="#212121" stroke-opacity="1" stroke-width="1" stroke-linecap="square" stroke-linejoin="bevel" transform="matrix(0.75,0,0,0.75,13.5,42.5956)"
font-family="Helvetica" font-size="11" font-weight="400" font-style="normal" 
>
<text fill="#212121" fill-opacity="1" stroke="none" xml:space="preserve" x="0" y="0" font-family="Helvetica" font-size="11" font-weight="400" font-style="normal" 
 >0.05</text>
</g>

<g fill="#212121" fill-opacity="1" stroke="#212121" stroke-opacity="1" stroke-width="1" stroke-linecap="square" stroke-linejoin="bevel" transform="matrix(0.75,0,0,0.75,18,7.54152)"
font-family="Helvetica" font-size="11" font-weight="400" font-style="normal" 
>
<text fill="#212121" fill-opacity="1" stroke="none" xml:space="preserve" x="0" y="0" font-family="Helvetica" font-size="11" font-weight="400" font-style="normal" 
 >0.1</text>
</g>

<g fill="none" stroke="#1171be" stroke-opacity="1" stroke-width="0.666667" stroke-linecap="butt" stroke-linejoin="round" transform="matrix(0.75,0,0,0.75,-8.3,-11.625)"
font-family="Helvetica" font-size="11" font-weight="400" font-style="normal" 
>
<polyline fill="none" vector-effect="none" points="53,22.0553 53.0001,22.0553 53.0004,22.0553 53.0022,22.0553 53.011,22.0553 53.055,22.055 53.2749,22.0499 53.7779,22.0252 54.3682,22 55.0269,22.0052 55.7256,22.0689 56.6167,22.2532 57.7506,22.6651 59.0394,23.3738 60.338,24.3364 61.6092,25.5055 62.9132,26.9229 64.2667,28.6114 65.6498,30.5488 67.0464,32.7054 68.4528,35.0636 69.879,37.6287 71.34,40.4202 72.8371,43.4349 74.3653,46.6543 75.9209,50.0587 77.5262,53.6855 79.2002,57.5665 80.9463,61.6982 82.79,66.1256 84.7287,70.8227 86.7687,75.7733 89.2004,81.6319 91.4192,86.8874 93.638,92.0122 95.6016,96.4034 97.3062,100.082 98.9248,103.443 100.571,106.716 102.202,109.8 103.792,112.646 105.356,115.28 106.896,117.703 108.384,119.873 109.901,121.896 111.409,123.705 112.888,125.272 114.345,126.607 115.681,127.65 117.017,128.529 118.288,129.221 119.573,129.792 120.915,130.257 122.297,130.609 123.693,130.846 125.101,130.973 126.533,131 127.998,130.931 129.51,130.767 131.191,130.485 132.953,130.087 134.692,129.603 136.427,129.042 138.213,128.392 140.073,127.649 141.998,126.824 143.984,125.924 146.054,124.949 148.242,123.891 150.603,122.738 153.231,121.459 156.218,120.043 158.481,119.014 160.744,118.038 162.903,117.165 164.958,116.391 166.967,115.695 168.965,115.065 170.88,114.524 172.851,114.036 174.821,113.624 176.732,113.3 178.794,113.03 180.552,112.861 182.198,112.747 183.95,112.669 185.845,112.627 187.79,112.625 189.735,112.659 191.906,112.733 194.242,112.85 196.565,112.999 198.865,113.173 201.24,113.373 203.754,113.602 206.407,113.856 209.203,114.13 212.215,114.423 215.686,114.749 219.025,115.041 221.506,115.24 223.986,115.422 226.601,115.594 229.272,115.745 231.93,115.87 234.434,115.962 236.827,116.026 239.031,116.066 241.264,116.091 243.663,116.104 246.188,116.103 248.751,116.091 251.577,116.066 254.54,116.029 257.455,115.984 260.322,115.934 263.274,115.879 266.416,115.818 269.733,115.754 273.129,115.691 276.541,115.632 280.007,115.577 283.656,115.528 287.621,115.484 291.413,115.453 294.863,115.435 298.572,115.425 301.716,115.423 304.861,115.424 307.702,115.428 310.587,115.435 313.814,115.444 317.307,115.455 320.688,115.467 323.76,115.479 326.714,115.49 329.892,115.501 333.452,115.513 337.124,115.524 340.468,115.532 343.433,115.539 346.378,115.544 349.74,115.549 353.613,115.552 357.492,115.553 360.68,115.553 362,115.553 " />
</g>

<g fill="#ffffff" fill-opacity="1" stroke="none" transform="matrix(7.5e-05,0,0,7.5e-05,-8.3,-11.625)"
font-family="Helvetica" font-size="11" font-weight="400" font-style="normal" 
>
<path vector-effect="none" fill-rule="evenodd" d="M530000,1.52e+06 L530000,2.6e+06 L3.62e+06,2.6e+06 L3.62e+06,1.52e+06 L530000,1.52e+06"/>
</g>

<g fill="#212121" fill-opacity="0.14902" stroke="#212121" stroke-opacity="0.14902" stroke-width="0.666667" stroke-linecap="butt" stroke-linejoin="round" transform="matrix(0.75,0,0,0.75,-8.3,-11.625)"
font-family="Helvetica" font-size="11" font-weight="400" font-style="normal" 
>
<polyline fill="none" vector-effect="none" points="53,152 53,260 " />
<polyline fill="none" vector-effect="none" points="104.5,152 104.5,260 " />
<polyline fill="none" vector-effect="none" points="156,152 156,260 " />
<polyline fill="none" vector-effect="none" points="207.5,152 207.5,260 " />
<polyline fill="none" vector-effect="none" points="259,152 259,260 " />
<polyline fill="none" vector-effect="none" points="310.5,152 310.5,260 " />
<polyline fill="none" vector-effect="none" points="362,152 362,260 " />
<polyline fill="none" vector-effect="none" points="53,260 362,260 " />
<polyline fill="none" vector-effect="none" points="53,238.252 362,238.252 " />
<polyline fill="none" vector-effect="none" points="53,216.504 362,216.504 " />
<polyline fill="none" vector-effect="none" points="53,194.756 362,194.756 " />
<polyline fill="none" vector-effect="none" points="53,173.008 362,173.008 " />
</g>

<g fill="#212121" fill-opacity="1" stroke="#212121" stroke-opacity="1" stroke-width="1" stroke-linecap="square" stroke-linejoin="bevel" transform="matrix(0.75,0,0,0.75,125.95,203.075)"
font-family="Helvetica" font-size="12" font-weight="400" font-style="normal" 
>
<text fill="#212121" fill-opacity="1" stroke="none" xml:space="preserve" x="0" y="0" font-family="Helvetica" font-size="12" font-weight="400" font-style="normal" 
 >Time (sec)</text>
</g>

<g fill="#212121" fill-opacity="1" stroke="#212121" stroke-opacity="1" stroke-width="0.666667" stroke-linecap="square" stroke-linejoin="round" transform="matrix(0.75,0,0,0.75,-8.3,-11.625)"
font-family="Helvetica" font-size="12" font-weight="400" font-style="normal" 
>
<polyline fill="none" vector-effect="none" points="53,260 362,260 " />
<polyline fill="none" vector-effect="none" points="53,152 362,152 " />
<polyline fill="none" vector-effect="none" points="53,260 53,256.91 " />
<polyline fill="none" vector-effect="none" points="53,155.09 53,152 " />
<polyline fill="none" vector-effect="none" points="104.5,260 104.5,256.91 " />
<polyline fill="none" vector-effect="none" points="104.5,155.09 104.5,152 " />
<polyline fill="none" vector-effect="none" points="156,260 156,256.91 " />
<polyline fill="none" vector-effect="none" points="156,155.09 156,152 " />
<polyline fill="none" vector-effect="none" points="207.5,260 207.5,256.91 " />
<polyline fill="none" vector-effect="none" points="207.5,155.09 207.5,152 " />
<polyline fill="none" vector-effect="none" points="259,260 259,256.91 " />
<polyline fill="none" vector-effect="none" points="259,155.09 259,152 " />
<polyline fill="none" vector-effect="none" points="310.5,260 310.5,256.91 " />
<polyline fill="none" vector-effect="none" points="310.5,155.09 310.5,152 " />
<polyline fill="none" vector-effect="none" points="362,260 362,256.91 " />
<polyline fill="none" vector-effect="none" points="362,155.09 362,152 " />
</g>

<g fill="#212121" fill-opacity="1" stroke="#212121" stroke-opacity="1" stroke-width="1" stroke-linecap="square" stroke-linejoin="bevel" transform="matrix(0.75,0,0,0.75,29.2,193.075)"
font-family="Helvetica" font-size="11" font-weight="400" font-style="normal" 
>
<text fill="#212121" fill-opacity="1" stroke="none" xml:space="preserve" x="0" y="0" font-family="Helvetica" font-size="11" font-weight="400" font-style="normal" 
 >0</text>
</g>

<g fill="#212121" fill-opacity="1" stroke="#212121" stroke-opacity="1" stroke-width="1" stroke-linecap="square" stroke-linejoin="bevel" transform="matrix(0.75,0,0,0.75,64.45,193.075)"
font-family="Helvetica" font-size="11" font-weight="400" font-style="normal" 
>
<text fill="#212121" fill-opacity="1" stroke="none" xml:space="preserve" x="0" y="0" font-family="Helvetica" font-size="11" font-weight="400" font-style="normal" 
 >0.5</text>
</g>

<g fill="#212121" fill-opacity="1" stroke="#212121" stroke-opacity="1" stroke-width="1" stroke-linecap="square" stroke-linejoin="bevel" transform="matrix(0.75,0,0,0.75,106.45,193.075)"
font-family="Helvetica" font-size="11" font-weight="400" font-style="normal" 
>
<text fill="#212121" fill-opacity="1" stroke="none" xml:space="preserve" x="0" y="0" font-family="Helvetica" font-size="11" font-weight="400" font-style="normal" 
 >1</text>
</g>

<g fill="#212121" fill-opacity="1" stroke="#212121" stroke-opacity="1" stroke-width="1" stroke-linecap="square" stroke-linejoin="bevel" transform="matrix(0.75,0,0,0.75,141.7,193.075)"
font-family="Helvetica" font-size="11" font-weight="400" font-style="normal" 
>
<text fill="#212121" fill-opacity="1" stroke="none" xml:space="preserve" x="0" y="0" font-family="Helvetica" font-size="11" font-weight="400" font-style="normal" 
 >1.5</text>
</g>

<g fill="#212121" fill-opacity="1" stroke="#212121" stroke-opacity="1" stroke-width="1" stroke-linecap="square" stroke-linejoin="bevel" transform="matrix(0.75,0,0,0.75,183.7,193.075)"
font-family="Helvetica" font-size="11" font-weight="400" font-style="normal" 
>
<text fill="#212121" fill-opacity="1" stroke="none" xml:space="preserve" x="0" y="0" font-family="Helvetica" font-size="11" font-weight="400" font-style="normal" 
 >2</text>
</g>

<g fill="#212121" fill-opacity="1" stroke="#212121" stroke-opacity="1" stroke-width="1" stroke-linecap="square" stroke-linejoin="bevel" transform="matrix(0.75,0,0,0.75,218.95,193.075)"
font-family="Helvetica" font-size="11" font-weight="400" font-style="normal" 
>
<text fill="#212121" fill-opacity="1" stroke="none" xml:space="preserve" x="0" y="0" font-family="Helvetica" font-size="11" font-weight="400" font-style="normal" 
 >2.5</text>
</g>

<g fill="#212121" fill-opacity="1" stroke="#212121" stroke-opacity="1" stroke-width="1" stroke-linecap="square" stroke-linejoin="bevel" transform="matrix(0.75,0,0,0.75,260.95,193.075)"
font-family="Helvetica" font-size="11" font-weight="400" font-style="normal" 
>
<text fill="#212121" fill-opacity="1" stroke="none" xml:space="preserve" x="0" y="0" font-family="Helvetica" font-size="11" font-weight="400" font-style="normal" 
 >3</text>
</g>

<g fill="#212121" fill-opacity="1" stroke="#212121" stroke-opacity="1" stroke-width="1" stroke-linecap="square" stroke-linejoin="bevel" transform="matrix(0,-0.75,0.75,0,17.25,171.75)"
font-family="Helvetica" font-size="12" font-weight="400" font-style="normal" 
>
<text fill="#212121" fill-opacity="1" stroke="none" xml:space="preserve" x="0" y="0" font-family="Helvetica" font-size="12" font-weight="400" font-style="normal" 
 >Input force (N)</text>
</g>

<g fill="#212121" fill-opacity="1" stroke="#212121" stroke-opacity="1" stroke-width="0.666667" stroke-linecap="square" stroke-linejoin="round" transform="matrix(0.75,0,0,0.75,-8.3,-11.625)"
font-family="Helvetica" font-size="12" font-weight="400" font-style="normal" 
>
<polyline fill="none" vector-effect="none" points="53,260 53,152 " />
<polyline fill="none" vector-effect="none" points="362,260 362,152 " />
<polyline fill="none" vector-effect="none" points="53,260 56.09,260 " />
<polyline fill="none" vector-effect="none" points="358.91,260 362,260 " />
<polyline fill="none" vector-effect="none" points="53,238.252 56.09,238.252 " />
<polyline fill="none" vector-effect="none" points="358.91,238.252 362,238.252 " />
<polyline fill="none" vector-effect="none" points="53,216.504 56.09,216.504 " />
<polyline fill="none" vector-effect="none" points="358.91,216.504 362,216.504 " />
<polyline fill="none" vector-effect="none" points="53,194.756 56.09,194.756 " />
<polyline fill="none" vector-effect="none" points="358.91,194.756 362,194.756 " />
<polyline fill="none" vector-effect="none" points="53,173.008 56.09,173.008 " />
<polyline fill="none" vector-effect="none" points="358.91,173.008 362,173.008 " />
</g>

<g fill="#212121" fill-opacity="1" stroke="#212121" stroke-opacity="1" stroke-width="1" stroke-linecap="square" stroke-linejoin="bevel" transform="matrix(0.75,0,0,0.75,21.75,186)"
font-family="Helvetica" font-size="11" font-weight="400" font-style="normal" 
>
<text fill="#212121" fill-opacity="1" stroke="none" xml:space="preserve" x="0" y="0" font-family="Helvetica" font-size="11" font-weight="400" font-style="normal" 
 >-2</text>
</g>

<g fill="#212121" fill-opacity="1" stroke="#212121" stroke-opacity="1" stroke-width="1" stroke-linecap="square" stroke-linejoin="bevel" transform="matrix(0.75,0,0,0.75,21.75,169.689)"
font-family="Helvetica" font-size="11" font-weight="400" font-style="normal" 
>
<text fill="#212121" fill-opacity="1" stroke="none" xml:space="preserve" x="0" y="0" font-family="Helvetica" font-size="11" font-weight="400" font-style="normal" 
 >-1</text>
</g>

<g fill="#212121" fill-opacity="1" stroke="#212121" stroke-opacity="1" stroke-width="1" stroke-linecap="square" stroke-linejoin="bevel" transform="matrix(0.75,0,0,0.75,24.75,153.378)"
font-family="Helvetica" font-size="11" font-weight="400" font-style="normal" 
>
<text fill="#212121" fill-opacity="1" stroke="none" xml:space="preserve" x="0" y="0" font-family="Helvetica" font-size="11" font-weight="400" font-style="normal" 
 >0</text>
</g>

<g fill="#212121" fill-opacity="1" stroke="#212121" stroke-opacity="1" stroke-width="1" stroke-linecap="square" stroke-linejoin="bevel" transform="matrix(0.75,0,0,0.75,24.75,137.067)"
font-family="Helvetica" font-size="11" font-weight="400" font-style="normal" 
>
<text fill="#212121" fill-opacity="1" stroke="none" xml:space="preserve" x="0" y="0" font-family="Helvetica" font-size="11" font-weight="400" font-style="normal" 
 >1</text>
</g>

<g fill="#212121" fill-opacity="1" stroke="#212121" stroke-opacity="1" stroke-width="1" stroke-linecap="square" stroke-linejoin="bevel" transform="matrix(0.75,0,0,0.75,24.75,120.756)"
font-family="Helvetica" font-size="11" font-weight="400" font-style="normal" 
>
<text fill="#212121" fill-opacity="1" stroke="none" xml:space="preserve" x="0" y="0" font-family="Helvetica" font-size="11" font-weight="400" font-style="normal" 
 >2</text>
</g>

<g fill="none" stroke="#1171be" stroke-opacity="1" stroke-width="0.666667" stroke-linecap="butt" stroke-linejoin="round" transform="matrix(0.75,0,0,0.75,-8.3,-11.625)"
font-family="Helvetica" font-size="11" font-weight="400" font-style="normal" 
>
<polyline fill="none" vector-effect="none" points="53,152.547 53.0001,152.547 53.0004,152.546 53.0022,152.544 53.011,152.535 53.055,152.488 53.2749,152.29 53.7779,152 54.3682,152.054 55.0269,152.592 55.7256,153.409 56.6167,154.59 57.7506,156.272 59.0394,158.389 60.338,160.656 61.6092,162.811 62.9132,165.002 64.2667,167.27 65.6498,169.605 67.0464,172.024 68.4528,174.467 69.879,176.9 71.34,179.381 72.8371,181.979 74.3653,184.711 75.9209,187.476 77.5262,190.282 79.2002,193.166 80.9463,196.067 82.79,199.189 84.7287,202.556 86.7687,206 89.2004,209.906 91.4192,213.257 93.638,216.712 95.6016,219.562 97.3062,221.868 98.9248,223.858 100.571,225.734 102.202,227.542 103.792,229.234 105.356,230.733 106.896,232.915 108.384,234.815 109.901,236.472 111.409,237.834 112.888,238.884 114.345,238.602 115.681,237.481 117.017,236.446 118.288,235.465 119.573,234.529 120.915,233.582 122.297,232.619 123.693,231.644 125.101,230.676 126.533,229.716 127.998,228.965 129.51,228.265 131.191,227.486 132.953,226.634 134.692,225.775 136.427,224.918 138.213,224.043 140.073,223.14 141.998,222.217 143.984,221.286 146.054,220.346 148.242,219.392 150.603,218.408 153.231,217.309 156.218,216.173 158.481,215.443 160.744,214.781 162.903,214.241 164.958,213.805 166.967,213.449 168.965,212.934 170.88,212.479 172.851,212.124 174.821,211.903 176.732,212.053 178.794,212.372 180.552,212.716 182.198,213.006 183.95,213.284 185.845,213.576 187.79,213.877 189.735,214.082 191.906,214.305 194.242,214.558 196.565,214.821 198.865,215.082 201.24,215.344 203.754,215.613 206.407,215.883 209.203,216.148 212.215,216.407 215.686,216.668 219.025,216.873 221.506,216.987 223.986,217.087 226.601,217.2 229.272,217.333 231.93,217.417 234.434,217.423 236.827,217.338 239.031,217.253 241.264,217.175 243.663,217.097 246.188,217.018 248.751,216.963 251.577,216.902 254.54,216.835 257.455,216.768 260.322,216.704 263.274,216.643 266.416,216.582 269.733,216.524 273.129,216.474 276.541,216.432 280.007,216.398 283.656,216.37 287.621,216.332 291.413,216.316 294.863,216.339 298.572,216.367 301.716,216.392 304.861,216.41 307.702,216.423 310.587,216.436 313.814,216.449 317.307,216.464 320.688,216.478 323.76,216.49 326.714,216.499 329.892,216.508 333.452,216.517 337.124,216.523 340.468,216.528 343.433,216.534 346.378,216.537 349.74,216.538 353.613,216.532 357.492,216.526 360.68,216.522 362,216.522 " />
</g>
</g>
</svg>
