<?xml version="1.0" encoding="UTF-8" standalone="no"?>
<svg width="94.1917mm" height="73.025mm"
 viewBox="0 0 267 207"
 xmlns="http://www.w3.org/2000/svg" xmlns:xlink="http://www.w3.org/1999/xlink"  version="1.2" baseProfile="tiny">
<title>Qt SVG Document</title>
<desc>MATLAB, The MathWorks, Inc. Version 25.2.0.3123386 R2025b Update 3</desc>
<defs>
</defs>
<g fill="none" stroke="black" stroke-width="1" fill-rule="evenodd" stroke-linecap="square" stroke-linejoin="bevel" >

<g fill="#ffffff" fill-opacity="1" stroke="none" transform="matrix(0.75,0,0,0.75,-8.3,-11.625)"
font-family="MS Shell Dlg 2" font-size="8.25" font-weight="400" font-style="normal" 
>
<path vector-effect="none" fill-rule="evenodd" d="M10,14 L367,14 L367,291 L10,291 L10,14"/>
</g>

<g fill="#ffffff" fill-opacity="1" stroke="none" transform="matrix(7.5e-05,0,0,7.5e-05,-8.3,-11.625)"
font-family="MS Shell Dlg 2" font-size="8.25" font-weight="400" font-style="normal" 
>
<path vector-effect="none" fill-rule="evenodd" d="M560000,220000 L560000,1.31e+06 L3.62e+06,1.31e+06 L3.62e+06,220000 L560000,220000"/>
</g>

<g fill="#212121" fill-opacity="0.14902" stroke="#212121" stroke-opacity="0.14902" stroke-width="0.666667" stroke-linecap="butt" stroke-linejoin="round" transform="matrix(0.75,0,0,0.75,-8.3,-11.625)"
font-family="MS Shell Dlg 2" font-size="8.25" font-weight="400" font-style="normal" 
>
<polyline fill="none" vector-effect="none" points="56,22 56,131 " />
<polyline fill="none" vector-effect="none" points="107,22 107,131 " />
<polyline fill="none" vector-effect="none" points="158,22 158,131 " />
<polyline fill="none" vector-effect="none" points="209,22 209,131 " />
<polyline fill="none" vector-effect="none" points="260,22 260,131 " />
<polyline fill="none" vector-effect="none" points="311,22 311,131 " />
<polyline fill="none" vector-effect="none" points="362,22 362,131 " />
<polyline fill="none" vector-effect="none" points="56,131 362,131 " />
<polyline fill="none" vector-effect="none" points="56,103.75 362,103.75 " />
<polyline fill="none" vector-effect="none" points="56,76.5 362,76.5 " />
<polyline fill="none" vector-effect="none" points="56,49.25 362,49.25 " />
<polyline fill="none" vector-effect="none" points="56,22 362,22 " />
</g>

<g fill="#212121" fill-opacity="1" stroke="#212121" stroke-opacity="1" stroke-width="0.666667" stroke-linecap="square" stroke-linejoin="round" transform="matrix(0.75,0,0,0.75,-8.3,-11.625)"
font-family="MS Shell Dlg 2" font-size="8.25" font-weight="400" font-style="normal" 
>
<polyline fill="none" vector-effect="none" points="56,131 362,131 " />
<polyline fill="none" vector-effect="none" points="56,22 362,22 " />
<polyline fill="none" vector-effect="none" points="56,131 56,127.94 " />
<polyline fill="none" vector-effect="none" points="56,25.06 56,22 " />
<polyline fill="none" vector-effect="none" points="107,131 107,127.94 " />
<polyline fill="none" vector-effect="none" points="107,25.06 107,22 " />
<polyline fill="none" vector-effect="none" points="158,131 158,127.94 " />
<polyline fill="none" vector-effect="none" points="158,25.06 158,22 " />
<polyline fill="none" vector-effect="none" points="209,131 209,127.94 " />
<polyline fill="none" vector-effect="none" points="209,25.06 209,22 " />
<polyline fill="none" vector-effect="none" points="260,131 260,127.94 " />
<polyline fill="none" vector-effect="none" points="260,25.06 260,22 " />
<polyline fill="none" vector-effect="none" points="311,131 311,127.94 " />
<polyline fill="none" vector-effect="none" points="311,25.06 311,22 " />
<polyline fill="none" vector-effect="none" points="362,131 362,127.94 " />
<polyline fill="none" vector-effect="none" points="362,25.06 362,22 " />
</g>

<g fill="#212121" fill-opacity="1" stroke="#212121" stroke-opacity="1" stroke-width="1" stroke-linecap="square" stroke-linejoin="bevel" transform="matrix(0.75,0,0,0.75,31.45,96.325)"
font-family="Helvetica" font-size="11" font-weight="400" font-style="normal" 
>
<text fill="#212121" fill-opacity="1" stroke="none" xml:space="preserve" x="0" y="0" font-family="Helvetica" font-size="11" font-weight="400" font-style="normal" 
 >0</text>
</g>

<g fill="#212121" fill-opacity="1" stroke="#212121" stroke-opacity="1" stroke-width="1" stroke-linecap="square" stroke-linejoin="bevel" transform="matrix(0.75,0,0,0.75,66.325,96.325)"
font-family="Helvetica" font-size="11" font-weight="400" font-style="normal" 
>
<text fill="#212121" fill-opacity="1" stroke="none" xml:space="preserve" x="0" y="0" font-family="Helvetica" font-size="11" font-weight="400" font-style="normal" 
 >0.5</text>
</g>

<g fill="#212121" fill-opacity="1" stroke="#212121" stroke-opacity="1" stroke-width="1" stroke-linecap="square" stroke-linejoin="bevel" transform="matrix(0.75,0,0,0.75,107.95,96.325)"
font-family="Helvetica" font-size="11" font-weight="400" font-style="normal" 
>
<text fill="#212121" fill-opacity="1" stroke="none" xml:space="preserve" x="0" y="0" font-family="Helvetica" font-size="11" font-weight="400" font-style="normal" 
 >1</text>
</g>

<g fill="#212121" fill-opacity="1" stroke="#212121" stroke-opacity="1" stroke-width="1" stroke-linecap="square" stroke-linejoin="bevel" transform="matrix(0.75,0,0,0.75,142.825,96.325)"
font-family="Helvetica" font-size="11" font-weight="400" font-style="normal" 
>
<text fill="#212121" fill-opacity="1" stroke="none" xml:space="preserve" x="0" y="0" font-family="Helvetica" font-size="11" font-weight="400" font-style="normal" 
 >1.5</text>
</g>

<g fill="#212121" fill-opacity="1" stroke="#212121" stroke-opacity="1" stroke-width="1" stroke-linecap="square" stroke-linejoin="bevel" transform="matrix(0.75,0,0,0.75,184.45,96.325)"
font-family="Helvetica" font-size="11" font-weight="400" font-style="normal" 
>
<text fill="#212121" fill-opacity="1" stroke="none" xml:space="preserve" x="0" y="0" font-family="Helvetica" font-size="11" font-weight="400" font-style="normal" 
 >2</text>
</g>

<g fill="#212121" fill-opacity="1" stroke="#212121" stroke-opacity="1" stroke-width="1" stroke-linecap="square" stroke-linejoin="bevel" transform="matrix(0.75,0,0,0.75,219.325,96.325)"
font-family="Helvetica" font-size="11" font-weight="400" font-style="normal" 
>
<text fill="#212121" fill-opacity="1" stroke="none" xml:space="preserve" x="0" y="0" font-family="Helvetica" font-size="11" font-weight="400" font-style="normal" 
 >2.5</text>
</g>

<g fill="#212121" fill-opacity="1" stroke="#212121" stroke-opacity="1" stroke-width="1" stroke-linecap="square" stroke-linejoin="bevel" transform="matrix(0.75,0,0,0.75,260.95,96.325)"
font-family="Helvetica" font-size="11" font-weight="400" font-style="normal" 
>
<text fill="#212121" fill-opacity="1" stroke="none" xml:space="preserve" x="0" y="0" font-family="Helvetica" font-size="11" font-weight="400" font-style="normal" 
 >3</text>
</g>

<g fill="#212121" fill-opacity="1" stroke="#212121" stroke-opacity="1" stroke-width="1" stroke-linecap="square" stroke-linejoin="bevel" transform="matrix(0,-0.75,0.75,0,8.25,90)"
font-family="Helvetica" font-size="12" font-weight="400" font-style="normal" 
>
<text fill="#212121" fill-opacity="1" stroke="none" xml:space="preserve" x="0" y="0" font-family="Helvetica" font-size="12" font-weight="400" font-style="normal" 
 >Angular position (rad)</text>
</g>

<g fill="#212121" fill-opacity="1" stroke="#212121" stroke-opacity="1" stroke-width="0.666667" stroke-linecap="square" stroke-linejoin="round" transform="matrix(0.75,0,0,0.75,-8.3,-11.625)"
font-family="Helvetica" font-size="12" font-weight="400" font-style="normal" 
>
<polyline fill="none" vector-effect="none" points="56,131 56,22 " />
<polyline fill="none" vector-effect="none" points="362,131 362,22 " />
<polyline fill="none" vector-effect="none" points="56,131 59.06,131 " />
<polyline fill="none" vector-effect="none" points="358.94,131 362,131 " />
<polyline fill="none" vector-effect="none" points="56,103.75 59.06,103.75 " />
<polyline fill="none" vector-effect="none" points="358.94,103.75 362,103.75 " />
<polyline fill="none" vector-effect="none" points="56,76.5 59.06,76.5 " />
<polyline fill="none" vector-effect="none" points="358.94,76.5 362,76.5 " />
<polyline fill="none" vector-effect="none" points="56,49.25 59.06,49.25 " />
<polyline fill="none" vector-effect="none" points="358.94,49.25 362,49.25 " />
<polyline fill="none" vector-effect="none" points="56,22 59.06,22 " />
<polyline fill="none" vector-effect="none" points="358.94,22 362,22 " />
</g>

<g fill="#212121" fill-opacity="1" stroke="#212121" stroke-opacity="1" stroke-width="1" stroke-linecap="square" stroke-linejoin="bevel" transform="matrix(0.75,0,0,0.75,12.75,89.25)"
font-family="Helvetica" font-size="11" font-weight="400" font-style="normal" 
>
<text fill="#212121" fill-opacity="1" stroke="none" xml:space="preserve" x="0" y="0" font-family="Helvetica" font-size="11" font-weight="400" font-style="normal" 
 >-0.05</text>
</g>

<g fill="#212121" fill-opacity="1" stroke="#212121" stroke-opacity="1" stroke-width="1" stroke-linecap="square" stroke-linejoin="bevel" transform="matrix(0.75,0,0,0.75,27,68.8125)"
font-family="Helvetica" font-size="11" font-weight="400" font-style="normal" 
>
<text fill="#212121" fill-opacity="1" stroke="none" xml:space="preserve" x="0" y="0" font-family="Helvetica" font-size="11" font-weight="400" font-style="normal" 
 >0</text>
</g>

<g fill="#212121" fill-opacity="1" stroke="#212121" stroke-opacity="1" stroke-width="1" stroke-linecap="square" stroke-linejoin="bevel" transform="matrix(0.75,0,0,0.75,15.75,48.375)"
font-family="Helvetica" font-size="11" font-weight="400" font-style="normal" 
>
<text fill="#212121" fill-opacity="1" stroke="none" xml:space="preserve" x="0" y="0" font-family="Helvetica" font-size="11" font-weight="400" font-style="normal" 
 >0.05</text>
</g>

<g fill="#212121" fill-opacity="1" stroke="#212121" stroke-opacity="1" stroke-width="1" stroke-linecap="square" stroke-linejoin="bevel" transform="matrix(0.75,0,0,0.75,20.25,27.9375)"
font-family="Helvetica" font-size="11" font-weight="400" font-style="normal" 
>
<text fill="#212121" fill-opacity="1" stroke="none" xml:space="preserve" x="0" y="0" font-family="Helvetica" font-size="11" font-weight="400" font-style="normal" 
 >0.1</text>
</g>

<g fill="#212121" fill-opacity="1" stroke="#212121" stroke-opacity="1" stroke-width="1" stroke-linecap="square" stroke-linejoin="bevel" transform="matrix(0.75,0,0,0.75,15.75,7.50004)"
font-family="Helvetica" font-size="11" font-weight="400" font-style="normal" 
>
<text fill="#212121" fill-opacity="1" stroke="none" xml:space="preserve" x="0" y="0" font-family="Helvetica" font-size="11" font-weight="400" font-style="normal" 
 >0.15</text>
</g>

<g fill="none" stroke="#1171be" stroke-opacity="1" stroke-width="0.666667" stroke-linecap="butt" stroke-linejoin="round" transform="matrix(0.75,0,0,0.75,-8.3,-11.625)"
font-family="Helvetica" font-size="11" font-weight="400" font-style="normal" 
>
<polyline fill="none" vector-effect="none" points="56,49.25 56,49.25 56.0002,49.25 56.001,49.25 56.0051,49.25 56.0256,49.25 56.1272,49.2493 56.4209,49.2458 56.7585,49.2467 57.1379,49.2649 57.5947,49.3216 58.1419,49.4478 58.8333,49.7012 59.6248,50.1111 60.4396,50.6466 61.2721,51.2874 62.1484,52.0362 63.0955,52.9022 64.1201,53.8755 65.2733,54.9861 66.7187,56.3669 68.2338,57.7746 69.7489,59.1283 71.0491,60.2442 72.2373,61.2288 73.4891,62.2316 74.844,63.2789 76.2327,64.3128 77.5909,65.2873 78.9567,66.2326 80.3744,67.1788 81.83,68.1148 83.2928,69.0206 84.7605,69.8958 86.2409,70.7464 87.7538,71.5849 89.1992,72.3609 90.6469,73.1178 92.1935,73.9074 93.7794,74.6991 95.41,75.4961 97.077,76.294 98.7601,77.0829 100.446,77.8566 102.145,78.6191 103.831,79.3576 105.488,80.0671 107.137,80.7561 108.797,81.4331 110.469,82.0988 112.128,82.744 113.772,83.3682 115.43,83.9826 117.095,84.5838 118.753,85.1672 120.405,85.7338 122.061,86.2875 123.727,86.8299 125.4,87.3604 127.078,87.8783 128.769,88.3855 130.443,88.8726 132.091,89.3383 133.738,89.7897 135.394,90.2308 137.029,90.6544 138.689,91.0732 140.393,91.4912 142.109,91.9 143.809,92.2935 145.498,92.6732 147.191,93.0422 148.899,93.4029 150.591,93.7482 152.265,94.0789 153.946,94.4004 155.651,94.7161 157.375,95.0249 159.104,95.3244 160.833,95.6141 162.567,95.8949 164.311,96.1679 166.065,96.4333 167.847,96.694 169.574,96.9389 171.291,97.1752 173.055,97.4107 174.889,97.6479 176.717,97.876 178.51,98.0914 180.264,98.2942 182.006,98.4882 183.775,98.6782 185.589,98.8661 187.427,99.0495 189.264,99.2262 191.096,99.3958 192.935,99.5599 194.791,99.7194 196.662,99.874 198.539,100.023 200.422,100.168 202.315,100.307 204.22,100.442 206.137,100.572 208.063,100.698 209.998,100.82 211.944,100.937 213.9,101.051 215.868,101.16 217.846,101.266 219.835,101.368 221.835,101.466 223.845,101.561 225.867,101.652 227.9,101.74 229.944,101.825 231.999,101.907 234.065,101.986 236.143,102.061 238.232,102.134 240.332,102.204 242.444,102.272 244.567,102.337 246.701,102.399 248.846,102.459 250.991,102.517 253.09,102.571 255.193,102.623 257.371,102.674 259.611,102.725 261.804,102.773 263.909,102.816 266.009,102.857 268.193,102.899 270.446,102.939 272.678,102.977 274.859,103.013 277.04,103.047 279.278,103.08 281.558,103.112 283.833,103.143 286.098,103.172 288.379,103.199 290.687,103.226 293.003,103.252 295.33,103.276 297.676,103.299 300.035,103.321 302.395,103.343 304.752,103.363 307.118,103.382 309.503,103.401 311.902,103.418 314.303,103.435 316.702,103.451 319.107,103.466 321.527,103.48 323.96,103.494 326.396,103.507 328.831,103.52 331.27,103.532 333.719,103.543 336.181,103.554 338.648,103.564 341.114,103.574 343.581,103.583 346.056,103.592 348.542,103.6 351.034,103.608 353.526,103.615 356.017,103.622 358.512,103.629 361.017,103.636 362,103.638 " />
</g>

<g fill="#ffffff" fill-opacity="1" stroke="none" transform="matrix(7.5e-05,0,0,7.5e-05,-8.3,-11.625)"
font-family="Helvetica" font-size="11" font-weight="400" font-style="normal" 
>
<path vector-effect="none" fill-rule="evenodd" d="M560000,1.52e+06 L560000,2.6e+06 L3.62e+06,2.6e+06 L3.62e+06,1.52e+06 L560000,1.52e+06"/>
</g>

<g fill="#212121" fill-opacity="0.14902" stroke="#212121" stroke-opacity="0.14902" stroke-width="0.666667" stroke-linecap="butt" stroke-linejoin="round" transform="matrix(0.75,0,0,0.75,-8.3,-11.625)"
font-family="Helvetica" font-size="11" font-weight="400" font-style="normal" 
>
<polyline fill="none" vector-effect="none" points="56,152 56,260 " />
<polyline fill="none" vector-effect="none" points="107,152 107,260 " />
<polyline fill="none" vector-effect="none" points="158,152 158,260 " />
<polyline fill="none" vector-effect="none" points="209,152 209,260 " />
<polyline fill="none" vector-effect="none" points="260,152 260,260 " />
<polyline fill="none" vector-effect="none" points="311,152 311,260 " />
<polyline fill="none" vector-effect="none" points="362,152 362,260 " />
<polyline fill="none" vector-effect="none" points="56,260 362,260 " />
<polyline fill="none" vector-effect="none" points="56,225.892 362,225.892 " />
<polyline fill="none" vector-effect="none" points="56,191.785 362,191.785 " />
<polyline fill="none" vector-effect="none" points="56,157.677 362,157.677 " />
</g>

<g fill="#212121" fill-opacity="1" stroke="#212121" stroke-opacity="1" stroke-width="1" stroke-linecap="square" stroke-linejoin="bevel" transform="matrix(0.75,0,0,0.75,127.075,203.075)"
font-family="Helvetica" font-size="12" font-weight="400" font-style="normal" 
>
<text fill="#212121" fill-opacity="1" stroke="none" xml:space="preserve" x="0" y="0" font-family="Helvetica" font-size="12" font-weight="400" font-style="normal" 
 >Time (sec)</text>
</g>

<g fill="#212121" fill-opacity="1" stroke="#212121" stroke-opacity="1" stroke-width="0.666667" stroke-linecap="square" stroke-linejoin="round" transform="matrix(0.75,0,0,0.75,-8.3,-11.625)"
font-family="Helvetica" font-size="12" font-weight="400" font-style="normal" 
>
<polyline fill="none" vector-effect="none" points="56,260 362,260 " />
<polyline fill="none" vector-effect="none" points="56,152 362,152 " />
<polyline fill="none" vector-effect="none" points="56,260 56,256.94 " />
<polyline fill="none" vector-effect="none" points="56,155.06 56,152 " />
<polyline fill="none" vector-effect="none" points="107,260 107,256.94 " />
<polyline fill="none" vector-effect="none" points="107,155.06 107,152 " />
<polyline fill="none" vector-effect="none" points="158,260 158,256.94 " />
<polyline fill="none" vector-effect="none" points="158,155.06 158,152 " />
<polyline fill="none" vector-effect="none" points="209,260 209,256.94 " />
<polyline fill="none" vector-effect="none" points="209,155.06 209,152 " />
<polyline fill="none" vector-effect="none" points="260,260 260,256.94 " />
<polyline fill="none" vector-effect="none" points="260,155.06 260,152 " />
<polyline fill="none" vector-effect="none" points="311,260 311,256.94 " />
<polyline fill="none" vector-effect="none" points="311,155.06 311,152 " />
<polyline fill="none" vector-effect="none" points="362,260 362,256.94 " />
<polyline fill="none" vector-effect="none" points="362,155.06 362,152 " />
</g>

<g fill="#212121" fill-opacity="1" stroke="#212121" stroke-opacity="1" stroke-width="1" stroke-linecap="square" stroke-linejoin="bevel" transform="matrix(0.75,0,0,0.75,31.45,193.075)"
font-family="Helvetica" font-size="11" font-weight="400" font-style="normal" 
>
<text fill="#212121" fill-opacity="1" stroke="none" xml:space="preserve" x="0" y="0" font-family="Helvetica" font-size="11" font-weight="400" font-style="normal" 
 >0</text>
</g>

<g fill="#212121" fill-opacity="1" stroke="#212121" stroke-opacity="1" stroke-width="1" stroke-linecap="square" stroke-linejoin="bevel" transform="matrix(0.75,0,0,0.75,66.325,193.075)"
font-family="Helvetica" font-size="11" font-weight="400" font-style="normal" 
>
<text fill="#212121" fill-opacity="1" stroke="none" xml:space="preserve" x="0" y="0" font-family="Helvetica" font-size="11" font-weight="400" font-style="normal" 
 >0.5</text>
</g>

<g fill="#212121" fill-opacity="1" stroke="#212121" stroke-opacity="1" stroke-width="1" stroke-linecap="square" stroke-linejoin="bevel" transform="matrix(0.75,0,0,0.75,107.95,193.075)"
font-family="Helvetica" font-size="11" font-weight="400" font-style="normal" 
>
<text fill="#212121" fill-opacity="1" stroke="none" xml:space="preserve" x="0" y="0" font-family="Helvetica" font-size="11" font-weight="400" font-style="normal" 
 >1</text>
</g>

<g fill="#212121" fill-opacity="1" stroke="#212121" stroke-opacity="1" stroke-width="1" stroke-linecap="square" stroke-linejoin="bevel" transform="matrix(0.75,0,0,0.75,142.825,193.075)"
font-family="Helvetica" font-size="11" font-weight="400" font-style="normal" 
>
<text fill="#212121" fill-opacity="1" stroke="none" xml:space="preserve" x="0" y="0" font-family="Helvetica" font-size="11" font-weight="400" font-style="normal" 
 >1.5</text>
</g>

<g fill="#212121" fill-opacity="1" stroke="#212121" stroke-opacity="1" stroke-width="1" stroke-linecap="square" stroke-linejoin="bevel" transform="matrix(0.75,0,0,0.75,184.45,193.075)"
font-family="Helvetica" font-size="11" font-weight="400" font-style="normal" 
>
<text fill="#212121" fill-opacity="1" stroke="none" xml:space="preserve" x="0" y="0" font-family="Helvetica" font-size="11" font-weight="400" font-style="normal" 
 >2</text>
</g>

<g fill="#212121" fill-opacity="1" stroke="#212121" stroke-opacity="1" stroke-width="1" stroke-linecap="square" stroke-linejoin="bevel" transform="matrix(0.75,0,0,0.75,219.325,193.075)"
font-family="Helvetica" font-size="11" font-weight="400" font-style="normal" 
>
<text fill="#212121" fill-opacity="1" stroke="none" xml:space="preserve" x="0" y="0" font-family="Helvetica" font-size="11" font-weight="400" font-style="normal" 
 >2.5</text>
</g>

<g fill="#212121" fill-opacity="1" stroke="#212121" stroke-opacity="1" stroke-width="1" stroke-linecap="square" stroke-linejoin="bevel" transform="matrix(0.75,0,0,0.75,260.95,193.075)"
font-family="Helvetica" font-size="11" font-weight="400" font-style="normal" 
>
<text fill="#212121" fill-opacity="1" stroke="none" xml:space="preserve" x="0" y="0" font-family="Helvetica" font-size="11" font-weight="400" font-style="normal" 
 >3</text>
</g>

<g fill="#212121" fill-opacity="1" stroke="#212121" stroke-opacity="1" stroke-width="1" stroke-linecap="square" stroke-linejoin="bevel" transform="matrix(0,-0.75,0.75,0,22.5,171.75)"
font-family="Helvetica" font-size="12" font-weight="400" font-style="normal" 
>
<text fill="#212121" fill-opacity="1" stroke="none" xml:space="preserve" x="0" y="0" font-family="Helvetica" font-size="12" font-weight="400" font-style="normal" 
 >Input force (N)</text>
</g>

<g fill="#212121" fill-opacity="1" stroke="#212121" stroke-opacity="1" stroke-width="0.666667" stroke-linecap="square" stroke-linejoin="round" transform="matrix(0.75,0,0,0.75,-8.3,-11.625)"
font-family="Helvetica" font-size="12" font-weight="400" font-style="normal" 
>
<polyline fill="none" vector-effect="none" points="56,260 56,152 " />
<polyline fill="none" vector-effect="none" points="362,260 362,152 " />
<polyline fill="none" vector-effect="none" points="56,260 59.06,260 " />
<polyline fill="none" vector-effect="none" points="358.94,260 362,260 " />
<polyline fill="none" vector-effect="none" points="56,225.892 59.06,225.892 " />
<polyline fill="none" vector-effect="none" points="358.94,225.892 362,225.892 " />
<polyline fill="none" vector-effect="none" points="56,191.785 59.06,191.785 " />
<polyline fill="none" vector-effect="none" points="358.94,191.785 362,191.785 " />
<polyline fill="none" vector-effect="none" points="56,157.677 59.06,157.677 " />
<polyline fill="none" vector-effect="none" points="358.94,157.677 362,157.677 " />
</g>

<g fill="#212121" fill-opacity="1" stroke="#212121" stroke-opacity="1" stroke-width="1" stroke-linecap="square" stroke-linejoin="bevel" transform="matrix(0.75,0,0,0.75,27,186)"
font-family="Helvetica" font-size="11" font-weight="400" font-style="normal" 
>
<text fill="#212121" fill-opacity="1" stroke="none" xml:space="preserve" x="0" y="0" font-family="Helvetica" font-size="11" font-weight="400" font-style="normal" 
 >0</text>
</g>

<g fill="#212121" fill-opacity="1" stroke="#212121" stroke-opacity="1" stroke-width="1" stroke-linecap="square" stroke-linejoin="bevel" transform="matrix(0.75,0,0,0.75,27,160.419)"
font-family="Helvetica" font-size="11" font-weight="400" font-style="normal" 
>
<text fill="#212121" fill-opacity="1" stroke="none" xml:space="preserve" x="0" y="0" font-family="Helvetica" font-size="11" font-weight="400" font-style="normal" 
 >2</text>
</g>

<g fill="#212121" fill-opacity="1" stroke="#212121" stroke-opacity="1" stroke-width="1" stroke-linecap="square" stroke-linejoin="bevel" transform="matrix(0.75,0,0,0.75,27,134.839)"
font-family="Helvetica" font-size="11" font-weight="400" font-style="normal" 
>
<text fill="#212121" fill-opacity="1" stroke="none" xml:space="preserve" x="0" y="0" font-family="Helvetica" font-size="11" font-weight="400" font-style="normal" 
 >4</text>
</g>

<g fill="#212121" fill-opacity="1" stroke="#212121" stroke-opacity="1" stroke-width="1" stroke-linecap="square" stroke-linejoin="bevel" transform="matrix(0.75,0,0,0.75,27,109.258)"
font-family="Helvetica" font-size="11" font-weight="400" font-style="normal" 
>
<text fill="#212121" fill-opacity="1" stroke="none" xml:space="preserve" x="0" y="0" font-family="Helvetica" font-size="11" font-weight="400" font-style="normal" 
 >6</text>
</g>

<g fill="none" stroke="#1171be" stroke-opacity="1" stroke-width="0.666667" stroke-linecap="butt" stroke-linejoin="round" transform="matrix(0.75,0,0,0.75,-8.3,-11.625)"
font-family="Helvetica" font-size="11" font-weight="400" font-style="normal" 
>
<polyline fill="none" vector-effect="none" points="56,153.482 56,153.482 56.0002,153.481 56.001,153.474 56.0051,153.444 56.0256,153.297 56.1272,152.698 56.4209,152 56.7585,154.014 57.1379,162.425 57.5947,170.901 58.1419,180.183 58.8333,190.923 59.6248,202.197 60.4396,212.345 61.2721,221.005 62.1484,228.207 63.0955,234.416 64.1201,239.002 65.2733,242.336 66.7187,244.787 68.2338,246.056 69.7489,246.449 71.0491,246.315 72.2373,246.414 73.4891,246.667 74.844,247.011 76.2327,247.088 77.5909,247.264 78.9567,247.497 80.3744,247.761 81.83,248.041 83.2928,248.182 84.7605,248.375 86.2409,248.406 87.7538,248.148 89.1992,248.085 90.6469,248.115 92.1935,248.268 93.7794,248.513 95.41,248.816 97.077,249.147 98.7601,249.506 100.446,249.937 102.145,250.305 103.831,250.624 105.488,250.914 107.137,251.197 108.797,251.477 110.469,251.698 112.128,252.016 113.772,252.31 115.43,252.579 117.095,252.828 118.753,253.06 120.405,253.285 122.061,253.507 123.727,253.726 125.4,253.972 127.078,254.27 128.769,254.498 130.443,254.678 132.091,254.842 133.738,254.955 135.394,255.063 137.029,255.222 138.689,255.405 140.393,255.588 142.109,255.752 143.809,255.9 145.498,256.122 147.191,256.315 148.899,256.448 150.591,256.552 152.265,256.654 153.946,256.767 155.651,256.884 157.375,256.999 159.104,257.107 160.833,257.21 162.567,257.311 164.311,257.41 166.065,257.477 167.847,257.529 169.574,257.593 171.291,257.695 173.055,257.814 174.889,257.971 176.717,258.097 178.51,258.171 180.264,258.203 182.006,258.248 183.775,258.311 185.589,258.381 187.427,258.447 189.264,258.506 191.096,258.563 192.935,258.619 194.791,258.675 196.662,258.728 198.539,258.778 200.422,258.827 202.315,258.874 204.22,258.92 206.137,258.964 208.063,259.007 209.998,259.047 211.944,259.087 213.9,259.125 215.868,259.162 217.846,259.197 219.835,259.231 221.835,259.264 223.845,259.295 225.867,259.326 227.9,259.355 229.944,259.383 231.999,259.41 234.065,259.436 236.143,259.461 238.232,259.485 240.332,259.508 242.444,259.53 244.567,259.552 246.701,259.572 248.846,259.592 250.991,259.595 253.09,259.608 255.193,259.636 257.371,259.674 259.611,259.695 261.804,259.702 263.909,259.711 266.009,259.727 268.193,259.744 270.446,259.756 272.678,259.765 274.859,259.776 277.04,259.789 279.278,259.8 281.558,259.81 283.833,259.821 286.098,259.832 288.379,259.837 290.687,259.842 293.003,259.849 295.33,259.858 297.676,259.866 300.035,259.873 302.395,259.88 304.752,259.886 307.118,259.892 309.503,259.898 311.902,259.904 314.303,259.909 316.702,259.914 319.107,259.919 321.527,259.923 323.96,259.927 326.396,259.932 328.831,259.935 331.27,259.939 333.719,259.943 336.181,259.946 338.648,259.949 341.114,259.952 343.581,259.955 346.056,259.958 348.542,259.961 351.034,259.963 353.526,259.965 356.017,259.968 358.512,259.97 361.017,259.972 362,259.961 " />
</g>
</g>
</svg>
