<?xml version="1.0" encoding="UTF-8" standalone="no"?>
<svg width="81.8444mm" height="58.5611mm"
 viewBox="0 0 232 166"
 xmlns="http://www.w3.org/2000/svg" xmlns:xlink="http://www.w3.org/1999/xlink"  version="1.2" baseProfile="tiny">
<title>Qt SVG Document</title>
<desc>MATLAB, The MathWorks, Inc. Version 25.2.0.3150157 R2025b Update 4</desc>
<defs>
</defs>
<g fill="none" stroke="black" stroke-width="1" fill-rule="evenodd" stroke-linecap="square" stroke-linejoin="bevel" >

<g fill="#ffffff" fill-opacity="1" stroke="none" transform="matrix(0.75,0,0,0.75,-38.625,-26)"
font-family="MS Shell Dlg 2" font-size="8.25" font-weight="400" font-style="normal" 
>
<path vector-effect="none" fill-rule="evenodd" d="M50,33 L360,33 L360,255 L50,255 L50,33"/>
</g>

<g fill="#212121" fill-opacity="1" stroke="#212121" stroke-opacity="1" stroke-width="1" stroke-linecap="square" stroke-linejoin="bevel" transform="matrix(0.75,0,0,0.75,4.50009,161.25)"
font-family="TeXGyreTermes" font-size="13" font-weight="400" font-style="normal" 
>
<text fill="#212121" fill-opacity="1" stroke="none" xml:space="preserve" x="0" y="0" font-family="TeXGyreTermes" font-size="13" font-weight="400" font-style="normal" 
 >System triangular_49rules: 2 inputs, 1 outputs, 49 rules</text>
</g>

<g fill="#212121" fill-opacity="1" stroke="#212121" stroke-opacity="1" stroke-width="2.66667" stroke-linecap="butt" stroke-linejoin="round" transform="matrix(0.75,0,0,0.75,-38.625,-26)"
font-family="TeXGyreTermes" font-size="13" font-weight="400" font-style="normal" 
>
<polyline fill="none" vector-effect="none" points="134.667,62.1 207,116 " />
<polyline fill="none" vector-effect="none" points="134.667,160.1 207,116 " />
<polyline fill="none" vector-effect="none" points="279.333,116 207,116 " />
</g>

<g fill="#ffffff" fill-opacity="1" stroke="none" transform="matrix(7.5e-05,0,0,7.5e-05,-38.625,-26)"
font-family="TeXGyreTermes" font-size="13" font-weight="400" font-style="normal" 
>
<path vector-effect="none" fill-rule="evenodd" d="M730000,380000 L730000,860000 L1.35e+06,860000 L1.35e+06,380000 L730000,380000"/>
</g>

<g fill="#212121" fill-opacity="1" stroke="#212121" stroke-opacity="1" stroke-width="1" stroke-linecap="square" stroke-linejoin="bevel" transform="matrix(0.75,0,0,0.75,23.25,53)"
font-family="TeXGyreTermes" font-size="13" font-weight="400" font-style="normal" 
>
<text fill="#212121" fill-opacity="1" stroke="none" xml:space="preserve" x="0" y="0" font-family="TeXGyreTermes" font-size="13" font-weight="400" font-style="normal" 
 >error (7)</text>
</g>

<g fill="#212121" fill-opacity="1" stroke="#212121" stroke-opacity="1" stroke-width="2.66667" stroke-linecap="square" stroke-linejoin="round" transform="matrix(0.75,0,0,0.75,-38.625,-26)"
font-family="TeXGyreTermes" font-size="13" font-weight="400" font-style="normal" 
>
<polyline fill="none" vector-effect="none" points="73,86 135,86 " />
<polyline fill="none" vector-effect="none" points="73,38 135,38 " />
<polyline fill="none" vector-effect="none" points="73,86 73,38 " />
<polyline fill="none" vector-effect="none" points="135,86 135,38 " />
</g>

<g fill="none" stroke="#1171be" stroke-opacity="1" stroke-width="0.666667" stroke-linecap="butt" stroke-linejoin="round" transform="matrix(0.75,0,0,0.75,-38.625,-26)"
font-family="TeXGyreTermes" font-size="13" font-weight="400" font-style="normal" 
>
<polyline fill="none" vector-effect="none" points="78.1667,42 78.4537,42 78.7407,42 79.0278,42 79.3148,42 79.6019,42 79.8889,42 80.1759,42 80.463,42 80.75,42 81.037,42 81.3241,42 81.6111,42 81.8981,42 82.1852,42 82.4722,42 82.7593,42 83.0463,42 83.3333,42 83.6204,42 83.9074,42 84.1944,42 84.4815,42 84.7685,42 85.0556,42 85.3426,42 85.6296,42 85.9167,42 86.2037,42 86.4907,42 86.7778,42 87.0648,42 87.3519,42 87.6389,42 87.9259,42 88.213,42 88.5,42 88.787,42 89.0741,42 89.3611,42 89.6481,42 89.9352,42 90.2222,42 90.5093,42 90.7963,42 91.0833,42 91.3704,44.6667 91.6574,47.3333 91.9444,50 92.2315,52.6667 92.5185,55.3333 92.8056,58 93.0926,60.6667 93.3796,63.3333 93.6667,66 93.9537,68.6667 94.2407,71.3333 94.5278,74 94.8148,76.6667 95.1019,79.3333 95.3889,82 95.6759,82 95.963,82 96.25,82 96.537,82 96.8241,82 97.1111,82 97.3981,82 97.6852,82 97.9722,82 98.2593,82 98.5463,82 98.8333,82 99.1204,82 99.4074,82 99.6944,82 99.9815,82 100.269,82 100.556,82 100.843,82 101.13,82 101.417,82 101.704,82 101.991,82 102.278,82 102.565,82 102.852,82 103.139,82 103.426,82 103.713,82 104,82 104.287,82 104.574,82 104.861,82 105.148,82 105.435,82 105.722,82 106.009,82 106.296,82 106.583,82 106.87,82 107.157,82 107.444,82 107.731,82 108.019,82 108.306,82 108.593,82 108.88,82 109.167,82 109.454,82 109.741,82 110.028,82 110.315,82 110.602,82 110.889,82 111.176,82 111.463,82 111.75,82 112.037,82 112.324,82 112.611,82 112.898,82 113.185,82 113.472,82 113.759,82 114.046,82 114.333,82 114.62,82 114.907,82 115.194,82 115.481,82 115.769,82 116.056,82 116.343,82 116.63,82 116.917,82 117.204,82 117.491,82 117.778,82 118.065,82 118.352,82 118.639,82 118.926,82 119.213,82 119.5,82 119.787,82 120.074,82 120.361,82 120.648,82 120.935,82 121.222,82 121.509,82 121.796,82 122.083,82 122.37,82 122.657,82 122.944,82 123.231,82 123.519,82 123.806,82 124.093,82 124.38,82 124.667,82 124.954,82 125.241,82 125.528,82 125.815,82 126.102,82 126.389,82 126.676,82 126.963,82 127.25,82 127.537,82 127.824,82 128.111,82 128.398,82 128.685,82 128.972,82 129.259,82 129.546,82 129.833,82 " />
</g>

<g fill="none" stroke="#dd5400" stroke-opacity="1" stroke-width="0.666667" stroke-linecap="butt" stroke-linejoin="round" transform="matrix(0.75,0,0,0.75,-38.625,-26)"
font-family="TeXGyreTermes" font-size="13" font-weight="400" font-style="normal" 
>
<polyline fill="none" vector-effect="none" points="78.1667,82 78.4537,82 78.7407,82 79.0278,82 79.3148,82 79.6019,82 79.8889,82 80.1759,82 80.463,82 80.75,82 81.037,82 81.3241,82 81.6111,82 81.8981,82 82.1852,82 82.4722,82 82.7593,82 83.0463,82 83.3333,82 83.6204,82 83.9074,82 84.1944,82 84.4815,82 84.7685,82 85.0556,82 85.3426,82 85.6296,82 85.9167,82 86.2037,82 86.4907,82 86.7778,82 87.0648,82 87.3519,82 87.6389,82 87.9259,82 88.213,82 88.5,82 88.787,82 89.0741,82 89.3611,82 89.6481,82 89.9352,82 90.2222,82 90.5093,82 90.7963,82 91.0833,82 91.3704,79.3333 91.6574,76.6667 91.9444,74 92.2315,71.3333 92.5185,68.6667 92.8056,66 93.0926,63.3333 93.3796,60.6667 93.6667,58 93.9537,55.3333 94.2407,52.6667 94.5278,50 94.8148,47.3333 95.1019,44.6667 95.3889,42 95.6759,44.6667 95.963,47.3333 96.25,50 96.537,52.6667 96.8241,55.3333 97.1111,58 97.3981,60.6667 97.6852,63.3333 97.9722,66 98.2593,68.6667 98.5463,71.3333 98.8333,74 99.1204,76.6667 99.4074,79.3333 99.6944,82 99.9815,82 100.269,82 100.556,82 100.843,82 101.13,82 101.417,82 101.704,82 101.991,82 102.278,82 102.565,82 102.852,82 103.139,82 103.426,82 103.713,82 104,82 104.287,82 104.574,82 104.861,82 105.148,82 105.435,82 105.722,82 106.009,82 106.296,82 106.583,82 106.87,82 107.157,82 107.444,82 107.731,82 108.019,82 108.306,82 108.593,82 108.88,82 109.167,82 109.454,82 109.741,82 110.028,82 110.315,82 110.602,82 110.889,82 111.176,82 111.463,82 111.75,82 112.037,82 112.324,82 112.611,82 112.898,82 113.185,82 113.472,82 113.759,82 114.046,82 114.333,82 114.62,82 114.907,82 115.194,82 115.481,82 115.769,82 116.056,82 116.343,82 116.63,82 116.917,82 117.204,82 117.491,82 117.778,82 118.065,82 118.352,82 118.639,82 118.926,82 119.213,82 119.5,82 119.787,82 120.074,82 120.361,82 120.648,82 120.935,82 121.222,82 121.509,82 121.796,82 122.083,82 122.37,82 122.657,82 122.944,82 123.231,82 123.519,82 123.806,82 124.093,82 124.38,82 124.667,82 124.954,82 125.241,82 125.528,82 125.815,82 126.102,82 126.389,82 126.676,82 126.963,82 127.25,82 127.537,82 127.824,82 128.111,82 128.398,82 128.685,82 128.972,82 129.259,82 129.546,82 129.833,82 " />
</g>

<g fill="none" stroke="#edb120" stroke-opacity="1" stroke-width="0.666667" stroke-linecap="butt" stroke-linejoin="round" transform="matrix(0.75,0,0,0.75,-38.625,-26)"
font-family="TeXGyreTermes" font-size="13" font-weight="400" font-style="normal" 
>
<polyline fill="none" vector-effect="none" points="78.1667,82 78.4537,82 78.7407,82 79.0278,82 79.3148,82 79.6019,82 79.8889,82 80.1759,82 80.463,82 80.75,82 81.037,82 81.3241,82 81.6111,82 81.8981,82 82.1852,82 82.4722,82 82.7593,82 83.0463,82 83.3333,82 83.6204,82 83.9074,82 84.1944,82 84.4815,82 84.7685,82 85.0556,82 85.3426,82 85.6296,82 85.9167,82 86.2037,82 86.4907,82 86.7778,82 87.0648,82 87.3519,82 87.6389,82 87.9259,82 88.213,82 88.5,82 88.787,82 89.0741,82 89.3611,82 89.6481,82 89.9352,82 90.2222,82 90.5093,82 90.7963,82 91.0833,82 91.3704,82 91.6574,82 91.9444,82 92.2315,82 92.5185,82 92.8056,82 93.0926,82 93.3796,82 93.6667,82 93.9537,82 94.2407,82 94.5278,82 94.8148,82 95.1019,82 95.3889,82 95.6759,79.3333 95.963,76.6667 96.25,74 96.537,71.3333 96.8241,68.6667 97.1111,66 97.3981,63.3333 97.6852,60.6667 97.9722,58 98.2593,55.3333 98.5463,52.6667 98.8333,50 99.1204,47.3333 99.4074,44.6667 99.6944,42 99.9815,44.6667 100.269,47.3333 100.556,50 100.843,52.6667 101.13,55.3333 101.417,58 101.704,60.6667 101.991,63.3333 102.278,66 102.565,68.6667 102.852,71.3333 103.139,74 103.426,76.6667 103.713,79.3333 104,82 104.287,82 104.574,82 104.861,82 105.148,82 105.435,82 105.722,82 106.009,82 106.296,82 106.583,82 106.87,82 107.157,82 107.444,82 107.731,82 108.019,82 108.306,82 108.593,82 108.88,82 109.167,82 109.454,82 109.741,82 110.028,82 110.315,82 110.602,82 110.889,82 111.176,82 111.463,82 111.75,82 112.037,82 112.324,82 112.611,82 112.898,82 113.185,82 113.472,82 113.759,82 114.046,82 114.333,82 114.62,82 114.907,82 115.194,82 115.481,82 115.769,82 116.056,82 116.343,82 116.63,82 116.917,82 117.204,82 117.491,82 117.778,82 118.065,82 118.352,82 118.639,82 118.926,82 119.213,82 119.5,82 119.787,82 120.074,82 120.361,82 120.648,82 120.935,82 121.222,82 121.509,82 121.796,82 122.083,82 122.37,82 122.657,82 122.944,82 123.231,82 123.519,82 123.806,82 124.093,82 124.38,82 124.667,82 124.954,82 125.241,82 125.528,82 125.815,82 126.102,82 126.389,82 126.676,82 126.963,82 127.25,82 127.537,82 127.824,82 128.111,82 128.398,82 128.685,82 128.972,82 129.259,82 129.546,82 129.833,82 " />
</g>

<g fill="none" stroke="#8516d1" stroke-opacity="1" stroke-width="0.666667" stroke-linecap="butt" stroke-linejoin="round" transform="matrix(0.75,0,0,0.75,-38.625,-26)"
font-family="TeXGyreTermes" font-size="13" font-weight="400" font-style="normal" 
>
<polyline fill="none" vector-effect="none" points="78.1667,82 78.4537,82 78.7407,82 79.0278,82 79.3148,82 79.6019,82 79.8889,82 80.1759,82 80.463,82 80.75,82 81.037,82 81.3241,82 81.6111,82 81.8981,82 82.1852,82 82.4722,82 82.7593,82 83.0463,82 83.3333,82 83.6204,82 83.9074,82 84.1944,82 84.4815,82 84.7685,82 85.0556,82 85.3426,82 85.6296,82 85.9167,82 86.2037,82 86.4907,82 86.7778,82 87.0648,82 87.3519,82 87.6389,82 87.9259,82 88.213,82 88.5,82 88.787,82 89.0741,82 89.3611,82 89.6481,82 89.9352,82 90.2222,82 90.5093,82 90.7963,82 91.0833,82 91.3704,82 91.6574,82 91.9444,82 92.2315,82 92.5185,82 92.8056,82 93.0926,82 93.3796,82 93.6667,82 93.9537,82 94.2407,82 94.5278,82 94.8148,82 95.1019,82 95.3889,82 95.6759,82 95.963,82 96.25,82 96.537,82 96.8241,82 97.1111,82 97.3981,82 97.6852,82 97.9722,82 98.2593,82 98.5463,82 98.8333,82 99.1204,82 99.4074,82 99.6944,82 99.9815,79.3333 100.269,76.6667 100.556,74 100.843,71.3333 101.13,68.6667 101.417,66 101.704,63.3333 101.991,60.6667 102.278,58 102.565,55.3333 102.852,52.6667 103.139,50 103.426,47.3333 103.713,44.6667 104,42 104.287,44.6667 104.574,47.3333 104.861,50 105.148,52.6667 105.435,55.3333 105.722,58 106.009,60.6667 106.296,63.3333 106.583,66 106.87,68.6667 107.157,71.3333 107.444,74 107.731,76.6667 108.019,79.3333 108.306,82 108.593,82 108.88,82 109.167,82 109.454,82 109.741,82 110.028,82 110.315,82 110.602,82 110.889,82 111.176,82 111.463,82 111.75,82 112.037,82 112.324,82 112.611,82 112.898,82 113.185,82 113.472,82 113.759,82 114.046,82 114.333,82 114.62,82 114.907,82 115.194,82 115.481,82 115.769,82 116.056,82 116.343,82 116.63,82 116.917,82 117.204,82 117.491,82 117.778,82 118.065,82 118.352,82 118.639,82 118.926,82 119.213,82 119.5,82 119.787,82 120.074,82 120.361,82 120.648,82 120.935,82 121.222,82 121.509,82 121.796,82 122.083,82 122.37,82 122.657,82 122.944,82 123.231,82 123.519,82 123.806,82 124.093,82 124.38,82 124.667,82 124.954,82 125.241,82 125.528,82 125.815,82 126.102,82 126.389,82 126.676,82 126.963,82 127.25,82 127.537,82 127.824,82 128.111,82 128.398,82 128.685,82 128.972,82 129.259,82 129.546,82 129.833,82 " />
</g>

<g fill="none" stroke="#3baa32" stroke-opacity="1" stroke-width="0.666667" stroke-linecap="butt" stroke-linejoin="round" transform="matrix(0.75,0,0,0.75,-38.625,-26)"
font-family="TeXGyreTermes" font-size="13" font-weight="400" font-style="normal" 
>
<polyline fill="none" vector-effect="none" points="78.1667,82 78.4537,82 78.7407,82 79.0278,82 79.3148,82 79.6019,82 79.8889,82 80.1759,82 80.463,82 80.75,82 81.037,82 81.3241,82 81.6111,82 81.8981,82 82.1852,82 82.4722,82 82.7593,82 83.0463,82 83.3333,82 83.6204,82 83.9074,82 84.1944,82 84.4815,82 84.7685,82 85.0556,82 85.3426,82 85.6296,82 85.9167,82 86.2037,82 86.4907,82 86.7778,82 87.0648,82 87.3519,82 87.6389,82 87.9259,82 88.213,82 88.5,82 88.787,82 89.0741,82 89.3611,82 89.6481,82 89.9352,82 90.2222,82 90.5093,82 90.7963,82 91.0833,82 91.3704,82 91.6574,82 91.9444,82 92.2315,82 92.5185,82 92.8056,82 93.0926,82 93.3796,82 93.6667,82 93.9537,82 94.2407,82 94.5278,82 94.8148,82 95.1019,82 95.3889,82 95.6759,82 95.963,82 96.25,82 96.537,82 96.8241,82 97.1111,82 97.3981,82 97.6852,82 97.9722,82 98.2593,82 98.5463,82 98.8333,82 99.1204,82 99.4074,82 99.6944,82 99.9815,82 100.269,82 100.556,82 100.843,82 101.13,82 101.417,82 101.704,82 101.991,82 102.278,82 102.565,82 102.852,82 103.139,82 103.426,82 103.713,82 104,82 104.287,79.3333 104.574,76.6667 104.861,74 105.148,71.3333 105.435,68.6667 105.722,66 106.009,63.3333 106.296,60.6667 106.583,58 106.87,55.3333 107.157,52.6667 107.444,50 107.731,47.3333 108.019,44.6667 108.306,42 108.593,44.6667 108.88,47.3333 109.167,50 109.454,52.6667 109.741,55.3333 110.028,58 110.315,60.6667 110.602,63.3333 110.889,66 111.176,68.6667 111.463,71.3333 111.75,74 112.037,76.6667 112.324,79.3333 112.611,82 112.898,82 113.185,82 113.472,82 113.759,82 114.046,82 114.333,82 114.62,82 114.907,82 115.194,82 115.481,82 115.769,82 116.056,82 116.343,82 116.63,82 116.917,82 117.204,82 117.491,82 117.778,82 118.065,82 118.352,82 118.639,82 118.926,82 119.213,82 119.5,82 119.787,82 120.074,82 120.361,82 120.648,82 120.935,82 121.222,82 121.509,82 121.796,82 122.083,82 122.37,82 122.657,82 122.944,82 123.231,82 123.519,82 123.806,82 124.093,82 124.38,82 124.667,82 124.954,82 125.241,82 125.528,82 125.815,82 126.102,82 126.389,82 126.676,82 126.963,82 127.25,82 127.537,82 127.824,82 128.111,82 128.398,82 128.685,82 128.972,82 129.259,82 129.546,82 129.833,82 " />
</g>

<g fill="none" stroke="#2fbeef" stroke-opacity="1" stroke-width="0.666667" stroke-linecap="butt" stroke-linejoin="round" transform="matrix(0.75,0,0,0.75,-38.625,-26)"
font-family="TeXGyreTermes" font-size="13" font-weight="400" font-style="normal" 
>
<polyline fill="none" vector-effect="none" points="78.1667,82 78.4537,82 78.7407,82 79.0278,82 79.3148,82 79.6019,82 79.8889,82 80.1759,82 80.463,82 80.75,82 81.037,82 81.3241,82 81.6111,82 81.8981,82 82.1852,82 82.4722,82 82.7593,82 83.0463,82 83.3333,82 83.6204,82 83.9074,82 84.1944,82 84.4815,82 84.7685,82 85.0556,82 85.3426,82 85.6296,82 85.9167,82 86.2037,82 86.4907,82 86.7778,82 87.0648,82 87.3519,82 87.6389,82 87.9259,82 88.213,82 88.5,82 88.787,82 89.0741,82 89.3611,82 89.6481,82 89.9352,82 90.2222,82 90.5093,82 90.7963,82 91.0833,82 91.3704,82 91.6574,82 91.9444,82 92.2315,82 92.5185,82 92.8056,82 93.0926,82 93.3796,82 93.6667,82 93.9537,82 94.2407,82 94.5278,82 94.8148,82 95.1019,82 95.3889,82 95.6759,82 95.963,82 96.25,82 96.537,82 96.8241,82 97.1111,82 97.3981,82 97.6852,82 97.9722,82 98.2593,82 98.5463,82 98.8333,82 99.1204,82 99.4074,82 99.6944,82 99.9815,82 100.269,82 100.556,82 100.843,82 101.13,82 101.417,82 101.704,82 101.991,82 102.278,82 102.565,82 102.852,82 103.139,82 103.426,82 103.713,82 104,82 104.287,82 104.574,82 104.861,82 105.148,82 105.435,82 105.722,82 106.009,82 106.296,82 106.583,82 106.87,82 107.157,82 107.444,82 107.731,82 108.019,82 108.306,82 108.593,79.3333 108.88,76.6667 109.167,74 109.454,71.3333 109.741,68.6667 110.028,66 110.315,63.3333 110.602,60.6667 110.889,58 111.176,55.3333 111.463,52.6667 111.75,50 112.037,47.3333 112.324,44.6667 112.611,42 112.898,44.6667 113.185,47.3333 113.472,50 113.759,52.6667 114.046,55.3333 114.333,58 114.62,60.6667 114.907,63.3333 115.194,66 115.481,68.6667 115.769,71.3333 116.056,74 116.343,76.6667 116.63,79.3333 116.917,82 117.204,82 117.491,82 117.778,82 118.065,82 118.352,82 118.639,82 118.926,82 119.213,82 119.5,82 119.787,82 120.074,82 120.361,82 120.648,82 120.935,82 121.222,82 121.509,82 121.796,82 122.083,82 122.37,82 122.657,82 122.944,82 123.231,82 123.519,82 123.806,82 124.093,82 124.38,82 124.667,82 124.954,82 125.241,82 125.528,82 125.815,82 126.102,82 126.389,82 126.676,82 126.963,82 127.25,82 127.537,82 127.824,82 128.111,82 128.398,82 128.685,82 128.972,82 129.259,82 129.546,82 129.833,82 " />
</g>

<g fill="none" stroke="#d1048b" stroke-opacity="1" stroke-width="0.666667" stroke-linecap="butt" stroke-linejoin="round" transform="matrix(0.75,0,0,0.75,-38.625,-26)"
font-family="TeXGyreTermes" font-size="13" font-weight="400" font-style="normal" 
>
<polyline fill="none" vector-effect="none" points="78.1667,82 78.4537,82 78.7407,82 79.0278,82 79.3148,82 79.6019,82 79.8889,82 80.1759,82 80.463,82 80.75,82 81.037,82 81.3241,82 81.6111,82 81.8981,82 82.1852,82 82.4722,82 82.7593,82 83.0463,82 83.3333,82 83.6204,82 83.9074,82 84.1944,82 84.4815,82 84.7685,82 85.0556,82 85.3426,82 85.6296,82 85.9167,82 86.2037,82 86.4907,82 86.7778,82 87.0648,82 87.3519,82 87.6389,82 87.9259,82 88.213,82 88.5,82 88.787,82 89.0741,82 89.3611,82 89.6481,82 89.9352,82 90.2222,82 90.5093,82 90.7963,82 91.0833,82 91.3704,82 91.6574,82 91.9444,82 92.2315,82 92.5185,82 92.8056,82 93.0926,82 93.3796,82 93.6667,82 93.9537,82 94.2407,82 94.5278,82 94.8148,82 95.1019,82 95.3889,82 95.6759,82 95.963,82 96.25,82 96.537,82 96.8241,82 97.1111,82 97.3981,82 97.6852,82 97.9722,82 98.2593,82 98.5463,82 98.8333,82 99.1204,82 99.4074,82 99.6944,82 99.9815,82 100.269,82 100.556,82 100.843,82 101.13,82 101.417,82 101.704,82 101.991,82 102.278,82 102.565,82 102.852,82 103.139,82 103.426,82 103.713,82 104,82 104.287,82 104.574,82 104.861,82 105.148,82 105.435,82 105.722,82 106.009,82 106.296,82 106.583,82 106.87,82 107.157,82 107.444,82 107.731,82 108.019,82 108.306,82 108.593,82 108.88,82 109.167,82 109.454,82 109.741,82 110.028,82 110.315,82 110.602,82 110.889,82 111.176,82 111.463,82 111.75,82 112.037,82 112.324,82 112.611,82 112.898,79.3333 113.185,76.6667 113.472,74 113.759,71.3333 114.046,68.6667 114.333,66 114.62,63.3333 114.907,60.6667 115.194,58 115.481,55.3333 115.769,52.6667 116.056,50 116.343,47.3333 116.63,44.6667 116.917,42 117.204,42 117.491,42 117.778,42 118.065,42 118.352,42 118.639,42 118.926,42 119.213,42 119.5,42 119.787,42 120.074,42 120.361,42 120.648,42 120.935,42 121.222,42 121.509,42 121.796,42 122.083,42 122.37,42 122.657,42 122.944,42 123.231,42 123.519,42 123.806,42 124.093,42 124.38,42 124.667,42 124.954,42 125.241,42 125.528,42 125.815,42 126.102,42 126.389,42 126.676,42 126.963,42 127.25,42 127.537,42 127.824,42 128.111,42 128.398,42 128.685,42 128.972,42 129.259,42 129.546,42 129.833,42 " />
</g>

<g fill="#ffffff" fill-opacity="1" stroke="none" transform="matrix(7.5e-05,0,0,7.5e-05,-38.625,-26)"
font-family="TeXGyreTermes" font-size="13" font-weight="400" font-style="normal" 
>
<path vector-effect="none" fill-rule="evenodd" d="M730000,1.35e+06 L730000,1.84e+06 L1.35e+06,1.84e+06 L1.35e+06,1.35e+06 L730000,1.35e+06"/>
</g>

<g fill="#212121" fill-opacity="1" stroke="#212121" stroke-opacity="1" stroke-width="1" stroke-linecap="square" stroke-linejoin="bevel" transform="matrix(0.75,0,0,0.75,1.5,126.5)"
font-family="TeXGyreTermes" font-size="13" font-weight="400" font-style="normal" 
>
<text fill="#212121" fill-opacity="1" stroke="none" xml:space="preserve" x="0" y="0" font-family="TeXGyreTermes" font-size="13" font-weight="400" font-style="normal" 
 >chang_in_error (7)</text>
</g>

<g fill="#212121" fill-opacity="1" stroke="#212121" stroke-opacity="1" stroke-width="2.66667" stroke-linecap="square" stroke-linejoin="round" transform="matrix(0.75,0,0,0.75,-38.625,-26)"
font-family="TeXGyreTermes" font-size="13" font-weight="400" font-style="normal" 
>
<polyline fill="none" vector-effect="none" points="73,184 135,184 " />
<polyline fill="none" vector-effect="none" points="73,135 135,135 " />
<polyline fill="none" vector-effect="none" points="73,184 73,135 " />
<polyline fill="none" vector-effect="none" points="135,184 135,135 " />
</g>

<g fill="none" stroke="#1171be" stroke-opacity="1" stroke-width="0.666667" stroke-linecap="butt" stroke-linejoin="round" transform="matrix(0.75,0,0,0.75,-38.625,-26)"
font-family="TeXGyreTermes" font-size="13" font-weight="400" font-style="normal" 
>
<polyline fill="none" vector-effect="none" points="78.1667,139.083 78.4537,139.083 78.7407,139.083 79.0278,139.083 79.3148,139.083 79.6019,139.083 79.8889,139.083 80.1759,139.083 80.463,139.083 80.75,139.083 81.037,139.083 81.3241,139.083 81.6111,139.083 81.8981,139.083 82.1852,139.083 82.4722,139.083 82.7593,139.083 83.0463,139.083 83.3333,139.083 83.6204,139.083 83.9074,140.272 84.1944,142.005 84.4815,143.738 84.7685,145.471 85.0556,147.204 85.3426,148.937 85.6296,150.67 85.9167,152.403 86.2037,154.136 86.4907,155.869 86.7778,157.602 87.0648,159.335 87.3519,161.068 87.6389,162.801 87.9259,164.534 88.213,166.267 88.5,168 88.787,169.733 89.0741,171.466 89.3611,173.199 89.6481,174.932 89.9352,176.665 90.2222,178.398 90.5093,179.917 90.7963,179.917 91.0833,179.917 91.3704,179.917 91.6574,179.917 91.9444,179.917 92.2315,179.917 92.5185,179.917 92.8056,179.917 93.0926,179.917 93.3796,179.917 93.6667,179.917 93.9537,179.917 94.2407,179.917 94.5278,179.917 94.8148,179.917 95.1019,179.917 95.3889,179.917 95.6759,179.917 95.963,179.917 96.25,179.917 96.537,179.917 96.8241,179.917 97.1111,179.917 97.3981,179.917 97.6852,179.917 97.9722,179.917 98.2593,179.917 98.5463,179.917 98.8333,179.917 99.1204,179.917 99.4074,179.917 99.6944,179.917 99.9815,179.917 100.269,179.917 100.556,179.917 100.843,179.917 101.13,179.917 101.417,179.917 101.704,179.917 101.991,179.917 102.278,179.917 102.565,179.917 102.852,179.917 103.139,179.917 103.426,179.917 103.713,179.917 104,179.917 104.287,179.917 104.574,179.917 104.861,179.917 105.148,179.917 105.435,179.917 105.722,179.917 106.009,179.917 106.296,179.917 106.583,179.917 106.87,179.917 107.157,179.917 107.444,179.917 107.731,179.917 108.019,179.917 108.306,179.917 108.593,179.917 108.88,179.917 109.167,179.917 109.454,179.917 109.741,179.917 110.028,179.917 110.315,179.917 110.602,179.917 110.889,179.917 111.176,179.917 111.463,179.917 111.75,179.917 112.037,179.917 112.324,179.917 112.611,179.917 112.898,179.917 113.185,179.917 113.472,179.917 113.759,179.917 114.046,179.917 114.333,179.917 114.62,179.917 114.907,179.917 115.194,179.917 115.481,179.917 115.769,179.917 116.056,179.917 116.343,179.917 116.63,179.917 116.917,179.917 117.204,179.917 117.491,179.917 117.778,179.917 118.065,179.917 118.352,179.917 118.639,179.917 118.926,179.917 119.213,179.917 119.5,179.917 119.787,179.917 120.074,179.917 120.361,179.917 120.648,179.917 120.935,179.917 121.222,179.917 121.509,179.917 121.796,179.917 122.083,179.917 122.37,179.917 122.657,179.917 122.944,179.917 123.231,179.917 123.519,179.917 123.806,179.917 124.093,179.917 124.38,179.917 124.667,179.917 124.954,179.917 125.241,179.917 125.528,179.917 125.815,179.917 126.102,179.917 126.389,179.917 126.676,179.917 126.963,179.917 127.25,179.917 127.537,179.917 127.824,179.917 128.111,179.917 128.398,179.917 128.685,179.917 128.972,179.917 129.259,179.917 129.546,179.917 129.833,179.917 " />
</g>

<g fill="none" stroke="#dd5400" stroke-opacity="1" stroke-width="0.666667" stroke-linecap="butt" stroke-linejoin="round" transform="matrix(0.75,0,0,0.75,-38.625,-26)"
font-family="TeXGyreTermes" font-size="13" font-weight="400" font-style="normal" 
>
<polyline fill="none" vector-effect="none" points="78.1667,179.917 78.4537,179.917 78.7407,179.917 79.0278,179.917 79.3148,179.917 79.6019,179.917 79.8889,179.917 80.1759,179.917 80.463,179.917 80.75,179.917 81.037,179.917 81.3241,179.917 81.6111,179.917 81.8981,179.917 82.1852,179.917 82.4722,179.917 82.7593,179.917 83.0463,179.917 83.3333,179.917 83.6204,179.917 83.9074,178.728 84.1944,176.995 84.4815,175.262 84.7685,173.529 85.0556,171.796 85.3426,170.063 85.6296,168.33 85.9167,166.597 86.2037,164.864 86.4907,163.131 86.7778,161.398 87.0648,159.665 87.3519,157.932 87.6389,156.199 87.9259,154.466 88.213,152.733 88.5,151 88.787,149.267 89.0741,147.534 89.3611,145.801 89.6481,144.068 89.9352,142.335 90.2222,140.602 90.5093,139.298 90.7963,141.031 91.0833,142.764 91.3704,144.497 91.6574,146.23 91.9444,147.963 92.2315,149.696 92.5185,151.429 92.8056,153.162 93.0926,154.895 93.3796,156.628 93.6667,158.361 93.9537,160.094 94.2407,161.827 94.5278,163.56 94.8148,165.293 95.1019,167.026 95.3889,168.759 95.6759,170.492 95.963,172.225 96.25,173.958 96.537,175.691 96.8241,177.424 97.1111,179.158 97.3981,179.917 97.6852,179.917 97.9722,179.917 98.2593,179.917 98.5463,179.917 98.8333,179.917 99.1204,179.917 99.4074,179.917 99.6944,179.917 99.9815,179.917 100.269,179.917 100.556,179.917 100.843,179.917 101.13,179.917 101.417,179.917 101.704,179.917 101.991,179.917 102.278,179.917 102.565,179.917 102.852,179.917 103.139,179.917 103.426,179.917 103.713,179.917 104,179.917 104.287,179.917 104.574,179.917 104.861,179.917 105.148,179.917 105.435,179.917 105.722,179.917 106.009,179.917 106.296,179.917 106.583,179.917 106.87,179.917 107.157,179.917 107.444,179.917 107.731,179.917 108.019,179.917 108.306,179.917 108.593,179.917 108.88,179.917 109.167,179.917 109.454,179.917 109.741,179.917 110.028,179.917 110.315,179.917 110.602,179.917 110.889,179.917 111.176,179.917 111.463,179.917 111.75,179.917 112.037,179.917 112.324,179.917 112.611,179.917 112.898,179.917 113.185,179.917 113.472,179.917 113.759,179.917 114.046,179.917 114.333,179.917 114.62,179.917 114.907,179.917 115.194,179.917 115.481,179.917 115.769,179.917 116.056,179.917 116.343,179.917 116.63,179.917 116.917,179.917 117.204,179.917 117.491,179.917 117.778,179.917 118.065,179.917 118.352,179.917 118.639,179.917 118.926,179.917 119.213,179.917 119.5,179.917 119.787,179.917 120.074,179.917 120.361,179.917 120.648,179.917 120.935,179.917 121.222,179.917 121.509,179.917 121.796,179.917 122.083,179.917 122.37,179.917 122.657,179.917 122.944,179.917 123.231,179.917 123.519,179.917 123.806,179.917 124.093,179.917 124.38,179.917 124.667,179.917 124.954,179.917 125.241,179.917 125.528,179.917 125.815,179.917 126.102,179.917 126.389,179.917 126.676,179.917 126.963,179.917 127.25,179.917 127.537,179.917 127.824,179.917 128.111,179.917 128.398,179.917 128.685,179.917 128.972,179.917 129.259,179.917 129.546,179.917 129.833,179.917 " />
</g>

<g fill="none" stroke="#edb120" stroke-opacity="1" stroke-width="0.666667" stroke-linecap="butt" stroke-linejoin="round" transform="matrix(0.75,0,0,0.75,-38.625,-26)"
font-family="TeXGyreTermes" font-size="13" font-weight="400" font-style="normal" 
>
<polyline fill="none" vector-effect="none" points="78.1667,179.917 78.4537,179.917 78.7407,179.917 79.0278,179.917 79.3148,179.917 79.6019,179.917 79.8889,179.917 80.1759,179.917 80.463,179.917 80.75,179.917 81.037,179.917 81.3241,179.917 81.6111,179.917 81.8981,179.917 82.1852,179.917 82.4722,179.917 82.7593,179.917 83.0463,179.917 83.3333,179.917 83.6204,179.917 83.9074,179.917 84.1944,179.917 84.4815,179.917 84.7685,179.917 85.0556,179.917 85.3426,179.917 85.6296,179.917 85.9167,179.917 86.2037,179.917 86.4907,179.917 86.7778,179.917 87.0648,179.917 87.3519,179.917 87.6389,179.917 87.9259,179.917 88.213,179.917 88.5,179.917 88.787,179.917 89.0741,179.917 89.3611,179.917 89.6481,179.917 89.9352,179.917 90.2222,179.917 90.5093,179.702 90.7963,177.969 91.0833,176.236 91.3704,174.503 91.6574,172.77 91.9444,171.037 92.2315,169.304 92.5185,167.571 92.8056,165.838 93.0926,164.105 93.3796,162.372 93.6667,160.639 93.9537,158.906 94.2407,157.173 94.5278,155.44 94.8148,153.707 95.1019,151.974 95.3889,150.241 95.6759,148.508 95.963,146.775 96.25,145.042 96.537,143.309 96.8241,141.576 97.1111,139.842 97.3981,140.057 97.6852,141.79 97.9722,143.523 98.2593,145.256 98.5463,146.989 98.8333,148.722 99.1204,150.455 99.4074,152.188 99.6944,153.921 99.9815,155.654 100.269,157.387 100.556,159.12 100.843,160.853 101.13,162.586 101.417,164.319 101.704,166.053 101.991,167.786 102.278,169.519 102.565,171.252 102.852,172.985 103.139,174.718 103.426,176.451 103.713,178.184 104,179.917 104.287,179.917 104.574,179.917 104.861,179.917 105.148,179.917 105.435,179.917 105.722,179.917 106.009,179.917 106.296,179.917 106.583,179.917 106.87,179.917 107.157,179.917 107.444,179.917 107.731,179.917 108.019,179.917 108.306,179.917 108.593,179.917 108.88,179.917 109.167,179.917 109.454,179.917 109.741,179.917 110.028,179.917 110.315,179.917 110.602,179.917 110.889,179.917 111.176,179.917 111.463,179.917 111.75,179.917 112.037,179.917 112.324,179.917 112.611,179.917 112.898,179.917 113.185,179.917 113.472,179.917 113.759,179.917 114.046,179.917 114.333,179.917 114.62,179.917 114.907,179.917 115.194,179.917 115.481,179.917 115.769,179.917 116.056,179.917 116.343,179.917 116.63,179.917 116.917,179.917 117.204,179.917 117.491,179.917 117.778,179.917 118.065,179.917 118.352,179.917 118.639,179.917 118.926,179.917 119.213,179.917 119.5,179.917 119.787,179.917 120.074,179.917 120.361,179.917 120.648,179.917 120.935,179.917 121.222,179.917 121.509,179.917 121.796,179.917 122.083,179.917 122.37,179.917 122.657,179.917 122.944,179.917 123.231,179.917 123.519,179.917 123.806,179.917 124.093,179.917 124.38,179.917 124.667,179.917 124.954,179.917 125.241,179.917 125.528,179.917 125.815,179.917 126.102,179.917 126.389,179.917 126.676,179.917 126.963,179.917 127.25,179.917 127.537,179.917 127.824,179.917 128.111,179.917 128.398,179.917 128.685,179.917 128.972,179.917 129.259,179.917 129.546,179.917 129.833,179.917 " />
</g>

<g fill="none" stroke="#8516d1" stroke-opacity="1" stroke-width="0.666667" stroke-linecap="butt" stroke-linejoin="round" transform="matrix(0.75,0,0,0.75,-38.625,-26)"
font-family="TeXGyreTermes" font-size="13" font-weight="400" font-style="normal" 
>
<polyline fill="none" vector-effect="none" points="78.1667,179.917 78.4537,179.917 78.7407,179.917 79.0278,179.917 79.3148,179.917 79.6019,179.917 79.8889,179.917 80.1759,179.917 80.463,179.917 80.75,179.917 81.037,179.917 81.3241,179.917 81.6111,179.917 81.8981,179.917 82.1852,179.917 82.4722,179.917 82.7593,179.917 83.0463,179.917 83.3333,179.917 83.6204,179.917 83.9074,179.917 84.1944,179.917 84.4815,179.917 84.7685,179.917 85.0556,179.917 85.3426,179.917 85.6296,179.917 85.9167,179.917 86.2037,179.917 86.4907,179.917 86.7778,179.917 87.0648,179.917 87.3519,179.917 87.6389,179.917 87.9259,179.917 88.213,179.917 88.5,179.917 88.787,179.917 89.0741,179.917 89.3611,179.917 89.6481,179.917 89.9352,179.917 90.2222,179.917 90.5093,179.917 90.7963,179.917 91.0833,179.917 91.3704,179.917 91.6574,179.917 91.9444,179.917 92.2315,179.917 92.5185,179.917 92.8056,179.917 93.0926,179.917 93.3796,179.917 93.6667,179.917 93.9537,179.917 94.2407,179.917 94.5278,179.917 94.8148,179.917 95.1019,179.917 95.3889,179.917 95.6759,179.917 95.963,179.917 96.25,179.917 96.537,179.917 96.8241,179.917 97.1111,179.917 97.3981,178.943 97.6852,177.21 97.9722,175.477 98.2593,173.744 98.5463,172.011 98.8333,170.278 99.1204,168.545 99.4074,166.812 99.6944,165.079 99.9815,163.346 100.269,161.613 100.556,159.88 100.843,158.147 101.13,156.414 101.417,154.681 101.704,152.947 101.991,151.214 102.278,149.481 102.565,147.748 102.852,146.015 103.139,144.282 103.426,142.549 103.713,140.816 104,139.083 104.287,140.816 104.574,142.549 104.861,144.282 105.148,146.015 105.435,147.748 105.722,149.481 106.009,151.214 106.296,152.947 106.583,154.681 106.87,156.414 107.157,158.147 107.444,159.88 107.731,161.613 108.019,163.346 108.306,165.079 108.593,166.812 108.88,168.545 109.167,170.278 109.454,172.011 109.741,173.744 110.028,175.477 110.315,177.21 110.602,178.943 110.889,179.917 111.176,179.917 111.463,179.917 111.75,179.917 112.037,179.917 112.324,179.917 112.611,179.917 112.898,179.917 113.185,179.917 113.472,179.917 113.759,179.917 114.046,179.917 114.333,179.917 114.62,179.917 114.907,179.917 115.194,179.917 115.481,179.917 115.769,179.917 116.056,179.917 116.343,179.917 116.63,179.917 116.917,179.917 117.204,179.917 117.491,179.917 117.778,179.917 118.065,179.917 118.352,179.917 118.639,179.917 118.926,179.917 119.213,179.917 119.5,179.917 119.787,179.917 120.074,179.917 120.361,179.917 120.648,179.917 120.935,179.917 121.222,179.917 121.509,179.917 121.796,179.917 122.083,179.917 122.37,179.917 122.657,179.917 122.944,179.917 123.231,179.917 123.519,179.917 123.806,179.917 124.093,179.917 124.38,179.917 124.667,179.917 124.954,179.917 125.241,179.917 125.528,179.917 125.815,179.917 126.102,179.917 126.389,179.917 126.676,179.917 126.963,179.917 127.25,179.917 127.537,179.917 127.824,179.917 128.111,179.917 128.398,179.917 128.685,179.917 128.972,179.917 129.259,179.917 129.546,179.917 129.833,179.917 " />
</g>

<g fill="none" stroke="#3baa32" stroke-opacity="1" stroke-width="0.666667" stroke-linecap="butt" stroke-linejoin="round" transform="matrix(0.75,0,0,0.75,-38.625,-26)"
font-family="TeXGyreTermes" font-size="13" font-weight="400" font-style="normal" 
>
<polyline fill="none" vector-effect="none" points="78.1667,179.917 78.4537,179.917 78.7407,179.917 79.0278,179.917 79.3148,179.917 79.6019,179.917 79.8889,179.917 80.1759,179.917 80.463,179.917 80.75,179.917 81.037,179.917 81.3241,179.917 81.6111,179.917 81.8981,179.917 82.1852,179.917 82.4722,179.917 82.7593,179.917 83.0463,179.917 83.3333,179.917 83.6204,179.917 83.9074,179.917 84.1944,179.917 84.4815,179.917 84.7685,179.917 85.0556,179.917 85.3426,179.917 85.6296,179.917 85.9167,179.917 86.2037,179.917 86.4907,179.917 86.7778,179.917 87.0648,179.917 87.3519,179.917 87.6389,179.917 87.9259,179.917 88.213,179.917 88.5,179.917 88.787,179.917 89.0741,179.917 89.3611,179.917 89.6481,179.917 89.9352,179.917 90.2222,179.917 90.5093,179.917 90.7963,179.917 91.0833,179.917 91.3704,179.917 91.6574,179.917 91.9444,179.917 92.2315,179.917 92.5185,179.917 92.8056,179.917 93.0926,179.917 93.3796,179.917 93.6667,179.917 93.9537,179.917 94.2407,179.917 94.5278,179.917 94.8148,179.917 95.1019,179.917 95.3889,179.917 95.6759,179.917 95.963,179.917 96.25,179.917 96.537,179.917 96.8241,179.917 97.1111,179.917 97.3981,179.917 97.6852,179.917 97.9722,179.917 98.2593,179.917 98.5463,179.917 98.8333,179.917 99.1204,179.917 99.4074,179.917 99.6944,179.917 99.9815,179.917 100.269,179.917 100.556,179.917 100.843,179.917 101.13,179.917 101.417,179.917 101.704,179.917 101.991,179.917 102.278,179.917 102.565,179.917 102.852,179.917 103.139,179.917 103.426,179.917 103.713,179.917 104,179.917 104.287,178.184 104.574,176.451 104.861,174.718 105.148,172.985 105.435,171.252 105.722,169.519 106.009,167.786 106.296,166.053 106.583,164.319 106.87,162.586 107.157,160.853 107.444,159.12 107.731,157.387 108.019,155.654 108.306,153.921 108.593,152.188 108.88,150.455 109.167,148.722 109.454,146.989 109.741,145.256 110.028,143.523 110.315,141.79 110.602,140.057 110.889,139.842 111.176,141.576 111.463,143.309 111.75,145.042 112.037,146.775 112.324,148.508 112.611,150.241 112.898,151.974 113.185,153.707 113.472,155.44 113.759,157.173 114.046,158.906 114.333,160.639 114.62,162.372 114.907,164.105 115.194,165.838 115.481,167.571 115.769,169.304 116.056,171.037 116.343,172.77 116.63,174.503 116.917,176.236 117.204,177.969 117.491,179.702 117.778,179.917 118.065,179.917 118.352,179.917 118.639,179.917 118.926,179.917 119.213,179.917 119.5,179.917 119.787,179.917 120.074,179.917 120.361,179.917 120.648,179.917 120.935,179.917 121.222,179.917 121.509,179.917 121.796,179.917 122.083,179.917 122.37,179.917 122.657,179.917 122.944,179.917 123.231,179.917 123.519,179.917 123.806,179.917 124.093,179.917 124.38,179.917 124.667,179.917 124.954,179.917 125.241,179.917 125.528,179.917 125.815,179.917 126.102,179.917 126.389,179.917 126.676,179.917 126.963,179.917 127.25,179.917 127.537,179.917 127.824,179.917 128.111,179.917 128.398,179.917 128.685,179.917 128.972,179.917 129.259,179.917 129.546,179.917 129.833,179.917 " />
</g>

<g fill="none" stroke="#2fbeef" stroke-opacity="1" stroke-width="0.666667" stroke-linecap="butt" stroke-linejoin="round" transform="matrix(0.75,0,0,0.75,-38.625,-26)"
font-family="TeXGyreTermes" font-size="13" font-weight="400" font-style="normal" 
>
<polyline fill="none" vector-effect="none" points="78.1667,179.917 78.4537,179.917 78.7407,179.917 79.0278,179.917 79.3148,179.917 79.6019,179.917 79.8889,179.917 80.1759,179.917 80.463,179.917 80.75,179.917 81.037,179.917 81.3241,179.917 81.6111,179.917 81.8981,179.917 82.1852,179.917 82.4722,179.917 82.7593,179.917 83.0463,179.917 83.3333,179.917 83.6204,179.917 83.9074,179.917 84.1944,179.917 84.4815,179.917 84.7685,179.917 85.0556,179.917 85.3426,179.917 85.6296,179.917 85.9167,179.917 86.2037,179.917 86.4907,179.917 86.7778,179.917 87.0648,179.917 87.3519,179.917 87.6389,179.917 87.9259,179.917 88.213,179.917 88.5,179.917 88.787,179.917 89.0741,179.917 89.3611,179.917 89.6481,179.917 89.9352,179.917 90.2222,179.917 90.5093,179.917 90.7963,179.917 91.0833,179.917 91.3704,179.917 91.6574,179.917 91.9444,179.917 92.2315,179.917 92.5185,179.917 92.8056,179.917 93.0926,179.917 93.3796,179.917 93.6667,179.917 93.9537,179.917 94.2407,179.917 94.5278,179.917 94.8148,179.917 95.1019,179.917 95.3889,179.917 95.6759,179.917 95.963,179.917 96.25,179.917 96.537,179.917 96.8241,179.917 97.1111,179.917 97.3981,179.917 97.6852,179.917 97.9722,179.917 98.2593,179.917 98.5463,179.917 98.8333,179.917 99.1204,179.917 99.4074,179.917 99.6944,179.917 99.9815,179.917 100.269,179.917 100.556,179.917 100.843,179.917 101.13,179.917 101.417,179.917 101.704,179.917 101.991,179.917 102.278,179.917 102.565,179.917 102.852,179.917 103.139,179.917 103.426,179.917 103.713,179.917 104,179.917 104.287,179.917 104.574,179.917 104.861,179.917 105.148,179.917 105.435,179.917 105.722,179.917 106.009,179.917 106.296,179.917 106.583,179.917 106.87,179.917 107.157,179.917 107.444,179.917 107.731,179.917 108.019,179.917 108.306,179.917 108.593,179.917 108.88,179.917 109.167,179.917 109.454,179.917 109.741,179.917 110.028,179.917 110.315,179.917 110.602,179.917 110.889,179.158 111.176,177.424 111.463,175.691 111.75,173.958 112.037,172.225 112.324,170.492 112.611,168.759 112.898,167.026 113.185,165.293 113.472,163.56 113.759,161.827 114.046,160.094 114.333,158.361 114.62,156.628 114.907,154.895 115.194,153.162 115.481,151.429 115.769,149.696 116.056,147.963 116.343,146.23 116.63,144.497 116.917,142.764 117.204,141.031 117.491,139.298 117.778,140.602 118.065,142.335 118.352,144.068 118.639,145.801 118.926,147.534 119.213,149.267 119.5,151 119.787,152.733 120.074,154.466 120.361,156.199 120.648,157.932 120.935,159.665 121.222,161.398 121.509,163.131 121.796,164.864 122.083,166.597 122.37,168.33 122.657,170.063 122.944,171.796 123.231,173.529 123.519,175.262 123.806,176.995 124.093,178.728 124.38,179.917 124.667,179.917 124.954,179.917 125.241,179.917 125.528,179.917 125.815,179.917 126.102,179.917 126.389,179.917 126.676,179.917 126.963,179.917 127.25,179.917 127.537,179.917 127.824,179.917 128.111,179.917 128.398,179.917 128.685,179.917 128.972,179.917 129.259,179.917 129.546,179.917 129.833,179.917 " />
</g>

<g fill="none" stroke="#d1048b" stroke-opacity="1" stroke-width="0.666667" stroke-linecap="butt" stroke-linejoin="round" transform="matrix(0.75,0,0,0.75,-38.625,-26)"
font-family="TeXGyreTermes" font-size="13" font-weight="400" font-style="normal" 
>
<polyline fill="none" vector-effect="none" points="78.1667,179.917 78.4537,179.917 78.7407,179.917 79.0278,179.917 79.3148,179.917 79.6019,179.917 79.8889,179.917 80.1759,179.917 80.463,179.917 80.75,179.917 81.037,179.917 81.3241,179.917 81.6111,179.917 81.8981,179.917 82.1852,179.917 82.4722,179.917 82.7593,179.917 83.0463,179.917 83.3333,179.917 83.6204,179.917 83.9074,179.917 84.1944,179.917 84.4815,179.917 84.7685,179.917 85.0556,179.917 85.3426,179.917 85.6296,179.917 85.9167,179.917 86.2037,179.917 86.4907,179.917 86.7778,179.917 87.0648,179.917 87.3519,179.917 87.6389,179.917 87.9259,179.917 88.213,179.917 88.5,179.917 88.787,179.917 89.0741,179.917 89.3611,179.917 89.6481,179.917 89.9352,179.917 90.2222,179.917 90.5093,179.917 90.7963,179.917 91.0833,179.917 91.3704,179.917 91.6574,179.917 91.9444,179.917 92.2315,179.917 92.5185,179.917 92.8056,179.917 93.0926,179.917 93.3796,179.917 93.6667,179.917 93.9537,179.917 94.2407,179.917 94.5278,179.917 94.8148,179.917 95.1019,179.917 95.3889,179.917 95.6759,179.917 95.963,179.917 96.25,179.917 96.537,179.917 96.8241,179.917 97.1111,179.917 97.3981,179.917 97.6852,179.917 97.9722,179.917 98.2593,179.917 98.5463,179.917 98.8333,179.917 99.1204,179.917 99.4074,179.917 99.6944,179.917 99.9815,179.917 100.269,179.917 100.556,179.917 100.843,179.917 101.13,179.917 101.417,179.917 101.704,179.917 101.991,179.917 102.278,179.917 102.565,179.917 102.852,179.917 103.139,179.917 103.426,179.917 103.713,179.917 104,179.917 104.287,179.917 104.574,179.917 104.861,179.917 105.148,179.917 105.435,179.917 105.722,179.917 106.009,179.917 106.296,179.917 106.583,179.917 106.87,179.917 107.157,179.917 107.444,179.917 107.731,179.917 108.019,179.917 108.306,179.917 108.593,179.917 108.88,179.917 109.167,179.917 109.454,179.917 109.741,179.917 110.028,179.917 110.315,179.917 110.602,179.917 110.889,179.917 111.176,179.917 111.463,179.917 111.75,179.917 112.037,179.917 112.324,179.917 112.611,179.917 112.898,179.917 113.185,179.917 113.472,179.917 113.759,179.917 114.046,179.917 114.333,179.917 114.62,179.917 114.907,179.917 115.194,179.917 115.481,179.917 115.769,179.917 116.056,179.917 116.343,179.917 116.63,179.917 116.917,179.917 117.204,179.917 117.491,179.917 117.778,178.398 118.065,176.665 118.352,174.932 118.639,173.199 118.926,171.466 119.213,169.733 119.5,168 119.787,166.267 120.074,164.534 120.361,162.801 120.648,161.068 120.935,159.335 121.222,157.602 121.509,155.869 121.796,154.136 122.083,152.403 122.37,150.67 122.657,148.937 122.944,147.204 123.231,145.471 123.519,143.738 123.806,142.005 124.093,140.272 124.38,139.083 124.667,139.083 124.954,139.083 125.241,139.083 125.528,139.083 125.815,139.083 126.102,139.083 126.389,139.083 126.676,139.083 126.963,139.083 127.25,139.083 127.537,139.083 127.824,139.083 128.111,139.083 128.398,139.083 128.685,139.083 128.972,139.083 129.259,139.083 129.546,139.083 129.833,139.083 " />
</g>

<g fill="#ffffff" fill-opacity="1" stroke="none" transform="matrix(7.5e-05,0,0,7.5e-05,-38.625,-26)"
font-family="TeXGyreTermes" font-size="13" font-weight="400" font-style="normal" 
>
<path vector-effect="none" fill-rule="evenodd" d="M2.79e+06,830000 L2.79e+06,1.48e+06 L3.41e+06,1.48e+06 L3.41e+06,830000 L2.79e+06,830000"/>
</g>

<g fill="#212121" fill-opacity="1" stroke="#212121" stroke-opacity="1" stroke-width="1" stroke-linecap="square" stroke-linejoin="bevel" transform="matrix(0.75,0,0,0.75,177.375,99.5)"
font-family="TeXGyreTermes" font-size="13" font-weight="400" font-style="normal" 
>
<text fill="#212121" fill-opacity="1" stroke="none" xml:space="preserve" x="0" y="0" font-family="TeXGyreTermes" font-size="13" font-weight="400" font-style="normal" 
 >force (7)</text>
</g>

<g fill="#212121" fill-opacity="1" stroke="#212121" stroke-opacity="1" stroke-width="2.66667" stroke-linecap="square" stroke-linejoin="round" transform="matrix(0.75,0,0,0.75,-38.625,-26)"
font-family="TeXGyreTermes" font-size="13" font-weight="400" font-style="normal" 
>
<polyline fill="none" vector-effect="none" points="279,148 341,148 " />
<polyline fill="none" vector-effect="none" points="279,83 341,83 " />
<polyline fill="none" vector-effect="none" points="279,148 279,83 " />
<polyline fill="none" vector-effect="none" points="341,148 341,83 " />
</g>

<g fill="none" stroke="#1171be" stroke-opacity="1" stroke-width="0.666667" stroke-linecap="butt" stroke-linejoin="round" transform="matrix(0.75,0,0,0.75,-38.625,-26)"
font-family="TeXGyreTermes" font-size="13" font-weight="400" font-style="normal" 
>
<polyline fill="none" vector-effect="none" points="284.167,142.583 284.454,142.583 284.741,142.583 285.028,142.583 285.315,142.583 285.602,142.583 285.889,142.583 286.176,142.583 286.463,142.583 286.75,142.583 287.037,142.583 287.324,139.875 287.611,137.167 287.898,134.458 288.185,131.75 288.472,129.042 288.759,126.333 289.046,123.625 289.333,120.917 289.62,118.208 289.907,115.5 290.194,112.792 290.481,110.083 290.769,107.375 291.056,104.667 291.343,101.958 291.63,99.25 291.917,96.5417 292.204,93.8333 292.491,91.125 292.778,88.4167 293.065,91.125 293.352,93.8333 293.639,96.5417 293.926,99.25 294.213,101.958 294.5,104.667 294.787,107.375 295.074,110.083 295.361,112.792 295.648,115.5 295.935,118.208 296.222,120.917 296.509,123.625 296.796,126.333 297.083,129.042 297.37,131.75 297.657,134.458 297.944,137.167 298.231,139.875 298.519,142.583 298.806,142.583 299.093,142.583 299.38,142.583 299.667,142.583 299.954,142.583 300.241,142.583 300.528,142.583 300.815,142.583 301.102,142.583 301.389,142.583 301.676,142.583 301.963,142.583 302.25,142.583 302.537,142.583 302.824,142.583 303.111,142.583 303.398,142.583 303.685,142.583 303.972,142.583 304.259,142.583 304.546,142.583 304.833,142.583 305.12,142.583 305.407,142.583 305.694,142.583 305.981,142.583 306.269,142.583 306.556,142.583 306.843,142.583 307.13,142.583 307.417,142.583 307.704,142.583 307.991,142.583 308.278,142.583 308.565,142.583 308.852,142.583 309.139,142.583 309.426,142.583 309.713,142.583 310,142.583 310.287,142.583 310.574,142.583 310.861,142.583 311.148,142.583 311.435,142.583 311.722,142.583 312.009,142.583 312.296,142.583 312.583,142.583 312.87,142.583 313.157,142.583 313.444,142.583 313.731,142.583 314.019,142.583 314.306,142.583 314.593,142.583 314.88,142.583 315.167,142.583 315.454,142.583 315.741,142.583 316.028,142.583 316.315,142.583 316.602,142.583 316.889,142.583 317.176,142.583 317.463,142.583 317.75,142.583 318.037,142.583 318.324,142.583 318.611,142.583 318.898,142.583 319.185,142.583 319.472,142.583 319.759,142.583 320.046,142.583 320.333,142.583 320.62,142.583 320.907,142.583 321.194,142.583 321.481,142.583 321.769,142.583 322.056,142.583 322.343,142.583 322.63,142.583 322.917,142.583 323.204,142.583 323.491,142.583 323.778,142.583 324.065,142.583 324.352,142.583 324.639,142.583 324.926,142.583 325.213,142.583 325.5,142.583 325.787,142.583 326.074,142.583 326.361,142.583 326.648,142.583 326.935,142.583 327.222,142.583 327.509,142.583 327.796,142.583 328.083,142.583 328.37,142.583 328.657,142.583 328.944,142.583 329.231,142.583 329.519,142.583 329.806,142.583 330.093,142.583 330.38,142.583 330.667,142.583 330.954,142.583 331.241,142.583 331.528,142.583 331.815,142.583 332.102,142.583 332.389,142.583 332.676,142.583 332.963,142.583 333.25,142.583 333.537,142.583 333.824,142.583 334.111,142.583 334.398,142.583 334.685,142.583 334.972,142.583 335.259,142.583 335.546,142.583 335.833,142.583 " />
</g>

<g fill="none" stroke="#dd5400" stroke-opacity="1" stroke-width="0.666667" stroke-linecap="butt" stroke-linejoin="round" transform="matrix(0.75,0,0,0.75,-38.625,-26)"
font-family="TeXGyreTermes" font-size="13" font-weight="400" font-style="normal" 
>
<polyline fill="none" vector-effect="none" points="284.167,142.583 284.454,142.583 284.741,142.583 285.028,142.583 285.315,142.583 285.602,142.583 285.889,142.583 286.176,142.583 286.463,142.583 286.75,142.583 287.037,142.583 287.324,142.583 287.611,142.583 287.898,142.583 288.185,142.583 288.472,142.583 288.759,142.583 289.046,142.583 289.333,142.583 289.62,142.583 289.907,142.583 290.194,142.583 290.481,142.583 290.769,142.583 291.056,142.583 291.343,142.583 291.63,142.583 291.917,142.583 292.204,142.583 292.491,142.583 292.778,142.583 293.065,139.875 293.352,137.167 293.639,134.458 293.926,131.75 294.213,129.042 294.5,126.333 294.787,123.625 295.074,120.917 295.361,118.208 295.648,115.5 295.935,112.792 296.222,110.083 296.509,107.375 296.796,104.667 297.083,101.958 297.37,99.25 297.657,96.5417 297.944,93.8333 298.231,91.125 298.519,88.4167 298.806,91.125 299.093,93.8333 299.38,96.5417 299.667,99.25 299.954,101.958 300.241,104.667 300.528,107.375 300.815,110.083 301.102,112.792 301.389,115.5 301.676,118.208 301.963,120.917 302.25,123.625 302.537,126.333 302.824,129.042 303.111,131.75 303.398,134.458 303.685,137.167 303.972,139.875 304.259,142.583 304.546,142.583 304.833,142.583 305.12,142.583 305.407,142.583 305.694,142.583 305.981,142.583 306.269,142.583 306.556,142.583 306.843,142.583 307.13,142.583 307.417,142.583 307.704,142.583 307.991,142.583 308.278,142.583 308.565,142.583 308.852,142.583 309.139,142.583 309.426,142.583 309.713,142.583 310,142.583 310.287,142.583 310.574,142.583 310.861,142.583 311.148,142.583 311.435,142.583 311.722,142.583 312.009,142.583 312.296,142.583 312.583,142.583 312.87,142.583 313.157,142.583 313.444,142.583 313.731,142.583 314.019,142.583 314.306,142.583 314.593,142.583 314.88,142.583 315.167,142.583 315.454,142.583 315.741,142.583 316.028,142.583 316.315,142.583 316.602,142.583 316.889,142.583 317.176,142.583 317.463,142.583 317.75,142.583 318.037,142.583 318.324,142.583 318.611,142.583 318.898,142.583 319.185,142.583 319.472,142.583 319.759,142.583 320.046,142.583 320.333,142.583 320.62,142.583 320.907,142.583 321.194,142.583 321.481,142.583 321.769,142.583 322.056,142.583 322.343,142.583 322.63,142.583 322.917,142.583 323.204,142.583 323.491,142.583 323.778,142.583 324.065,142.583 324.352,142.583 324.639,142.583 324.926,142.583 325.213,142.583 325.5,142.583 325.787,142.583 326.074,142.583 326.361,142.583 326.648,142.583 326.935,142.583 327.222,142.583 327.509,142.583 327.796,142.583 328.083,142.583 328.37,142.583 328.657,142.583 328.944,142.583 329.231,142.583 329.519,142.583 329.806,142.583 330.093,142.583 330.38,142.583 330.667,142.583 330.954,142.583 331.241,142.583 331.528,142.583 331.815,142.583 332.102,142.583 332.389,142.583 332.676,142.583 332.963,142.583 333.25,142.583 333.537,142.583 333.824,142.583 334.111,142.583 334.398,142.583 334.685,142.583 334.972,142.583 335.259,142.583 335.546,142.583 335.833,142.583 " />
</g>

<g fill="none" stroke="#edb120" stroke-opacity="1" stroke-width="0.666667" stroke-linecap="butt" stroke-linejoin="round" transform="matrix(0.75,0,0,0.75,-38.625,-26)"
font-family="TeXGyreTermes" font-size="13" font-weight="400" font-style="normal" 
>
<polyline fill="none" vector-effect="none" points="284.167,142.583 284.454,142.583 284.741,142.583 285.028,142.583 285.315,142.583 285.602,142.583 285.889,142.583 286.176,142.583 286.463,142.583 286.75,142.583 287.037,142.583 287.324,142.583 287.611,142.583 287.898,142.583 288.185,142.583 288.472,142.583 288.759,142.583 289.046,142.583 289.333,142.583 289.62,142.583 289.907,142.583 290.194,142.583 290.481,142.583 290.769,142.583 291.056,142.583 291.343,142.583 291.63,142.583 291.917,142.583 292.204,142.583 292.491,142.583 292.778,142.583 293.065,142.583 293.352,142.583 293.639,142.583 293.926,142.583 294.213,142.583 294.5,142.583 294.787,142.583 295.074,142.583 295.361,142.583 295.648,142.583 295.935,142.583 296.222,142.583 296.509,142.583 296.796,142.583 297.083,142.583 297.37,142.583 297.657,142.583 297.944,142.583 298.231,142.583 298.519,142.583 298.806,139.875 299.093,137.167 299.38,134.458 299.667,131.75 299.954,129.042 300.241,126.333 300.528,123.625 300.815,120.917 301.102,118.208 301.389,115.5 301.676,112.792 301.963,110.083 302.25,107.375 302.537,104.667 302.824,101.958 303.111,99.25 303.398,96.5417 303.685,93.8333 303.972,91.125 304.259,88.4167 304.546,91.125 304.833,93.8333 305.12,96.5417 305.407,99.25 305.694,101.958 305.981,104.667 306.269,107.375 306.556,110.083 306.843,112.792 307.13,115.5 307.417,118.208 307.704,120.917 307.991,123.625 308.278,126.333 308.565,129.042 308.852,131.75 309.139,134.458 309.426,137.167 309.713,139.875 310,142.583 310.287,142.583 310.574,142.583 310.861,142.583 311.148,142.583 311.435,142.583 311.722,142.583 312.009,142.583 312.296,142.583 312.583,142.583 312.87,142.583 313.157,142.583 313.444,142.583 313.731,142.583 314.019,142.583 314.306,142.583 314.593,142.583 314.88,142.583 315.167,142.583 315.454,142.583 315.741,142.583 316.028,142.583 316.315,142.583 316.602,142.583 316.889,142.583 317.176,142.583 317.463,142.583 317.75,142.583 318.037,142.583 318.324,142.583 318.611,142.583 318.898,142.583 319.185,142.583 319.472,142.583 319.759,142.583 320.046,142.583 320.333,142.583 320.62,142.583 320.907,142.583 321.194,142.583 321.481,142.583 321.769,142.583 322.056,142.583 322.343,142.583 322.63,142.583 322.917,142.583 323.204,142.583 323.491,142.583 323.778,142.583 324.065,142.583 324.352,142.583 324.639,142.583 324.926,142.583 325.213,142.583 325.5,142.583 325.787,142.583 326.074,142.583 326.361,142.583 326.648,142.583 326.935,142.583 327.222,142.583 327.509,142.583 327.796,142.583 328.083,142.583 328.37,142.583 328.657,142.583 328.944,142.583 329.231,142.583 329.519,142.583 329.806,142.583 330.093,142.583 330.38,142.583 330.667,142.583 330.954,142.583 331.241,142.583 331.528,142.583 331.815,142.583 332.102,142.583 332.389,142.583 332.676,142.583 332.963,142.583 333.25,142.583 333.537,142.583 333.824,142.583 334.111,142.583 334.398,142.583 334.685,142.583 334.972,142.583 335.259,142.583 335.546,142.583 335.833,142.583 " />
</g>

<g fill="none" stroke="#8516d1" stroke-opacity="1" stroke-width="0.666667" stroke-linecap="butt" stroke-linejoin="round" transform="matrix(0.75,0,0,0.75,-38.625,-26)"
font-family="TeXGyreTermes" font-size="13" font-weight="400" font-style="normal" 
>
<polyline fill="none" vector-effect="none" points="284.167,142.583 284.454,142.583 284.741,142.583 285.028,142.583 285.315,142.583 285.602,142.583 285.889,142.583 286.176,142.583 286.463,142.583 286.75,142.583 287.037,142.583 287.324,142.583 287.611,142.583 287.898,142.583 288.185,142.583 288.472,142.583 288.759,142.583 289.046,142.583 289.333,142.583 289.62,142.583 289.907,142.583 290.194,142.583 290.481,142.583 290.769,142.583 291.056,142.583 291.343,142.583 291.63,142.583 291.917,142.583 292.204,142.583 292.491,142.583 292.778,142.583 293.065,142.583 293.352,142.583 293.639,142.583 293.926,142.583 294.213,142.583 294.5,142.583 294.787,142.583 295.074,142.583 295.361,142.583 295.648,142.583 295.935,142.583 296.222,142.583 296.509,142.583 296.796,142.583 297.083,142.583 297.37,142.583 297.657,142.583 297.944,142.583 298.231,142.583 298.519,142.583 298.806,142.583 299.093,142.583 299.38,142.583 299.667,142.583 299.954,142.583 300.241,142.583 300.528,142.583 300.815,142.583 301.102,142.583 301.389,142.583 301.676,142.583 301.963,142.583 302.25,142.583 302.537,142.583 302.824,142.583 303.111,142.583 303.398,142.583 303.685,142.583 303.972,142.583 304.259,142.583 304.546,139.875 304.833,137.167 305.12,134.458 305.407,131.75 305.694,129.042 305.981,126.333 306.269,123.625 306.556,120.917 306.843,118.208 307.13,115.5 307.417,112.792 307.704,110.083 307.991,107.375 308.278,104.667 308.565,101.958 308.852,99.25 309.139,96.5417 309.426,93.8333 309.713,91.125 310,88.4167 310.287,91.125 310.574,93.8333 310.861,96.5417 311.148,99.25 311.435,101.958 311.722,104.667 312.009,107.375 312.296,110.083 312.583,112.792 312.87,115.5 313.157,118.208 313.444,120.917 313.731,123.625 314.019,126.333 314.306,129.042 314.593,131.75 314.88,134.458 315.167,137.167 315.454,139.875 315.741,142.583 316.028,142.583 316.315,142.583 316.602,142.583 316.889,142.583 317.176,142.583 317.463,142.583 317.75,142.583 318.037,142.583 318.324,142.583 318.611,142.583 318.898,142.583 319.185,142.583 319.472,142.583 319.759,142.583 320.046,142.583 320.333,142.583 320.62,142.583 320.907,142.583 321.194,142.583 321.481,142.583 321.769,142.583 322.056,142.583 322.343,142.583 322.63,142.583 322.917,142.583 323.204,142.583 323.491,142.583 323.778,142.583 324.065,142.583 324.352,142.583 324.639,142.583 324.926,142.583 325.213,142.583 325.5,142.583 325.787,142.583 326.074,142.583 326.361,142.583 326.648,142.583 326.935,142.583 327.222,142.583 327.509,142.583 327.796,142.583 328.083,142.583 328.37,142.583 328.657,142.583 328.944,142.583 329.231,142.583 329.519,142.583 329.806,142.583 330.093,142.583 330.38,142.583 330.667,142.583 330.954,142.583 331.241,142.583 331.528,142.583 331.815,142.583 332.102,142.583 332.389,142.583 332.676,142.583 332.963,142.583 333.25,142.583 333.537,142.583 333.824,142.583 334.111,142.583 334.398,142.583 334.685,142.583 334.972,142.583 335.259,142.583 335.546,142.583 335.833,142.583 " />
</g>

<g fill="none" stroke="#3baa32" stroke-opacity="1" stroke-width="0.666667" stroke-linecap="butt" stroke-linejoin="round" transform="matrix(0.75,0,0,0.75,-38.625,-26)"
font-family="TeXGyreTermes" font-size="13" font-weight="400" font-style="normal" 
>
<polyline fill="none" vector-effect="none" points="284.167,142.583 284.454,142.583 284.741,142.583 285.028,142.583 285.315,142.583 285.602,142.583 285.889,142.583 286.176,142.583 286.463,142.583 286.75,142.583 287.037,142.583 287.324,142.583 287.611,142.583 287.898,142.583 288.185,142.583 288.472,142.583 288.759,142.583 289.046,142.583 289.333,142.583 289.62,142.583 289.907,142.583 290.194,142.583 290.481,142.583 290.769,142.583 291.056,142.583 291.343,142.583 291.63,142.583 291.917,142.583 292.204,142.583 292.491,142.583 292.778,142.583 293.065,142.583 293.352,142.583 293.639,142.583 293.926,142.583 294.213,142.583 294.5,142.583 294.787,142.583 295.074,142.583 295.361,142.583 295.648,142.583 295.935,142.583 296.222,142.583 296.509,142.583 296.796,142.583 297.083,142.583 297.37,142.583 297.657,142.583 297.944,142.583 298.231,142.583 298.519,142.583 298.806,142.583 299.093,142.583 299.38,142.583 299.667,142.583 299.954,142.583 300.241,142.583 300.528,142.583 300.815,142.583 301.102,142.583 301.389,142.583 301.676,142.583 301.963,142.583 302.25,142.583 302.537,142.583 302.824,142.583 303.111,142.583 303.398,142.583 303.685,142.583 303.972,142.583 304.259,142.583 304.546,142.583 304.833,142.583 305.12,142.583 305.407,142.583 305.694,142.583 305.981,142.583 306.269,142.583 306.556,142.583 306.843,142.583 307.13,142.583 307.417,142.583 307.704,142.583 307.991,142.583 308.278,142.583 308.565,142.583 308.852,142.583 309.139,142.583 309.426,142.583 309.713,142.583 310,142.583 310.287,139.875 310.574,137.167 310.861,134.458 311.148,131.75 311.435,129.042 311.722,126.333 312.009,123.625 312.296,120.917 312.583,118.208 312.87,115.5 313.157,112.792 313.444,110.083 313.731,107.375 314.019,104.667 314.306,101.958 314.593,99.25 314.88,96.5417 315.167,93.8333 315.454,91.125 315.741,88.4167 316.028,91.125 316.315,93.8333 316.602,96.5417 316.889,99.25 317.176,101.958 317.463,104.667 317.75,107.375 318.037,110.083 318.324,112.792 318.611,115.5 318.898,118.208 319.185,120.917 319.472,123.625 319.759,126.333 320.046,129.042 320.333,131.75 320.62,134.458 320.907,137.167 321.194,139.875 321.481,142.583 321.769,142.583 322.056,142.583 322.343,142.583 322.63,142.583 322.917,142.583 323.204,142.583 323.491,142.583 323.778,142.583 324.065,142.583 324.352,142.583 324.639,142.583 324.926,142.583 325.213,142.583 325.5,142.583 325.787,142.583 326.074,142.583 326.361,142.583 326.648,142.583 326.935,142.583 327.222,142.583 327.509,142.583 327.796,142.583 328.083,142.583 328.37,142.583 328.657,142.583 328.944,142.583 329.231,142.583 329.519,142.583 329.806,142.583 330.093,142.583 330.38,142.583 330.667,142.583 330.954,142.583 331.241,142.583 331.528,142.583 331.815,142.583 332.102,142.583 332.389,142.583 332.676,142.583 332.963,142.583 333.25,142.583 333.537,142.583 333.824,142.583 334.111,142.583 334.398,142.583 334.685,142.583 334.972,142.583 335.259,142.583 335.546,142.583 335.833,142.583 " />
</g>

<g fill="none" stroke="#2fbeef" stroke-opacity="1" stroke-width="0.666667" stroke-linecap="butt" stroke-linejoin="round" transform="matrix(0.75,0,0,0.75,-38.625,-26)"
font-family="TeXGyreTermes" font-size="13" font-weight="400" font-style="normal" 
>
<polyline fill="none" vector-effect="none" points="284.167,142.583 284.454,142.583 284.741,142.583 285.028,142.583 285.315,142.583 285.602,142.583 285.889,142.583 286.176,142.583 286.463,142.583 286.75,142.583 287.037,142.583 287.324,142.583 287.611,142.583 287.898,142.583 288.185,142.583 288.472,142.583 288.759,142.583 289.046,142.583 289.333,142.583 289.62,142.583 289.907,142.583 290.194,142.583 290.481,142.583 290.769,142.583 291.056,142.583 291.343,142.583 291.63,142.583 291.917,142.583 292.204,142.583 292.491,142.583 292.778,142.583 293.065,142.583 293.352,142.583 293.639,142.583 293.926,142.583 294.213,142.583 294.5,142.583 294.787,142.583 295.074,142.583 295.361,142.583 295.648,142.583 295.935,142.583 296.222,142.583 296.509,142.583 296.796,142.583 297.083,142.583 297.37,142.583 297.657,142.583 297.944,142.583 298.231,142.583 298.519,142.583 298.806,142.583 299.093,142.583 299.38,142.583 299.667,142.583 299.954,142.583 300.241,142.583 300.528,142.583 300.815,142.583 301.102,142.583 301.389,142.583 301.676,142.583 301.963,142.583 302.25,142.583 302.537,142.583 302.824,142.583 303.111,142.583 303.398,142.583 303.685,142.583 303.972,142.583 304.259,142.583 304.546,142.583 304.833,142.583 305.12,142.583 305.407,142.583 305.694,142.583 305.981,142.583 306.269,142.583 306.556,142.583 306.843,142.583 307.13,142.583 307.417,142.583 307.704,142.583 307.991,142.583 308.278,142.583 308.565,142.583 308.852,142.583 309.139,142.583 309.426,142.583 309.713,142.583 310,142.583 310.287,142.583 310.574,142.583 310.861,142.583 311.148,142.583 311.435,142.583 311.722,142.583 312.009,142.583 312.296,142.583 312.583,142.583 312.87,142.583 313.157,142.583 313.444,142.583 313.731,142.583 314.019,142.583 314.306,142.583 314.593,142.583 314.88,142.583 315.167,142.583 315.454,142.583 315.741,142.583 316.028,139.875 316.315,137.167 316.602,134.458 316.889,131.75 317.176,129.042 317.463,126.333 317.75,123.625 318.037,120.917 318.324,118.208 318.611,115.5 318.898,112.792 319.185,110.083 319.472,107.375 319.759,104.667 320.046,101.958 320.333,99.25 320.62,96.5417 320.907,93.8333 321.194,91.125 321.481,88.4167 321.769,91.125 322.056,93.8333 322.343,96.5417 322.63,99.25 322.917,101.958 323.204,104.667 323.491,107.375 323.778,110.083 324.065,112.792 324.352,115.5 324.639,118.208 324.926,120.917 325.213,123.625 325.5,126.333 325.787,129.042 326.074,131.75 326.361,134.458 326.648,137.167 326.935,139.875 327.222,142.583 327.509,142.583 327.796,142.583 328.083,142.583 328.37,142.583 328.657,142.583 328.944,142.583 329.231,142.583 329.519,142.583 329.806,142.583 330.093,142.583 330.38,142.583 330.667,142.583 330.954,142.583 331.241,142.583 331.528,142.583 331.815,142.583 332.102,142.583 332.389,142.583 332.676,142.583 332.963,142.583 333.25,142.583 333.537,142.583 333.824,142.583 334.111,142.583 334.398,142.583 334.685,142.583 334.972,142.583 335.259,142.583 335.546,142.583 335.833,142.583 " />
</g>

<g fill="none" stroke="#d1048b" stroke-opacity="1" stroke-width="0.666667" stroke-linecap="butt" stroke-linejoin="round" transform="matrix(0.75,0,0,0.75,-38.625,-26)"
font-family="TeXGyreTermes" font-size="13" font-weight="400" font-style="normal" 
>
<polyline fill="none" vector-effect="none" points="284.167,142.583 284.454,142.583 284.741,142.583 285.028,142.583 285.315,142.583 285.602,142.583 285.889,142.583 286.176,142.583 286.463,142.583 286.75,142.583 287.037,142.583 287.324,142.583 287.611,142.583 287.898,142.583 288.185,142.583 288.472,142.583 288.759,142.583 289.046,142.583 289.333,142.583 289.62,142.583 289.907,142.583 290.194,142.583 290.481,142.583 290.769,142.583 291.056,142.583 291.343,142.583 291.63,142.583 291.917,142.583 292.204,142.583 292.491,142.583 292.778,142.583 293.065,142.583 293.352,142.583 293.639,142.583 293.926,142.583 294.213,142.583 294.5,142.583 294.787,142.583 295.074,142.583 295.361,142.583 295.648,142.583 295.935,142.583 296.222,142.583 296.509,142.583 296.796,142.583 297.083,142.583 297.37,142.583 297.657,142.583 297.944,142.583 298.231,142.583 298.519,142.583 298.806,142.583 299.093,142.583 299.38,142.583 299.667,142.583 299.954,142.583 300.241,142.583 300.528,142.583 300.815,142.583 301.102,142.583 301.389,142.583 301.676,142.583 301.963,142.583 302.25,142.583 302.537,142.583 302.824,142.583 303.111,142.583 303.398,142.583 303.685,142.583 303.972,142.583 304.259,142.583 304.546,142.583 304.833,142.583 305.12,142.583 305.407,142.583 305.694,142.583 305.981,142.583 306.269,142.583 306.556,142.583 306.843,142.583 307.13,142.583 307.417,142.583 307.704,142.583 307.991,142.583 308.278,142.583 308.565,142.583 308.852,142.583 309.139,142.583 309.426,142.583 309.713,142.583 310,142.583 310.287,142.583 310.574,142.583 310.861,142.583 311.148,142.583 311.435,142.583 311.722,142.583 312.009,142.583 312.296,142.583 312.583,142.583 312.87,142.583 313.157,142.583 313.444,142.583 313.731,142.583 314.019,142.583 314.306,142.583 314.593,142.583 314.88,142.583 315.167,142.583 315.454,142.583 315.741,142.583 316.028,142.583 316.315,142.583 316.602,142.583 316.889,142.583 317.176,142.583 317.463,142.583 317.75,142.583 318.037,142.583 318.324,142.583 318.611,142.583 318.898,142.583 319.185,142.583 319.472,142.583 319.759,142.583 320.046,142.583 320.333,142.583 320.62,142.583 320.907,142.583 321.194,142.583 321.481,142.583 321.769,139.875 322.056,137.167 322.343,134.458 322.63,131.75 322.917,129.042 323.204,126.333 323.491,123.625 323.778,120.917 324.065,118.208 324.352,115.5 324.639,112.792 324.926,110.083 325.213,107.375 325.5,104.667 325.787,101.958 326.074,99.25 326.361,96.5417 326.648,93.8333 326.935,91.125 327.222,88.4167 327.509,91.125 327.796,93.8333 328.083,96.5417 328.37,99.25 328.657,101.958 328.944,104.667 329.231,107.375 329.519,110.083 329.806,112.792 330.093,115.5 330.38,118.208 330.667,120.917 330.954,123.625 331.241,126.333 331.528,129.042 331.815,131.75 332.102,134.458 332.389,137.167 332.676,139.875 332.963,142.583 333.25,142.583 333.537,142.583 333.824,142.583 334.111,142.583 334.398,142.583 334.685,142.583 334.972,142.583 335.259,142.583 335.546,142.583 335.833,142.583 " />
</g>

<g fill="#ffffff" fill-opacity="1" stroke="none" transform="matrix(7.5e-05,0,0,7.5e-05,-38.625,-26)"
font-family="TeXGyreTermes" font-size="13" font-weight="400" font-style="normal" 
>
<path vector-effect="none" fill-rule="evenodd" d="M1.76e+06,670000 L1.76e+06,1.65e+06 L2.38e+06,1.65e+06 L2.38e+06,670000 L1.76e+06,670000"/>
</g>

<g fill="#212121" fill-opacity="1" stroke="#212121" stroke-opacity="1" stroke-width="1" stroke-linecap="square" stroke-linejoin="bevel" transform="matrix(0.75,0,0,0.75,69.75,112.25)"
font-family="TeXGyreTermes" font-size="13" font-weight="400" font-style="normal" 
>
<text fill="#212121" fill-opacity="1" stroke="none" xml:space="preserve" x="0" y="0" font-family="TeXGyreTermes" font-size="13" font-weight="400" font-style="normal" 
 >triangular_49rules (49)</text>
</g>

<g fill="#212121" fill-opacity="1" stroke="#212121" stroke-opacity="1" stroke-width="2.66667" stroke-linecap="square" stroke-linejoin="round" transform="matrix(0.75,0,0,0.75,-38.625,-26)"
font-family="TeXGyreTermes" font-size="13" font-weight="400" font-style="normal" 
>
<polyline fill="none" vector-effect="none" points="176,165 238,165 " />
<polyline fill="none" vector-effect="none" points="176,67 238,67 " />
<polyline fill="none" vector-effect="none" points="176,165 176,67 " />
<polyline fill="none" vector-effect="none" points="238,165 238,67 " />
</g>

<g fill="#212121" fill-opacity="1" stroke="#212121" stroke-opacity="1" stroke-width="1" stroke-linecap="square" stroke-linejoin="bevel" transform="matrix(0.75,0,0,0.75,97.125,58.375)"
font-family="TeXGyreTermes" font-size="13" font-weight="400" font-style="normal" 
>
<text fill="#212121" fill-opacity="1" stroke="none" xml:space="preserve" x="0" y="0" font-family="TeXGyreTermes" font-size="13" font-weight="400" font-style="normal" 
 >Mamdani</text>
</g>

<g fill="#212121" fill-opacity="1" stroke="#212121" stroke-opacity="1" stroke-width="1" stroke-linecap="square" stroke-linejoin="bevel" transform="matrix(0.75,0,0,0.75,102.75,71.125)"
font-family="TeXGyreTermes" font-size="13" font-weight="400" font-style="normal" 
>
<text fill="#212121" fill-opacity="1" stroke="none" xml:space="preserve" x="0" y="0" font-family="TeXGyreTermes" font-size="13" font-weight="400" font-style="normal" 
 >Type 1</text>
</g>
</g>
</svg>
