<?xml version="1.0" encoding="UTF-8" standalone="no"?>
<svg width="94.1917mm" height="73.025mm"
 viewBox="0 0 267 207"
 xmlns="http://www.w3.org/2000/svg" xmlns:xlink="http://www.w3.org/1999/xlink"  version="1.2" baseProfile="tiny">
<title>Qt SVG Document</title>
<desc>MATLAB, The MathWorks, Inc. Version 25.2.0.3123386 R2025b Update 3</desc>
<defs>
</defs>
<g fill="none" stroke="black" stroke-width="1" fill-rule="evenodd" stroke-linecap="square" stroke-linejoin="bevel" >

<g fill="#ffffff" fill-opacity="1" stroke="none" transform="matrix(0.75,0,0,0.75,-8.3,-11.625)"
font-family="MS Shell Dlg 2" font-size="8.25" font-weight="400" font-style="normal" 
>
<path vector-effect="none" fill-rule="evenodd" d="M10,14 L367,14 L367,291 L10,291 L10,14"/>
</g>

<g fill="#ffffff" fill-opacity="1" stroke="none" transform="matrix(7.5e-05,0,0,7.5e-05,-8.3,-11.625)"
font-family="MS Shell Dlg 2" font-size="8.25" font-weight="400" font-style="normal" 
>
<path vector-effect="none" fill-rule="evenodd" d="M590000,220000 L590000,1.31e+06 L3.62e+06,1.31e+06 L3.62e+06,220000 L590000,220000"/>
</g>

<g fill="#212121" fill-opacity="0.14902" stroke="#212121" stroke-opacity="0.14902" stroke-width="0.666667" stroke-linecap="butt" stroke-linejoin="round" transform="matrix(0.75,0,0,0.75,-8.3,-11.625)"
font-family="MS Shell Dlg 2" font-size="8.25" font-weight="400" font-style="normal" 
>
<polyline fill="none" vector-effect="none" points="59,22 59,131 " />
<polyline fill="none" vector-effect="none" points="109.5,22 109.5,131 " />
<polyline fill="none" vector-effect="none" points="160,22 160,131 " />
<polyline fill="none" vector-effect="none" points="210.5,22 210.5,131 " />
<polyline fill="none" vector-effect="none" points="261,22 261,131 " />
<polyline fill="none" vector-effect="none" points="311.5,22 311.5,131 " />
<polyline fill="none" vector-effect="none" points="362,22 362,131 " />
<polyline fill="none" vector-effect="none" points="59,131 362,131 " />
<polyline fill="none" vector-effect="none" points="59,95.2344 362,95.2344 " />
<polyline fill="none" vector-effect="none" points="59,59.4689 362,59.4689 " />
<polyline fill="none" vector-effect="none" points="59,23.7033 362,23.7033 " />
</g>

<g fill="#212121" fill-opacity="1" stroke="#212121" stroke-opacity="1" stroke-width="0.666667" stroke-linecap="square" stroke-linejoin="round" transform="matrix(0.75,0,0,0.75,-8.3,-11.625)"
font-family="MS Shell Dlg 2" font-size="8.25" font-weight="400" font-style="normal" 
>
<polyline fill="none" vector-effect="none" points="59,131 362,131 " />
<polyline fill="none" vector-effect="none" points="59,22 362,22 " />
<polyline fill="none" vector-effect="none" points="59,131 59,127.97 " />
<polyline fill="none" vector-effect="none" points="59,25.03 59,22 " />
<polyline fill="none" vector-effect="none" points="109.5,131 109.5,127.97 " />
<polyline fill="none" vector-effect="none" points="109.5,25.03 109.5,22 " />
<polyline fill="none" vector-effect="none" points="160,131 160,127.97 " />
<polyline fill="none" vector-effect="none" points="160,25.03 160,22 " />
<polyline fill="none" vector-effect="none" points="210.5,131 210.5,127.97 " />
<polyline fill="none" vector-effect="none" points="210.5,25.03 210.5,22 " />
<polyline fill="none" vector-effect="none" points="261,131 261,127.97 " />
<polyline fill="none" vector-effect="none" points="261,25.03 261,22 " />
<polyline fill="none" vector-effect="none" points="311.5,131 311.5,127.97 " />
<polyline fill="none" vector-effect="none" points="311.5,25.03 311.5,22 " />
<polyline fill="none" vector-effect="none" points="362,131 362,127.97 " />
<polyline fill="none" vector-effect="none" points="362,25.03 362,22 " />
</g>

<g fill="#212121" fill-opacity="1" stroke="#212121" stroke-opacity="1" stroke-width="1" stroke-linecap="square" stroke-linejoin="bevel" transform="matrix(0.75,0,0,0.75,33.7,96.325)"
font-family="Helvetica" font-size="11" font-weight="400" font-style="normal" 
>
<text fill="#212121" fill-opacity="1" stroke="none" xml:space="preserve" x="0" y="0" font-family="Helvetica" font-size="11" font-weight="400" font-style="normal" 
 >0</text>
</g>

<g fill="#212121" fill-opacity="1" stroke="#212121" stroke-opacity="1" stroke-width="1" stroke-linecap="square" stroke-linejoin="bevel" transform="matrix(0.75,0,0,0.75,68.2,96.325)"
font-family="Helvetica" font-size="11" font-weight="400" font-style="normal" 
>
<text fill="#212121" fill-opacity="1" stroke="none" xml:space="preserve" x="0" y="0" font-family="Helvetica" font-size="11" font-weight="400" font-style="normal" 
 >0.5</text>
</g>

<g fill="#212121" fill-opacity="1" stroke="#212121" stroke-opacity="1" stroke-width="1" stroke-linecap="square" stroke-linejoin="bevel" transform="matrix(0.75,0,0,0.75,109.45,96.325)"
font-family="Helvetica" font-size="11" font-weight="400" font-style="normal" 
>
<text fill="#212121" fill-opacity="1" stroke="none" xml:space="preserve" x="0" y="0" font-family="Helvetica" font-size="11" font-weight="400" font-style="normal" 
 >1</text>
</g>

<g fill="#212121" fill-opacity="1" stroke="#212121" stroke-opacity="1" stroke-width="1" stroke-linecap="square" stroke-linejoin="bevel" transform="matrix(0.75,0,0,0.75,143.95,96.325)"
font-family="Helvetica" font-size="11" font-weight="400" font-style="normal" 
>
<text fill="#212121" fill-opacity="1" stroke="none" xml:space="preserve" x="0" y="0" font-family="Helvetica" font-size="11" font-weight="400" font-style="normal" 
 >1.5</text>
</g>

<g fill="#212121" fill-opacity="1" stroke="#212121" stroke-opacity="1" stroke-width="1" stroke-linecap="square" stroke-linejoin="bevel" transform="matrix(0.75,0,0,0.75,185.2,96.325)"
font-family="Helvetica" font-size="11" font-weight="400" font-style="normal" 
>
<text fill="#212121" fill-opacity="1" stroke="none" xml:space="preserve" x="0" y="0" font-family="Helvetica" font-size="11" font-weight="400" font-style="normal" 
 >2</text>
</g>

<g fill="#212121" fill-opacity="1" stroke="#212121" stroke-opacity="1" stroke-width="1" stroke-linecap="square" stroke-linejoin="bevel" transform="matrix(0.75,0,0,0.75,219.7,96.325)"
font-family="Helvetica" font-size="11" font-weight="400" font-style="normal" 
>
<text fill="#212121" fill-opacity="1" stroke="none" xml:space="preserve" x="0" y="0" font-family="Helvetica" font-size="11" font-weight="400" font-style="normal" 
 >2.5</text>
</g>

<g fill="#212121" fill-opacity="1" stroke="#212121" stroke-opacity="1" stroke-width="1" stroke-linecap="square" stroke-linejoin="bevel" transform="matrix(0.75,0,0,0.75,260.95,96.325)"
font-family="Helvetica" font-size="11" font-weight="400" font-style="normal" 
>
<text fill="#212121" fill-opacity="1" stroke="none" xml:space="preserve" x="0" y="0" font-family="Helvetica" font-size="11" font-weight="400" font-style="normal" 
 >3</text>
</g>

<g fill="#212121" fill-opacity="1" stroke="#212121" stroke-opacity="1" stroke-width="1" stroke-linecap="square" stroke-linejoin="bevel" transform="matrix(0,-0.75,0.75,0,8.25,90)"
font-family="Helvetica" font-size="12" font-weight="400" font-style="normal" 
>
<text fill="#212121" fill-opacity="1" stroke="none" xml:space="preserve" x="0" y="0" font-family="Helvetica" font-size="12" font-weight="400" font-style="normal" 
 >Angular position (rad)</text>
</g>

<g fill="#212121" fill-opacity="1" stroke="#212121" stroke-opacity="1" stroke-width="0.666667" stroke-linecap="square" stroke-linejoin="round" transform="matrix(0.75,0,0,0.75,-8.3,-11.625)"
font-family="Helvetica" font-size="12" font-weight="400" font-style="normal" 
>
<polyline fill="none" vector-effect="none" points="59,131 59,22 " />
<polyline fill="none" vector-effect="none" points="362,131 362,22 " />
<polyline fill="none" vector-effect="none" points="59,131 62.03,131 " />
<polyline fill="none" vector-effect="none" points="358.97,131 362,131 " />
<polyline fill="none" vector-effect="none" points="59,95.2344 62.03,95.2344 " />
<polyline fill="none" vector-effect="none" points="358.97,95.2344 362,95.2344 " />
<polyline fill="none" vector-effect="none" points="59,59.4689 62.03,59.4689 " />
<polyline fill="none" vector-effect="none" points="358.97,59.4689 362,59.4689 " />
<polyline fill="none" vector-effect="none" points="59,23.7033 62.03,23.7033 " />
<polyline fill="none" vector-effect="none" points="358.97,23.7033 362,23.7033 " />
</g>

<g fill="#212121" fill-opacity="1" stroke="#212121" stroke-opacity="1" stroke-width="1" stroke-linecap="square" stroke-linejoin="bevel" transform="matrix(0.75,0,0,0.75,13.5,89.25)"
font-family="Helvetica" font-size="11" font-weight="400" font-style="normal" 
>
<text fill="#212121" fill-opacity="1" stroke="none" xml:space="preserve" x="0" y="0" font-family="Helvetica" font-size="11" font-weight="400" font-style="normal" 
 >0.085</text>
</g>

<g fill="#212121" fill-opacity="1" stroke="#212121" stroke-opacity="1" stroke-width="1" stroke-linecap="square" stroke-linejoin="bevel" transform="matrix(0.75,0,0,0.75,18,62.4258)"
font-family="Helvetica" font-size="11" font-weight="400" font-style="normal" 
>
<text fill="#212121" fill-opacity="1" stroke="none" xml:space="preserve" x="0" y="0" font-family="Helvetica" font-size="11" font-weight="400" font-style="normal" 
 >0.09</text>
</g>

<g fill="#212121" fill-opacity="1" stroke="#212121" stroke-opacity="1" stroke-width="1" stroke-linecap="square" stroke-linejoin="bevel" transform="matrix(0.75,0,0,0.75,13.5,35.6017)"
font-family="Helvetica" font-size="11" font-weight="400" font-style="normal" 
>
<text fill="#212121" fill-opacity="1" stroke="none" xml:space="preserve" x="0" y="0" font-family="Helvetica" font-size="11" font-weight="400" font-style="normal" 
 >0.095</text>
</g>

<g fill="#212121" fill-opacity="1" stroke="#212121" stroke-opacity="1" stroke-width="1" stroke-linecap="square" stroke-linejoin="bevel" transform="matrix(0.75,0,0,0.75,22.5,8.77747)"
font-family="Helvetica" font-size="11" font-weight="400" font-style="normal" 
>
<text fill="#212121" fill-opacity="1" stroke="none" xml:space="preserve" x="0" y="0" font-family="Helvetica" font-size="11" font-weight="400" font-style="normal" 
 >0.1</text>
</g>

<g fill="none" stroke="#1171be" stroke-opacity="1" stroke-width="0.666667" stroke-linecap="butt" stroke-linejoin="round" transform="matrix(0.75,0,0,0.75,-8.3,-11.625)"
font-family="Helvetica" font-size="11" font-weight="400" font-style="normal" 
>
<polyline fill="none" vector-effect="none" points="59,23.7033 59.0001,23.7033 59.0007,23.7033 59.0038,23.7033 59.0177,23.7031 59.0638,23.7005 59.1839,23.6817 59.4555,23.5838 60.0371,23.2123 60.7375,22.6839 61.5738,22.1975 62.359,22 62.9987,22.0206 63.5886,22.1486 64.2628,22.3776 65.0928,22.7212 66.1266,23.1694 67.6728,23.7835 69.0221,24.2446 70.1163,24.5865 71.2458,24.9299 72.7721,25.3981 75.0274,26.1095 76.9842,26.7367 78.6816,27.2799 80.8761,27.9784 83.5917,28.8413 86.2863,29.6988 88.9592,30.5503 91.6509,31.4075 94.2292,32.2285 96.6561,33.0012 99.0819,33.7738 101.7,34.6076 104.501,35.4995 107.232,36.3693 109.718,37.1613 112.054,37.9053 114.497,38.6835 117.236,39.5559 120.107,40.4704 122.771,41.319 125.136,42.0725 127.42,42.8001 129.955,43.6079 132.847,44.5292 135.733,45.4484 138.262,46.2544 140.496,46.9662 142.785,47.6954 145.504,48.5619 148.54,49.5288 151.339,50.4205 153.674,51.1648 155.804,51.8436 158.209,52.6099 161.201,53.5629 164.279,54.5436 166.86,55.3659 168.982,56.0421 171.101,56.7174 173.812,57.581 177.045,58.6106 179.31,59.3321 181.576,60.054 184.238,60.902 187.358,61.8956 190.275,62.8247 192.625,63.5734 194.668,64.2245 196.958,64.9539 199.988,65.9188 203.179,66.935 205.253,67.5955 207.328,68.2566 210.106,69.142 213.685,70.2821 215.833,70.966 217.981,71.6506 220.703,72.5182 224.168,73.6224 226.399,74.333 228.629,75.0441 231.304,75.8969 234.543,76.9293 236.872,77.6714 239.201,78.414 241.84,79.2553 244.852,80.2156 247.734,81.1345 250.15,81.9051 252.284,82.5856 254.596,83.3233 257.504,84.2505 260.64,85.2507 263.336,86.1107 265.51,86.8043 267.575,87.4632 270.14,88.2816 273.363,89.3092 275.733,90.0647 278.103,90.8207 280.737,91.6608 283.675,92.5982 286.497,93.4981 288.924,94.2723 291.118,94.9724 293.481,95.7265 296.339,96.6379 299.382,97.6084 302.056,98.4613 304.282,99.1718 306.418,99.8534 308.98,100.671 312.092,101.663 315.078,102.616 317.495,103.386 319.544,104.04 321.76,104.747 324.703,105.686 327.941,106.718 330.051,107.391 332.162,108.064 334.896,108.936 338.349,110.037 340.543,110.736 342.738,111.436 345.416,112.29 348.704,113.338 350.992,114.068 353.281,114.797 355.918,115.638 358.981,116.614 361.366,117.374 362,117.576 " />
</g>

<g fill="#ffffff" fill-opacity="1" stroke="none" transform="matrix(7.5e-05,0,0,7.5e-05,-8.3,-11.625)"
font-family="Helvetica" font-size="11" font-weight="400" font-style="normal" 
>
<path vector-effect="none" fill-rule="evenodd" d="M590000,1.52e+06 L590000,2.6e+06 L3.62e+06,2.6e+06 L3.62e+06,1.52e+06 L590000,1.52e+06"/>
</g>

<g fill="#212121" fill-opacity="0.14902" stroke="#212121" stroke-opacity="0.14902" stroke-width="0.666667" stroke-linecap="butt" stroke-linejoin="round" transform="matrix(0.75,0,0,0.75,-8.3,-11.625)"
font-family="Helvetica" font-size="11" font-weight="400" font-style="normal" 
>
<polyline fill="none" vector-effect="none" points="59,152 59,260 " />
<polyline fill="none" vector-effect="none" points="109.5,152 109.5,260 " />
<polyline fill="none" vector-effect="none" points="160,152 160,260 " />
<polyline fill="none" vector-effect="none" points="210.5,152 210.5,260 " />
<polyline fill="none" vector-effect="none" points="261,152 261,260 " />
<polyline fill="none" vector-effect="none" points="311.5,152 311.5,260 " />
<polyline fill="none" vector-effect="none" points="362,152 362,260 " />
<polyline fill="none" vector-effect="none" points="59,245.69 362,245.69 " />
<polyline fill="none" vector-effect="none" points="59,221.91 362,221.91 " />
<polyline fill="none" vector-effect="none" points="59,198.13 362,198.13 " />
<polyline fill="none" vector-effect="none" points="59,174.35 362,174.35 " />
</g>

<g fill="#212121" fill-opacity="1" stroke="#212121" stroke-opacity="1" stroke-width="1" stroke-linecap="square" stroke-linejoin="bevel" transform="matrix(0.75,0,0,0.75,128.2,203.075)"
font-family="Helvetica" font-size="12" font-weight="400" font-style="normal" 
>
<text fill="#212121" fill-opacity="1" stroke="none" xml:space="preserve" x="0" y="0" font-family="Helvetica" font-size="12" font-weight="400" font-style="normal" 
 >Time (sec)</text>
</g>

<g fill="#212121" fill-opacity="1" stroke="#212121" stroke-opacity="1" stroke-width="0.666667" stroke-linecap="square" stroke-linejoin="round" transform="matrix(0.75,0,0,0.75,-8.3,-11.625)"
font-family="Helvetica" font-size="12" font-weight="400" font-style="normal" 
>
<polyline fill="none" vector-effect="none" points="59,260 362,260 " />
<polyline fill="none" vector-effect="none" points="59,152 362,152 " />
<polyline fill="none" vector-effect="none" points="59,260 59,256.97 " />
<polyline fill="none" vector-effect="none" points="59,155.03 59,152 " />
<polyline fill="none" vector-effect="none" points="109.5,260 109.5,256.97 " />
<polyline fill="none" vector-effect="none" points="109.5,155.03 109.5,152 " />
<polyline fill="none" vector-effect="none" points="160,260 160,256.97 " />
<polyline fill="none" vector-effect="none" points="160,155.03 160,152 " />
<polyline fill="none" vector-effect="none" points="210.5,260 210.5,256.97 " />
<polyline fill="none" vector-effect="none" points="210.5,155.03 210.5,152 " />
<polyline fill="none" vector-effect="none" points="261,260 261,256.97 " />
<polyline fill="none" vector-effect="none" points="261,155.03 261,152 " />
<polyline fill="none" vector-effect="none" points="311.5,260 311.5,256.97 " />
<polyline fill="none" vector-effect="none" points="311.5,155.03 311.5,152 " />
<polyline fill="none" vector-effect="none" points="362,260 362,256.97 " />
<polyline fill="none" vector-effect="none" points="362,155.03 362,152 " />
</g>

<g fill="#212121" fill-opacity="1" stroke="#212121" stroke-opacity="1" stroke-width="1" stroke-linecap="square" stroke-linejoin="bevel" transform="matrix(0.75,0,0,0.75,33.7,193.075)"
font-family="Helvetica" font-size="11" font-weight="400" font-style="normal" 
>
<text fill="#212121" fill-opacity="1" stroke="none" xml:space="preserve" x="0" y="0" font-family="Helvetica" font-size="11" font-weight="400" font-style="normal" 
 >0</text>
</g>

<g fill="#212121" fill-opacity="1" stroke="#212121" stroke-opacity="1" stroke-width="1" stroke-linecap="square" stroke-linejoin="bevel" transform="matrix(0.75,0,0,0.75,68.2,193.075)"
font-family="Helvetica" font-size="11" font-weight="400" font-style="normal" 
>
<text fill="#212121" fill-opacity="1" stroke="none" xml:space="preserve" x="0" y="0" font-family="Helvetica" font-size="11" font-weight="400" font-style="normal" 
 >0.5</text>
</g>

<g fill="#212121" fill-opacity="1" stroke="#212121" stroke-opacity="1" stroke-width="1" stroke-linecap="square" stroke-linejoin="bevel" transform="matrix(0.75,0,0,0.75,109.45,193.075)"
font-family="Helvetica" font-size="11" font-weight="400" font-style="normal" 
>
<text fill="#212121" fill-opacity="1" stroke="none" xml:space="preserve" x="0" y="0" font-family="Helvetica" font-size="11" font-weight="400" font-style="normal" 
 >1</text>
</g>

<g fill="#212121" fill-opacity="1" stroke="#212121" stroke-opacity="1" stroke-width="1" stroke-linecap="square" stroke-linejoin="bevel" transform="matrix(0.75,0,0,0.75,143.95,193.075)"
font-family="Helvetica" font-size="11" font-weight="400" font-style="normal" 
>
<text fill="#212121" fill-opacity="1" stroke="none" xml:space="preserve" x="0" y="0" font-family="Helvetica" font-size="11" font-weight="400" font-style="normal" 
 >1.5</text>
</g>

<g fill="#212121" fill-opacity="1" stroke="#212121" stroke-opacity="1" stroke-width="1" stroke-linecap="square" stroke-linejoin="bevel" transform="matrix(0.75,0,0,0.75,185.2,193.075)"
font-family="Helvetica" font-size="11" font-weight="400" font-style="normal" 
>
<text fill="#212121" fill-opacity="1" stroke="none" xml:space="preserve" x="0" y="0" font-family="Helvetica" font-size="11" font-weight="400" font-style="normal" 
 >2</text>
</g>

<g fill="#212121" fill-opacity="1" stroke="#212121" stroke-opacity="1" stroke-width="1" stroke-linecap="square" stroke-linejoin="bevel" transform="matrix(0.75,0,0,0.75,219.7,193.075)"
font-family="Helvetica" font-size="11" font-weight="400" font-style="normal" 
>
<text fill="#212121" fill-opacity="1" stroke="none" xml:space="preserve" x="0" y="0" font-family="Helvetica" font-size="11" font-weight="400" font-style="normal" 
 >2.5</text>
</g>

<g fill="#212121" fill-opacity="1" stroke="#212121" stroke-opacity="1" stroke-width="1" stroke-linecap="square" stroke-linejoin="bevel" transform="matrix(0.75,0,0,0.75,260.95,193.075)"
font-family="Helvetica" font-size="11" font-weight="400" font-style="normal" 
>
<text fill="#212121" fill-opacity="1" stroke="none" xml:space="preserve" x="0" y="0" font-family="Helvetica" font-size="11" font-weight="400" font-style="normal" 
 >3</text>
</g>

<g fill="#212121" fill-opacity="1" stroke="#212121" stroke-opacity="1" stroke-width="1" stroke-linecap="square" stroke-linejoin="bevel" transform="matrix(0,-0.75,0.75,0,18,171.75)"
font-family="Helvetica" font-size="12" font-weight="400" font-style="normal" 
>
<text fill="#212121" fill-opacity="1" stroke="none" xml:space="preserve" x="0" y="0" font-family="Helvetica" font-size="12" font-weight="400" font-style="normal" 
 >Input force (N)</text>
</g>

<g fill="#212121" fill-opacity="1" stroke="#212121" stroke-opacity="1" stroke-width="0.666667" stroke-linecap="square" stroke-linejoin="round" transform="matrix(0.75,0,0,0.75,-8.3,-11.625)"
font-family="Helvetica" font-size="12" font-weight="400" font-style="normal" 
>
<polyline fill="none" vector-effect="none" points="59,260 59,152 " />
<polyline fill="none" vector-effect="none" points="362,260 362,152 " />
<polyline fill="none" vector-effect="none" points="59,245.69 62.03,245.69 " />
<polyline fill="none" vector-effect="none" points="358.97,245.69 362,245.69 " />
<polyline fill="none" vector-effect="none" points="59,221.91 62.03,221.91 " />
<polyline fill="none" vector-effect="none" points="358.97,221.91 362,221.91 " />
<polyline fill="none" vector-effect="none" points="59,198.13 62.03,198.13 " />
<polyline fill="none" vector-effect="none" points="358.97,198.13 362,198.13 " />
<polyline fill="none" vector-effect="none" points="59,174.35 62.03,174.35 " />
<polyline fill="none" vector-effect="none" points="358.97,174.35 362,174.35 " />
</g>

<g fill="#212121" fill-opacity="1" stroke="#212121" stroke-opacity="1" stroke-width="1" stroke-linecap="square" stroke-linejoin="bevel" transform="matrix(0.75,0,0,0.75,22.5,175.268)"
font-family="Helvetica" font-size="11" font-weight="400" font-style="normal" 
>
<text fill="#212121" fill-opacity="1" stroke="none" xml:space="preserve" x="0" y="0" font-family="Helvetica" font-size="11" font-weight="400" font-style="normal" 
 >1.4</text>
</g>

<g fill="#212121" fill-opacity="1" stroke="#212121" stroke-opacity="1" stroke-width="1" stroke-linecap="square" stroke-linejoin="bevel" transform="matrix(0.75,0,0,0.75,22.5,157.433)"
font-family="Helvetica" font-size="11" font-weight="400" font-style="normal" 
>
<text fill="#212121" fill-opacity="1" stroke="none" xml:space="preserve" x="0" y="0" font-family="Helvetica" font-size="11" font-weight="400" font-style="normal" 
 >1.6</text>
</g>

<g fill="#212121" fill-opacity="1" stroke="#212121" stroke-opacity="1" stroke-width="1" stroke-linecap="square" stroke-linejoin="bevel" transform="matrix(0.75,0,0,0.75,22.5,139.597)"
font-family="Helvetica" font-size="11" font-weight="400" font-style="normal" 
>
<text fill="#212121" fill-opacity="1" stroke="none" xml:space="preserve" x="0" y="0" font-family="Helvetica" font-size="11" font-weight="400" font-style="normal" 
 >1.8</text>
</g>

<g fill="#212121" fill-opacity="1" stroke="#212121" stroke-opacity="1" stroke-width="1" stroke-linecap="square" stroke-linejoin="bevel" transform="matrix(0.75,0,0,0.75,29.25,121.762)"
font-family="Helvetica" font-size="11" font-weight="400" font-style="normal" 
>
<text fill="#212121" fill-opacity="1" stroke="none" xml:space="preserve" x="0" y="0" font-family="Helvetica" font-size="11" font-weight="400" font-style="normal" 
 >2</text>
</g>

<g fill="none" stroke="#1171be" stroke-opacity="1" stroke-width="0.666667" stroke-linecap="butt" stroke-linejoin="round" transform="matrix(0.75,0,0,0.75,-8.3,-11.625)"
font-family="Helvetica" font-size="11" font-weight="400" font-style="normal" 
>
<polyline fill="none" vector-effect="none" points="59,216.304 59.0001,216.297 59.0007,216.253 59.0038,216.037 59.0177,215.052 59.0638,211.648 59.1839,202.87 59.4555,185.683 60.0371,162.097 60.7375,152 61.5738,166.796 62.359,194.469 62.9987,217.994 63.5886,229.987 64.2628,237.916 65.0928,242.733 66.1266,244.081 67.6728,241.924 69.0221,238.505 70.1163,236.717 71.2458,236.262 72.7721,236.552 75.0274,237.278 76.9842,237.76 78.6816,237.862 80.8761,237.92 83.5917,238.099 86.2863,238.342 88.9592,238.568 91.6509,238.775 94.2292,238.972 96.6561,239.164 99.0819,239.357 101.7,239.561 104.501,239.779 107.232,239.995 109.718,240.192 112.054,240.378 114.497,240.569 117.236,240.78 120.107,241.006 122.771,241.218 125.136,241.405 127.42,241.587 129.955,241.783 132.847,242.006 135.733,242.236 138.262,242.437 140.496,242.615 142.785,242.796 145.504,243.003 148.54,243.24 151.339,243.465 153.674,243.649 155.804,243.821 158.209,244.008 161.201,244.234 164.279,244.48 166.86,244.686 168.982,244.855 171.101,245.028 173.812,245.23 177.045,245.478 179.31,245.651 181.576,245.841 184.238,246.05 187.358,246.29 190.275,246.525 192.625,246.709 194.668,246.877 196.958,247.056 199.988,247.279 203.179,247.532 205.253,247.686 207.328,247.868 210.106,248.082 213.685,248.355 215.833,248.513 217.981,248.7 220.703,248.914 224.168,249.179 226.399,249.345 228.629,249.535 231.304,249.746 234.543,249.994 236.872,250.171 239.201,250.364 241.84,250.572 244.852,250.805 247.734,251.035 250.15,251.225 252.284,251.398 254.596,251.58 257.504,251.799 260.64,252.046 263.336,252.265 265.51,252.435 267.575,252.606 270.14,252.8 273.363,253.043 275.733,253.225 278.103,253.422 280.737,253.63 283.675,253.857 286.497,254.081 288.924,254.273 291.118,254.449 293.481,254.635 296.339,254.852 299.382,255.091 302.056,255.306 304.282,255.482 306.418,255.656 308.98,255.851 312.092,256.088 315.078,256.329 317.495,256.52 319.544,256.687 321.76,256.863 324.703,257.081 327.941,257.336 330.051,257.493 332.162,257.676 334.896,257.888 338.349,258.152 340.543,258.315 342.738,258.503 345.416,258.714 348.704,258.966 350.992,259.137 353.281,259.328 355.918,259.537 358.981,259.773 361.366,259.954 362,260 " />
</g>
</g>
</svg>
