<?xml version="1.0" encoding="UTF-8" standalone="no"?>
<svg width="93.1333mm" height="50.4472mm"
 viewBox="0 0 264 143"
 xmlns="http://www.w3.org/2000/svg" xmlns:xlink="http://www.w3.org/1999/xlink"  version="1.2" baseProfile="tiny">
<title>Qt SVG Document</title>
<desc>MATLAB, The MathWorks, Inc. Version 25.2.0.3123386 R2025b Update 3</desc>
<defs>
</defs>
<g fill="none" stroke="black" stroke-width="1" fill-rule="evenodd" stroke-linecap="square" stroke-linejoin="bevel" >

<g fill="#ffffff" fill-opacity="1" stroke="none" transform="matrix(0.75,0,0,0.75,-10.2,-9.75)"
font-family="MS Shell Dlg 2" font-size="8.25" font-weight="400" font-style="normal" 
>
<path vector-effect="none" fill-rule="evenodd" d="M12,11 L364,11 L364,202 L12,202 L12,11"/>
</g>

<g fill="#ffffff" fill-opacity="1" stroke="none" transform="matrix(7.5e-05,0,0,7.5e-05,-10.2,-9.75)"
font-family="MS Shell Dlg 2" font-size="8.25" font-weight="400" font-style="normal" 
>
<path vector-effect="none" fill-rule="evenodd" d="M520000,150000 L520000,1.67e+06 L3.62e+06,1.67e+06 L3.62e+06,150000 L520000,150000"/>
</g>

<g fill="#212121" fill-opacity="1" stroke="#212121" stroke-opacity="1" stroke-width="1" stroke-linecap="square" stroke-linejoin="bevel" transform="matrix(0.75,0,0,0.75,113.175,138.3)"
font-family="Helvetica" font-size="13" font-weight="400" font-style="normal" 
>
<text fill="#212121" fill-opacity="1" stroke="none" xml:space="preserve" x="0" y="0" font-family="Helvetica" font-size="13" font-weight="400" font-style="normal" 
 >chang_in_error</text>
</g>

<g fill="#212121" fill-opacity="1" stroke="#212121" stroke-opacity="1" stroke-width="0.666667" stroke-linecap="square" stroke-linejoin="round" transform="matrix(0.75,0,0,0.75,-10.2,-9.75)"
font-family="Helvetica" font-size="13" font-weight="400" font-style="normal" 
>
<polyline fill="none" vector-effect="none" points="52,167 362,167 " />
<polyline fill="none" vector-effect="none" points="52,15 362,15 " />
<polyline fill="none" vector-effect="none" points="52,167 52,163.9 " />
<polyline fill="none" vector-effect="none" points="52,18.1 52,15 " />
<polyline fill="none" vector-effect="none" points="129.5,167 129.5,163.9 " />
<polyline fill="none" vector-effect="none" points="129.5,18.1 129.5,15 " />
<polyline fill="none" vector-effect="none" points="207,167 207,163.9 " />
<polyline fill="none" vector-effect="none" points="207,18.1 207,15 " />
<polyline fill="none" vector-effect="none" points="284.5,167 284.5,163.9 " />
<polyline fill="none" vector-effect="none" points="284.5,18.1 284.5,15 " />
<polyline fill="none" vector-effect="none" points="362,167 362,163.9 " />
<polyline fill="none" vector-effect="none" points="362,18.1 362,15 " />
</g>

<g fill="#212121" fill-opacity="1" stroke="#212121" stroke-opacity="1" stroke-width="1" stroke-linecap="square" stroke-linejoin="bevel" transform="matrix(0.75,0,0,0.75,24.675,126.55)"
font-family="Helvetica" font-size="12" font-weight="400" font-style="normal" 
>
<text fill="#212121" fill-opacity="1" stroke="none" xml:space="preserve" x="0" y="0" font-family="Helvetica" font-size="12" font-weight="400" font-style="normal" 
 >-1</text>
</g>

<g fill="#212121" fill-opacity="1" stroke="#212121" stroke-opacity="1" stroke-width="1" stroke-linecap="square" stroke-linejoin="bevel" transform="matrix(0.75,0,0,0.75,79.05,126.55)"
font-family="Helvetica" font-size="12" font-weight="400" font-style="normal" 
>
<text fill="#212121" fill-opacity="1" stroke="none" xml:space="preserve" x="0" y="0" font-family="Helvetica" font-size="12" font-weight="400" font-style="normal" 
 >-0.5</text>
</g>

<g fill="#212121" fill-opacity="1" stroke="#212121" stroke-opacity="1" stroke-width="1" stroke-linecap="square" stroke-linejoin="bevel" transform="matrix(0.75,0,0,0.75,142.425,126.55)"
font-family="Helvetica" font-size="12" font-weight="400" font-style="normal" 
>
<text fill="#212121" fill-opacity="1" stroke="none" xml:space="preserve" x="0" y="0" font-family="Helvetica" font-size="12" font-weight="400" font-style="normal" 
 >0</text>
</g>

<g fill="#212121" fill-opacity="1" stroke="#212121" stroke-opacity="1" stroke-width="1" stroke-linecap="square" stroke-linejoin="bevel" transform="matrix(0.75,0,0,0.75,196.8,126.55)"
font-family="Helvetica" font-size="12" font-weight="400" font-style="normal" 
>
<text fill="#212121" fill-opacity="1" stroke="none" xml:space="preserve" x="0" y="0" font-family="Helvetica" font-size="12" font-weight="400" font-style="normal" 
 >0.5</text>
</g>

<g fill="#212121" fill-opacity="1" stroke="#212121" stroke-opacity="1" stroke-width="1" stroke-linecap="square" stroke-linejoin="bevel" transform="matrix(0.75,0,0,0.75,258.675,126.55)"
font-family="Helvetica" font-size="12" font-weight="400" font-style="normal" 
>
<text fill="#212121" fill-opacity="1" stroke="none" xml:space="preserve" x="0" y="0" font-family="Helvetica" font-size="12" font-weight="400" font-style="normal" 
 >1</text>
</g>

<g fill="#212121" fill-opacity="1" stroke="#212121" stroke-opacity="1" stroke-width="1" stroke-linecap="square" stroke-linejoin="bevel" transform="matrix(0,-0.75,0.75,0,8.25,107.625)"
font-family="Helvetica" font-size="13" font-weight="400" font-style="normal" 
>
<text fill="#212121" fill-opacity="1" stroke="none" xml:space="preserve" x="0" y="0" font-family="Helvetica" font-size="13" font-weight="400" font-style="normal" 
 >Degree of membership</text>
</g>

<g fill="#212121" fill-opacity="1" stroke="#212121" stroke-opacity="1" stroke-width="0.666667" stroke-linecap="square" stroke-linejoin="round" transform="matrix(0.75,0,0,0.75,-10.2,-9.75)"
font-family="Helvetica" font-size="13" font-weight="400" font-style="normal" 
>
<polyline fill="none" vector-effect="none" points="52,167 52,15 " />
<polyline fill="none" vector-effect="none" points="362,167 362,15 " />
<polyline fill="none" vector-effect="none" points="52,154.333 55.1,154.333 " />
<polyline fill="none" vector-effect="none" points="358.9,154.333 362,154.333 " />
<polyline fill="none" vector-effect="none" points="52,129 55.1,129 " />
<polyline fill="none" vector-effect="none" points="358.9,129 362,129 " />
<polyline fill="none" vector-effect="none" points="52,103.667 55.1,103.667 " />
<polyline fill="none" vector-effect="none" points="358.9,103.667 362,103.667 " />
<polyline fill="none" vector-effect="none" points="52,78.3333 55.1,78.3333 " />
<polyline fill="none" vector-effect="none" points="358.9,78.3333 362,78.3333 " />
<polyline fill="none" vector-effect="none" points="52,53 55.1,53 " />
<polyline fill="none" vector-effect="none" points="358.9,53 362,53 " />
<polyline fill="none" vector-effect="none" points="52,27.6667 55.1,27.6667 " />
<polyline fill="none" vector-effect="none" points="358.9,27.6667 362,27.6667 " />
</g>

<g fill="#212121" fill-opacity="1" stroke="#212121" stroke-opacity="1" stroke-width="1" stroke-linecap="square" stroke-linejoin="bevel" transform="matrix(0.75,0,0,0.75,20.75,109)"
font-family="Helvetica" font-size="12" font-weight="400" font-style="normal" 
>
<text fill="#212121" fill-opacity="1" stroke="none" xml:space="preserve" x="0" y="0" font-family="Helvetica" font-size="12" font-weight="400" font-style="normal" 
 >0</text>
</g>

<g fill="#212121" fill-opacity="1" stroke="#212121" stroke-opacity="1" stroke-width="1" stroke-linecap="square" stroke-linejoin="bevel" transform="matrix(0.75,0,0,0.75,13.25,90)"
font-family="Helvetica" font-size="12" font-weight="400" font-style="normal" 
>
<text fill="#212121" fill-opacity="1" stroke="none" xml:space="preserve" x="0" y="0" font-family="Helvetica" font-size="12" font-weight="400" font-style="normal" 
 >0.2</text>
</g>

<g fill="#212121" fill-opacity="1" stroke="#212121" stroke-opacity="1" stroke-width="1" stroke-linecap="square" stroke-linejoin="bevel" transform="matrix(0.75,0,0,0.75,13.25,71)"
font-family="Helvetica" font-size="12" font-weight="400" font-style="normal" 
>
<text fill="#212121" fill-opacity="1" stroke="none" xml:space="preserve" x="0" y="0" font-family="Helvetica" font-size="12" font-weight="400" font-style="normal" 
 >0.4</text>
</g>

<g fill="#212121" fill-opacity="1" stroke="#212121" stroke-opacity="1" stroke-width="1" stroke-linecap="square" stroke-linejoin="bevel" transform="matrix(0.75,0,0,0.75,13.25,52)"
font-family="Helvetica" font-size="12" font-weight="400" font-style="normal" 
>
<text fill="#212121" fill-opacity="1" stroke="none" xml:space="preserve" x="0" y="0" font-family="Helvetica" font-size="12" font-weight="400" font-style="normal" 
 >0.6</text>
</g>

<g fill="#212121" fill-opacity="1" stroke="#212121" stroke-opacity="1" stroke-width="1" stroke-linecap="square" stroke-linejoin="bevel" transform="matrix(0.75,0,0,0.75,13.25,33)"
font-family="Helvetica" font-size="12" font-weight="400" font-style="normal" 
>
<text fill="#212121" fill-opacity="1" stroke="none" xml:space="preserve" x="0" y="0" font-family="Helvetica" font-size="12" font-weight="400" font-style="normal" 
 >0.8</text>
</g>

<g fill="#212121" fill-opacity="1" stroke="#212121" stroke-opacity="1" stroke-width="1" stroke-linecap="square" stroke-linejoin="bevel" transform="matrix(0.75,0,0,0.75,20.75,14)"
font-family="Helvetica" font-size="12" font-weight="400" font-style="normal" 
>
<text fill="#212121" fill-opacity="1" stroke="none" xml:space="preserve" x="0" y="0" font-family="Helvetica" font-size="12" font-weight="400" font-style="normal" 
 >1</text>
</g>

<g fill="none" stroke="#1171be" stroke-opacity="1" stroke-width="0.666667" stroke-linecap="butt" stroke-linejoin="round" transform="matrix(0.75,0,0,0.75,-10.2,-9.75)"
font-family="Helvetica" font-size="12" font-weight="400" font-style="normal" 
>
<polyline fill="none" vector-effect="none" points="52,27.6667 53.7222,27.6667 55.4444,27.6667 57.1667,27.6667 58.8889,27.6667 60.6111,27.6667 62.3333,27.6667 64.0556,27.6667 65.7778,27.6667 67.5,27.6667 69.2222,27.6667 70.9445,27.6667 72.6667,27.6667 74.3889,27.6667 76.1111,27.6667 77.8333,27.6667 79.5556,27.6667 81.2778,27.6667 83,27.6667 84.7222,27.6667 86.4444,31.3536 88.1667,36.7295 89.8889,42.1054 91.6111,47.4813 93.3333,52.8572 95.0556,58.2331 96.7778,63.6091 98.5,68.9849 100.222,74.3608 101.944,79.7367 103.667,85.1126 105.389,90.4885 107.111,95.8644 108.833,101.24 110.556,106.616 112.278,111.992 114,117.368 115.722,122.744 117.444,128.12 119.167,133.496 120.889,138.872 122.611,144.248 124.333,149.623 126.056,154.333 127.778,154.333 129.5,154.333 131.222,154.333 132.944,154.333 134.667,154.333 136.389,154.333 138.111,154.333 139.833,154.333 141.556,154.333 143.278,154.333 145,154.333 146.722,154.333 148.444,154.333 150.167,154.333 151.889,154.333 153.611,154.333 155.333,154.333 157.056,154.333 158.778,154.333 160.5,154.333 162.222,154.333 163.944,154.333 165.667,154.333 167.389,154.333 169.111,154.333 170.833,154.333 172.556,154.333 174.278,154.333 176,154.333 177.722,154.333 179.444,154.333 181.167,154.333 182.889,154.333 184.611,154.333 186.333,154.333 188.056,154.333 189.778,154.333 191.5,154.333 193.222,154.333 194.944,154.333 196.667,154.333 198.389,154.333 200.111,154.333 201.833,154.333 203.556,154.333 205.278,154.333 207,154.333 208.722,154.333 210.444,154.333 212.167,154.333 213.889,154.333 215.611,154.333 217.333,154.333 219.056,154.333 220.778,154.333 222.5,154.333 224.222,154.333 225.944,154.333 227.667,154.333 229.389,154.333 231.111,154.333 232.833,154.333 234.556,154.333 236.278,154.333 238,154.333 239.722,154.333 241.444,154.333 243.167,154.333 244.889,154.333 246.611,154.333 248.333,154.333 250.056,154.333 251.778,154.333 253.5,154.333 255.222,154.333 256.944,154.333 258.667,154.333 260.389,154.333 262.111,154.333 263.833,154.333 265.556,154.333 267.278,154.333 269,154.333 270.722,154.333 272.444,154.333 274.167,154.333 275.889,154.333 277.611,154.333 279.333,154.333 281.056,154.333 282.778,154.333 284.5,154.333 286.222,154.333 287.944,154.333 289.667,154.333 291.389,154.333 293.111,154.333 294.833,154.333 296.556,154.333 298.278,154.333 300,154.333 301.722,154.333 303.444,154.333 305.167,154.333 306.889,154.333 308.611,154.333 310.333,154.333 312.056,154.333 313.778,154.333 315.5,154.333 317.222,154.333 318.944,154.333 320.667,154.333 322.389,154.333 324.111,154.333 325.833,154.333 327.556,154.333 329.278,154.333 331,154.333 332.722,154.333 334.444,154.333 336.167,154.333 337.889,154.333 339.611,154.333 341.333,154.333 343.056,154.333 344.778,154.333 346.5,154.333 348.222,154.333 349.944,154.333 351.667,154.333 353.389,154.333 355.111,154.333 356.833,154.333 358.556,154.333 360.278,154.333 362,154.333 " />
</g>

<g fill="none" stroke="#dd5400" stroke-opacity="1" stroke-width="0.666667" stroke-linecap="butt" stroke-linejoin="round" transform="matrix(0.75,0,0,0.75,-10.2,-9.75)"
font-family="Helvetica" font-size="12" font-weight="400" font-style="normal" 
>
<polyline fill="none" vector-effect="none" points="52,154.333 53.7222,154.333 55.4444,154.333 57.1667,154.333 58.8889,154.333 60.6111,154.333 62.3333,154.333 64.0556,154.333 65.7778,154.333 67.5,154.333 69.2222,154.333 70.9445,154.333 72.6667,154.333 74.3889,154.333 76.1111,154.333 77.8333,154.333 79.5556,154.333 81.2778,154.333 83,154.333 84.7222,154.333 86.4444,150.646 88.1667,145.27 89.8889,139.895 91.6111,134.519 93.3333,129.143 95.0556,123.767 96.7778,118.391 98.5,113.015 100.222,107.639 101.944,102.263 103.667,96.8874 105.389,91.5115 107.111,86.1356 108.833,80.7597 110.556,75.3838 112.278,70.0079 114,64.632 115.722,59.2561 117.444,53.8801 119.167,48.5042 120.889,43.1283 122.611,37.7524 124.333,32.3765 126.056,28.3327 127.778,33.7086 129.5,39.0845 131.222,44.4604 132.944,49.8363 134.667,55.2122 136.389,60.5881 138.111,65.964 139.833,71.3399 141.556,76.7158 143.278,82.0917 145,87.4676 146.722,92.8435 148.444,98.2194 150.167,103.595 151.889,108.971 153.611,114.347 155.333,119.723 157.056,125.099 158.778,130.475 160.5,135.851 162.222,141.227 163.944,146.602 165.667,151.978 167.389,154.333 169.111,154.333 170.833,154.333 172.556,154.333 174.278,154.333 176,154.333 177.722,154.333 179.444,154.333 181.167,154.333 182.889,154.333 184.611,154.333 186.333,154.333 188.056,154.333 189.778,154.333 191.5,154.333 193.222,154.333 194.944,154.333 196.667,154.333 198.389,154.333 200.111,154.333 201.833,154.333 203.556,154.333 205.278,154.333 207,154.333 208.722,154.333 210.444,154.333 212.167,154.333 213.889,154.333 215.611,154.333 217.333,154.333 219.056,154.333 220.778,154.333 222.5,154.333 224.222,154.333 225.944,154.333 227.667,154.333 229.389,154.333 231.111,154.333 232.833,154.333 234.556,154.333 236.278,154.333 238,154.333 239.722,154.333 241.444,154.333 243.167,154.333 244.889,154.333 246.611,154.333 248.333,154.333 250.056,154.333 251.778,154.333 253.5,154.333 255.222,154.333 256.944,154.333 258.667,154.333 260.389,154.333 262.111,154.333 263.833,154.333 265.556,154.333 267.278,154.333 269,154.333 270.722,154.333 272.444,154.333 274.167,154.333 275.889,154.333 277.611,154.333 279.333,154.333 281.056,154.333 282.778,154.333 284.5,154.333 286.222,154.333 287.944,154.333 289.667,154.333 291.389,154.333 293.111,154.333 294.833,154.333 296.556,154.333 298.278,154.333 300,154.333 301.722,154.333 303.444,154.333 305.167,154.333 306.889,154.333 308.611,154.333 310.333,154.333 312.056,154.333 313.778,154.333 315.5,154.333 317.222,154.333 318.944,154.333 320.667,154.333 322.389,154.333 324.111,154.333 325.833,154.333 327.556,154.333 329.278,154.333 331,154.333 332.722,154.333 334.444,154.333 336.167,154.333 337.889,154.333 339.611,154.333 341.333,154.333 343.056,154.333 344.778,154.333 346.5,154.333 348.222,154.333 349.944,154.333 351.667,154.333 353.389,154.333 355.111,154.333 356.833,154.333 358.556,154.333 360.278,154.333 362,154.333 " />
</g>

<g fill="none" stroke="#edb120" stroke-opacity="1" stroke-width="0.666667" stroke-linecap="butt" stroke-linejoin="round" transform="matrix(0.75,0,0,0.75,-10.2,-9.75)"
font-family="Helvetica" font-size="12" font-weight="400" font-style="normal" 
>
<polyline fill="none" vector-effect="none" points="52,154.333 53.7222,154.333 55.4444,154.333 57.1667,154.333 58.8889,154.333 60.6111,154.333 62.3333,154.333 64.0556,154.333 65.7778,154.333 67.5,154.333 69.2222,154.333 70.9445,154.333 72.6667,154.333 74.3889,154.333 76.1111,154.333 77.8333,154.333 79.5556,154.333 81.2778,154.333 83,154.333 84.7222,154.333 86.4444,154.333 88.1667,154.333 89.8889,154.333 91.6111,154.333 93.3333,154.333 95.0556,154.333 96.7778,154.333 98.5,154.333 100.222,154.333 101.944,154.333 103.667,154.333 105.389,154.333 107.111,154.333 108.833,154.333 110.556,154.333 112.278,154.333 114,154.333 115.722,154.333 117.444,154.333 119.167,154.333 120.889,154.333 122.611,154.333 124.333,154.333 126.056,153.667 127.778,148.291 129.5,142.916 131.222,137.54 132.944,132.164 134.667,126.788 136.389,121.412 138.111,116.036 139.833,110.66 141.556,105.284 143.278,99.9083 145,94.5324 146.722,89.1565 148.444,83.7806 150.167,78.4047 151.889,73.0288 153.611,67.6529 155.333,62.277 157.056,56.9011 158.778,51.5252 160.5,46.1493 162.222,40.7734 163.944,35.3975 165.667,30.0216 167.389,30.6876 169.111,36.0635 170.833,41.4394 172.556,46.8153 174.278,52.1912 176,57.5671 177.722,62.943 179.444,68.3189 181.167,73.6948 182.889,79.0707 184.611,84.4466 186.333,89.8225 188.056,95.1984 189.778,100.574 191.5,105.95 193.222,111.326 194.944,116.702 196.667,122.078 198.389,127.454 200.111,132.83 201.833,138.206 203.556,143.582 205.278,148.957 207,154.333 208.722,154.333 210.444,154.333 212.167,154.333 213.889,154.333 215.611,154.333 217.333,154.333 219.056,154.333 220.778,154.333 222.5,154.333 224.222,154.333 225.944,154.333 227.667,154.333 229.389,154.333 231.111,154.333 232.833,154.333 234.556,154.333 236.278,154.333 238,154.333 239.722,154.333 241.444,154.333 243.167,154.333 244.889,154.333 246.611,154.333 248.333,154.333 250.056,154.333 251.778,154.333 253.5,154.333 255.222,154.333 256.944,154.333 258.667,154.333 260.389,154.333 262.111,154.333 263.833,154.333 265.556,154.333 267.278,154.333 269,154.333 270.722,154.333 272.444,154.333 274.167,154.333 275.889,154.333 277.611,154.333 279.333,154.333 281.056,154.333 282.778,154.333 284.5,154.333 286.222,154.333 287.944,154.333 289.667,154.333 291.389,154.333 293.111,154.333 294.833,154.333 296.556,154.333 298.278,154.333 300,154.333 301.722,154.333 303.444,154.333 305.167,154.333 306.889,154.333 308.611,154.333 310.333,154.333 312.056,154.333 313.778,154.333 315.5,154.333 317.222,154.333 318.944,154.333 320.667,154.333 322.389,154.333 324.111,154.333 325.833,154.333 327.556,154.333 329.278,154.333 331,154.333 332.722,154.333 334.444,154.333 336.167,154.333 337.889,154.333 339.611,154.333 341.333,154.333 343.056,154.333 344.778,154.333 346.5,154.333 348.222,154.333 349.944,154.333 351.667,154.333 353.389,154.333 355.111,154.333 356.833,154.333 358.556,154.333 360.278,154.333 362,154.333 " />
</g>

<g fill="none" stroke="#8516d1" stroke-opacity="1" stroke-width="0.666667" stroke-linecap="butt" stroke-linejoin="round" transform="matrix(0.75,0,0,0.75,-10.2,-9.75)"
font-family="Helvetica" font-size="12" font-weight="400" font-style="normal" 
>
<polyline fill="none" vector-effect="none" points="52,154.333 53.7222,154.333 55.4444,154.333 57.1667,154.333 58.8889,154.333 60.6111,154.333 62.3333,154.333 64.0556,154.333 65.7778,154.333 67.5,154.333 69.2222,154.333 70.9445,154.333 72.6667,154.333 74.3889,154.333 76.1111,154.333 77.8333,154.333 79.5556,154.333 81.2778,154.333 83,154.333 84.7222,154.333 86.4444,154.333 88.1667,154.333 89.8889,154.333 91.6111,154.333 93.3333,154.333 95.0556,154.333 96.7778,154.333 98.5,154.333 100.222,154.333 101.944,154.333 103.667,154.333 105.389,154.333 107.111,154.333 108.833,154.333 110.556,154.333 112.278,154.333 114,154.333 115.722,154.333 117.444,154.333 119.167,154.333 120.889,154.333 122.611,154.333 124.333,154.333 126.056,154.333 127.778,154.333 129.5,154.333 131.222,154.333 132.944,154.333 134.667,154.333 136.389,154.333 138.111,154.333 139.833,154.333 141.556,154.333 143.278,154.333 145,154.333 146.722,154.333 148.444,154.333 150.167,154.333 151.889,154.333 153.611,154.333 155.333,154.333 157.056,154.333 158.778,154.333 160.5,154.333 162.222,154.333 163.944,154.333 165.667,154.333 167.389,151.312 169.111,145.936 170.833,140.561 172.556,135.185 174.278,129.809 176,124.433 177.722,119.057 179.444,113.681 181.167,108.305 182.889,102.929 184.611,97.5534 186.333,92.1775 188.056,86.8016 189.778,81.4257 191.5,76.0498 193.222,70.6739 194.944,65.298 196.667,59.9221 198.389,54.5462 200.111,49.1703 201.833,43.7944 203.556,38.4185 205.278,33.0426 207,27.6667 208.722,33.0426 210.444,38.4185 212.167,43.7944 213.889,49.1703 215.611,54.5462 217.333,59.9221 219.056,65.298 220.778,70.6739 222.5,76.0498 224.222,81.4257 225.944,86.8016 227.667,92.1775 229.389,97.5534 231.111,102.929 232.833,108.305 234.556,113.681 236.278,119.057 238,124.433 239.722,129.809 241.444,135.185 243.167,140.561 244.889,145.936 246.611,151.312 248.333,154.333 250.056,154.333 251.778,154.333 253.5,154.333 255.222,154.333 256.944,154.333 258.667,154.333 260.389,154.333 262.111,154.333 263.833,154.333 265.556,154.333 267.278,154.333 269,154.333 270.722,154.333 272.444,154.333 274.167,154.333 275.889,154.333 277.611,154.333 279.333,154.333 281.056,154.333 282.778,154.333 284.5,154.333 286.222,154.333 287.944,154.333 289.667,154.333 291.389,154.333 293.111,154.333 294.833,154.333 296.556,154.333 298.278,154.333 300,154.333 301.722,154.333 303.444,154.333 305.167,154.333 306.889,154.333 308.611,154.333 310.333,154.333 312.056,154.333 313.778,154.333 315.5,154.333 317.222,154.333 318.944,154.333 320.667,154.333 322.389,154.333 324.111,154.333 325.833,154.333 327.556,154.333 329.278,154.333 331,154.333 332.722,154.333 334.444,154.333 336.167,154.333 337.889,154.333 339.611,154.333 341.333,154.333 343.056,154.333 344.778,154.333 346.5,154.333 348.222,154.333 349.944,154.333 351.667,154.333 353.389,154.333 355.111,154.333 356.833,154.333 358.556,154.333 360.278,154.333 362,154.333 " />
</g>

<g fill="none" stroke="#3baa32" stroke-opacity="1" stroke-width="0.666667" stroke-linecap="butt" stroke-linejoin="round" transform="matrix(0.75,0,0,0.75,-10.2,-9.75)"
font-family="Helvetica" font-size="12" font-weight="400" font-style="normal" 
>
<polyline fill="none" vector-effect="none" points="52,154.333 53.7222,154.333 55.4444,154.333 57.1667,154.333 58.8889,154.333 60.6111,154.333 62.3333,154.333 64.0556,154.333 65.7778,154.333 67.5,154.333 69.2222,154.333 70.9445,154.333 72.6667,154.333 74.3889,154.333 76.1111,154.333 77.8333,154.333 79.5556,154.333 81.2778,154.333 83,154.333 84.7222,154.333 86.4444,154.333 88.1667,154.333 89.8889,154.333 91.6111,154.333 93.3333,154.333 95.0556,154.333 96.7778,154.333 98.5,154.333 100.222,154.333 101.944,154.333 103.667,154.333 105.389,154.333 107.111,154.333 108.833,154.333 110.556,154.333 112.278,154.333 114,154.333 115.722,154.333 117.444,154.333 119.167,154.333 120.889,154.333 122.611,154.333 124.333,154.333 126.056,154.333 127.778,154.333 129.5,154.333 131.222,154.333 132.944,154.333 134.667,154.333 136.389,154.333 138.111,154.333 139.833,154.333 141.556,154.333 143.278,154.333 145,154.333 146.722,154.333 148.444,154.333 150.167,154.333 151.889,154.333 153.611,154.333 155.333,154.333 157.056,154.333 158.778,154.333 160.5,154.333 162.222,154.333 163.944,154.333 165.667,154.333 167.389,154.333 169.111,154.333 170.833,154.333 172.556,154.333 174.278,154.333 176,154.333 177.722,154.333 179.444,154.333 181.167,154.333 182.889,154.333 184.611,154.333 186.333,154.333 188.056,154.333 189.778,154.333 191.5,154.333 193.222,154.333 194.944,154.333 196.667,154.333 198.389,154.333 200.111,154.333 201.833,154.333 203.556,154.333 205.278,154.333 207,154.333 208.722,148.957 210.444,143.582 212.167,138.206 213.889,132.83 215.611,127.454 217.333,122.078 219.056,116.702 220.778,111.326 222.5,105.95 224.222,100.574 225.944,95.1984 227.667,89.8225 229.389,84.4466 231.111,79.0707 232.833,73.6948 234.556,68.3189 236.278,62.943 238,57.5671 239.722,52.1912 241.444,46.8153 243.167,41.4394 244.889,36.0635 246.611,30.6876 248.333,30.0216 250.056,35.3975 251.778,40.7734 253.5,46.1493 255.222,51.5252 256.944,56.9011 258.667,62.277 260.389,67.6529 262.111,73.0288 263.833,78.4047 265.556,83.7806 267.278,89.1565 269,94.5324 270.722,99.9083 272.444,105.284 274.167,110.66 275.889,116.036 277.611,121.412 279.333,126.788 281.056,132.164 282.778,137.54 284.5,142.916 286.222,148.291 287.944,153.667 289.667,154.333 291.389,154.333 293.111,154.333 294.833,154.333 296.556,154.333 298.278,154.333 300,154.333 301.722,154.333 303.444,154.333 305.167,154.333 306.889,154.333 308.611,154.333 310.333,154.333 312.056,154.333 313.778,154.333 315.5,154.333 317.222,154.333 318.944,154.333 320.667,154.333 322.389,154.333 324.111,154.333 325.833,154.333 327.556,154.333 329.278,154.333 331,154.333 332.722,154.333 334.444,154.333 336.167,154.333 337.889,154.333 339.611,154.333 341.333,154.333 343.056,154.333 344.778,154.333 346.5,154.333 348.222,154.333 349.944,154.333 351.667,154.333 353.389,154.333 355.111,154.333 356.833,154.333 358.556,154.333 360.278,154.333 362,154.333 " />
</g>

<g fill="none" stroke="#2fbeef" stroke-opacity="1" stroke-width="0.666667" stroke-linecap="butt" stroke-linejoin="round" transform="matrix(0.75,0,0,0.75,-10.2,-9.75)"
font-family="Helvetica" font-size="12" font-weight="400" font-style="normal" 
>
<polyline fill="none" vector-effect="none" points="52,154.333 53.7222,154.333 55.4444,154.333 57.1667,154.333 58.8889,154.333 60.6111,154.333 62.3333,154.333 64.0556,154.333 65.7778,154.333 67.5,154.333 69.2222,154.333 70.9445,154.333 72.6667,154.333 74.3889,154.333 76.1111,154.333 77.8333,154.333 79.5556,154.333 81.2778,154.333 83,154.333 84.7222,154.333 86.4444,154.333 88.1667,154.333 89.8889,154.333 91.6111,154.333 93.3333,154.333 95.0556,154.333 96.7778,154.333 98.5,154.333 100.222,154.333 101.944,154.333 103.667,154.333 105.389,154.333 107.111,154.333 108.833,154.333 110.556,154.333 112.278,154.333 114,154.333 115.722,154.333 117.444,154.333 119.167,154.333 120.889,154.333 122.611,154.333 124.333,154.333 126.056,154.333 127.778,154.333 129.5,154.333 131.222,154.333 132.944,154.333 134.667,154.333 136.389,154.333 138.111,154.333 139.833,154.333 141.556,154.333 143.278,154.333 145,154.333 146.722,154.333 148.444,154.333 150.167,154.333 151.889,154.333 153.611,154.333 155.333,154.333 157.056,154.333 158.778,154.333 160.5,154.333 162.222,154.333 163.944,154.333 165.667,154.333 167.389,154.333 169.111,154.333 170.833,154.333 172.556,154.333 174.278,154.333 176,154.333 177.722,154.333 179.444,154.333 181.167,154.333 182.889,154.333 184.611,154.333 186.333,154.333 188.056,154.333 189.778,154.333 191.5,154.333 193.222,154.333 194.944,154.333 196.667,154.333 198.389,154.333 200.111,154.333 201.833,154.333 203.556,154.333 205.278,154.333 207,154.333 208.722,154.333 210.444,154.333 212.167,154.333 213.889,154.333 215.611,154.333 217.333,154.333 219.056,154.333 220.778,154.333 222.5,154.333 224.222,154.333 225.944,154.333 227.667,154.333 229.389,154.333 231.111,154.333 232.833,154.333 234.556,154.333 236.278,154.333 238,154.333 239.722,154.333 241.444,154.333 243.167,154.333 244.889,154.333 246.611,154.333 248.333,151.978 250.056,146.602 251.778,141.227 253.5,135.851 255.222,130.475 256.944,125.099 258.667,119.723 260.389,114.347 262.111,108.971 263.833,103.595 265.556,98.2194 267.278,92.8435 269,87.4676 270.722,82.0917 272.444,76.7158 274.167,71.3399 275.889,65.964 277.611,60.5881 279.333,55.2122 281.056,49.8363 282.778,44.4604 284.5,39.0845 286.222,33.7086 287.944,28.3327 289.667,32.3765 291.389,37.7524 293.111,43.1283 294.833,48.5042 296.556,53.8801 298.278,59.2561 300,64.632 301.722,70.0079 303.444,75.3838 305.167,80.7597 306.889,86.1356 308.611,91.5115 310.333,96.8874 312.056,102.263 313.778,107.639 315.5,113.015 317.222,118.391 318.944,123.767 320.667,129.143 322.389,134.519 324.111,139.895 325.833,145.27 327.556,150.646 329.278,154.333 331,154.333 332.722,154.333 334.444,154.333 336.167,154.333 337.889,154.333 339.611,154.333 341.333,154.333 343.056,154.333 344.778,154.333 346.5,154.333 348.222,154.333 349.944,154.333 351.667,154.333 353.389,154.333 355.111,154.333 356.833,154.333 358.556,154.333 360.278,154.333 362,154.333 " />
</g>

<g fill="none" stroke="#d1048b" stroke-opacity="1" stroke-width="0.666667" stroke-linecap="butt" stroke-linejoin="round" transform="matrix(0.75,0,0,0.75,-10.2,-9.75)"
font-family="Helvetica" font-size="12" font-weight="400" font-style="normal" 
>
<polyline fill="none" vector-effect="none" points="52,154.333 53.7222,154.333 55.4444,154.333 57.1667,154.333 58.8889,154.333 60.6111,154.333 62.3333,154.333 64.0556,154.333 65.7778,154.333 67.5,154.333 69.2222,154.333 70.9445,154.333 72.6667,154.333 74.3889,154.333 76.1111,154.333 77.8333,154.333 79.5556,154.333 81.2778,154.333 83,154.333 84.7222,154.333 86.4444,154.333 88.1667,154.333 89.8889,154.333 91.6111,154.333 93.3333,154.333 95.0556,154.333 96.7778,154.333 98.5,154.333 100.222,154.333 101.944,154.333 103.667,154.333 105.389,154.333 107.111,154.333 108.833,154.333 110.556,154.333 112.278,154.333 114,154.333 115.722,154.333 117.444,154.333 119.167,154.333 120.889,154.333 122.611,154.333 124.333,154.333 126.056,154.333 127.778,154.333 129.5,154.333 131.222,154.333 132.944,154.333 134.667,154.333 136.389,154.333 138.111,154.333 139.833,154.333 141.556,154.333 143.278,154.333 145,154.333 146.722,154.333 148.444,154.333 150.167,154.333 151.889,154.333 153.611,154.333 155.333,154.333 157.056,154.333 158.778,154.333 160.5,154.333 162.222,154.333 163.944,154.333 165.667,154.333 167.389,154.333 169.111,154.333 170.833,154.333 172.556,154.333 174.278,154.333 176,154.333 177.722,154.333 179.444,154.333 181.167,154.333 182.889,154.333 184.611,154.333 186.333,154.333 188.056,154.333 189.778,154.333 191.5,154.333 193.222,154.333 194.944,154.333 196.667,154.333 198.389,154.333 200.111,154.333 201.833,154.333 203.556,154.333 205.278,154.333 207,154.333 208.722,154.333 210.444,154.333 212.167,154.333 213.889,154.333 215.611,154.333 217.333,154.333 219.056,154.333 220.778,154.333 222.5,154.333 224.222,154.333 225.944,154.333 227.667,154.333 229.389,154.333 231.111,154.333 232.833,154.333 234.556,154.333 236.278,154.333 238,154.333 239.722,154.333 241.444,154.333 243.167,154.333 244.889,154.333 246.611,154.333 248.333,154.333 250.056,154.333 251.778,154.333 253.5,154.333 255.222,154.333 256.944,154.333 258.667,154.333 260.389,154.333 262.111,154.333 263.833,154.333 265.556,154.333 267.278,154.333 269,154.333 270.722,154.333 272.444,154.333 274.167,154.333 275.889,154.333 277.611,154.333 279.333,154.333 281.056,154.333 282.778,154.333 284.5,154.333 286.222,154.333 287.944,154.333 289.667,149.623 291.389,144.248 293.111,138.872 294.833,133.496 296.556,128.12 298.278,122.744 300,117.368 301.722,111.992 303.444,106.616 305.167,101.24 306.889,95.8644 308.611,90.4885 310.333,85.1126 312.056,79.7367 313.778,74.3608 315.5,68.9849 317.222,63.6091 318.944,58.2331 320.667,52.8572 322.389,47.4813 324.111,42.1054 325.833,36.7295 327.556,31.3536 329.278,27.6667 331,27.6667 332.722,27.6667 334.444,27.6667 336.167,27.6667 337.889,27.6667 339.611,27.6667 341.333,27.6667 343.056,27.6667 344.778,27.6667 346.5,27.6667 348.222,27.6667 349.944,27.6667 351.667,27.6667 353.389,27.6667 355.111,27.6667 356.833,27.6667 358.556,27.6667 360.278,27.6667 362,27.6667 " />
</g>

<g fill="#212121" fill-opacity="1" stroke="#212121" stroke-opacity="1" stroke-width="1" stroke-linecap="square" stroke-linejoin="bevel" transform="matrix(0.75,0,0,0.75,35.8208,9.62501)"
font-family="Helvetica" font-size="13" font-weight="400" font-style="normal" 
>
<text fill="#212121" fill-opacity="1" stroke="none" xml:space="preserve" x="0" y="0" font-family="Helvetica" font-size="13" font-weight="400" font-style="normal" 
 >n3</text>
</g>

<g fill="#212121" fill-opacity="1" stroke="#212121" stroke-opacity="1" stroke-width="1" stroke-linecap="square" stroke-linejoin="bevel" transform="matrix(0.75,0,0,0.75,79.0917,9.62501)"
font-family="Helvetica" font-size="13" font-weight="400" font-style="normal" 
>
<text fill="#212121" fill-opacity="1" stroke="none" xml:space="preserve" x="0" y="0" font-family="Helvetica" font-size="13" font-weight="400" font-style="normal" 
 >n2</text>
</g>

<g fill="#212121" fill-opacity="1" stroke="#212121" stroke-opacity="1" stroke-width="1" stroke-linecap="square" stroke-linejoin="bevel" transform="matrix(0.75,0,0,0.75,108.8,9.62501)"
font-family="Helvetica" font-size="13" font-weight="400" font-style="normal" 
>
<text fill="#212121" fill-opacity="1" stroke="none" xml:space="preserve" x="0" y="0" font-family="Helvetica" font-size="13" font-weight="400" font-style="normal" 
 >n1</text>
</g>

<g fill="#212121" fill-opacity="1" stroke="#212121" stroke-opacity="1" stroke-width="1" stroke-linecap="square" stroke-linejoin="bevel" transform="matrix(0.75,0,0,0.75,142.425,9.62501)"
font-family="Helvetica" font-size="13" font-weight="400" font-style="normal" 
>
<text fill="#212121" fill-opacity="1" stroke="none" xml:space="preserve" x="0" y="0" font-family="Helvetica" font-size="13" font-weight="400" font-style="normal" 
 >0</text>
</g>

<g fill="#212121" fill-opacity="1" stroke="#212121" stroke-opacity="1" stroke-width="1" stroke-linecap="square" stroke-linejoin="bevel" transform="matrix(0.75,0,0,0.75,173.425,9.62501)"
font-family="Helvetica" font-size="13" font-weight="400" font-style="normal" 
>
<text fill="#212121" fill-opacity="1" stroke="none" xml:space="preserve" x="0" y="0" font-family="Helvetica" font-size="13" font-weight="400" font-style="normal" 
 >1</text>
</g>

<g fill="#212121" fill-opacity="1" stroke="#212121" stroke-opacity="1" stroke-width="1" stroke-linecap="square" stroke-linejoin="bevel" transform="matrix(0.75,0,0,0.75,203.133,9.62501)"
font-family="Helvetica" font-size="13" font-weight="400" font-style="normal" 
>
<text fill="#212121" fill-opacity="1" stroke="none" xml:space="preserve" x="0" y="0" font-family="Helvetica" font-size="13" font-weight="400" font-style="normal" 
 >2</text>
</g>

<g fill="#212121" fill-opacity="1" stroke="#212121" stroke-opacity="1" stroke-width="1" stroke-linecap="square" stroke-linejoin="bevel" transform="matrix(0.75,0,0,0.75,246.404,9.62501)"
font-family="Helvetica" font-size="13" font-weight="400" font-style="normal" 
>
<text fill="#212121" fill-opacity="1" stroke="none" xml:space="preserve" x="0" y="0" font-family="Helvetica" font-size="13" font-weight="400" font-style="normal" 
 >3</text>
</g>
</g>
</svg>
