<?xml version="1.0" encoding="UTF-8" standalone="no"?>
<svg width="94.1917mm" height="73.025mm"
 viewBox="0 0 267 207"
 xmlns="http://www.w3.org/2000/svg" xmlns:xlink="http://www.w3.org/1999/xlink"  version="1.2" baseProfile="tiny">
<title>Qt SVG Document</title>
<desc>MATLAB, The MathWorks, Inc. Version 25.2.0.3123386 R2025b Update 3</desc>
<defs>
</defs>
<g fill="none" stroke="black" stroke-width="1" fill-rule="evenodd" stroke-linecap="square" stroke-linejoin="bevel" >

<g fill="#ffffff" fill-opacity="1" stroke="none" transform="matrix(0.75,0,0,0.75,-8.3,-11.625)"
font-family="MS Shell Dlg 2" font-size="8.25" font-weight="400" font-style="normal" 
>
<path vector-effect="none" fill-rule="evenodd" d="M10,14 L367,14 L367,291 L10,291 L10,14"/>
</g>

<g fill="#ffffff" fill-opacity="1" stroke="none" transform="matrix(7.5e-05,0,0,7.5e-05,-8.3,-11.625)"
font-family="MS Shell Dlg 2" font-size="8.25" font-weight="400" font-style="normal" 
>
<path vector-effect="none" fill-rule="evenodd" d="M530000,220000 L530000,1.31e+06 L3.62e+06,1.31e+06 L3.62e+06,220000 L530000,220000"/>
</g>

<g fill="#212121" fill-opacity="0.14902" stroke="#212121" stroke-opacity="0.14902" stroke-width="0.666667" stroke-linecap="butt" stroke-linejoin="round" transform="matrix(0.75,0,0,0.75,-8.3,-11.625)"
font-family="MS Shell Dlg 2" font-size="8.25" font-weight="400" font-style="normal" 
>
<polyline fill="none" vector-effect="none" points="53,22 53,131 " />
<polyline fill="none" vector-effect="none" points="104.5,22 104.5,131 " />
<polyline fill="none" vector-effect="none" points="156,22 156,131 " />
<polyline fill="none" vector-effect="none" points="207.5,22 207.5,131 " />
<polyline fill="none" vector-effect="none" points="259,22 259,131 " />
<polyline fill="none" vector-effect="none" points="310.5,22 310.5,131 " />
<polyline fill="none" vector-effect="none" points="362,22 362,131 " />
<polyline fill="none" vector-effect="none" points="53,131 362,131 " />
<polyline fill="none" vector-effect="none" points="53,109.202 362,109.202 " />
<polyline fill="none" vector-effect="none" points="53,87.4034 362,87.4034 " />
<polyline fill="none" vector-effect="none" points="53,65.6051 362,65.6051 " />
<polyline fill="none" vector-effect="none" points="53,43.8068 362,43.8068 " />
<polyline fill="none" vector-effect="none" points="53,22.0085 362,22.0085 " />
</g>

<g fill="#212121" fill-opacity="1" stroke="#212121" stroke-opacity="1" stroke-width="0.666667" stroke-linecap="square" stroke-linejoin="round" transform="matrix(0.75,0,0,0.75,-8.3,-11.625)"
font-family="MS Shell Dlg 2" font-size="8.25" font-weight="400" font-style="normal" 
>
<polyline fill="none" vector-effect="none" points="53,131 362,131 " />
<polyline fill="none" vector-effect="none" points="53,22 362,22 " />
<polyline fill="none" vector-effect="none" points="53,131 53,127.91 " />
<polyline fill="none" vector-effect="none" points="53,25.09 53,22 " />
<polyline fill="none" vector-effect="none" points="104.5,131 104.5,127.91 " />
<polyline fill="none" vector-effect="none" points="104.5,25.09 104.5,22 " />
<polyline fill="none" vector-effect="none" points="156,131 156,127.91 " />
<polyline fill="none" vector-effect="none" points="156,25.09 156,22 " />
<polyline fill="none" vector-effect="none" points="207.5,131 207.5,127.91 " />
<polyline fill="none" vector-effect="none" points="207.5,25.09 207.5,22 " />
<polyline fill="none" vector-effect="none" points="259,131 259,127.91 " />
<polyline fill="none" vector-effect="none" points="259,25.09 259,22 " />
<polyline fill="none" vector-effect="none" points="310.5,131 310.5,127.91 " />
<polyline fill="none" vector-effect="none" points="310.5,25.09 310.5,22 " />
<polyline fill="none" vector-effect="none" points="362,131 362,127.91 " />
<polyline fill="none" vector-effect="none" points="362,25.09 362,22 " />
</g>

<g fill="#212121" fill-opacity="1" stroke="#212121" stroke-opacity="1" stroke-width="1" stroke-linecap="square" stroke-linejoin="bevel" transform="matrix(0.75,0,0,0.75,29.2,96.325)"
font-family="Helvetica" font-size="11" font-weight="400" font-style="normal" 
>
<text fill="#212121" fill-opacity="1" stroke="none" xml:space="preserve" x="0" y="0" font-family="Helvetica" font-size="11" font-weight="400" font-style="normal" 
 >0</text>
</g>

<g fill="#212121" fill-opacity="1" stroke="#212121" stroke-opacity="1" stroke-width="1" stroke-linecap="square" stroke-linejoin="bevel" transform="matrix(0.75,0,0,0.75,64.45,96.325)"
font-family="Helvetica" font-size="11" font-weight="400" font-style="normal" 
>
<text fill="#212121" fill-opacity="1" stroke="none" xml:space="preserve" x="0" y="0" font-family="Helvetica" font-size="11" font-weight="400" font-style="normal" 
 >0.5</text>
</g>

<g fill="#212121" fill-opacity="1" stroke="#212121" stroke-opacity="1" stroke-width="1" stroke-linecap="square" stroke-linejoin="bevel" transform="matrix(0.75,0,0,0.75,106.45,96.325)"
font-family="Helvetica" font-size="11" font-weight="400" font-style="normal" 
>
<text fill="#212121" fill-opacity="1" stroke="none" xml:space="preserve" x="0" y="0" font-family="Helvetica" font-size="11" font-weight="400" font-style="normal" 
 >1</text>
</g>

<g fill="#212121" fill-opacity="1" stroke="#212121" stroke-opacity="1" stroke-width="1" stroke-linecap="square" stroke-linejoin="bevel" transform="matrix(0.75,0,0,0.75,141.7,96.325)"
font-family="Helvetica" font-size="11" font-weight="400" font-style="normal" 
>
<text fill="#212121" fill-opacity="1" stroke="none" xml:space="preserve" x="0" y="0" font-family="Helvetica" font-size="11" font-weight="400" font-style="normal" 
 >1.5</text>
</g>

<g fill="#212121" fill-opacity="1" stroke="#212121" stroke-opacity="1" stroke-width="1" stroke-linecap="square" stroke-linejoin="bevel" transform="matrix(0.75,0,0,0.75,183.7,96.325)"
font-family="Helvetica" font-size="11" font-weight="400" font-style="normal" 
>
<text fill="#212121" fill-opacity="1" stroke="none" xml:space="preserve" x="0" y="0" font-family="Helvetica" font-size="11" font-weight="400" font-style="normal" 
 >2</text>
</g>

<g fill="#212121" fill-opacity="1" stroke="#212121" stroke-opacity="1" stroke-width="1" stroke-linecap="square" stroke-linejoin="bevel" transform="matrix(0.75,0,0,0.75,218.95,96.325)"
font-family="Helvetica" font-size="11" font-weight="400" font-style="normal" 
>
<text fill="#212121" fill-opacity="1" stroke="none" xml:space="preserve" x="0" y="0" font-family="Helvetica" font-size="11" font-weight="400" font-style="normal" 
 >2.5</text>
</g>

<g fill="#212121" fill-opacity="1" stroke="#212121" stroke-opacity="1" stroke-width="1" stroke-linecap="square" stroke-linejoin="bevel" transform="matrix(0.75,0,0,0.75,260.95,96.325)"
font-family="Helvetica" font-size="11" font-weight="400" font-style="normal" 
>
<text fill="#212121" fill-opacity="1" stroke="none" xml:space="preserve" x="0" y="0" font-family="Helvetica" font-size="11" font-weight="400" font-style="normal" 
 >3</text>
</g>

<g fill="#212121" fill-opacity="1" stroke="#212121" stroke-opacity="1" stroke-width="1" stroke-linecap="square" stroke-linejoin="bevel" transform="matrix(0,-0.75,0.75,0,8.25,90)"
font-family="Helvetica" font-size="12" font-weight="400" font-style="normal" 
>
<text fill="#212121" fill-opacity="1" stroke="none" xml:space="preserve" x="0" y="0" font-family="Helvetica" font-size="12" font-weight="400" font-style="normal" 
 >Angular position (rad)</text>
</g>

<g fill="#212121" fill-opacity="1" stroke="#212121" stroke-opacity="1" stroke-width="0.666667" stroke-linecap="square" stroke-linejoin="round" transform="matrix(0.75,0,0,0.75,-8.3,-11.625)"
font-family="Helvetica" font-size="12" font-weight="400" font-style="normal" 
>
<polyline fill="none" vector-effect="none" points="53,131 53,22 " />
<polyline fill="none" vector-effect="none" points="362,131 362,22 " />
<polyline fill="none" vector-effect="none" points="53,131 56.09,131 " />
<polyline fill="none" vector-effect="none" points="358.91,131 362,131 " />
<polyline fill="none" vector-effect="none" points="53,109.202 56.09,109.202 " />
<polyline fill="none" vector-effect="none" points="358.91,109.202 362,109.202 " />
<polyline fill="none" vector-effect="none" points="53,87.4034 56.09,87.4034 " />
<polyline fill="none" vector-effect="none" points="358.91,87.4034 362,87.4034 " />
<polyline fill="none" vector-effect="none" points="53,65.6051 56.09,65.6051 " />
<polyline fill="none" vector-effect="none" points="358.91,65.6051 362,65.6051 " />
<polyline fill="none" vector-effect="none" points="53,43.8068 56.09,43.8068 " />
<polyline fill="none" vector-effect="none" points="358.91,43.8068 362,43.8068 " />
<polyline fill="none" vector-effect="none" points="53,22.0085 56.09,22.0085 " />
<polyline fill="none" vector-effect="none" points="358.91,22.0085 362,22.0085 " />
</g>

<g fill="#212121" fill-opacity="1" stroke="#212121" stroke-opacity="1" stroke-width="1" stroke-linecap="square" stroke-linejoin="bevel" transform="matrix(0.75,0,0,0.75,24.75,89.25)"
font-family="Helvetica" font-size="11" font-weight="400" font-style="normal" 
>
<text fill="#212121" fill-opacity="1" stroke="none" xml:space="preserve" x="0" y="0" font-family="Helvetica" font-size="11" font-weight="400" font-style="normal" 
 >0</text>
</g>

<g fill="#212121" fill-opacity="1" stroke="#212121" stroke-opacity="1" stroke-width="1" stroke-linecap="square" stroke-linejoin="bevel" transform="matrix(0.75,0,0,0.75,13.5,72.9013)"
font-family="Helvetica" font-size="11" font-weight="400" font-style="normal" 
>
<text fill="#212121" fill-opacity="1" stroke="none" xml:space="preserve" x="0" y="0" font-family="Helvetica" font-size="11" font-weight="400" font-style="normal" 
 >0.02</text>
</g>

<g fill="#212121" fill-opacity="1" stroke="#212121" stroke-opacity="1" stroke-width="1" stroke-linecap="square" stroke-linejoin="bevel" transform="matrix(0.75,0,0,0.75,13.5,56.5526)"
font-family="Helvetica" font-size="11" font-weight="400" font-style="normal" 
>
<text fill="#212121" fill-opacity="1" stroke="none" xml:space="preserve" x="0" y="0" font-family="Helvetica" font-size="11" font-weight="400" font-style="normal" 
 >0.04</text>
</g>

<g fill="#212121" fill-opacity="1" stroke="#212121" stroke-opacity="1" stroke-width="1" stroke-linecap="square" stroke-linejoin="bevel" transform="matrix(0.75,0,0,0.75,13.5,40.2039)"
font-family="Helvetica" font-size="11" font-weight="400" font-style="normal" 
>
<text fill="#212121" fill-opacity="1" stroke="none" xml:space="preserve" x="0" y="0" font-family="Helvetica" font-size="11" font-weight="400" font-style="normal" 
 >0.06</text>
</g>

<g fill="#212121" fill-opacity="1" stroke="#212121" stroke-opacity="1" stroke-width="1" stroke-linecap="square" stroke-linejoin="bevel" transform="matrix(0.75,0,0,0.75,13.5,23.8551)"
font-family="Helvetica" font-size="11" font-weight="400" font-style="normal" 
>
<text fill="#212121" fill-opacity="1" stroke="none" xml:space="preserve" x="0" y="0" font-family="Helvetica" font-size="11" font-weight="400" font-style="normal" 
 >0.08</text>
</g>

<g fill="#212121" fill-opacity="1" stroke="#212121" stroke-opacity="1" stroke-width="1" stroke-linecap="square" stroke-linejoin="bevel" transform="matrix(0.75,0,0,0.75,18,7.50642)"
font-family="Helvetica" font-size="11" font-weight="400" font-style="normal" 
>
<text fill="#212121" fill-opacity="1" stroke="none" xml:space="preserve" x="0" y="0" font-family="Helvetica" font-size="11" font-weight="400" font-style="normal" 
 >0.1</text>
</g>

<g fill="none" stroke="#1171be" stroke-opacity="1" stroke-width="0.666667" stroke-linecap="butt" stroke-linejoin="round" transform="matrix(0.75,0,0,0.75,-8.3,-11.625)"
font-family="Helvetica" font-size="11" font-weight="400" font-style="normal" 
>
<polyline fill="none" vector-effect="none" points="53,22.0085 53,22.0085 53.0002,22.0085 53.001,22.0085 53.0052,22.0085 53.0259,22.0084 53.1285,22.0071 53.425,22 53.7659,22.0019 54.149,22.0384 54.6103,22.1517 55.1629,22.4041 55.8611,22.9108 56.6603,23.7306 57.4831,24.8016 58.3238,26.083 59.2087,27.5804 60.1651,29.3123 61.1997,31.2588 62.3642,33.4799 63.8238,36.2412 65.3537,39.0564 66.8837,41.7635 68.1966,43.9953 69.3965,45.9642 70.6606,47.9696 72.0288,50.0641 73.431,52.1317 74.8026,54.0805 76.1818,55.971 77.6134,57.8633 79.0833,59.7352 80.5603,61.5465 82.0424,63.2969 83.5374,64.998 85.0652,66.6748 86.5247,68.2267 87.9865,69.7404 89.5483,71.3194 91.1498,72.9028 92.7964,74.4966 94.4798,76.0924 96.1793,77.67 97.8818,79.2172 99.5978,80.7421 101.3,82.219 102.974,83.6379 104.639,85.0159 106.314,86.3696 108.003,87.701 109.678,88.9913 111.338,90.2396 113.013,91.4682 114.694,92.6706 116.368,93.8372 118.036,94.9704 119.709,96.0777 121.391,97.1625 123.081,98.2234 124.775,99.2591 126.483,100.273 128.173,101.248 129.837,102.179 131.5,103.082 133.172,103.964 134.823,104.811 136.5,105.648 138.221,106.484 139.953,107.302 141.67,108.089 143.376,108.848 145.085,109.586 146.81,110.307 148.518,110.998 150.209,111.659 151.906,112.302 153.628,112.934 155.369,113.551 157.115,114.15 158.861,114.729 160.612,115.291 162.373,115.837 164.144,116.368 165.943,116.889 167.688,117.379 169.422,117.851 171.203,118.322 173.055,118.797 174.9,119.253 176.711,119.684 178.482,120.089 180.241,120.477 182.028,120.857 183.859,121.233 185.715,121.6 187.57,121.953 189.42,122.292 191.278,122.621 193.152,122.939 195.041,123.249 196.937,123.547 198.838,123.836 200.75,124.114 202.673,124.384 204.609,124.645 206.554,124.897 208.508,125.14 210.472,125.375 212.448,125.601 214.435,125.82 216.433,126.032 218.441,126.236 220.46,126.432 222.491,126.622 224.533,126.805 226.585,126.981 228.649,127.15 230.724,127.314 232.811,127.471 234.909,127.623 237.019,127.769 239.139,127.909 241.272,128.044 243.415,128.174 245.57,128.299 247.737,128.419 249.903,128.534 252.022,128.641 254.146,128.745 256.345,128.849 258.607,128.951 260.822,129.045 262.947,129.132 265.068,129.215 267.273,129.297 269.548,129.378 271.802,129.454 274.004,129.526 276.207,129.594 278.467,129.66 280.77,129.725 283.067,129.786 285.353,129.844 287.658,129.899 289.987,129.952 292.327,130.003 294.677,130.052 297.045,130.098 299.428,130.143 301.811,130.185 304.191,130.226 306.58,130.264 308.988,130.301 311.411,130.336 313.835,130.37 316.258,130.402 318.686,130.432 321.13,130.461 323.587,130.488 326.047,130.515 328.506,130.54 330.968,130.563 333.442,130.586 335.928,130.607 338.419,130.628 340.91,130.647 343.401,130.666 345.9,130.683 348.41,130.7 350.926,130.716 353.443,130.731 355.958,130.745 358.478,130.759 361.007,130.771 362,130.776 " />
</g>

<g fill="#ffffff" fill-opacity="1" stroke="none" transform="matrix(7.5e-05,0,0,7.5e-05,-8.3,-11.625)"
font-family="Helvetica" font-size="11" font-weight="400" font-style="normal" 
>
<path vector-effect="none" fill-rule="evenodd" d="M530000,1.52e+06 L530000,2.6e+06 L3.62e+06,2.6e+06 L3.62e+06,1.52e+06 L530000,1.52e+06"/>
</g>

<g fill="#212121" fill-opacity="0.14902" stroke="#212121" stroke-opacity="0.14902" stroke-width="0.666667" stroke-linecap="butt" stroke-linejoin="round" transform="matrix(0.75,0,0,0.75,-8.3,-11.625)"
font-family="Helvetica" font-size="11" font-weight="400" font-style="normal" 
>
<polyline fill="none" vector-effect="none" points="53,152 53,260 " />
<polyline fill="none" vector-effect="none" points="104.5,152 104.5,260 " />
<polyline fill="none" vector-effect="none" points="156,152 156,260 " />
<polyline fill="none" vector-effect="none" points="207.5,152 207.5,260 " />
<polyline fill="none" vector-effect="none" points="259,152 259,260 " />
<polyline fill="none" vector-effect="none" points="310.5,152 310.5,260 " />
<polyline fill="none" vector-effect="none" points="362,152 362,260 " />
<polyline fill="none" vector-effect="none" points="53,260 362,260 " />
<polyline fill="none" vector-effect="none" points="53,225.892 362,225.892 " />
<polyline fill="none" vector-effect="none" points="53,191.785 362,191.785 " />
<polyline fill="none" vector-effect="none" points="53,157.677 362,157.677 " />
</g>

<g fill="#212121" fill-opacity="1" stroke="#212121" stroke-opacity="1" stroke-width="1" stroke-linecap="square" stroke-linejoin="bevel" transform="matrix(0.75,0,0,0.75,125.95,203.075)"
font-family="Helvetica" font-size="12" font-weight="400" font-style="normal" 
>
<text fill="#212121" fill-opacity="1" stroke="none" xml:space="preserve" x="0" y="0" font-family="Helvetica" font-size="12" font-weight="400" font-style="normal" 
 >Time (sec)</text>
</g>

<g fill="#212121" fill-opacity="1" stroke="#212121" stroke-opacity="1" stroke-width="0.666667" stroke-linecap="square" stroke-linejoin="round" transform="matrix(0.75,0,0,0.75,-8.3,-11.625)"
font-family="Helvetica" font-size="12" font-weight="400" font-style="normal" 
>
<polyline fill="none" vector-effect="none" points="53,260 362,260 " />
<polyline fill="none" vector-effect="none" points="53,152 362,152 " />
<polyline fill="none" vector-effect="none" points="53,260 53,256.91 " />
<polyline fill="none" vector-effect="none" points="53,155.09 53,152 " />
<polyline fill="none" vector-effect="none" points="104.5,260 104.5,256.91 " />
<polyline fill="none" vector-effect="none" points="104.5,155.09 104.5,152 " />
<polyline fill="none" vector-effect="none" points="156,260 156,256.91 " />
<polyline fill="none" vector-effect="none" points="156,155.09 156,152 " />
<polyline fill="none" vector-effect="none" points="207.5,260 207.5,256.91 " />
<polyline fill="none" vector-effect="none" points="207.5,155.09 207.5,152 " />
<polyline fill="none" vector-effect="none" points="259,260 259,256.91 " />
<polyline fill="none" vector-effect="none" points="259,155.09 259,152 " />
<polyline fill="none" vector-effect="none" points="310.5,260 310.5,256.91 " />
<polyline fill="none" vector-effect="none" points="310.5,155.09 310.5,152 " />
<polyline fill="none" vector-effect="none" points="362,260 362,256.91 " />
<polyline fill="none" vector-effect="none" points="362,155.09 362,152 " />
</g>

<g fill="#212121" fill-opacity="1" stroke="#212121" stroke-opacity="1" stroke-width="1" stroke-linecap="square" stroke-linejoin="bevel" transform="matrix(0.75,0,0,0.75,29.2,193.075)"
font-family="Helvetica" font-size="11" font-weight="400" font-style="normal" 
>
<text fill="#212121" fill-opacity="1" stroke="none" xml:space="preserve" x="0" y="0" font-family="Helvetica" font-size="11" font-weight="400" font-style="normal" 
 >0</text>
</g>

<g fill="#212121" fill-opacity="1" stroke="#212121" stroke-opacity="1" stroke-width="1" stroke-linecap="square" stroke-linejoin="bevel" transform="matrix(0.75,0,0,0.75,64.45,193.075)"
font-family="Helvetica" font-size="11" font-weight="400" font-style="normal" 
>
<text fill="#212121" fill-opacity="1" stroke="none" xml:space="preserve" x="0" y="0" font-family="Helvetica" font-size="11" font-weight="400" font-style="normal" 
 >0.5</text>
</g>

<g fill="#212121" fill-opacity="1" stroke="#212121" stroke-opacity="1" stroke-width="1" stroke-linecap="square" stroke-linejoin="bevel" transform="matrix(0.75,0,0,0.75,106.45,193.075)"
font-family="Helvetica" font-size="11" font-weight="400" font-style="normal" 
>
<text fill="#212121" fill-opacity="1" stroke="none" xml:space="preserve" x="0" y="0" font-family="Helvetica" font-size="11" font-weight="400" font-style="normal" 
 >1</text>
</g>

<g fill="#212121" fill-opacity="1" stroke="#212121" stroke-opacity="1" stroke-width="1" stroke-linecap="square" stroke-linejoin="bevel" transform="matrix(0.75,0,0,0.75,141.7,193.075)"
font-family="Helvetica" font-size="11" font-weight="400" font-style="normal" 
>
<text fill="#212121" fill-opacity="1" stroke="none" xml:space="preserve" x="0" y="0" font-family="Helvetica" font-size="11" font-weight="400" font-style="normal" 
 >1.5</text>
</g>

<g fill="#212121" fill-opacity="1" stroke="#212121" stroke-opacity="1" stroke-width="1" stroke-linecap="square" stroke-linejoin="bevel" transform="matrix(0.75,0,0,0.75,183.7,193.075)"
font-family="Helvetica" font-size="11" font-weight="400" font-style="normal" 
>
<text fill="#212121" fill-opacity="1" stroke="none" xml:space="preserve" x="0" y="0" font-family="Helvetica" font-size="11" font-weight="400" font-style="normal" 
 >2</text>
</g>

<g fill="#212121" fill-opacity="1" stroke="#212121" stroke-opacity="1" stroke-width="1" stroke-linecap="square" stroke-linejoin="bevel" transform="matrix(0.75,0,0,0.75,218.95,193.075)"
font-family="Helvetica" font-size="11" font-weight="400" font-style="normal" 
>
<text fill="#212121" fill-opacity="1" stroke="none" xml:space="preserve" x="0" y="0" font-family="Helvetica" font-size="11" font-weight="400" font-style="normal" 
 >2.5</text>
</g>

<g fill="#212121" fill-opacity="1" stroke="#212121" stroke-opacity="1" stroke-width="1" stroke-linecap="square" stroke-linejoin="bevel" transform="matrix(0.75,0,0,0.75,260.95,193.075)"
font-family="Helvetica" font-size="11" font-weight="400" font-style="normal" 
>
<text fill="#212121" fill-opacity="1" stroke="none" xml:space="preserve" x="0" y="0" font-family="Helvetica" font-size="11" font-weight="400" font-style="normal" 
 >3</text>
</g>

<g fill="#212121" fill-opacity="1" stroke="#212121" stroke-opacity="1" stroke-width="1" stroke-linecap="square" stroke-linejoin="bevel" transform="matrix(0,-0.75,0.75,0,20.25,171.75)"
font-family="Helvetica" font-size="12" font-weight="400" font-style="normal" 
>
<text fill="#212121" fill-opacity="1" stroke="none" xml:space="preserve" x="0" y="0" font-family="Helvetica" font-size="12" font-weight="400" font-style="normal" 
 >Input force (N)</text>
</g>

<g fill="#212121" fill-opacity="1" stroke="#212121" stroke-opacity="1" stroke-width="0.666667" stroke-linecap="square" stroke-linejoin="round" transform="matrix(0.75,0,0,0.75,-8.3,-11.625)"
font-family="Helvetica" font-size="12" font-weight="400" font-style="normal" 
>
<polyline fill="none" vector-effect="none" points="53,260 53,152 " />
<polyline fill="none" vector-effect="none" points="362,260 362,152 " />
<polyline fill="none" vector-effect="none" points="53,260 56.09,260 " />
<polyline fill="none" vector-effect="none" points="358.91,260 362,260 " />
<polyline fill="none" vector-effect="none" points="53,225.892 56.09,225.892 " />
<polyline fill="none" vector-effect="none" points="358.91,225.892 362,225.892 " />
<polyline fill="none" vector-effect="none" points="53,191.785 56.09,191.785 " />
<polyline fill="none" vector-effect="none" points="358.91,191.785 362,191.785 " />
<polyline fill="none" vector-effect="none" points="53,157.677 56.09,157.677 " />
<polyline fill="none" vector-effect="none" points="358.91,157.677 362,157.677 " />
</g>

<g fill="#212121" fill-opacity="1" stroke="#212121" stroke-opacity="1" stroke-width="1" stroke-linecap="square" stroke-linejoin="bevel" transform="matrix(0.75,0,0,0.75,24.75,186)"
font-family="Helvetica" font-size="11" font-weight="400" font-style="normal" 
>
<text fill="#212121" fill-opacity="1" stroke="none" xml:space="preserve" x="0" y="0" font-family="Helvetica" font-size="11" font-weight="400" font-style="normal" 
 >0</text>
</g>

<g fill="#212121" fill-opacity="1" stroke="#212121" stroke-opacity="1" stroke-width="1" stroke-linecap="square" stroke-linejoin="bevel" transform="matrix(0.75,0,0,0.75,24.75,160.419)"
font-family="Helvetica" font-size="11" font-weight="400" font-style="normal" 
>
<text fill="#212121" fill-opacity="1" stroke="none" xml:space="preserve" x="0" y="0" font-family="Helvetica" font-size="11" font-weight="400" font-style="normal" 
 >2</text>
</g>

<g fill="#212121" fill-opacity="1" stroke="#212121" stroke-opacity="1" stroke-width="1" stroke-linecap="square" stroke-linejoin="bevel" transform="matrix(0.75,0,0,0.75,24.75,134.839)"
font-family="Helvetica" font-size="11" font-weight="400" font-style="normal" 
>
<text fill="#212121" fill-opacity="1" stroke="none" xml:space="preserve" x="0" y="0" font-family="Helvetica" font-size="11" font-weight="400" font-style="normal" 
 >4</text>
</g>

<g fill="#212121" fill-opacity="1" stroke="#212121" stroke-opacity="1" stroke-width="1" stroke-linecap="square" stroke-linejoin="bevel" transform="matrix(0.75,0,0,0.75,24.75,109.258)"
font-family="Helvetica" font-size="11" font-weight="400" font-style="normal" 
>
<text fill="#212121" fill-opacity="1" stroke="none" xml:space="preserve" x="0" y="0" font-family="Helvetica" font-size="11" font-weight="400" font-style="normal" 
 >6</text>
</g>

<g fill="none" stroke="#1171be" stroke-opacity="1" stroke-width="0.666667" stroke-linecap="butt" stroke-linejoin="round" transform="matrix(0.75,0,0,0.75,-8.3,-11.625)"
font-family="Helvetica" font-size="11" font-weight="400" font-style="normal" 
>
<polyline fill="none" vector-effect="none" points="53,153.482 53,153.482 53.0002,153.481 53.001,153.474 53.0052,153.444 53.0259,153.297 53.1285,152.698 53.425,152 53.7659,154.014 54.149,162.425 54.6103,170.901 55.1629,180.183 55.8611,190.923 56.6603,202.197 57.4831,212.345 58.3238,221.005 59.2087,228.207 60.1651,234.416 61.1997,239.002 62.3642,242.336 63.8238,244.787 65.3537,246.056 66.8837,246.449 68.1966,246.315 69.3965,246.414 70.6606,246.667 72.0288,247.011 73.431,247.088 74.8026,247.264 76.1818,247.497 77.6134,247.761 79.0833,248.041 80.5603,248.182 82.0424,248.375 83.5374,248.406 85.0652,248.148 86.5247,248.085 87.9865,248.115 89.5483,248.268 91.1498,248.513 92.7964,248.816 94.4798,249.147 96.1793,249.506 97.8818,249.937 99.5978,250.305 101.3,250.624 102.974,250.914 104.639,251.197 106.314,251.477 108.003,251.698 109.678,252.016 111.338,252.31 113.013,252.579 114.694,252.828 116.368,253.06 118.036,253.285 119.709,253.507 121.391,253.726 123.081,253.972 124.775,254.27 126.483,254.498 128.173,254.678 129.837,254.842 131.5,254.955 133.172,255.063 134.823,255.222 136.5,255.405 138.221,255.588 139.953,255.752 141.67,255.9 143.376,256.122 145.085,256.315 146.81,256.448 148.518,256.552 150.209,256.654 151.906,256.767 153.628,256.884 155.369,256.999 157.115,257.107 158.861,257.21 160.612,257.311 162.373,257.41 164.144,257.477 165.943,257.529 167.688,257.593 169.422,257.695 171.203,257.814 173.055,257.971 174.9,258.097 176.711,258.171 178.482,258.203 180.241,258.248 182.028,258.311 183.859,258.381 185.715,258.447 187.57,258.506 189.42,258.563 191.278,258.619 193.152,258.675 195.041,258.728 196.937,258.778 198.838,258.827 200.75,258.874 202.673,258.92 204.609,258.964 206.554,259.007 208.508,259.047 210.472,259.087 212.448,259.125 214.435,259.162 216.433,259.197 218.441,259.231 220.46,259.264 222.491,259.295 224.533,259.326 226.585,259.355 228.649,259.383 230.724,259.41 232.811,259.436 234.909,259.461 237.019,259.485 239.139,259.508 241.272,259.53 243.415,259.552 245.57,259.572 247.737,259.592 249.903,259.595 252.022,259.608 254.146,259.636 256.345,259.674 258.607,259.695 260.822,259.702 262.947,259.711 265.068,259.727 267.273,259.744 269.548,259.756 271.802,259.765 274.004,259.776 276.207,259.789 278.467,259.8 280.77,259.81 283.067,259.821 285.353,259.832 287.658,259.837 289.987,259.842 292.327,259.849 294.677,259.858 297.045,259.866 299.428,259.873 301.811,259.88 304.191,259.886 306.58,259.892 308.988,259.898 311.411,259.904 313.835,259.909 316.258,259.914 318.686,259.919 321.13,259.923 323.587,259.927 326.047,259.932 328.506,259.935 330.968,259.939 333.442,259.943 335.928,259.946 338.419,259.949 340.91,259.952 343.401,259.955 345.9,259.958 348.41,259.961 350.926,259.963 353.443,259.965 355.958,259.968 358.478,259.97 361.007,259.972 362,259.961 " />
</g>
</g>
</svg>
