<?xml version="1.0" encoding="UTF-8" standalone="no"?>
<svg width="81.8444mm" height="58.5611mm"
 viewBox="0 0 232 166"
 xmlns="http://www.w3.org/2000/svg" xmlns:xlink="http://www.w3.org/1999/xlink"  version="1.2" baseProfile="tiny">
<title>Qt SVG Document</title>
<desc>MATLAB, The MathWorks, Inc. Version 25.2.0.3150157 R2025b Update 4</desc>
<defs>
</defs>
<g fill="none" stroke="black" stroke-width="1" fill-rule="evenodd" stroke-linecap="square" stroke-linejoin="bevel" >

<g fill="#ffffff" fill-opacity="1" stroke="none" transform="matrix(0.75,0,0,0.75,-38.625,-26)"
font-family="MS Shell Dlg 2" font-size="8.25" font-weight="400" font-style="normal" 
>
<path vector-effect="none" fill-rule="evenodd" d="M50,33 L360,33 L360,255 L50,255 L50,33"/>
</g>

<g fill="#212121" fill-opacity="1" stroke="#212121" stroke-opacity="1" stroke-width="1" stroke-linecap="square" stroke-linejoin="bevel" transform="matrix(0.75,0,0,0.75,4.50009,161.25)"
font-family="TeXGyreTermes" font-size="13" font-weight="400" font-style="normal" 
>
<text fill="#212121" fill-opacity="1" stroke="none" xml:space="preserve" x="0" y="0" font-family="TeXGyreTermes" font-size="13" font-weight="400" font-style="normal" 
 >System triangular_25rules: 2 inputs, 1 outputs, 25 rules</text>
</g>

<g fill="#212121" fill-opacity="1" stroke="#212121" stroke-opacity="1" stroke-width="2.66667" stroke-linecap="butt" stroke-linejoin="round" transform="matrix(0.75,0,0,0.75,-38.625,-26)"
font-family="TeXGyreTermes" font-size="13" font-weight="400" font-style="normal" 
>
<polyline fill="none" vector-effect="none" points="134.667,62.1 207,116 " />
<polyline fill="none" vector-effect="none" points="134.667,160.1 207,116 " />
<polyline fill="none" vector-effect="none" points="279.333,116 207,116 " />
</g>

<g fill="#ffffff" fill-opacity="1" stroke="none" transform="matrix(7.5e-05,0,0,7.5e-05,-38.625,-26)"
font-family="TeXGyreTermes" font-size="13" font-weight="400" font-style="normal" 
>
<path vector-effect="none" fill-rule="evenodd" d="M730000,380000 L730000,860000 L1.35e+06,860000 L1.35e+06,380000 L730000,380000"/>
</g>

<g fill="#212121" fill-opacity="1" stroke="#212121" stroke-opacity="1" stroke-width="1" stroke-linecap="square" stroke-linejoin="bevel" transform="matrix(0.75,0,0,0.75,23.25,53)"
font-family="TeXGyreTermes" font-size="13" font-weight="400" font-style="normal" 
>
<text fill="#212121" fill-opacity="1" stroke="none" xml:space="preserve" x="0" y="0" font-family="TeXGyreTermes" font-size="13" font-weight="400" font-style="normal" 
 >error (5)</text>
</g>

<g fill="#212121" fill-opacity="1" stroke="#212121" stroke-opacity="1" stroke-width="2.66667" stroke-linecap="square" stroke-linejoin="round" transform="matrix(0.75,0,0,0.75,-38.625,-26)"
font-family="TeXGyreTermes" font-size="13" font-weight="400" font-style="normal" 
>
<polyline fill="none" vector-effect="none" points="73,86 135,86 " />
<polyline fill="none" vector-effect="none" points="73,38 135,38 " />
<polyline fill="none" vector-effect="none" points="73,86 73,38 " />
<polyline fill="none" vector-effect="none" points="135,86 135,38 " />
</g>

<g fill="none" stroke="#1171be" stroke-opacity="1" stroke-width="0.666667" stroke-linecap="butt" stroke-linejoin="round" transform="matrix(0.75,0,0,0.75,-38.625,-26)"
font-family="TeXGyreTermes" font-size="13" font-weight="400" font-style="normal" 
>
<polyline fill="none" vector-effect="none" points="78.1667,42 78.4537,42 78.7407,42 79.0278,42 79.3148,42 79.6019,42 79.8889,42 80.1759,42 80.463,42 80.75,42 81.037,42 81.3241,42 81.6111,42 81.8981,42 82.1852,42 82.4722,42 82.7593,42 83.0463,42 83.3333,42 83.6204,42 83.9074,42 84.1944,42 84.4815,42 84.7685,42 85.0556,42 85.3426,42 85.6296,42 85.9167,42 86.2037,42 86.4907,42 86.7778,42 87.0648,42 87.3519,42 87.6389,42 87.9259,42 88.213,42 88.5,42 88.787,42 89.0741,42 89.3611,42 89.6481,42 89.9352,42 90.2222,42 90.5093,42 90.7963,42 91.0833,42 91.3704,43.7778 91.6574,45.5556 91.9444,47.3333 92.2315,49.1111 92.5185,50.8889 92.8056,52.6667 93.0926,54.4444 93.3796,56.2222 93.6667,58 93.9537,59.7778 94.2407,61.5556 94.5278,63.3333 94.8148,65.1111 95.1019,66.8889 95.3889,68.6667 95.6759,70.4444 95.963,72.2222 96.25,74 96.537,75.7778 96.8241,77.5556 97.1111,79.3333 97.3981,81.1111 97.6852,82 97.9722,82 98.2593,82 98.5463,82 98.8333,82 99.1204,82 99.4074,82 99.6944,82 99.9815,82 100.269,82 100.556,82 100.843,82 101.13,82 101.417,82 101.704,82 101.991,82 102.278,82 102.565,82 102.852,82 103.139,82 103.426,82 103.713,82 104,82 104.287,82 104.574,82 104.861,82 105.148,82 105.435,82 105.722,82 106.009,82 106.296,82 106.583,82 106.87,82 107.157,82 107.444,82 107.731,82 108.019,82 108.306,82 108.593,82 108.88,82 109.167,82 109.454,82 109.741,82 110.028,82 110.315,82 110.602,82 110.889,82 111.176,82 111.463,82 111.75,82 112.037,82 112.324,82 112.611,82 112.898,82 113.185,82 113.472,82 113.759,82 114.046,82 114.333,82 114.62,82 114.907,82 115.194,82 115.481,82 115.769,82 116.056,82 116.343,82 116.63,82 116.917,82 117.204,82 117.491,82 117.778,82 118.065,82 118.352,82 118.639,82 118.926,82 119.213,82 119.5,82 119.787,82 120.074,82 120.361,82 120.648,82 120.935,82 121.222,82 121.509,82 121.796,82 122.083,82 122.37,82 122.657,82 122.944,82 123.231,82 123.519,82 123.806,82 124.093,82 124.38,82 124.667,82 124.954,82 125.241,82 125.528,82 125.815,82 126.102,82 126.389,82 126.676,82 126.963,82 127.25,82 127.537,82 127.824,82 128.111,82 128.398,82 128.685,82 128.972,82 129.259,82 129.546,82 129.833,82 " />
</g>

<g fill="none" stroke="#dd5400" stroke-opacity="1" stroke-width="0.666667" stroke-linecap="butt" stroke-linejoin="round" transform="matrix(0.75,0,0,0.75,-38.625,-26)"
font-family="TeXGyreTermes" font-size="13" font-weight="400" font-style="normal" 
>
<polyline fill="none" vector-effect="none" points="78.1667,82 78.4537,82 78.7407,82 79.0278,82 79.3148,82 79.6019,82 79.8889,82 80.1759,82 80.463,82 80.75,82 81.037,82 81.3241,82 81.6111,82 81.8981,82 82.1852,82 82.4722,82 82.7593,82 83.0463,82 83.3333,82 83.6204,82 83.9074,82 84.1944,82 84.4815,82 84.7685,82 85.0556,82 85.3426,82 85.6296,82 85.9167,82 86.2037,82 86.4907,82 86.7778,82 87.0648,82 87.3519,82 87.6389,82 87.9259,82 88.213,82 88.5,82 88.787,82 89.0741,82 89.3611,82 89.6481,82 89.9352,82 90.2222,82 90.5093,82 90.7963,82 91.0833,82 91.3704,80.2222 91.6574,78.4444 91.9444,76.6667 92.2315,74.8889 92.5185,73.1111 92.8056,71.3333 93.0926,69.5556 93.3796,67.7778 93.6667,66 93.9537,64.2222 94.2407,62.4444 94.5278,60.6667 94.8148,58.8889 95.1019,57.1111 95.3889,55.3333 95.6759,53.5556 95.963,51.7778 96.25,50 96.537,48.2222 96.8241,46.4444 97.1111,44.6667 97.3981,42.8889 97.6852,42.8889 97.9722,44.6667 98.2593,46.4444 98.5463,48.2222 98.8333,50 99.1204,51.7778 99.4074,53.5556 99.6944,55.3333 99.9815,57.1111 100.269,58.8889 100.556,60.6667 100.843,62.4444 101.13,64.2222 101.417,66 101.704,67.7778 101.991,69.5556 102.278,71.3333 102.565,73.1111 102.852,74.8889 103.139,76.6667 103.426,78.4444 103.713,80.2222 104,82 104.287,82 104.574,82 104.861,82 105.148,82 105.435,82 105.722,82 106.009,82 106.296,82 106.583,82 106.87,82 107.157,82 107.444,82 107.731,82 108.019,82 108.306,82 108.593,82 108.88,82 109.167,82 109.454,82 109.741,82 110.028,82 110.315,82 110.602,82 110.889,82 111.176,82 111.463,82 111.75,82 112.037,82 112.324,82 112.611,82 112.898,82 113.185,82 113.472,82 113.759,82 114.046,82 114.333,82 114.62,82 114.907,82 115.194,82 115.481,82 115.769,82 116.056,82 116.343,82 116.63,82 116.917,82 117.204,82 117.491,82 117.778,82 118.065,82 118.352,82 118.639,82 118.926,82 119.213,82 119.5,82 119.787,82 120.074,82 120.361,82 120.648,82 120.935,82 121.222,82 121.509,82 121.796,82 122.083,82 122.37,82 122.657,82 122.944,82 123.231,82 123.519,82 123.806,82 124.093,82 124.38,82 124.667,82 124.954,82 125.241,82 125.528,82 125.815,82 126.102,82 126.389,82 126.676,82 126.963,82 127.25,82 127.537,82 127.824,82 128.111,82 128.398,82 128.685,82 128.972,82 129.259,82 129.546,82 129.833,82 " />
</g>

<g fill="none" stroke="#edb120" stroke-opacity="1" stroke-width="0.666667" stroke-linecap="butt" stroke-linejoin="round" transform="matrix(0.75,0,0,0.75,-38.625,-26)"
font-family="TeXGyreTermes" font-size="13" font-weight="400" font-style="normal" 
>
<polyline fill="none" vector-effect="none" points="78.1667,82 78.4537,82 78.7407,82 79.0278,82 79.3148,82 79.6019,82 79.8889,82 80.1759,82 80.463,82 80.75,82 81.037,82 81.3241,82 81.6111,82 81.8981,82 82.1852,82 82.4722,82 82.7593,82 83.0463,82 83.3333,82 83.6204,82 83.9074,82 84.1944,82 84.4815,82 84.7685,82 85.0556,82 85.3426,82 85.6296,82 85.9167,82 86.2037,82 86.4907,82 86.7778,82 87.0648,82 87.3519,82 87.6389,82 87.9259,82 88.213,82 88.5,82 88.787,82 89.0741,82 89.3611,82 89.6481,82 89.9352,82 90.2222,82 90.5093,82 90.7963,82 91.0833,82 91.3704,82 91.6574,82 91.9444,82 92.2315,82 92.5185,82 92.8056,82 93.0926,82 93.3796,82 93.6667,82 93.9537,82 94.2407,82 94.5278,82 94.8148,82 95.1019,82 95.3889,82 95.6759,82 95.963,82 96.25,82 96.537,82 96.8241,82 97.1111,82 97.3981,82 97.6852,81.1111 97.9722,79.3333 98.2593,77.5556 98.5463,75.7778 98.8333,74 99.1204,72.2222 99.4074,70.4444 99.6944,68.6667 99.9815,66.8889 100.269,65.1111 100.556,63.3333 100.843,61.5556 101.13,59.7778 101.417,58 101.704,56.2222 101.991,54.4444 102.278,52.6667 102.565,50.8889 102.852,49.1111 103.139,47.3333 103.426,45.5556 103.713,43.7778 104,42 104.287,43.7778 104.574,45.5556 104.861,47.3333 105.148,49.1111 105.435,50.8889 105.722,52.6667 106.009,54.4444 106.296,56.2222 106.583,58 106.87,59.7778 107.157,61.5556 107.444,63.3333 107.731,65.1111 108.019,66.8889 108.306,68.6667 108.593,70.4444 108.88,72.2222 109.167,74 109.454,75.7778 109.741,77.5556 110.028,79.3333 110.315,81.1111 110.602,82 110.889,82 111.176,82 111.463,82 111.75,82 112.037,82 112.324,82 112.611,82 112.898,82 113.185,82 113.472,82 113.759,82 114.046,82 114.333,82 114.62,82 114.907,82 115.194,82 115.481,82 115.769,82 116.056,82 116.343,82 116.63,82 116.917,82 117.204,82 117.491,82 117.778,82 118.065,82 118.352,82 118.639,82 118.926,82 119.213,82 119.5,82 119.787,82 120.074,82 120.361,82 120.648,82 120.935,82 121.222,82 121.509,82 121.796,82 122.083,82 122.37,82 122.657,82 122.944,82 123.231,82 123.519,82 123.806,82 124.093,82 124.38,82 124.667,82 124.954,82 125.241,82 125.528,82 125.815,82 126.102,82 126.389,82 126.676,82 126.963,82 127.25,82 127.537,82 127.824,82 128.111,82 128.398,82 128.685,82 128.972,82 129.259,82 129.546,82 129.833,82 " />
</g>

<g fill="none" stroke="#8516d1" stroke-opacity="1" stroke-width="0.666667" stroke-linecap="butt" stroke-linejoin="round" transform="matrix(0.75,0,0,0.75,-38.625,-26)"
font-family="TeXGyreTermes" font-size="13" font-weight="400" font-style="normal" 
>
<polyline fill="none" vector-effect="none" points="78.1667,82 78.4537,82 78.7407,82 79.0278,82 79.3148,82 79.6019,82 79.8889,82 80.1759,82 80.463,82 80.75,82 81.037,82 81.3241,82 81.6111,82 81.8981,82 82.1852,82 82.4722,82 82.7593,82 83.0463,82 83.3333,82 83.6204,82 83.9074,82 84.1944,82 84.4815,82 84.7685,82 85.0556,82 85.3426,82 85.6296,82 85.9167,82 86.2037,82 86.4907,82 86.7778,82 87.0648,82 87.3519,82 87.6389,82 87.9259,82 88.213,82 88.5,82 88.787,82 89.0741,82 89.3611,82 89.6481,82 89.9352,82 90.2222,82 90.5093,82 90.7963,82 91.0833,82 91.3704,82 91.6574,82 91.9444,82 92.2315,82 92.5185,82 92.8056,82 93.0926,82 93.3796,82 93.6667,82 93.9537,82 94.2407,82 94.5278,82 94.8148,82 95.1019,82 95.3889,82 95.6759,82 95.963,82 96.25,82 96.537,82 96.8241,82 97.1111,82 97.3981,82 97.6852,82 97.9722,82 98.2593,82 98.5463,82 98.8333,82 99.1204,82 99.4074,82 99.6944,82 99.9815,82 100.269,82 100.556,82 100.843,82 101.13,82 101.417,82 101.704,82 101.991,82 102.278,82 102.565,82 102.852,82 103.139,82 103.426,82 103.713,82 104,82 104.287,80.2222 104.574,78.4444 104.861,76.6667 105.148,74.8889 105.435,73.1111 105.722,71.3333 106.009,69.5556 106.296,67.7778 106.583,66 106.87,64.2222 107.157,62.4444 107.444,60.6667 107.731,58.8889 108.019,57.1111 108.306,55.3333 108.593,53.5556 108.88,51.7778 109.167,50 109.454,48.2222 109.741,46.4444 110.028,44.6667 110.315,42.8889 110.602,42.8889 110.889,44.6667 111.176,46.4444 111.463,48.2222 111.75,50 112.037,51.7778 112.324,53.5556 112.611,55.3333 112.898,57.1111 113.185,58.8889 113.472,60.6667 113.759,62.4444 114.046,64.2222 114.333,66 114.62,67.7778 114.907,69.5556 115.194,71.3333 115.481,73.1111 115.769,74.8889 116.056,76.6667 116.343,78.4444 116.63,80.2222 116.917,82 117.204,82 117.491,82 117.778,82 118.065,82 118.352,82 118.639,82 118.926,82 119.213,82 119.5,82 119.787,82 120.074,82 120.361,82 120.648,82 120.935,82 121.222,82 121.509,82 121.796,82 122.083,82 122.37,82 122.657,82 122.944,82 123.231,82 123.519,82 123.806,82 124.093,82 124.38,82 124.667,82 124.954,82 125.241,82 125.528,82 125.815,82 126.102,82 126.389,82 126.676,82 126.963,82 127.25,82 127.537,82 127.824,82 128.111,82 128.398,82 128.685,82 128.972,82 129.259,82 129.546,82 129.833,82 " />
</g>

<g fill="none" stroke="#3baa32" stroke-opacity="1" stroke-width="0.666667" stroke-linecap="butt" stroke-linejoin="round" transform="matrix(0.75,0,0,0.75,-38.625,-26)"
font-family="TeXGyreTermes" font-size="13" font-weight="400" font-style="normal" 
>
<polyline fill="none" vector-effect="none" points="78.1667,82 78.4537,82 78.7407,82 79.0278,82 79.3148,82 79.6019,82 79.8889,82 80.1759,82 80.463,82 80.75,82 81.037,82 81.3241,82 81.6111,82 81.8981,82 82.1852,82 82.4722,82 82.7593,82 83.0463,82 83.3333,82 83.6204,82 83.9074,82 84.1944,82 84.4815,82 84.7685,82 85.0556,82 85.3426,82 85.6296,82 85.9167,82 86.2037,82 86.4907,82 86.7778,82 87.0648,82 87.3519,82 87.6389,82 87.9259,82 88.213,82 88.5,82 88.787,82 89.0741,82 89.3611,82 89.6481,82 89.9352,82 90.2222,82 90.5093,82 90.7963,82 91.0833,82 91.3704,82 91.6574,82 91.9444,82 92.2315,82 92.5185,82 92.8056,82 93.0926,82 93.3796,82 93.6667,82 93.9537,82 94.2407,82 94.5278,82 94.8148,82 95.1019,82 95.3889,82 95.6759,82 95.963,82 96.25,82 96.537,82 96.8241,82 97.1111,82 97.3981,82 97.6852,82 97.9722,82 98.2593,82 98.5463,82 98.8333,82 99.1204,82 99.4074,82 99.6944,82 99.9815,82 100.269,82 100.556,82 100.843,82 101.13,82 101.417,82 101.704,82 101.991,82 102.278,82 102.565,82 102.852,82 103.139,82 103.426,82 103.713,82 104,82 104.287,82 104.574,82 104.861,82 105.148,82 105.435,82 105.722,82 106.009,82 106.296,82 106.583,82 106.87,82 107.157,82 107.444,82 107.731,82 108.019,82 108.306,82 108.593,82 108.88,82 109.167,82 109.454,82 109.741,82 110.028,82 110.315,82 110.602,81.1111 110.889,79.3333 111.176,77.5556 111.463,75.7778 111.75,74 112.037,72.2222 112.324,70.4444 112.611,68.6667 112.898,66.8889 113.185,65.1111 113.472,63.3333 113.759,61.5556 114.046,59.7778 114.333,58 114.62,56.2222 114.907,54.4444 115.194,52.6667 115.481,50.8889 115.769,49.1111 116.056,47.3333 116.343,45.5556 116.63,43.7778 116.917,42 117.204,42 117.491,42 117.778,42 118.065,42 118.352,42 118.639,42 118.926,42 119.213,42 119.5,42 119.787,42 120.074,42 120.361,42 120.648,42 120.935,42 121.222,42 121.509,42 121.796,42 122.083,42 122.37,42 122.657,42 122.944,42 123.231,42 123.519,42 123.806,42 124.093,42 124.38,42 124.667,42 124.954,42 125.241,42 125.528,42 125.815,42 126.102,42 126.389,42 126.676,42 126.963,42 127.25,42 127.537,42 127.824,42 128.111,42 128.398,42 128.685,42 128.972,42 129.259,42 129.546,42 129.833,42 " />
</g>

<g fill="#ffffff" fill-opacity="1" stroke="none" transform="matrix(7.5e-05,0,0,7.5e-05,-38.625,-26)"
font-family="TeXGyreTermes" font-size="13" font-weight="400" font-style="normal" 
>
<path vector-effect="none" fill-rule="evenodd" d="M730000,1.35e+06 L730000,1.84e+06 L1.35e+06,1.84e+06 L1.35e+06,1.35e+06 L730000,1.35e+06"/>
</g>

<g fill="#212121" fill-opacity="1" stroke="#212121" stroke-opacity="1" stroke-width="1" stroke-linecap="square" stroke-linejoin="bevel" transform="matrix(0.75,0,0,0.75,1.5,126.5)"
font-family="TeXGyreTermes" font-size="13" font-weight="400" font-style="normal" 
>
<text fill="#212121" fill-opacity="1" stroke="none" xml:space="preserve" x="0" y="0" font-family="TeXGyreTermes" font-size="13" font-weight="400" font-style="normal" 
 >chang_in_error (5)</text>
</g>

<g fill="#212121" fill-opacity="1" stroke="#212121" stroke-opacity="1" stroke-width="2.66667" stroke-linecap="square" stroke-linejoin="round" transform="matrix(0.75,0,0,0.75,-38.625,-26)"
font-family="TeXGyreTermes" font-size="13" font-weight="400" font-style="normal" 
>
<polyline fill="none" vector-effect="none" points="73,184 135,184 " />
<polyline fill="none" vector-effect="none" points="73,135 135,135 " />
<polyline fill="none" vector-effect="none" points="73,184 73,135 " />
<polyline fill="none" vector-effect="none" points="135,184 135,135 " />
</g>

<g fill="none" stroke="#1171be" stroke-opacity="1" stroke-width="0.666667" stroke-linecap="butt" stroke-linejoin="round" transform="matrix(0.75,0,0,0.75,-38.625,-26)"
font-family="TeXGyreTermes" font-size="13" font-weight="400" font-style="normal" 
>
<polyline fill="none" vector-effect="none" points="78.1667,139.083 78.4537,139.083 78.7407,139.083 79.0278,139.083 79.3148,139.083 79.6019,139.083 79.8889,139.083 80.1759,139.083 80.463,139.083 80.75,139.083 81.037,139.083 81.3241,139.083 81.6111,139.083 81.8981,139.083 82.1852,139.083 82.4722,139.083 82.7593,139.083 83.0463,139.083 83.3333,139.083 83.6204,139.083 83.9074,139.876 84.1944,141.031 84.4815,142.186 84.7685,143.342 85.0556,144.497 85.3426,145.652 85.6296,146.808 85.9167,147.963 86.2037,149.118 86.4907,150.274 86.7778,151.429 87.0648,152.585 87.3519,153.74 87.6389,154.895 87.9259,156.051 88.213,157.206 88.5,158.361 88.787,159.517 89.0741,160.672 89.3611,161.827 89.6481,162.983 89.9352,164.138 90.2222,165.293 90.5093,166.449 90.7963,167.604 91.0833,168.759 91.3704,169.915 91.6574,171.07 91.9444,172.225 92.2315,173.381 92.5185,174.536 92.8056,175.691 93.0926,176.847 93.3796,178.002 93.6667,179.158 93.9537,179.917 94.2407,179.917 94.5278,179.917 94.8148,179.917 95.1019,179.917 95.3889,179.917 95.6759,179.917 95.963,179.917 96.25,179.917 96.537,179.917 96.8241,179.917 97.1111,179.917 97.3981,179.917 97.6852,179.917 97.9722,179.917 98.2593,179.917 98.5463,179.917 98.8333,179.917 99.1204,179.917 99.4074,179.917 99.6944,179.917 99.9815,179.917 100.269,179.917 100.556,179.917 100.843,179.917 101.13,179.917 101.417,179.917 101.704,179.917 101.991,179.917 102.278,179.917 102.565,179.917 102.852,179.917 103.139,179.917 103.426,179.917 103.713,179.917 104,179.917 104.287,179.917 104.574,179.917 104.861,179.917 105.148,179.917 105.435,179.917 105.722,179.917 106.009,179.917 106.296,179.917 106.583,179.917 106.87,179.917 107.157,179.917 107.444,179.917 107.731,179.917 108.019,179.917 108.306,179.917 108.593,179.917 108.88,179.917 109.167,179.917 109.454,179.917 109.741,179.917 110.028,179.917 110.315,179.917 110.602,179.917 110.889,179.917 111.176,179.917 111.463,179.917 111.75,179.917 112.037,179.917 112.324,179.917 112.611,179.917 112.898,179.917 113.185,179.917 113.472,179.917 113.759,179.917 114.046,179.917 114.333,179.917 114.62,179.917 114.907,179.917 115.194,179.917 115.481,179.917 115.769,179.917 116.056,179.917 116.343,179.917 116.63,179.917 116.917,179.917 117.204,179.917 117.491,179.917 117.778,179.917 118.065,179.917 118.352,179.917 118.639,179.917 118.926,179.917 119.213,179.917 119.5,179.917 119.787,179.917 120.074,179.917 120.361,179.917 120.648,179.917 120.935,179.917 121.222,179.917 121.509,179.917 121.796,179.917 122.083,179.917 122.37,179.917 122.657,179.917 122.944,179.917 123.231,179.917 123.519,179.917 123.806,179.917 124.093,179.917 124.38,179.917 124.667,179.917 124.954,179.917 125.241,179.917 125.528,179.917 125.815,179.917 126.102,179.917 126.389,179.917 126.676,179.917 126.963,179.917 127.25,179.917 127.537,179.917 127.824,179.917 128.111,179.917 128.398,179.917 128.685,179.917 128.972,179.917 129.259,179.917 129.546,179.917 129.833,179.917 " />
</g>

<g fill="none" stroke="#dd5400" stroke-opacity="1" stroke-width="0.666667" stroke-linecap="butt" stroke-linejoin="round" transform="matrix(0.75,0,0,0.75,-38.625,-26)"
font-family="TeXGyreTermes" font-size="13" font-weight="400" font-style="normal" 
>
<polyline fill="none" vector-effect="none" points="78.1667,179.917 78.4537,179.917 78.7407,179.917 79.0278,179.917 79.3148,179.917 79.6019,179.917 79.8889,179.917 80.1759,179.917 80.463,179.917 80.75,179.917 81.037,179.917 81.3241,179.917 81.6111,179.917 81.8981,179.917 82.1852,179.917 82.4722,179.917 82.7593,179.917 83.0463,179.917 83.3333,179.917 83.6204,179.917 83.9074,179.124 84.1944,177.969 84.4815,176.814 84.7685,175.658 85.0556,174.503 85.3426,173.348 85.6296,172.192 85.9167,171.037 86.2037,169.882 86.4907,168.726 86.7778,167.571 87.0648,166.415 87.3519,165.26 87.6389,164.105 87.9259,162.949 88.213,161.794 88.5,160.639 88.787,159.483 89.0741,158.328 89.3611,157.173 89.6481,156.017 89.9352,154.862 90.2222,153.707 90.5093,152.551 90.7963,151.396 91.0833,150.241 91.3704,149.085 91.6574,147.93 91.9444,146.775 92.2315,145.619 92.5185,144.464 92.8056,143.309 93.0926,142.153 93.3796,140.998 93.6667,139.842 93.9537,139.48 94.2407,140.635 94.5278,141.79 94.8148,142.946 95.1019,144.101 95.3889,145.256 95.6759,146.412 95.963,147.567 96.25,148.722 96.537,149.878 96.8241,151.033 97.1111,152.188 97.3981,153.344 97.6852,154.499 97.9722,155.654 98.2593,156.81 98.5463,157.965 98.8333,159.12 99.1204,160.276 99.4074,161.431 99.6944,162.586 99.9815,163.742 100.269,164.897 100.556,166.053 100.843,167.208 101.13,168.363 101.417,169.519 101.704,170.674 101.991,171.829 102.278,172.985 102.565,174.14 102.852,175.295 103.139,176.451 103.426,177.606 103.713,178.761 104,179.917 104.287,179.917 104.574,179.917 104.861,179.917 105.148,179.917 105.435,179.917 105.722,179.917 106.009,179.917 106.296,179.917 106.583,179.917 106.87,179.917 107.157,179.917 107.444,179.917 107.731,179.917 108.019,179.917 108.306,179.917 108.593,179.917 108.88,179.917 109.167,179.917 109.454,179.917 109.741,179.917 110.028,179.917 110.315,179.917 110.602,179.917 110.889,179.917 111.176,179.917 111.463,179.917 111.75,179.917 112.037,179.917 112.324,179.917 112.611,179.917 112.898,179.917 113.185,179.917 113.472,179.917 113.759,179.917 114.046,179.917 114.333,179.917 114.62,179.917 114.907,179.917 115.194,179.917 115.481,179.917 115.769,179.917 116.056,179.917 116.343,179.917 116.63,179.917 116.917,179.917 117.204,179.917 117.491,179.917 117.778,179.917 118.065,179.917 118.352,179.917 118.639,179.917 118.926,179.917 119.213,179.917 119.5,179.917 119.787,179.917 120.074,179.917 120.361,179.917 120.648,179.917 120.935,179.917 121.222,179.917 121.509,179.917 121.796,179.917 122.083,179.917 122.37,179.917 122.657,179.917 122.944,179.917 123.231,179.917 123.519,179.917 123.806,179.917 124.093,179.917 124.38,179.917 124.667,179.917 124.954,179.917 125.241,179.917 125.528,179.917 125.815,179.917 126.102,179.917 126.389,179.917 126.676,179.917 126.963,179.917 127.25,179.917 127.537,179.917 127.824,179.917 128.111,179.917 128.398,179.917 128.685,179.917 128.972,179.917 129.259,179.917 129.546,179.917 129.833,179.917 " />
</g>

<g fill="none" stroke="#edb120" stroke-opacity="1" stroke-width="0.666667" stroke-linecap="butt" stroke-linejoin="round" transform="matrix(0.75,0,0,0.75,-38.625,-26)"
font-family="TeXGyreTermes" font-size="13" font-weight="400" font-style="normal" 
>
<polyline fill="none" vector-effect="none" points="78.1667,179.917 78.4537,179.917 78.7407,179.917 79.0278,179.917 79.3148,179.917 79.6019,179.917 79.8889,179.917 80.1759,179.917 80.463,179.917 80.75,179.917 81.037,179.917 81.3241,179.917 81.6111,179.917 81.8981,179.917 82.1852,179.917 82.4722,179.917 82.7593,179.917 83.0463,179.917 83.3333,179.917 83.6204,179.917 83.9074,179.917 84.1944,179.917 84.4815,179.917 84.7685,179.917 85.0556,179.917 85.3426,179.917 85.6296,179.917 85.9167,179.917 86.2037,179.917 86.4907,179.917 86.7778,179.917 87.0648,179.917 87.3519,179.917 87.6389,179.917 87.9259,179.917 88.213,179.917 88.5,179.917 88.787,179.917 89.0741,179.917 89.3611,179.917 89.6481,179.917 89.9352,179.917 90.2222,179.917 90.5093,179.917 90.7963,179.917 91.0833,179.917 91.3704,179.917 91.6574,179.917 91.9444,179.917 92.2315,179.917 92.5185,179.917 92.8056,179.917 93.0926,179.917 93.3796,179.917 93.6667,179.917 93.9537,179.52 94.2407,178.365 94.5278,177.21 94.8148,176.054 95.1019,174.899 95.3889,173.744 95.6759,172.588 95.963,171.433 96.25,170.278 96.537,169.122 96.8241,167.967 97.1111,166.812 97.3981,165.656 97.6852,164.501 97.9722,163.346 98.2593,162.19 98.5463,161.035 98.8333,159.88 99.1204,158.724 99.4074,157.569 99.6944,156.414 99.9815,155.258 100.269,154.103 100.556,152.947 100.843,151.792 101.13,150.637 101.417,149.481 101.704,148.326 101.991,147.171 102.278,146.015 102.565,144.86 102.852,143.705 103.139,142.549 103.426,141.394 103.713,140.239 104,139.083 104.287,140.239 104.574,141.394 104.861,142.549 105.148,143.705 105.435,144.86 105.722,146.015 106.009,147.171 106.296,148.326 106.583,149.481 106.87,150.637 107.157,151.792 107.444,152.947 107.731,154.103 108.019,155.258 108.306,156.414 108.593,157.569 108.88,158.724 109.167,159.88 109.454,161.035 109.741,162.19 110.028,163.346 110.315,164.501 110.602,165.656 110.889,166.812 111.176,167.967 111.463,169.122 111.75,170.278 112.037,171.433 112.324,172.588 112.611,173.744 112.898,174.899 113.185,176.054 113.472,177.21 113.759,178.365 114.046,179.52 114.333,179.917 114.62,179.917 114.907,179.917 115.194,179.917 115.481,179.917 115.769,179.917 116.056,179.917 116.343,179.917 116.63,179.917 116.917,179.917 117.204,179.917 117.491,179.917 117.778,179.917 118.065,179.917 118.352,179.917 118.639,179.917 118.926,179.917 119.213,179.917 119.5,179.917 119.787,179.917 120.074,179.917 120.361,179.917 120.648,179.917 120.935,179.917 121.222,179.917 121.509,179.917 121.796,179.917 122.083,179.917 122.37,179.917 122.657,179.917 122.944,179.917 123.231,179.917 123.519,179.917 123.806,179.917 124.093,179.917 124.38,179.917 124.667,179.917 124.954,179.917 125.241,179.917 125.528,179.917 125.815,179.917 126.102,179.917 126.389,179.917 126.676,179.917 126.963,179.917 127.25,179.917 127.537,179.917 127.824,179.917 128.111,179.917 128.398,179.917 128.685,179.917 128.972,179.917 129.259,179.917 129.546,179.917 129.833,179.917 " />
</g>

<g fill="none" stroke="#8516d1" stroke-opacity="1" stroke-width="0.666667" stroke-linecap="butt" stroke-linejoin="round" transform="matrix(0.75,0,0,0.75,-38.625,-26)"
font-family="TeXGyreTermes" font-size="13" font-weight="400" font-style="normal" 
>
<polyline fill="none" vector-effect="none" points="78.1667,179.917 78.4537,179.917 78.7407,179.917 79.0278,179.917 79.3148,179.917 79.6019,179.917 79.8889,179.917 80.1759,179.917 80.463,179.917 80.75,179.917 81.037,179.917 81.3241,179.917 81.6111,179.917 81.8981,179.917 82.1852,179.917 82.4722,179.917 82.7593,179.917 83.0463,179.917 83.3333,179.917 83.6204,179.917 83.9074,179.917 84.1944,179.917 84.4815,179.917 84.7685,179.917 85.0556,179.917 85.3426,179.917 85.6296,179.917 85.9167,179.917 86.2037,179.917 86.4907,179.917 86.7778,179.917 87.0648,179.917 87.3519,179.917 87.6389,179.917 87.9259,179.917 88.213,179.917 88.5,179.917 88.787,179.917 89.0741,179.917 89.3611,179.917 89.6481,179.917 89.9352,179.917 90.2222,179.917 90.5093,179.917 90.7963,179.917 91.0833,179.917 91.3704,179.917 91.6574,179.917 91.9444,179.917 92.2315,179.917 92.5185,179.917 92.8056,179.917 93.0926,179.917 93.3796,179.917 93.6667,179.917 93.9537,179.917 94.2407,179.917 94.5278,179.917 94.8148,179.917 95.1019,179.917 95.3889,179.917 95.6759,179.917 95.963,179.917 96.25,179.917 96.537,179.917 96.8241,179.917 97.1111,179.917 97.3981,179.917 97.6852,179.917 97.9722,179.917 98.2593,179.917 98.5463,179.917 98.8333,179.917 99.1204,179.917 99.4074,179.917 99.6944,179.917 99.9815,179.917 100.269,179.917 100.556,179.917 100.843,179.917 101.13,179.917 101.417,179.917 101.704,179.917 101.991,179.917 102.278,179.917 102.565,179.917 102.852,179.917 103.139,179.917 103.426,179.917 103.713,179.917 104,179.917 104.287,178.761 104.574,177.606 104.861,176.451 105.148,175.295 105.435,174.14 105.722,172.985 106.009,171.829 106.296,170.674 106.583,169.519 106.87,168.363 107.157,167.208 107.444,166.053 107.731,164.897 108.019,163.742 108.306,162.586 108.593,161.431 108.88,160.276 109.167,159.12 109.454,157.965 109.741,156.81 110.028,155.654 110.315,154.499 110.602,153.344 110.889,152.188 111.176,151.033 111.463,149.878 111.75,148.722 112.037,147.567 112.324,146.412 112.611,145.256 112.898,144.101 113.185,142.946 113.472,141.79 113.759,140.635 114.046,139.48 114.333,139.842 114.62,140.998 114.907,142.153 115.194,143.309 115.481,144.464 115.769,145.619 116.056,146.775 116.343,147.93 116.63,149.085 116.917,150.241 117.204,151.396 117.491,152.551 117.778,153.707 118.065,154.862 118.352,156.017 118.639,157.173 118.926,158.328 119.213,159.483 119.5,160.639 119.787,161.794 120.074,162.949 120.361,164.105 120.648,165.26 120.935,166.415 121.222,167.571 121.509,168.726 121.796,169.882 122.083,171.037 122.37,172.192 122.657,173.348 122.944,174.503 123.231,175.658 123.519,176.814 123.806,177.969 124.093,179.124 124.38,179.917 124.667,179.917 124.954,179.917 125.241,179.917 125.528,179.917 125.815,179.917 126.102,179.917 126.389,179.917 126.676,179.917 126.963,179.917 127.25,179.917 127.537,179.917 127.824,179.917 128.111,179.917 128.398,179.917 128.685,179.917 128.972,179.917 129.259,179.917 129.546,179.917 129.833,179.917 " />
</g>

<g fill="none" stroke="#3baa32" stroke-opacity="1" stroke-width="0.666667" stroke-linecap="butt" stroke-linejoin="round" transform="matrix(0.75,0,0,0.75,-38.625,-26)"
font-family="TeXGyreTermes" font-size="13" font-weight="400" font-style="normal" 
>
<polyline fill="none" vector-effect="none" points="78.1667,179.917 78.4537,179.917 78.7407,179.917 79.0278,179.917 79.3148,179.917 79.6019,179.917 79.8889,179.917 80.1759,179.917 80.463,179.917 80.75,179.917 81.037,179.917 81.3241,179.917 81.6111,179.917 81.8981,179.917 82.1852,179.917 82.4722,179.917 82.7593,179.917 83.0463,179.917 83.3333,179.917 83.6204,179.917 83.9074,179.917 84.1944,179.917 84.4815,179.917 84.7685,179.917 85.0556,179.917 85.3426,179.917 85.6296,179.917 85.9167,179.917 86.2037,179.917 86.4907,179.917 86.7778,179.917 87.0648,179.917 87.3519,179.917 87.6389,179.917 87.9259,179.917 88.213,179.917 88.5,179.917 88.787,179.917 89.0741,179.917 89.3611,179.917 89.6481,179.917 89.9352,179.917 90.2222,179.917 90.5093,179.917 90.7963,179.917 91.0833,179.917 91.3704,179.917 91.6574,179.917 91.9444,179.917 92.2315,179.917 92.5185,179.917 92.8056,179.917 93.0926,179.917 93.3796,179.917 93.6667,179.917 93.9537,179.917 94.2407,179.917 94.5278,179.917 94.8148,179.917 95.1019,179.917 95.3889,179.917 95.6759,179.917 95.963,179.917 96.25,179.917 96.537,179.917 96.8241,179.917 97.1111,179.917 97.3981,179.917 97.6852,179.917 97.9722,179.917 98.2593,179.917 98.5463,179.917 98.8333,179.917 99.1204,179.917 99.4074,179.917 99.6944,179.917 99.9815,179.917 100.269,179.917 100.556,179.917 100.843,179.917 101.13,179.917 101.417,179.917 101.704,179.917 101.991,179.917 102.278,179.917 102.565,179.917 102.852,179.917 103.139,179.917 103.426,179.917 103.713,179.917 104,179.917 104.287,179.917 104.574,179.917 104.861,179.917 105.148,179.917 105.435,179.917 105.722,179.917 106.009,179.917 106.296,179.917 106.583,179.917 106.87,179.917 107.157,179.917 107.444,179.917 107.731,179.917 108.019,179.917 108.306,179.917 108.593,179.917 108.88,179.917 109.167,179.917 109.454,179.917 109.741,179.917 110.028,179.917 110.315,179.917 110.602,179.917 110.889,179.917 111.176,179.917 111.463,179.917 111.75,179.917 112.037,179.917 112.324,179.917 112.611,179.917 112.898,179.917 113.185,179.917 113.472,179.917 113.759,179.917 114.046,179.917 114.333,179.158 114.62,178.002 114.907,176.847 115.194,175.691 115.481,174.536 115.769,173.381 116.056,172.225 116.343,171.07 116.63,169.915 116.917,168.759 117.204,167.604 117.491,166.449 117.778,165.293 118.065,164.138 118.352,162.983 118.639,161.827 118.926,160.672 119.213,159.517 119.5,158.361 119.787,157.206 120.074,156.051 120.361,154.895 120.648,153.74 120.935,152.585 121.222,151.429 121.509,150.274 121.796,149.118 122.083,147.963 122.37,146.808 122.657,145.652 122.944,144.497 123.231,143.342 123.519,142.186 123.806,141.031 124.093,139.876 124.38,139.083 124.667,139.083 124.954,139.083 125.241,139.083 125.528,139.083 125.815,139.083 126.102,139.083 126.389,139.083 126.676,139.083 126.963,139.083 127.25,139.083 127.537,139.083 127.824,139.083 128.111,139.083 128.398,139.083 128.685,139.083 128.972,139.083 129.259,139.083 129.546,139.083 129.833,139.083 " />
</g>

<g fill="#ffffff" fill-opacity="1" stroke="none" transform="matrix(7.5e-05,0,0,7.5e-05,-38.625,-26)"
font-family="TeXGyreTermes" font-size="13" font-weight="400" font-style="normal" 
>
<path vector-effect="none" fill-rule="evenodd" d="M2.79e+06,830000 L2.79e+06,1.48e+06 L3.41e+06,1.48e+06 L3.41e+06,830000 L2.79e+06,830000"/>
</g>

<g fill="#212121" fill-opacity="1" stroke="#212121" stroke-opacity="1" stroke-width="1" stroke-linecap="square" stroke-linejoin="bevel" transform="matrix(0.75,0,0,0.75,177.375,99.5)"
font-family="TeXGyreTermes" font-size="13" font-weight="400" font-style="normal" 
>
<text fill="#212121" fill-opacity="1" stroke="none" xml:space="preserve" x="0" y="0" font-family="TeXGyreTermes" font-size="13" font-weight="400" font-style="normal" 
 >force (5)</text>
</g>

<g fill="#212121" fill-opacity="1" stroke="#212121" stroke-opacity="1" stroke-width="2.66667" stroke-linecap="square" stroke-linejoin="round" transform="matrix(0.75,0,0,0.75,-38.625,-26)"
font-family="TeXGyreTermes" font-size="13" font-weight="400" font-style="normal" 
>
<polyline fill="none" vector-effect="none" points="279,148 341,148 " />
<polyline fill="none" vector-effect="none" points="279,83 341,83 " />
<polyline fill="none" vector-effect="none" points="279,148 279,83 " />
<polyline fill="none" vector-effect="none" points="341,148 341,83 " />
</g>

<g fill="none" stroke="#1171be" stroke-opacity="1" stroke-width="0.666667" stroke-linecap="butt" stroke-linejoin="round" transform="matrix(0.75,0,0,0.75,-38.625,-26)"
font-family="TeXGyreTermes" font-size="13" font-weight="400" font-style="normal" 
>
<polyline fill="none" vector-effect="none" points="284.167,142.583 284.454,140.778 284.741,138.972 285.028,137.167 285.315,135.361 285.602,133.556 285.889,131.75 286.176,129.944 286.463,128.139 286.75,126.333 287.037,124.528 287.324,122.722 287.611,120.917 287.898,119.111 288.185,117.306 288.472,115.5 288.759,113.694 289.046,111.889 289.333,110.083 289.62,108.278 289.907,106.472 290.194,104.667 290.481,102.861 290.769,101.056 291.056,99.25 291.343,97.4444 291.63,95.6389 291.917,93.8333 292.204,92.0278 292.491,90.2222 292.778,88.4167 293.065,90.2222 293.352,92.0278 293.639,93.8333 293.926,95.6389 294.213,97.4444 294.5,99.25 294.787,101.056 295.074,102.861 295.361,104.667 295.648,106.472 295.935,108.278 296.222,110.083 296.509,111.889 296.796,113.694 297.083,115.5 297.37,117.306 297.657,119.111 297.944,120.917 298.231,122.722 298.519,124.528 298.806,126.333 299.093,128.139 299.38,129.944 299.667,131.75 299.954,133.556 300.241,135.361 300.528,137.167 300.815,138.972 301.102,140.778 301.389,142.583 301.676,142.583 301.963,142.583 302.25,142.583 302.537,142.583 302.824,142.583 303.111,142.583 303.398,142.583 303.685,142.583 303.972,142.583 304.259,142.583 304.546,142.583 304.833,142.583 305.12,142.583 305.407,142.583 305.694,142.583 305.981,142.583 306.269,142.583 306.556,142.583 306.843,142.583 307.13,142.583 307.417,142.583 307.704,142.583 307.991,142.583 308.278,142.583 308.565,142.583 308.852,142.583 309.139,142.583 309.426,142.583 309.713,142.583 310,142.583 310.287,142.583 310.574,142.583 310.861,142.583 311.148,142.583 311.435,142.583 311.722,142.583 312.009,142.583 312.296,142.583 312.583,142.583 312.87,142.583 313.157,142.583 313.444,142.583 313.731,142.583 314.019,142.583 314.306,142.583 314.593,142.583 314.88,142.583 315.167,142.583 315.454,142.583 315.741,142.583 316.028,142.583 316.315,142.583 316.602,142.583 316.889,142.583 317.176,142.583 317.463,142.583 317.75,142.583 318.037,142.583 318.324,142.583 318.611,142.583 318.898,142.583 319.185,142.583 319.472,142.583 319.759,142.583 320.046,142.583 320.333,142.583 320.62,142.583 320.907,142.583 321.194,142.583 321.481,142.583 321.769,142.583 322.056,142.583 322.343,142.583 322.63,142.583 322.917,142.583 323.204,142.583 323.491,142.583 323.778,142.583 324.065,142.583 324.352,142.583 324.639,142.583 324.926,142.583 325.213,142.583 325.5,142.583 325.787,142.583 326.074,142.583 326.361,142.583 326.648,142.583 326.935,142.583 327.222,142.583 327.509,142.583 327.796,142.583 328.083,142.583 328.37,142.583 328.657,142.583 328.944,142.583 329.231,142.583 329.519,142.583 329.806,142.583 330.093,142.583 330.38,142.583 330.667,142.583 330.954,142.583 331.241,142.583 331.528,142.583 331.815,142.583 332.102,142.583 332.389,142.583 332.676,142.583 332.963,142.583 333.25,142.583 333.537,142.583 333.824,142.583 334.111,142.583 334.398,142.583 334.685,142.583 334.972,142.583 335.259,142.583 335.546,142.583 335.833,142.583 " />
</g>

<g fill="none" stroke="#dd5400" stroke-opacity="1" stroke-width="0.666667" stroke-linecap="butt" stroke-linejoin="round" transform="matrix(0.75,0,0,0.75,-38.625,-26)"
font-family="TeXGyreTermes" font-size="13" font-weight="400" font-style="normal" 
>
<polyline fill="none" vector-effect="none" points="284.167,142.583 284.454,142.583 284.741,142.583 285.028,142.583 285.315,142.583 285.602,142.583 285.889,142.583 286.176,142.583 286.463,142.583 286.75,142.583 287.037,142.583 287.324,142.583 287.611,142.583 287.898,142.583 288.185,142.583 288.472,142.583 288.759,142.583 289.046,142.583 289.333,142.583 289.62,142.583 289.907,142.583 290.194,142.583 290.481,142.583 290.769,142.583 291.056,142.583 291.343,142.583 291.63,142.583 291.917,142.583 292.204,142.583 292.491,142.583 292.778,142.583 293.065,140.778 293.352,138.972 293.639,137.167 293.926,135.361 294.213,133.556 294.5,131.75 294.787,129.944 295.074,128.139 295.361,126.333 295.648,124.528 295.935,122.722 296.222,120.917 296.509,119.111 296.796,117.306 297.083,115.5 297.37,113.694 297.657,111.889 297.944,110.083 298.231,108.278 298.519,106.472 298.806,104.667 299.093,102.861 299.38,101.056 299.667,99.25 299.954,97.4444 300.241,95.6389 300.528,93.8333 300.815,92.0278 301.102,90.2222 301.389,88.4167 301.676,90.2222 301.963,92.0278 302.25,93.8333 302.537,95.6389 302.824,97.4444 303.111,99.25 303.398,101.056 303.685,102.861 303.972,104.667 304.259,106.472 304.546,108.278 304.833,110.083 305.12,111.889 305.407,113.694 305.694,115.5 305.981,117.306 306.269,119.111 306.556,120.917 306.843,122.722 307.13,124.528 307.417,126.333 307.704,128.139 307.991,129.944 308.278,131.75 308.565,133.556 308.852,135.361 309.139,137.167 309.426,138.972 309.713,140.778 310,142.583 310.287,142.583 310.574,142.583 310.861,142.583 311.148,142.583 311.435,142.583 311.722,142.583 312.009,142.583 312.296,142.583 312.583,142.583 312.87,142.583 313.157,142.583 313.444,142.583 313.731,142.583 314.019,142.583 314.306,142.583 314.593,142.583 314.88,142.583 315.167,142.583 315.454,142.583 315.741,142.583 316.028,142.583 316.315,142.583 316.602,142.583 316.889,142.583 317.176,142.583 317.463,142.583 317.75,142.583 318.037,142.583 318.324,142.583 318.611,142.583 318.898,142.583 319.185,142.583 319.472,142.583 319.759,142.583 320.046,142.583 320.333,142.583 320.62,142.583 320.907,142.583 321.194,142.583 321.481,142.583 321.769,142.583 322.056,142.583 322.343,142.583 322.63,142.583 322.917,142.583 323.204,142.583 323.491,142.583 323.778,142.583 324.065,142.583 324.352,142.583 324.639,142.583 324.926,142.583 325.213,142.583 325.5,142.583 325.787,142.583 326.074,142.583 326.361,142.583 326.648,142.583 326.935,142.583 327.222,142.583 327.509,142.583 327.796,142.583 328.083,142.583 328.37,142.583 328.657,142.583 328.944,142.583 329.231,142.583 329.519,142.583 329.806,142.583 330.093,142.583 330.38,142.583 330.667,142.583 330.954,142.583 331.241,142.583 331.528,142.583 331.815,142.583 332.102,142.583 332.389,142.583 332.676,142.583 332.963,142.583 333.25,142.583 333.537,142.583 333.824,142.583 334.111,142.583 334.398,142.583 334.685,142.583 334.972,142.583 335.259,142.583 335.546,142.583 335.833,142.583 " />
</g>

<g fill="none" stroke="#edb120" stroke-opacity="1" stroke-width="0.666667" stroke-linecap="butt" stroke-linejoin="round" transform="matrix(0.75,0,0,0.75,-38.625,-26)"
font-family="TeXGyreTermes" font-size="13" font-weight="400" font-style="normal" 
>
<polyline fill="none" vector-effect="none" points="284.167,142.583 284.454,142.583 284.741,142.583 285.028,142.583 285.315,142.583 285.602,142.583 285.889,142.583 286.176,142.583 286.463,142.583 286.75,142.583 287.037,142.583 287.324,142.583 287.611,142.583 287.898,142.583 288.185,142.583 288.472,142.583 288.759,142.583 289.046,142.583 289.333,142.583 289.62,142.583 289.907,142.583 290.194,142.583 290.481,142.583 290.769,142.583 291.056,142.583 291.343,142.583 291.63,142.583 291.917,142.583 292.204,142.583 292.491,142.583 292.778,142.583 293.065,142.583 293.352,142.583 293.639,142.583 293.926,142.583 294.213,142.583 294.5,142.583 294.787,142.583 295.074,142.583 295.361,142.583 295.648,142.583 295.935,142.583 296.222,142.583 296.509,142.583 296.796,142.583 297.083,142.583 297.37,142.583 297.657,142.583 297.944,142.583 298.231,142.583 298.519,142.583 298.806,142.583 299.093,142.583 299.38,142.583 299.667,142.583 299.954,142.583 300.241,142.583 300.528,142.583 300.815,142.583 301.102,142.583 301.389,142.583 301.676,140.778 301.963,138.972 302.25,137.167 302.537,135.361 302.824,133.556 303.111,131.75 303.398,129.944 303.685,128.139 303.972,126.333 304.259,124.528 304.546,122.722 304.833,120.917 305.12,119.111 305.407,117.306 305.694,115.5 305.981,113.694 306.269,111.889 306.556,110.083 306.843,108.278 307.13,106.472 307.417,104.667 307.704,102.861 307.991,101.056 308.278,99.25 308.565,97.4444 308.852,95.6389 309.139,93.8333 309.426,92.0278 309.713,90.2222 310,88.4167 310.287,90.2222 310.574,92.0278 310.861,93.8333 311.148,95.6389 311.435,97.4444 311.722,99.25 312.009,101.056 312.296,102.861 312.583,104.667 312.87,106.472 313.157,108.278 313.444,110.083 313.731,111.889 314.019,113.694 314.306,115.5 314.593,117.306 314.88,119.111 315.167,120.917 315.454,122.722 315.741,124.528 316.028,126.333 316.315,128.139 316.602,129.944 316.889,131.75 317.176,133.556 317.463,135.361 317.75,137.167 318.037,138.972 318.324,140.778 318.611,142.583 318.898,142.583 319.185,142.583 319.472,142.583 319.759,142.583 320.046,142.583 320.333,142.583 320.62,142.583 320.907,142.583 321.194,142.583 321.481,142.583 321.769,142.583 322.056,142.583 322.343,142.583 322.63,142.583 322.917,142.583 323.204,142.583 323.491,142.583 323.778,142.583 324.065,142.583 324.352,142.583 324.639,142.583 324.926,142.583 325.213,142.583 325.5,142.583 325.787,142.583 326.074,142.583 326.361,142.583 326.648,142.583 326.935,142.583 327.222,142.583 327.509,142.583 327.796,142.583 328.083,142.583 328.37,142.583 328.657,142.583 328.944,142.583 329.231,142.583 329.519,142.583 329.806,142.583 330.093,142.583 330.38,142.583 330.667,142.583 330.954,142.583 331.241,142.583 331.528,142.583 331.815,142.583 332.102,142.583 332.389,142.583 332.676,142.583 332.963,142.583 333.25,142.583 333.537,142.583 333.824,142.583 334.111,142.583 334.398,142.583 334.685,142.583 334.972,142.583 335.259,142.583 335.546,142.583 335.833,142.583 " />
</g>

<g fill="none" stroke="#8516d1" stroke-opacity="1" stroke-width="0.666667" stroke-linecap="butt" stroke-linejoin="round" transform="matrix(0.75,0,0,0.75,-38.625,-26)"
font-family="TeXGyreTermes" font-size="13" font-weight="400" font-style="normal" 
>
<polyline fill="none" vector-effect="none" points="284.167,142.583 284.454,142.583 284.741,142.583 285.028,142.583 285.315,142.583 285.602,142.583 285.889,142.583 286.176,142.583 286.463,142.583 286.75,142.583 287.037,142.583 287.324,142.583 287.611,142.583 287.898,142.583 288.185,142.583 288.472,142.583 288.759,142.583 289.046,142.583 289.333,142.583 289.62,142.583 289.907,142.583 290.194,142.583 290.481,142.583 290.769,142.583 291.056,142.583 291.343,142.583 291.63,142.583 291.917,142.583 292.204,142.583 292.491,142.583 292.778,142.583 293.065,142.583 293.352,142.583 293.639,142.583 293.926,142.583 294.213,142.583 294.5,142.583 294.787,142.583 295.074,142.583 295.361,142.583 295.648,142.583 295.935,142.583 296.222,142.583 296.509,142.583 296.796,142.583 297.083,142.583 297.37,142.583 297.657,142.583 297.944,142.583 298.231,142.583 298.519,142.583 298.806,142.583 299.093,142.583 299.38,142.583 299.667,142.583 299.954,142.583 300.241,142.583 300.528,142.583 300.815,142.583 301.102,142.583 301.389,142.583 301.676,142.583 301.963,142.583 302.25,142.583 302.537,142.583 302.824,142.583 303.111,142.583 303.398,142.583 303.685,142.583 303.972,142.583 304.259,142.583 304.546,142.583 304.833,142.583 305.12,142.583 305.407,142.583 305.694,142.583 305.981,142.583 306.269,142.583 306.556,142.583 306.843,142.583 307.13,142.583 307.417,142.583 307.704,142.583 307.991,142.583 308.278,142.583 308.565,142.583 308.852,142.583 309.139,142.583 309.426,142.583 309.713,142.583 310,142.583 310.287,140.778 310.574,138.972 310.861,137.167 311.148,135.361 311.435,133.556 311.722,131.75 312.009,129.944 312.296,128.139 312.583,126.333 312.87,124.528 313.157,122.722 313.444,120.917 313.731,119.111 314.019,117.306 314.306,115.5 314.593,113.694 314.88,111.889 315.167,110.083 315.454,108.278 315.741,106.472 316.028,104.667 316.315,102.861 316.602,101.056 316.889,99.25 317.176,97.4444 317.463,95.6389 317.75,93.8333 318.037,92.0278 318.324,90.2222 318.611,88.4167 318.898,90.2222 319.185,92.0278 319.472,93.8333 319.759,95.6389 320.046,97.4444 320.333,99.25 320.62,101.056 320.907,102.861 321.194,104.667 321.481,106.472 321.769,108.278 322.056,110.083 322.343,111.889 322.63,113.694 322.917,115.5 323.204,117.306 323.491,119.111 323.778,120.917 324.065,122.722 324.352,124.528 324.639,126.333 324.926,128.139 325.213,129.944 325.5,131.75 325.787,133.556 326.074,135.361 326.361,137.167 326.648,138.972 326.935,140.778 327.222,142.583 327.509,142.583 327.796,142.583 328.083,142.583 328.37,142.583 328.657,142.583 328.944,142.583 329.231,142.583 329.519,142.583 329.806,142.583 330.093,142.583 330.38,142.583 330.667,142.583 330.954,142.583 331.241,142.583 331.528,142.583 331.815,142.583 332.102,142.583 332.389,142.583 332.676,142.583 332.963,142.583 333.25,142.583 333.537,142.583 333.824,142.583 334.111,142.583 334.398,142.583 334.685,142.583 334.972,142.583 335.259,142.583 335.546,142.583 335.833,142.583 " />
</g>

<g fill="none" stroke="#3baa32" stroke-opacity="1" stroke-width="0.666667" stroke-linecap="butt" stroke-linejoin="round" transform="matrix(0.75,0,0,0.75,-38.625,-26)"
font-family="TeXGyreTermes" font-size="13" font-weight="400" font-style="normal" 
>
<polyline fill="none" vector-effect="none" points="284.167,142.583 284.454,142.583 284.741,142.583 285.028,142.583 285.315,142.583 285.602,142.583 285.889,142.583 286.176,142.583 286.463,142.583 286.75,142.583 287.037,142.583 287.324,142.583 287.611,142.583 287.898,142.583 288.185,142.583 288.472,142.583 288.759,142.583 289.046,142.583 289.333,142.583 289.62,142.583 289.907,142.583 290.194,142.583 290.481,142.583 290.769,142.583 291.056,142.583 291.343,142.583 291.63,142.583 291.917,142.583 292.204,142.583 292.491,142.583 292.778,142.583 293.065,142.583 293.352,142.583 293.639,142.583 293.926,142.583 294.213,142.583 294.5,142.583 294.787,142.583 295.074,142.583 295.361,142.583 295.648,142.583 295.935,142.583 296.222,142.583 296.509,142.583 296.796,142.583 297.083,142.583 297.37,142.583 297.657,142.583 297.944,142.583 298.231,142.583 298.519,142.583 298.806,142.583 299.093,142.583 299.38,142.583 299.667,142.583 299.954,142.583 300.241,142.583 300.528,142.583 300.815,142.583 301.102,142.583 301.389,142.583 301.676,142.583 301.963,142.583 302.25,142.583 302.537,142.583 302.824,142.583 303.111,142.583 303.398,142.583 303.685,142.583 303.972,142.583 304.259,142.583 304.546,142.583 304.833,142.583 305.12,142.583 305.407,142.583 305.694,142.583 305.981,142.583 306.269,142.583 306.556,142.583 306.843,142.583 307.13,142.583 307.417,142.583 307.704,142.583 307.991,142.583 308.278,142.583 308.565,142.583 308.852,142.583 309.139,142.583 309.426,142.583 309.713,142.583 310,142.583 310.287,142.583 310.574,142.583 310.861,142.583 311.148,142.583 311.435,142.583 311.722,142.583 312.009,142.583 312.296,142.583 312.583,142.583 312.87,142.583 313.157,142.583 313.444,142.583 313.731,142.583 314.019,142.583 314.306,142.583 314.593,142.583 314.88,142.583 315.167,142.583 315.454,142.583 315.741,142.583 316.028,142.583 316.315,142.583 316.602,142.583 316.889,142.583 317.176,142.583 317.463,142.583 317.75,142.583 318.037,142.583 318.324,142.583 318.611,142.583 318.898,140.778 319.185,138.972 319.472,137.167 319.759,135.361 320.046,133.556 320.333,131.75 320.62,129.944 320.907,128.139 321.194,126.333 321.481,124.528 321.769,122.722 322.056,120.917 322.343,119.111 322.63,117.306 322.917,115.5 323.204,113.694 323.491,111.889 323.778,110.083 324.065,108.278 324.352,106.472 324.639,104.667 324.926,102.861 325.213,101.056 325.5,99.25 325.787,97.4444 326.074,95.6389 326.361,93.8333 326.648,92.0278 326.935,90.2222 327.222,88.4167 327.509,90.2222 327.796,92.0278 328.083,93.8333 328.37,95.6389 328.657,97.4444 328.944,99.25 329.231,101.056 329.519,102.861 329.806,104.667 330.093,106.472 330.38,108.278 330.667,110.083 330.954,111.889 331.241,113.694 331.528,115.5 331.815,117.306 332.102,119.111 332.389,120.917 332.676,122.722 332.963,124.528 333.25,126.333 333.537,128.139 333.824,129.944 334.111,131.75 334.398,133.556 334.685,135.361 334.972,137.167 335.259,138.972 335.546,140.778 335.833,142.583 " />
</g>

<g fill="#ffffff" fill-opacity="1" stroke="none" transform="matrix(7.5e-05,0,0,7.5e-05,-38.625,-26)"
font-family="TeXGyreTermes" font-size="13" font-weight="400" font-style="normal" 
>
<path vector-effect="none" fill-rule="evenodd" d="M1.76e+06,670000 L1.76e+06,1.65e+06 L2.38e+06,1.65e+06 L2.38e+06,670000 L1.76e+06,670000"/>
</g>

<g fill="#212121" fill-opacity="1" stroke="#212121" stroke-opacity="1" stroke-width="1" stroke-linecap="square" stroke-linejoin="bevel" transform="matrix(0.75,0,0,0.75,69.75,112.25)"
font-family="TeXGyreTermes" font-size="13" font-weight="400" font-style="normal" 
>
<text fill="#212121" fill-opacity="1" stroke="none" xml:space="preserve" x="0" y="0" font-family="TeXGyreTermes" font-size="13" font-weight="400" font-style="normal" 
 >triangular_25rules (25)</text>
</g>

<g fill="#212121" fill-opacity="1" stroke="#212121" stroke-opacity="1" stroke-width="2.66667" stroke-linecap="square" stroke-linejoin="round" transform="matrix(0.75,0,0,0.75,-38.625,-26)"
font-family="TeXGyreTermes" font-size="13" font-weight="400" font-style="normal" 
>
<polyline fill="none" vector-effect="none" points="176,165 238,165 " />
<polyline fill="none" vector-effect="none" points="176,67 238,67 " />
<polyline fill="none" vector-effect="none" points="176,165 176,67 " />
<polyline fill="none" vector-effect="none" points="238,165 238,67 " />
</g>

<g fill="#212121" fill-opacity="1" stroke="#212121" stroke-opacity="1" stroke-width="1" stroke-linecap="square" stroke-linejoin="bevel" transform="matrix(0.75,0,0,0.75,97.125,58.375)"
font-family="TeXGyreTermes" font-size="13" font-weight="400" font-style="normal" 
>
<text fill="#212121" fill-opacity="1" stroke="none" xml:space="preserve" x="0" y="0" font-family="TeXGyreTermes" font-size="13" font-weight="400" font-style="normal" 
 >Mamdani</text>
</g>

<g fill="#212121" fill-opacity="1" stroke="#212121" stroke-opacity="1" stroke-width="1" stroke-linecap="square" stroke-linejoin="bevel" transform="matrix(0.75,0,0,0.75,102.75,71.125)"
font-family="TeXGyreTermes" font-size="13" font-weight="400" font-style="normal" 
>
<text fill="#212121" fill-opacity="1" stroke="none" xml:space="preserve" x="0" y="0" font-family="TeXGyreTermes" font-size="13" font-weight="400" font-style="normal" 
 >Type 1</text>
</g>
</g>
</svg>
