<?xml version="1.0" encoding="UTF-8" standalone="no"?>
<svg width="94.5444mm" height="49.3889mm"
 viewBox="0 0 268 140"
 xmlns="http://www.w3.org/2000/svg" xmlns:xlink="http://www.w3.org/1999/xlink"  version="1.2" baseProfile="tiny">
<title>Qt SVG Document</title>
<desc>MATLAB, The MathWorks, Inc. Version 25.2.0.3123386 R2025b Update 3</desc>
<defs>
</defs>
<g fill="none" stroke="black" stroke-width="1" fill-rule="evenodd" stroke-linecap="square" stroke-linejoin="bevel" >

<g fill="#ffffff" fill-opacity="1" stroke="none" transform="matrix(0.75,0,0,0.75,-10.2,-9.75)"
font-family="MS Shell Dlg 2" font-size="8.25" font-weight="400" font-style="normal" 
>
<path vector-effect="none" fill-rule="evenodd" d="M12,11 L370,11 L370,199 L12,199 L12,11"/>
</g>

<g fill="#ffffff" fill-opacity="1" stroke="none" transform="matrix(7.5e-05,0,0,7.5e-05,-10.2,-9.75)"
font-family="MS Shell Dlg 2" font-size="8.25" font-weight="400" font-style="normal" 
>
<path vector-effect="none" fill-rule="evenodd" d="M520000,150000 L520000,1.67e+06 L3.62e+06,1.67e+06 L3.62e+06,150000 L520000,150000"/>
</g>

<g fill="#212121" fill-opacity="1" stroke="#212121" stroke-opacity="1" stroke-width="1" stroke-linecap="square" stroke-linejoin="bevel" transform="matrix(0.75,0,0,0.75,134.175,138.3)"
font-family="Helvetica" font-size="13" font-weight="400" font-style="normal" 
>
<text fill="#212121" fill-opacity="1" stroke="none" xml:space="preserve" x="0" y="0" font-family="Helvetica" font-size="13" font-weight="400" font-style="normal" 
 >force</text>
</g>

<g fill="#212121" fill-opacity="1" stroke="#212121" stroke-opacity="1" stroke-width="0.666667" stroke-linecap="square" stroke-linejoin="round" transform="matrix(0.75,0,0,0.75,-10.2,-9.75)"
font-family="Helvetica" font-size="13" font-weight="400" font-style="normal" 
>
<polyline fill="none" vector-effect="none" points="52,167 362,167 " />
<polyline fill="none" vector-effect="none" points="52,15 362,15 " />
<polyline fill="none" vector-effect="none" points="52,167 52,163.9 " />
<polyline fill="none" vector-effect="none" points="52,18.1 52,15 " />
<polyline fill="none" vector-effect="none" points="103.667,167 103.667,163.9 " />
<polyline fill="none" vector-effect="none" points="103.667,18.1 103.667,15 " />
<polyline fill="none" vector-effect="none" points="155.333,167 155.333,163.9 " />
<polyline fill="none" vector-effect="none" points="155.333,18.1 155.333,15 " />
<polyline fill="none" vector-effect="none" points="207,167 207,163.9 " />
<polyline fill="none" vector-effect="none" points="207,18.1 207,15 " />
<polyline fill="none" vector-effect="none" points="258.667,167 258.667,163.9 " />
<polyline fill="none" vector-effect="none" points="258.667,18.1 258.667,15 " />
<polyline fill="none" vector-effect="none" points="310.333,167 310.333,163.9 " />
<polyline fill="none" vector-effect="none" points="310.333,18.1 310.333,15 " />
<polyline fill="none" vector-effect="none" points="362,167 362,163.9 " />
<polyline fill="none" vector-effect="none" points="362,18.1 362,15 " />
</g>

<g fill="#212121" fill-opacity="1" stroke="#212121" stroke-opacity="1" stroke-width="1" stroke-linecap="square" stroke-linejoin="bevel" transform="matrix(0.75,0,0,0.75,22.05,126.55)"
font-family="Helvetica" font-size="12" font-weight="400" font-style="normal" 
>
<text fill="#212121" fill-opacity="1" stroke="none" xml:space="preserve" x="0" y="0" font-family="Helvetica" font-size="12" font-weight="400" font-style="normal" 
 >-30</text>
</g>

<g fill="#212121" fill-opacity="1" stroke="#212121" stroke-opacity="1" stroke-width="1" stroke-linecap="square" stroke-linejoin="bevel" transform="matrix(0.75,0,0,0.75,60.8,126.55)"
font-family="Helvetica" font-size="12" font-weight="400" font-style="normal" 
>
<text fill="#212121" fill-opacity="1" stroke="none" xml:space="preserve" x="0" y="0" font-family="Helvetica" font-size="12" font-weight="400" font-style="normal" 
 >-20</text>
</g>

<g fill="#212121" fill-opacity="1" stroke="#212121" stroke-opacity="1" stroke-width="1" stroke-linecap="square" stroke-linejoin="bevel" transform="matrix(0.75,0,0,0.75,99.55,126.55)"
font-family="Helvetica" font-size="12" font-weight="400" font-style="normal" 
>
<text fill="#212121" fill-opacity="1" stroke="none" xml:space="preserve" x="0" y="0" font-family="Helvetica" font-size="12" font-weight="400" font-style="normal" 
 >-10</text>
</g>

<g fill="#212121" fill-opacity="1" stroke="#212121" stroke-opacity="1" stroke-width="1" stroke-linecap="square" stroke-linejoin="bevel" transform="matrix(0.75,0,0,0.75,142.425,126.55)"
font-family="Helvetica" font-size="12" font-weight="400" font-style="normal" 
>
<text fill="#212121" fill-opacity="1" stroke="none" xml:space="preserve" x="0" y="0" font-family="Helvetica" font-size="12" font-weight="400" font-style="normal" 
 >0</text>
</g>

<g fill="#212121" fill-opacity="1" stroke="#212121" stroke-opacity="1" stroke-width="1" stroke-linecap="square" stroke-linejoin="bevel" transform="matrix(0.75,0,0,0.75,178.55,126.55)"
font-family="Helvetica" font-size="12" font-weight="400" font-style="normal" 
>
<text fill="#212121" fill-opacity="1" stroke="none" xml:space="preserve" x="0" y="0" font-family="Helvetica" font-size="12" font-weight="400" font-style="normal" 
 >10</text>
</g>

<g fill="#212121" fill-opacity="1" stroke="#212121" stroke-opacity="1" stroke-width="1" stroke-linecap="square" stroke-linejoin="bevel" transform="matrix(0.75,0,0,0.75,217.3,126.55)"
font-family="Helvetica" font-size="12" font-weight="400" font-style="normal" 
>
<text fill="#212121" fill-opacity="1" stroke="none" xml:space="preserve" x="0" y="0" font-family="Helvetica" font-size="12" font-weight="400" font-style="normal" 
 >20</text>
</g>

<g fill="#212121" fill-opacity="1" stroke="#212121" stroke-opacity="1" stroke-width="1" stroke-linecap="square" stroke-linejoin="bevel" transform="matrix(0.75,0,0,0.75,256.05,126.55)"
font-family="Helvetica" font-size="12" font-weight="400" font-style="normal" 
>
<text fill="#212121" fill-opacity="1" stroke="none" xml:space="preserve" x="0" y="0" font-family="Helvetica" font-size="12" font-weight="400" font-style="normal" 
 >30</text>
</g>

<g fill="#212121" fill-opacity="1" stroke="#212121" stroke-opacity="1" stroke-width="1" stroke-linecap="square" stroke-linejoin="bevel" transform="matrix(0,-0.75,0.75,0,8.25,107.625)"
font-family="Helvetica" font-size="13" font-weight="400" font-style="normal" 
>
<text fill="#212121" fill-opacity="1" stroke="none" xml:space="preserve" x="0" y="0" font-family="Helvetica" font-size="13" font-weight="400" font-style="normal" 
 >Degree of membership</text>
</g>

<g fill="#212121" fill-opacity="1" stroke="#212121" stroke-opacity="1" stroke-width="0.666667" stroke-linecap="square" stroke-linejoin="round" transform="matrix(0.75,0,0,0.75,-10.2,-9.75)"
font-family="Helvetica" font-size="13" font-weight="400" font-style="normal" 
>
<polyline fill="none" vector-effect="none" points="52,167 52,15 " />
<polyline fill="none" vector-effect="none" points="362,167 362,15 " />
<polyline fill="none" vector-effect="none" points="52,154.333 55.1,154.333 " />
<polyline fill="none" vector-effect="none" points="358.9,154.333 362,154.333 " />
<polyline fill="none" vector-effect="none" points="52,129 55.1,129 " />
<polyline fill="none" vector-effect="none" points="358.9,129 362,129 " />
<polyline fill="none" vector-effect="none" points="52,103.667 55.1,103.667 " />
<polyline fill="none" vector-effect="none" points="358.9,103.667 362,103.667 " />
<polyline fill="none" vector-effect="none" points="52,78.3333 55.1,78.3333 " />
<polyline fill="none" vector-effect="none" points="358.9,78.3333 362,78.3333 " />
<polyline fill="none" vector-effect="none" points="52,53 55.1,53 " />
<polyline fill="none" vector-effect="none" points="358.9,53 362,53 " />
<polyline fill="none" vector-effect="none" points="52,27.6667 55.1,27.6667 " />
<polyline fill="none" vector-effect="none" points="358.9,27.6667 362,27.6667 " />
</g>

<g fill="#212121" fill-opacity="1" stroke="#212121" stroke-opacity="1" stroke-width="1" stroke-linecap="square" stroke-linejoin="bevel" transform="matrix(0.75,0,0,0.75,20.75,109)"
font-family="Helvetica" font-size="12" font-weight="400" font-style="normal" 
>
<text fill="#212121" fill-opacity="1" stroke="none" xml:space="preserve" x="0" y="0" font-family="Helvetica" font-size="12" font-weight="400" font-style="normal" 
 >0</text>
</g>

<g fill="#212121" fill-opacity="1" stroke="#212121" stroke-opacity="1" stroke-width="1" stroke-linecap="square" stroke-linejoin="bevel" transform="matrix(0.75,0,0,0.75,13.25,90)"
font-family="Helvetica" font-size="12" font-weight="400" font-style="normal" 
>
<text fill="#212121" fill-opacity="1" stroke="none" xml:space="preserve" x="0" y="0" font-family="Helvetica" font-size="12" font-weight="400" font-style="normal" 
 >0.2</text>
</g>

<g fill="#212121" fill-opacity="1" stroke="#212121" stroke-opacity="1" stroke-width="1" stroke-linecap="square" stroke-linejoin="bevel" transform="matrix(0.75,0,0,0.75,13.25,71)"
font-family="Helvetica" font-size="12" font-weight="400" font-style="normal" 
>
<text fill="#212121" fill-opacity="1" stroke="none" xml:space="preserve" x="0" y="0" font-family="Helvetica" font-size="12" font-weight="400" font-style="normal" 
 >0.4</text>
</g>

<g fill="#212121" fill-opacity="1" stroke="#212121" stroke-opacity="1" stroke-width="1" stroke-linecap="square" stroke-linejoin="bevel" transform="matrix(0.75,0,0,0.75,13.25,52)"
font-family="Helvetica" font-size="12" font-weight="400" font-style="normal" 
>
<text fill="#212121" fill-opacity="1" stroke="none" xml:space="preserve" x="0" y="0" font-family="Helvetica" font-size="12" font-weight="400" font-style="normal" 
 >0.6</text>
</g>

<g fill="#212121" fill-opacity="1" stroke="#212121" stroke-opacity="1" stroke-width="1" stroke-linecap="square" stroke-linejoin="bevel" transform="matrix(0.75,0,0,0.75,13.25,33)"
font-family="Helvetica" font-size="12" font-weight="400" font-style="normal" 
>
<text fill="#212121" fill-opacity="1" stroke="none" xml:space="preserve" x="0" y="0" font-family="Helvetica" font-size="12" font-weight="400" font-style="normal" 
 >0.8</text>
</g>

<g fill="#212121" fill-opacity="1" stroke="#212121" stroke-opacity="1" stroke-width="1" stroke-linecap="square" stroke-linejoin="bevel" transform="matrix(0.75,0,0,0.75,20.75,14)"
font-family="Helvetica" font-size="12" font-weight="400" font-style="normal" 
>
<text fill="#212121" fill-opacity="1" stroke="none" xml:space="preserve" x="0" y="0" font-family="Helvetica" font-size="12" font-weight="400" font-style="normal" 
 >1</text>
</g>

<g fill="none" stroke="#1171be" stroke-opacity="1" stroke-width="0.666667" stroke-linecap="butt" stroke-linejoin="round" transform="matrix(0.75,0,0,0.75,-10.2,-9.75)"
font-family="Helvetica" font-size="12" font-weight="400" font-style="normal" 
>
<polyline fill="none" vector-effect="none" points="52,154.333 53.7222,150.111 55.4444,145.889 57.1667,141.667 58.8889,137.444 60.6111,133.222 62.3333,129 64.0556,124.778 65.7778,120.556 67.5,116.333 69.2222,112.111 70.9444,107.889 72.6667,103.667 74.3889,99.4444 76.1111,95.2222 77.8333,91 79.5556,86.7778 81.2778,82.5556 83,78.3333 84.7222,74.1111 86.4444,69.8889 88.1667,65.6667 89.8889,61.4444 91.6111,57.2222 93.3333,53 95.0556,48.7778 96.7778,44.5556 98.5,40.3333 100.222,36.1111 101.944,31.8889 103.667,27.6667 105.389,31.8889 107.111,36.1111 108.833,40.3333 110.556,44.5556 112.278,48.7778 114,53 115.722,57.2222 117.444,61.4444 119.167,65.6667 120.889,69.8889 122.611,74.1111 124.333,78.3333 126.056,82.5556 127.778,86.7778 129.5,91 131.222,95.2222 132.944,99.4444 134.667,103.667 136.389,107.889 138.111,112.111 139.833,116.333 141.556,120.556 143.278,124.778 145,129 146.722,133.222 148.444,137.444 150.167,141.667 151.889,145.889 153.611,150.111 155.333,154.333 157.056,154.333 158.778,154.333 160.5,154.333 162.222,154.333 163.944,154.333 165.667,154.333 167.389,154.333 169.111,154.333 170.833,154.333 172.556,154.333 174.278,154.333 176,154.333 177.722,154.333 179.444,154.333 181.167,154.333 182.889,154.333 184.611,154.333 186.333,154.333 188.056,154.333 189.778,154.333 191.5,154.333 193.222,154.333 194.944,154.333 196.667,154.333 198.389,154.333 200.111,154.333 201.833,154.333 203.556,154.333 205.278,154.333 207,154.333 208.722,154.333 210.444,154.333 212.167,154.333 213.889,154.333 215.611,154.333 217.333,154.333 219.056,154.333 220.778,154.333 222.5,154.333 224.222,154.333 225.944,154.333 227.667,154.333 229.389,154.333 231.111,154.333 232.833,154.333 234.556,154.333 236.278,154.333 238,154.333 239.722,154.333 241.444,154.333 243.167,154.333 244.889,154.333 246.611,154.333 248.333,154.333 250.056,154.333 251.778,154.333 253.5,154.333 255.222,154.333 256.944,154.333 258.667,154.333 260.389,154.333 262.111,154.333 263.833,154.333 265.556,154.333 267.278,154.333 269,154.333 270.722,154.333 272.444,154.333 274.167,154.333 275.889,154.333 277.611,154.333 279.333,154.333 281.056,154.333 282.778,154.333 284.5,154.333 286.222,154.333 287.944,154.333 289.667,154.333 291.389,154.333 293.111,154.333 294.833,154.333 296.556,154.333 298.278,154.333 300,154.333 301.722,154.333 303.444,154.333 305.167,154.333 306.889,154.333 308.611,154.333 310.333,154.333 312.056,154.333 313.778,154.333 315.5,154.333 317.222,154.333 318.944,154.333 320.667,154.333 322.389,154.333 324.111,154.333 325.833,154.333 327.556,154.333 329.278,154.333 331,154.333 332.722,154.333 334.444,154.333 336.167,154.333 337.889,154.333 339.611,154.333 341.333,154.333 343.056,154.333 344.778,154.333 346.5,154.333 348.222,154.333 349.944,154.333 351.667,154.333 353.389,154.333 355.111,154.333 356.833,154.333 358.556,154.333 360.278,154.333 362,154.333 " />
</g>

<g fill="none" stroke="#dd5400" stroke-opacity="1" stroke-width="0.666667" stroke-linecap="butt" stroke-linejoin="round" transform="matrix(0.75,0,0,0.75,-10.2,-9.75)"
font-family="Helvetica" font-size="12" font-weight="400" font-style="normal" 
>
<polyline fill="none" vector-effect="none" points="52,154.333 53.7222,154.333 55.4444,154.333 57.1667,154.333 58.8889,154.333 60.6111,154.333 62.3333,154.333 64.0556,154.333 65.7778,154.333 67.5,154.333 69.2222,154.333 70.9444,154.333 72.6667,154.333 74.3889,154.333 76.1111,154.333 77.8333,154.333 79.5556,154.333 81.2778,154.333 83,154.333 84.7222,154.333 86.4444,154.333 88.1667,154.333 89.8889,154.333 91.6111,154.333 93.3333,154.333 95.0556,154.333 96.7778,154.333 98.5,154.333 100.222,154.333 101.944,154.333 103.667,154.333 105.389,150.111 107.111,145.889 108.833,141.667 110.556,137.444 112.278,133.222 114,129 115.722,124.778 117.444,120.556 119.167,116.333 120.889,112.111 122.611,107.889 124.333,103.667 126.056,99.4444 127.778,95.2222 129.5,91 131.222,86.7778 132.944,82.5556 134.667,78.3333 136.389,74.1111 138.111,69.8889 139.833,65.6667 141.556,61.4444 143.278,57.2222 145,53 146.722,48.7778 148.444,44.5556 150.167,40.3333 151.889,36.1111 153.611,31.8889 155.333,27.6667 157.056,31.8889 158.778,36.1111 160.5,40.3333 162.222,44.5556 163.944,48.7778 165.667,53 167.389,57.2222 169.111,61.4444 170.833,65.6667 172.556,69.8889 174.278,74.1111 176,78.3333 177.722,82.5556 179.444,86.7778 181.167,91 182.889,95.2222 184.611,99.4444 186.333,103.667 188.056,107.889 189.778,112.111 191.5,116.333 193.222,120.556 194.944,124.778 196.667,129 198.389,133.222 200.111,137.444 201.833,141.667 203.556,145.889 205.278,150.111 207,154.333 208.722,154.333 210.444,154.333 212.167,154.333 213.889,154.333 215.611,154.333 217.333,154.333 219.056,154.333 220.778,154.333 222.5,154.333 224.222,154.333 225.944,154.333 227.667,154.333 229.389,154.333 231.111,154.333 232.833,154.333 234.556,154.333 236.278,154.333 238,154.333 239.722,154.333 241.444,154.333 243.167,154.333 244.889,154.333 246.611,154.333 248.333,154.333 250.056,154.333 251.778,154.333 253.5,154.333 255.222,154.333 256.944,154.333 258.667,154.333 260.389,154.333 262.111,154.333 263.833,154.333 265.556,154.333 267.278,154.333 269,154.333 270.722,154.333 272.444,154.333 274.167,154.333 275.889,154.333 277.611,154.333 279.333,154.333 281.056,154.333 282.778,154.333 284.5,154.333 286.222,154.333 287.944,154.333 289.667,154.333 291.389,154.333 293.111,154.333 294.833,154.333 296.556,154.333 298.278,154.333 300,154.333 301.722,154.333 303.444,154.333 305.167,154.333 306.889,154.333 308.611,154.333 310.333,154.333 312.056,154.333 313.778,154.333 315.5,154.333 317.222,154.333 318.944,154.333 320.667,154.333 322.389,154.333 324.111,154.333 325.833,154.333 327.556,154.333 329.278,154.333 331,154.333 332.722,154.333 334.444,154.333 336.167,154.333 337.889,154.333 339.611,154.333 341.333,154.333 343.056,154.333 344.778,154.333 346.5,154.333 348.222,154.333 349.944,154.333 351.667,154.333 353.389,154.333 355.111,154.333 356.833,154.333 358.556,154.333 360.278,154.333 362,154.333 " />
</g>

<g fill="none" stroke="#edb120" stroke-opacity="1" stroke-width="0.666667" stroke-linecap="butt" stroke-linejoin="round" transform="matrix(0.75,0,0,0.75,-10.2,-9.75)"
font-family="Helvetica" font-size="12" font-weight="400" font-style="normal" 
>
<polyline fill="none" vector-effect="none" points="52,154.333 53.7222,154.333 55.4444,154.333 57.1667,154.333 58.8889,154.333 60.6111,154.333 62.3333,154.333 64.0556,154.333 65.7778,154.333 67.5,154.333 69.2222,154.333 70.9444,154.333 72.6667,154.333 74.3889,154.333 76.1111,154.333 77.8333,154.333 79.5556,154.333 81.2778,154.333 83,154.333 84.7222,154.333 86.4444,154.333 88.1667,154.333 89.8889,154.333 91.6111,154.333 93.3333,154.333 95.0556,154.333 96.7778,154.333 98.5,154.333 100.222,154.333 101.944,154.333 103.667,154.333 105.389,154.333 107.111,154.333 108.833,154.333 110.556,154.333 112.278,154.333 114,154.333 115.722,154.333 117.444,154.333 119.167,154.333 120.889,154.333 122.611,154.333 124.333,154.333 126.056,154.333 127.778,154.333 129.5,154.333 131.222,154.333 132.944,154.333 134.667,154.333 136.389,154.333 138.111,154.333 139.833,154.333 141.556,154.333 143.278,154.333 145,154.333 146.722,154.333 148.444,154.333 150.167,154.333 151.889,154.333 153.611,154.333 155.333,154.333 157.056,150.111 158.778,145.889 160.5,141.667 162.222,137.444 163.944,133.222 165.667,129 167.389,124.778 169.111,120.556 170.833,116.333 172.556,112.111 174.278,107.889 176,103.667 177.722,99.4444 179.444,95.2222 181.167,91 182.889,86.7778 184.611,82.5556 186.333,78.3333 188.056,74.1111 189.778,69.8889 191.5,65.6667 193.222,61.4444 194.944,57.2222 196.667,53 198.389,48.7778 200.111,44.5556 201.833,40.3333 203.556,36.1111 205.278,31.8889 207,27.6667 208.722,31.8889 210.444,36.1111 212.167,40.3333 213.889,44.5556 215.611,48.7778 217.333,53 219.056,57.2222 220.778,61.4444 222.5,65.6667 224.222,69.8889 225.944,74.1111 227.667,78.3333 229.389,82.5556 231.111,86.7778 232.833,91 234.556,95.2222 236.278,99.4444 238,103.667 239.722,107.889 241.444,112.111 243.167,116.333 244.889,120.556 246.611,124.778 248.333,129 250.056,133.222 251.778,137.444 253.5,141.667 255.222,145.889 256.944,150.111 258.667,154.333 260.389,154.333 262.111,154.333 263.833,154.333 265.556,154.333 267.278,154.333 269,154.333 270.722,154.333 272.444,154.333 274.167,154.333 275.889,154.333 277.611,154.333 279.333,154.333 281.056,154.333 282.778,154.333 284.5,154.333 286.222,154.333 287.944,154.333 289.667,154.333 291.389,154.333 293.111,154.333 294.833,154.333 296.556,154.333 298.278,154.333 300,154.333 301.722,154.333 303.444,154.333 305.167,154.333 306.889,154.333 308.611,154.333 310.333,154.333 312.056,154.333 313.778,154.333 315.5,154.333 317.222,154.333 318.944,154.333 320.667,154.333 322.389,154.333 324.111,154.333 325.833,154.333 327.556,154.333 329.278,154.333 331,154.333 332.722,154.333 334.444,154.333 336.167,154.333 337.889,154.333 339.611,154.333 341.333,154.333 343.056,154.333 344.778,154.333 346.5,154.333 348.222,154.333 349.944,154.333 351.667,154.333 353.389,154.333 355.111,154.333 356.833,154.333 358.556,154.333 360.278,154.333 362,154.333 " />
</g>

<g fill="none" stroke="#8516d1" stroke-opacity="1" stroke-width="0.666667" stroke-linecap="butt" stroke-linejoin="round" transform="matrix(0.75,0,0,0.75,-10.2,-9.75)"
font-family="Helvetica" font-size="12" font-weight="400" font-style="normal" 
>
<polyline fill="none" vector-effect="none" points="52,154.333 53.7222,154.333 55.4444,154.333 57.1667,154.333 58.8889,154.333 60.6111,154.333 62.3333,154.333 64.0556,154.333 65.7778,154.333 67.5,154.333 69.2222,154.333 70.9444,154.333 72.6667,154.333 74.3889,154.333 76.1111,154.333 77.8333,154.333 79.5556,154.333 81.2778,154.333 83,154.333 84.7222,154.333 86.4444,154.333 88.1667,154.333 89.8889,154.333 91.6111,154.333 93.3333,154.333 95.0556,154.333 96.7778,154.333 98.5,154.333 100.222,154.333 101.944,154.333 103.667,154.333 105.389,154.333 107.111,154.333 108.833,154.333 110.556,154.333 112.278,154.333 114,154.333 115.722,154.333 117.444,154.333 119.167,154.333 120.889,154.333 122.611,154.333 124.333,154.333 126.056,154.333 127.778,154.333 129.5,154.333 131.222,154.333 132.944,154.333 134.667,154.333 136.389,154.333 138.111,154.333 139.833,154.333 141.556,154.333 143.278,154.333 145,154.333 146.722,154.333 148.444,154.333 150.167,154.333 151.889,154.333 153.611,154.333 155.333,154.333 157.056,154.333 158.778,154.333 160.5,154.333 162.222,154.333 163.944,154.333 165.667,154.333 167.389,154.333 169.111,154.333 170.833,154.333 172.556,154.333 174.278,154.333 176,154.333 177.722,154.333 179.444,154.333 181.167,154.333 182.889,154.333 184.611,154.333 186.333,154.333 188.056,154.333 189.778,154.333 191.5,154.333 193.222,154.333 194.944,154.333 196.667,154.333 198.389,154.333 200.111,154.333 201.833,154.333 203.556,154.333 205.278,154.333 207,154.333 208.722,150.111 210.444,145.889 212.167,141.667 213.889,137.444 215.611,133.222 217.333,129 219.056,124.778 220.778,120.556 222.5,116.333 224.222,112.111 225.944,107.889 227.667,103.667 229.389,99.4444 231.111,95.2222 232.833,91 234.556,86.7778 236.278,82.5556 238,78.3333 239.722,74.1111 241.444,69.8889 243.167,65.6667 244.889,61.4444 246.611,57.2222 248.333,53 250.056,48.7778 251.778,44.5556 253.5,40.3333 255.222,36.1111 256.944,31.8889 258.667,27.6667 260.389,31.8889 262.111,36.1111 263.833,40.3333 265.556,44.5556 267.278,48.7778 269,53 270.722,57.2222 272.444,61.4444 274.167,65.6667 275.889,69.8889 277.611,74.1111 279.333,78.3333 281.056,82.5556 282.778,86.7778 284.5,91 286.222,95.2222 287.944,99.4444 289.667,103.667 291.389,107.889 293.111,112.111 294.833,116.333 296.556,120.556 298.278,124.778 300,129 301.722,133.222 303.444,137.444 305.167,141.667 306.889,145.889 308.611,150.111 310.333,154.333 312.056,154.333 313.778,154.333 315.5,154.333 317.222,154.333 318.944,154.333 320.667,154.333 322.389,154.333 324.111,154.333 325.833,154.333 327.556,154.333 329.278,154.333 331,154.333 332.722,154.333 334.444,154.333 336.167,154.333 337.889,154.333 339.611,154.333 341.333,154.333 343.056,154.333 344.778,154.333 346.5,154.333 348.222,154.333 349.944,154.333 351.667,154.333 353.389,154.333 355.111,154.333 356.833,154.333 358.556,154.333 360.278,154.333 362,154.333 " />
</g>

<g fill="none" stroke="#3baa32" stroke-opacity="1" stroke-width="0.666667" stroke-linecap="butt" stroke-linejoin="round" transform="matrix(0.75,0,0,0.75,-10.2,-9.75)"
font-family="Helvetica" font-size="12" font-weight="400" font-style="normal" 
>
<polyline fill="none" vector-effect="none" points="52,154.333 53.7222,154.333 55.4444,154.333 57.1667,154.333 58.8889,154.333 60.6111,154.333 62.3333,154.333 64.0556,154.333 65.7778,154.333 67.5,154.333 69.2222,154.333 70.9444,154.333 72.6667,154.333 74.3889,154.333 76.1111,154.333 77.8333,154.333 79.5556,154.333 81.2778,154.333 83,154.333 84.7222,154.333 86.4444,154.333 88.1667,154.333 89.8889,154.333 91.6111,154.333 93.3333,154.333 95.0556,154.333 96.7778,154.333 98.5,154.333 100.222,154.333 101.944,154.333 103.667,154.333 105.389,154.333 107.111,154.333 108.833,154.333 110.556,154.333 112.278,154.333 114,154.333 115.722,154.333 117.444,154.333 119.167,154.333 120.889,154.333 122.611,154.333 124.333,154.333 126.056,154.333 127.778,154.333 129.5,154.333 131.222,154.333 132.944,154.333 134.667,154.333 136.389,154.333 138.111,154.333 139.833,154.333 141.556,154.333 143.278,154.333 145,154.333 146.722,154.333 148.444,154.333 150.167,154.333 151.889,154.333 153.611,154.333 155.333,154.333 157.056,154.333 158.778,154.333 160.5,154.333 162.222,154.333 163.944,154.333 165.667,154.333 167.389,154.333 169.111,154.333 170.833,154.333 172.556,154.333 174.278,154.333 176,154.333 177.722,154.333 179.444,154.333 181.167,154.333 182.889,154.333 184.611,154.333 186.333,154.333 188.056,154.333 189.778,154.333 191.5,154.333 193.222,154.333 194.944,154.333 196.667,154.333 198.389,154.333 200.111,154.333 201.833,154.333 203.556,154.333 205.278,154.333 207,154.333 208.722,154.333 210.444,154.333 212.167,154.333 213.889,154.333 215.611,154.333 217.333,154.333 219.056,154.333 220.778,154.333 222.5,154.333 224.222,154.333 225.944,154.333 227.667,154.333 229.389,154.333 231.111,154.333 232.833,154.333 234.556,154.333 236.278,154.333 238,154.333 239.722,154.333 241.444,154.333 243.167,154.333 244.889,154.333 246.611,154.333 248.333,154.333 250.056,154.333 251.778,154.333 253.5,154.333 255.222,154.333 256.944,154.333 258.667,154.333 260.389,150.111 262.111,145.889 263.833,141.667 265.556,137.444 267.278,133.222 269,129 270.722,124.778 272.444,120.556 274.167,116.333 275.889,112.111 277.611,107.889 279.333,103.667 281.056,99.4444 282.778,95.2222 284.5,91 286.222,86.7778 287.944,82.5556 289.667,78.3333 291.389,74.1111 293.111,69.8889 294.833,65.6667 296.556,61.4444 298.278,57.2222 300,53 301.722,48.7778 303.444,44.5556 305.167,40.3333 306.889,36.1111 308.611,31.8889 310.333,27.6667 312.056,31.8889 313.778,36.1111 315.5,40.3333 317.222,44.5556 318.944,48.7778 320.667,53 322.389,57.2222 324.111,61.4444 325.833,65.6667 327.556,69.8889 329.278,74.1111 331,78.3333 332.722,82.5556 334.444,86.7778 336.167,91 337.889,95.2222 339.611,99.4444 341.333,103.667 343.056,107.889 344.778,112.111 346.5,116.333 348.222,120.556 349.944,124.778 351.667,129 353.389,133.222 355.111,137.444 356.833,141.667 358.556,145.889 360.278,150.111 362,154.333 " />
</g>

<g fill="#212121" fill-opacity="1" stroke="#212121" stroke-opacity="1" stroke-width="1" stroke-linecap="square" stroke-linejoin="bevel" transform="matrix(0.75,0,0,0.75,49.175,9.62501)"
font-family="Helvetica" font-size="13" font-weight="400" font-style="normal" 
>
<text fill="#212121" fill-opacity="1" stroke="none" xml:space="preserve" x="0" y="0" font-family="Helvetica" font-size="13" font-weight="400" font-style="normal" 
 >neglarge</text>
</g>

<g fill="#212121" fill-opacity="1" stroke="#212121" stroke-opacity="1" stroke-width="1" stroke-linecap="square" stroke-linejoin="bevel" transform="matrix(0.75,0,0,0.75,86.8,9.62501)"
font-family="Helvetica" font-size="13" font-weight="400" font-style="normal" 
>
<text fill="#212121" fill-opacity="1" stroke="none" xml:space="preserve" x="0" y="0" font-family="Helvetica" font-size="13" font-weight="400" font-style="normal" 
 >negsmall</text>
</g>

<g fill="#212121" fill-opacity="1" stroke="#212121" stroke-opacity="1" stroke-width="1" stroke-linecap="square" stroke-linejoin="bevel" transform="matrix(0.75,0,0,0.75,135.675,9.62501)"
font-family="Helvetica" font-size="13" font-weight="400" font-style="normal" 
>
<text fill="#212121" fill-opacity="1" stroke="none" xml:space="preserve" x="0" y="0" font-family="Helvetica" font-size="13" font-weight="400" font-style="normal" 
 >zero</text>
</g>

<g fill="#212121" fill-opacity="1" stroke="#212121" stroke-opacity="1" stroke-width="1" stroke-linecap="square" stroke-linejoin="bevel" transform="matrix(0.75,0,0,0.75,164.3,9.62501)"
font-family="Helvetica" font-size="13" font-weight="400" font-style="normal" 
>
<text fill="#212121" fill-opacity="1" stroke="none" xml:space="preserve" x="0" y="0" font-family="Helvetica" font-size="13" font-weight="400" font-style="normal" 
 >possmall</text>
</g>

<g fill="#212121" fill-opacity="1" stroke="#212121" stroke-opacity="1" stroke-width="1" stroke-linecap="square" stroke-linejoin="bevel" transform="matrix(0.75,0,0,0.75,204.175,9.62501)"
font-family="Helvetica" font-size="13" font-weight="400" font-style="normal" 
>
<text fill="#212121" fill-opacity="1" stroke="none" xml:space="preserve" x="0" y="0" font-family="Helvetica" font-size="13" font-weight="400" font-style="normal" 
 >poslarge</text>
</g>
</g>
</svg>
